Connected to database!
Tables created
Connection closed
reading fileeeee:  Etude-in-C-Opus-10-Nr-1.mid
midi_file_path:
        Midi msg: MetaMessage('set_tempo', tempo=500000, time=0)
tempo change!!!!:  500000
        Midi msg: MetaMessage('time_signature', numerator=4, denominator=4, clocks_per_click=24, notated_32nd_notes_per_beat=8, time=0)
        Midi msg: MetaMessage('track_name', name='A.PIANO 1', time=0)
        Midi msg: MetaMessage('track_name', name='GS/RESET', time=0)
        Midi msg: sysex data=(65,16,66,18,64,0,127,0,65) time=0
        Midi msg: sysex data=(65,16,66,18,64,0,127,0,65) time=0
        Midi msg: program_change channel=0 program=0 time=1.5
        Midi msg: control_change channel=0 control=7 value=127 time=0
        Midi msg: note_on channel=0 note=36 velocity=97 time=0.5
        Midi msg: note_on channel=0 note=48 velocity=83 time=0.1640625
        Midi msg: control_change channel=0 control=64 value=127 time=0.04427083333333333
        Midi msg: note_off channel=0 note=48 velocity=0 time=0.028645833333333332
        Midi msg: note_on channel=0 note=55 velocity=78 time=0.057291666666666664
        Midi msg: note_on channel=0 note=60 velocity=75 time=0.09895833333333333
        Midi msg: note_off channel=0 note=55 velocity=0 time=0.0026041666666666665
        Midi msg: note_on channel=0 note=64 velocity=85 time=0.09114583333333333
        Midi msg: note_off channel=0 note=60 velocity=0 time=0.018229166666666664
        Midi msg: note_off channel=0 note=64 velocity=0 time=0.013020833333333332
        Midi msg: note_on channel=0 note=60 velocity=88 time=0.057291666666666664
        Midi msg: note_off channel=0 note=60 velocity=0 time=0.07291666666666666
        Midi msg: note_on channel=0 note=67 velocity=97 time=0.028645833333333332
        Midi msg: note_off channel=0 note=67 velocity=0 time=0.10416666666666666
        Midi msg: note_on channel=0 note=72 velocity=98 time=0.005208333333333333
        Midi msg: note_on channel=0 note=76 velocity=86 time=0.08333333333333333
        Midi msg: note_off channel=0 note=72 velocity=0 time=0.03125
        Midi msg: note_off channel=0 note=76 velocity=0 time=0.005208333333333333
        Midi msg: note_on channel=0 note=72 velocity=94 time=0.06770833333333333
        Midi msg: note_off channel=0 note=72 velocity=0 time=0.04427083333333333
        Midi msg: note_on channel=0 note=79 velocity=101 time=0.028645833333333332
        Midi msg: note_on channel=0 note=84 velocity=100 time=0.09635416666666666
        Midi msg: note_off channel=0 note=79 velocity=0 time=0.010416666666666666
        Midi msg: note_on channel=0 note=88 velocity=82 time=0.078125
        Midi msg: note_off channel=0 note=84 velocity=0 time=0.018229166666666664
        Midi msg: note_off channel=0 note=88 velocity=0 time=0.015625
        Midi msg: note_on channel=0 note=84 velocity=98 time=0.0546875
        Midi msg: note_off channel=0 note=84 velocity=0 time=0.0625
        Midi msg: note_on channel=0 note=91 velocity=97 time=0.010416666666666666
        Midi msg: note_off channel=0 note=91 velocity=0 time=0.1015625
        Midi msg: note_on channel=0 note=96 velocity=85 time=0
        Midi msg: note_on channel=0 note=48 velocity=91 time=0.09635416666666666
        Midi msg: note_off channel=0 note=96 velocity=0 time=0.0026041666666666665
        Midi msg: note_on channel=0 note=100 velocity=87 time=0
        Midi msg: note_off channel=0 note=100 velocity=0 time=0.05989583333333333
        Midi msg: note_on channel=0 note=96 velocity=81 time=0.028645833333333332
        Midi msg: note_off channel=0 note=96 velocity=0 time=0.0625
        Midi msg: note_on channel=0 note=91 velocity=89 time=0.033854166666666664
        Midi msg: note_off channel=0 note=91 velocity=0 time=0.05208333333333333
        Midi msg: note_on channel=0 note=84 velocity=79 time=0.0390625
        Midi msg: note_off channel=0 note=84 velocity=0 time=0.04427083333333333
        Midi msg: note_on channel=0 note=88 velocity=89 time=0.0625
        Midi msg: note_off channel=0 note=88 velocity=0 time=0.08072916666666666
        Midi msg: note_on channel=0 note=84 velocity=77 time=0.005208333333333333
        Midi msg: note_off channel=0 note=84 velocity=0 time=0.06510416666666666
        Midi msg: note_on channel=0 note=79 velocity=84 time=0.026041666666666664
        Midi msg: note_off channel=0 note=79 velocity=0 time=0.041666666666666664
        Midi msg: note_on channel=0 note=72 velocity=87 time=0.04427083333333333
        Midi msg: note_off channel=0 note=72 velocity=0 time=0.04427083333333333
        Midi msg: note_on channel=0 note=76 velocity=92 time=0.05989583333333333
        Midi msg: note_off channel=0 note=76 velocity=0 time=0.09895833333333333
        Midi msg: note_on channel=0 note=72 velocity=80 time=0.005208333333333333
        Midi msg: note_off channel=0 note=72 velocity=0 time=0.05208333333333333
        Midi msg: note_on channel=0 note=67 velocity=84 time=0.033854166666666664
        Midi msg: note_off channel=0 note=67 velocity=0 time=0.041666666666666664
        Midi msg: note_on channel=0 note=60 velocity=69 time=0.06510416666666666
        Midi msg: note_off channel=0 note=60 velocity=0 time=0.046875
        Midi msg: note_off channel=0 note=48 velocity=0 time=0.0078125
        Midi msg: note_on channel=0 note=64 velocity=91 time=0.041666666666666664
        Midi msg: note_off channel=0 note=36 velocity=0 time=0.057291666666666664
        Midi msg: note_off channel=0 note=64 velocity=0 time=0.057291666666666664
        Midi msg: note_on channel=0 note=60 velocity=69 time=0.013020833333333332
        Midi msg: note_on channel=0 note=55 velocity=71 time=0.08854166666666666
        Midi msg: note_off channel=0 note=60 velocity=0 time=0.026041666666666664
        Midi msg: note_on channel=0 note=48 velocity=91 time=0.0625
        Midi msg: note_off channel=0 note=48 velocity=0 time=0.078125
        Midi msg: note_on channel=0 note=29 velocity=98 time=0.015625
        Midi msg: note_on channel=0 note=41 velocity=96 time=0
        Midi msg: control_change channel=0 control=64 value=0 time=0.0026041666666666665
        Midi msg: note_off channel=0 note=55 velocity=0 time=0.0234375
        Midi msg: note_on channel=0 note=48 velocity=98 time=0.1171875
        Midi msg: note_off channel=0 note=48 velocity=0 time=0.08333333333333333
        Midi msg: note_on channel=0 note=57 velocity=94 time=0.041666666666666664
        Midi msg: note_off channel=0 note=57 velocity=0 time=0.09114583333333333
        Midi msg: note_on channel=0 note=60 velocity=85 time=0.015625
        Midi msg: control_change channel=0 control=64 value=127 time=0.046875
        Midi msg: note_on channel=0 note=65 velocity=88 time=0.0625
        Midi msg: note_off channel=0 note=60 velocity=0 time=0.005208333333333333
        Midi msg: note_off channel=0 note=65 velocity=0 time=0.041666666666666664
        Midi msg: note_on channel=0 note=60 velocity=69 time=0.0703125
        Midi msg: note_off channel=0 note=60 velocity=0 time=0.049479166666666664
        Midi msg: note_on channel=0 note=69 velocity=93 time=0.0546875
        Midi msg: note_off channel=0 note=69 velocity=0 time=0.04427083333333333
        Midi msg: note_on channel=0 note=72 velocity=94 time=0.057291666666666664
        Midi msg: note_off channel=0 note=72 velocity=0 time=0.10677083333333333
        Midi msg: note_on channel=0 note=77 velocity=88 time=0.0026041666666666665
        Midi msg: note_off channel=0 note=77 velocity=0 time=0.033854166666666664
        Midi msg: note_on channel=0 note=72 velocity=92 time=0.0546875
        Midi msg: note_off channel=0 note=72 velocity=0 time=0.057291666666666664
        Midi msg: note_on channel=0 note=81 velocity=100 time=0.046875
        Midi msg: note_off channel=0 note=81 velocity=0 time=0.0625
        Midi msg: note_on channel=0 note=84 velocity=98 time=0.03645833333333333
        Midi msg: note_off channel=0 note=41 velocity=0 time=0.08333333333333333
        Midi msg: note_on channel=0 note=89 velocity=98 time=0.005208333333333333
        Midi msg: note_off channel=0 note=84 velocity=0 time=0.010416666666666666
        Midi msg: note_off channel=0 note=89 velocity=0 time=0.0234375
        Midi msg: note_on channel=0 note=84 velocity=94 time=0.0546875
        Midi msg: note_off channel=0 note=84 velocity=0 time=0.08333333333333333
        Midi msg: note_on channel=0 note=93 velocity=95 time=0.0234375
        Midi msg: note_off channel=0 note=29 velocity=0 time=0.033854166666666664
        Midi msg: note_on channel=0 note=96 velocity=82 time=0.078125
        Midi msg: note_off channel=0 note=93 velocity=0 time=0.013020833333333332
        Midi msg: control_change channel=0 control=64 value=0 time=0.03645833333333333
        Midi msg: note_off channel=0 note=96 velocity=0 time=0.018229166666666664
        Midi msg: note_on channel=0 note=42 velocity=88 time=0
        Midi msg: note_on channel=0 note=30 velocity=92 time=0.005208333333333333
        Midi msg: note_on channel=0 note=100 velocity=87 time=0.013020833333333332
        Midi msg: note_off channel=0 note=100 velocity=0 time=0.09635416666666666
        Midi msg: note_on channel=0 note=96 velocity=79 time=0.0026041666666666665
        Midi msg: note_off channel=0 note=96 velocity=0 time=0.08072916666666666
        Midi msg: note_on channel=0 note=93 velocity=84 time=0.026041666666666664
        Midi msg: note_off channel=0 note=93 velocity=0 time=0.033854166666666664
        Midi msg: control_change channel=0 control=64 value=127 time=0.026041666666666664
        Midi msg: note_on channel=0 note=84 velocity=91 time=0.0026041666666666665
        Midi msg: note_off channel=0 note=84 velocity=0 time=0.03645833333333333
        Midi msg: note_on channel=0 note=88 velocity=87 time=0.08333333333333333
        Midi msg: note_off channel=0 note=88 velocity=0 time=0.08854166666666666
        Midi msg: note_on channel=0 note=84 velocity=69 time=0
        Midi msg: note_off channel=0 note=84 velocity=0 time=0.049479166666666664
        Midi msg: note_on channel=0 note=81 velocity=83 time=0.018229166666666664
        Midi msg: note_off channel=0 note=81 velocity=0 time=0.041666666666666664
        Midi msg: note_on channel=0 note=72 velocity=69 time=0.041666666666666664
        Midi msg: note_off channel=0 note=72 velocity=0 time=0.041666666666666664
        Midi msg: note_on channel=0 note=76 velocity=100 time=0.06770833333333333
        Midi msg: control_change channel=0 control=64 value=0 time=0.07291666666666666
        Midi msg: note_on channel=0 note=72 velocity=88 time=0.020833333333333332
        Midi msg: note_off channel=0 note=76 velocity=0 time=0.018229166666666664
        Midi msg: note_on channel=0 note=69 velocity=96 time=0.06510416666666666
        Midi msg: note_off channel=0 note=72 velocity=0 time=0.0234375
        Midi msg: note_off channel=0 note=69 velocity=0 time=0.033854166666666664
        Midi msg: control_change channel=0 control=64 value=127 time=0.015625
        Midi msg: note_on channel=0 note=60 velocity=84 time=0.0390625
        Midi msg: note_off channel=0 note=60 velocity=0 time=0.04427083333333333
        Midi msg: note_on channel=0 note=62 velocity=79 time=0.07552083333333333
        Midi msg: note_off channel=0 note=62 velocity=0 time=0.05208333333333333
        Midi msg: note_on channel=0 note=60 velocity=85 time=0.028645833333333332
        Midi msg: note_on channel=0 note=57 velocity=80 time=0.0859375
        Midi msg: note_off channel=0 note=60 velocity=0 time=0.018229166666666664
        Midi msg: note_on channel=0 note=48 velocity=84 time=0.08072916666666666
        Midi msg: note_off channel=0 note=30 velocity=0 time=0.041666666666666664
        Midi msg: note_off channel=0 note=48 velocity=0 time=0.010416666666666666
        Midi msg: note_off channel=0 note=57 velocity=0 time=0.0026041666666666665
        Midi msg: note_off channel=0 note=42 velocity=0 time=0.010416666666666666
        Midi msg: control_change channel=0 control=64 value=0 time=0.0390625
        Midi msg: note_on channel=0 note=43 velocity=97 time=0.015625
        Midi msg: note_on channel=0 note=31 velocity=98 time=0.005208333333333333
        Midi msg: note_on channel=0 note=47 velocity=70 time=0.18489583333333331
        Midi msg: note_off channel=0 note=47 velocity=0 time=0.03125
        Midi msg: note_on channel=0 note=55 velocity=84 time=0.07291666666666666
        Midi msg: note_on channel=0 note=59 velocity=69 time=0.11458333333333333
        Midi msg: note_off channel=0 note=55 velocity=0 time=0.010416666666666666
        Midi msg: note_on channel=0 note=62 velocity=81 time=0.078125
        Midi msg: note_off channel=0 note=59 velocity=0 time=0.015625
        Midi msg: control_change channel=0 control=64 value=127 time=0.015625
        Midi msg: note_off channel=0 note=62 velocity=0 time=0.0078125
        Midi msg: note_on channel=0 note=59 velocity=82 time=0.049479166666666664
        Midi msg: note_off channel=0 note=59 velocity=0 time=0.046875
        Midi msg: note_off channel=0 note=43 velocity=0 time=0.03125
        Midi msg: note_on channel=0 note=67 velocity=97 time=0.03125
        Midi msg: note_off channel=0 note=67 velocity=0 time=0.09114583333333333
        Midi msg: note_on channel=0 note=71 velocity=79 time=0.015625
        Midi msg: note_off channel=0 note=31 velocity=0 time=0.06510416666666666
        Midi msg: note_on channel=0 note=74 velocity=95 time=0.005208333333333333
        Midi msg: note_on channel=0 note=30 velocity=90 time=0.015625
        Midi msg: note_off channel=0 note=71 velocity=0 time=0.005208333333333333
        Midi msg: note_on channel=0 note=42 velocity=94 time=0
        Midi msg: note_off channel=0 note=74 velocity=0 time=0.015625
        Midi msg: note_on channel=0 note=71 velocity=81 time=0.06510416666666666
        Midi msg: note_off channel=0 note=71 velocity=0 time=0.06770833333333333
        Midi msg: note_on channel=0 note=79 velocity=100 time=0.028645833333333332
        Midi msg: note_off channel=0 note=42 velocity=0 time=0.005208333333333333
        Midi msg: note_off channel=0 note=79 velocity=0 time=0.08854166666666666
        Midi msg: note_on channel=0 note=83 velocity=81 time=0.005208333333333333
        Midi msg: note_off channel=0 note=30 velocity=0 time=0.03125
        Midi msg: note_on channel=0 note=40 velocity=105 time=0.0078125
        Midi msg: note_on channel=0 note=28 velocity=103 time=0.005208333333333333
        Midi msg: note_on channel=0 note=86 velocity=92 time=0.0234375
        Midi msg: note_off channel=0 note=86 velocity=0 time=0.03125
        Midi msg: note_off channel=0 note=83 velocity=0 time=0.005208333333333333
        Midi msg: note_on channel=0 note=83 velocity=92 time=0.06770833333333333
        Midi msg: note_off channel=0 note=83 velocity=0 time=0.07291666666666666
        Midi msg: note_off channel=0 note=40 velocity=0 time=0.020833333333333332
        Midi msg: note_on channel=0 note=91 velocity=92 time=0
        Midi msg: note_off channel=0 note=28 velocity=0 time=0.0703125
        Midi msg: note_on channel=0 note=93 velocity=92 time=0.020833333333333332
        Midi msg: control_change channel=0 control=64 value=0 time=0.010416666666666666
        Midi msg: note_off channel=0 note=91 velocity=0 time=0.026041666666666664
        Midi msg: note_on channel=0 note=38 velocity=105 time=0.028645833333333332
        Midi msg: note_on channel=0 note=26 velocity=107 time=0.005208333333333333
        Midi msg: note_off channel=0 note=93 velocity=0 time=0.020833333333333332
        Midi msg: note_on channel=0 note=98 velocity=95 time=0.005208333333333333
        Midi msg: note_on channel=0 note=93 velocity=87 time=0.08854166666666666
        Midi msg: note_off channel=0 note=98 velocity=0 time=0.03645833333333333
        Midi msg: note_on channel=0 note=90 velocity=84 time=0.05989583333333333
        Midi msg: note_off channel=0 note=93 velocity=0 time=0.018229166666666664
        Midi msg: note_off channel=0 note=90 velocity=0 time=0.046875
        Midi msg: note_on channel=0 note=84 velocity=92 time=0.010416666666666666
        Midi msg: note_off channel=0 note=84 velocity=0 time=0.033854166666666664
        Midi msg: control_change channel=0 control=64 value=127 time=0.06770833333333333
        Midi msg: note_on channel=0 note=86 velocity=89 time=0
        Midi msg: note_on channel=0 note=81 velocity=85 time=0.08333333333333333
        Midi msg: note_off channel=0 note=86 velocity=0 time=0.041666666666666664
        Midi msg: note_on channel=0 note=78 velocity=84 time=0.041666666666666664
        Midi msg: note_off channel=0 note=81 velocity=0 time=0.0390625
        Midi msg: note_off channel=0 note=78 velocity=0 time=0.033854166666666664
        Midi msg: note_on channel=0 note=72 velocity=90 time=0.013020833333333332
        Midi msg: note_off channel=0 note=72 velocity=0 time=0.041666666666666664
        Midi msg: note_on channel=0 note=74 velocity=84 time=0.07291666666666666
        Midi msg: note_on channel=0 note=69 velocity=77 time=0.07552083333333333
        Midi msg: note_off channel=0 note=74 velocity=0 time=0.07552083333333333
        Midi msg: note_on channel=0 note=66 velocity=81 time=0.015625
        Midi msg: note_off channel=0 note=69 velocity=0 time=0.03645833333333333
        Midi msg: note_off channel=0 note=66 velocity=0 time=0.028645833333333332
        Midi msg: note_on channel=0 note=60 velocity=83 time=0.03125
        Midi msg: note_off channel=0 note=60 velocity=0 time=0.041666666666666664
        Midi msg: note_on channel=0 note=62 velocity=87 time=0.057291666666666664
        Midi msg: note_off channel=0 note=26 velocity=0 time=0.07291666666666666
        Midi msg: note_on channel=0 note=57 velocity=76 time=0.028645833333333332
        Midi msg: note_off channel=0 note=38 velocity=0 time=0.03125
        Midi msg: note_off channel=0 note=62 velocity=0 time=0.0026041666666666665
        Midi msg: note_on channel=0 note=54 velocity=78 time=0.0625
        Midi msg: note_off channel=0 note=57 velocity=0 time=0.04427083333333333
        Midi msg: note_on channel=0 note=48 velocity=86 time=0.033854166666666664
        Midi msg: note_off channel=0 note=54 velocity=0 time=0.07291666666666666
        Midi msg: note_on channel=0 note=43 velocity=91 time=0.0078125
        Midi msg: note_on channel=0 note=31 velocity=99 time=0
        Midi msg: control_change channel=0 control=64 value=0 time=0.005208333333333333
        Midi msg: note_off channel=0 note=48 velocity=0 time=0.005208333333333333
        Midi msg: note_on channel=0 note=48 velocity=81 time=0.09375
        Midi msg: note_off channel=0 note=48 velocity=0 time=0.08072916666666666
        Midi msg: note_on channel=0 note=53 velocity=81 time=0.013020833333333332
        Midi msg: note_on channel=0 note=56 velocity=80 time=0.07552083333333333
        Midi msg: note_off channel=0 note=53 velocity=0 time=0.020833333333333332
        Midi msg: control_change channel=0 control=64 value=127 time=0.0625
        Midi msg: note_on channel=0 note=62 velocity=84 time=0.018229166666666664
        Midi msg: note_off channel=0 note=56 velocity=0 time=0.013020833333333332
        Midi msg: note_off channel=0 note=62 velocity=0 time=0.028645833333333332
        Midi msg: note_on channel=0 note=60 velocity=97 time=0.0546875
        Midi msg: note_off channel=0 note=60 velocity=0 time=0.04427083333333333
        Midi msg: note_on channel=0 note=65 velocity=81 time=0.05989583333333333
        Midi msg: note_on channel=0 note=68 velocity=85 time=0.09375
        Midi msg: note_off channel=0 note=65 velocity=0 time=0.0078125
        Midi msg: note_off channel=0 note=68 velocity=0 time=0.09635416666666666
        Midi msg: note_on channel=0 note=74 velocity=74 time=0
        Midi msg: note_off channel=0 note=74 velocity=0 time=0.0390625
        Midi msg: note_on channel=0 note=72 velocity=103 time=0.041666666666666664
        Midi msg: note_off channel=0 note=72 velocity=0 time=0.049479166666666664
        Midi msg: note_on channel=0 note=77 velocity=94 time=0.04427083333333333
        Midi msg: note_off channel=0 note=77 velocity=0 time=0.08333333333333333
        Midi msg: note_on channel=0 note=80 velocity=80 time=0.013020833333333332
        Midi msg: note_on channel=0 note=86 velocity=87 time=0.08072916666666666
        Midi msg: note_off channel=0 note=80 velocity=0 time=0.028645833333333332
        Midi msg: note_off channel=0 note=86 velocity=0 time=0.0078125
        Midi msg: note_on channel=0 note=84 velocity=98 time=0.057291666666666664
        Midi msg: note_off channel=0 note=84 velocity=0 time=0.057291666666666664
        Midi msg: note_on channel=0 note=89 velocity=96 time=0.03645833333333333
        Midi msg: note_off channel=0 note=89 velocity=0 time=0.08072916666666666
        Midi msg: note_on channel=0 note=92 velocity=81 time=0.010416666666666666
        Midi msg: control_change channel=0 control=64 value=0 time=0.026041666666666664
        Midi msg: note_off channel=0 note=92 velocity=0 time=0.05208333333333333
        Midi msg: note_on channel=0 note=98 velocity=79 time=0.010416666666666666
        Midi msg: note_off channel=0 note=98 velocity=0 time=0.08072916666666666
        Midi msg: note_on channel=0 note=91 velocity=78 time=0.020833333333333332
        Midi msg: note_off channel=0 note=91 velocity=0 time=0.049479166666666664
        Midi msg: control_change channel=0 control=64 value=127 time=0.041666666666666664
        Midi msg: note_on channel=0 note=89 velocity=74 time=0.0026041666666666665
        Midi msg: note_off channel=0 note=89 velocity=0 time=0.0390625
        Midi msg: note_on channel=0 note=83 velocity=69 time=0.028645833333333332
        Midi msg: note_off channel=0 note=83 velocity=0 time=0.041666666666666664
        Midi msg: note_on channel=0 note=86 velocity=89 time=0.0546875
        Midi msg: note_off channel=0 note=86 velocity=0 time=0.0625
        Midi msg: note_on channel=0 note=79 velocity=76 time=0.03645833333333333
        Midi msg: note_off channel=0 note=79 velocity=0 time=0.06770833333333333
        Midi msg: note_on channel=0 note=77 velocity=69 time=0.0546875
        Midi msg: note_off channel=0 note=77 velocity=0 time=0.05208333333333333
        Midi msg: note_on channel=0 note=71 velocity=69 time=0
        Midi msg: note_off channel=0 note=71 velocity=0 time=0.04427083333333333
        Midi msg: note_on channel=0 note=74 velocity=89 time=0.05989583333333333
        Midi msg: note_off channel=0 note=74 velocity=0 time=0.07291666666666666
        Midi msg: note_on channel=0 note=67 velocity=69 time=0.041666666666666664
        Midi msg: note_off channel=0 note=67 velocity=0 time=0.0625
        Midi msg: note_on channel=0 note=65 velocity=87 time=0.013020833333333332
        Midi msg: note_off channel=0 note=65 velocity=0 time=0.046875
        Midi msg: note_on channel=0 note=59 velocity=69 time=0.0625
        Midi msg: note_off channel=0 note=59 velocity=0 time=0.0390625
        Midi msg: note_on channel=0 note=63 velocity=101 time=0.0859375
        Midi msg: note_off channel=0 note=63 velocity=0 time=0.1328125
        Midi msg: note_on channel=0 note=55 velocity=70 time=0.046875
        Midi msg: note_off channel=0 note=55 velocity=0 time=0.10416666666666666
        Midi msg: note_on channel=0 note=53 velocity=76 time=0.005208333333333333
        Midi msg: note_on channel=0 note=47 velocity=70 time=0.08072916666666666
        Midi msg: note_off channel=0 note=47 velocity=0 time=0.0546875
        Midi msg: note_off channel=0 note=53 velocity=0 time=0.020833333333333332
        Midi msg: note_on channel=0 note=36 velocity=104 time=0.06510416666666666
        Midi msg: control_change channel=0 control=64 value=0 time=0.010416666666666666
        Midi msg: note_off channel=0 note=43 velocity=0 time=0.0546875
        Midi msg: note_off channel=0 note=31 velocity=0 time=0.018229166666666664
        Midi msg: note_on channel=0 note=48 velocity=93 time=0.0546875
        Midi msg: note_off channel=0 note=48 velocity=0 time=0.1015625
        Midi msg: note_on channel=0 note=55 velocity=85 time=0.0078125
        Midi msg: note_off channel=0 note=55 velocity=0 time=0.11458333333333333
        Midi msg: note_on channel=0 note=60 velocity=72 time=0.015625
        Midi msg: note_off channel=0 note=60 velocity=0 time=0.09895833333333333
        Midi msg: control_change channel=0 control=64 value=127 time=0.013020833333333332
        Midi msg: note_on channel=0 note=64 velocity=69 time=0.005208333333333333
        Midi msg: note_off channel=0 note=64 velocity=0 time=0.0546875
        Midi msg: note_on channel=0 note=60 velocity=97 time=0.026041666666666664
        Midi msg: note_on channel=0 note=67 velocity=92 time=0.078125
        Midi msg: note_off channel=0 note=60 velocity=0 time=0.005208333333333333
        Midi msg: note_on channel=0 note=72 velocity=99 time=0.09895833333333333
        Midi msg: note_off channel=0 note=67 velocity=0 time=0.020833333333333332
        Midi msg: note_on channel=0 note=76 velocity=92 time=0.0703125
        Midi msg: note_off channel=0 note=72 velocity=0 time=0.013020833333333332
        Midi msg: note_off channel=0 note=76 velocity=0 time=0.0234375
        Midi msg: note_on channel=0 note=72 velocity=101 time=0.04427083333333333
        Midi msg: note_off channel=0 note=72 velocity=0 time=0.08333333333333333
        Midi msg: note_on channel=0 note=79 velocity=94 time=0.015625
        Midi msg: note_on channel=0 note=84 velocity=98 time=0.08854166666666666
        Midi msg: note_off channel=0 note=79 velocity=0 time=0.0026041666666666665
        Midi msg: note_on channel=0 note=88 velocity=96 time=0.07552083333333333
        Midi msg: note_off channel=0 note=84 velocity=0 time=0.010416666666666666
        Midi msg: note_off channel=0 note=88 velocity=0 time=0.018229166666666664
        Midi msg: note_on channel=0 note=84 velocity=100 time=0.049479166666666664
        Midi msg: note_off channel=0 note=84 velocity=0 time=0.09114583333333333
        Midi msg: note_on channel=0 note=91 velocity=94 time=0.0026041666666666665
        Midi msg: note_off channel=0 note=91 velocity=0 time=0.0703125
        Midi msg: note_on channel=0 note=96 velocity=92 time=0.028645833333333332
        Midi msg: note_on channel=0 note=48 velocity=99 time=0.07291666666666666
        Midi msg: note_off channel=0 note=96 velocity=0 time=0.005208333333333333
        Midi msg: note_on channel=0 note=100 velocity=97 time=0.0078125
        Midi msg: note_off channel=0 note=100 velocity=0 time=0.09375
        Midi msg: note_on channel=0 note=96 velocity=78 time=0.0026041666666666665
        Midi msg: note_on channel=0 note=91 velocity=91 time=0.0859375
        Midi msg: note_off channel=0 note=96 velocity=0 time=0.013020833333333332
        Midi msg: note_off channel=0 note=91 velocity=0 time=0.049479166666666664
        Midi msg: note_on channel=0 note=84 velocity=83 time=0.020833333333333332
        Midi msg: note_off channel=0 note=84 velocity=0 time=0.0390625
        Midi msg: note_on channel=0 note=88 velocity=91 time=0.0625
        Midi msg: note_on channel=0 note=84 velocity=79 time=0.09635416666666666
        Midi msg: note_off channel=0 note=88 velocity=0 time=0.0026041666666666665
        Midi msg: note_off channel=0 note=84 velocity=0 time=0.0546875
        Midi msg: note_on channel=0 note=79 velocity=76 time=0.033854166666666664
        Midi msg: note_off channel=0 note=79 velocity=0 time=0.041666666666666664
        Midi msg: note_on channel=0 note=72 velocity=80 time=0.046875
        Midi msg: note_off channel=0 note=72 velocity=0 time=0.0390625
        Midi msg: note_on channel=0 note=76 velocity=89 time=0.0625
        Midi msg: note_off channel=0 note=76 velocity=0 time=0.1015625
        Midi msg: note_on channel=0 note=72 velocity=69 time=0.005208333333333333
        Midi msg: note_off channel=0 note=72 velocity=0 time=0.0625
        Midi msg: note_on channel=0 note=67 velocity=83 time=0.010416666666666666
        Midi msg: note_off channel=0 note=67 velocity=0 time=0.046875
        Midi msg: note_on channel=0 note=60 velocity=75 time=0.057291666666666664
        Midi msg: note_off channel=0 note=60 velocity=0 time=0.041666666666666664
        Midi msg: note_on channel=0 note=64 velocity=69 time=0.09375
        Midi msg: note_off channel=0 note=48 velocity=0 time=0.0234375
        Midi msg: note_off channel=0 note=64 velocity=0 time=0.03125
        Midi msg: note_on channel=0 note=60 velocity=69 time=0.03125
        Midi msg: note_off channel=0 note=36 velocity=0 time=0.03125
        Midi msg: note_off channel=0 note=60 velocity=0 time=0.018229166666666664
        Midi msg: note_on channel=0 note=55 velocity=83 time=0.013020833333333332
        Midi msg: note_on channel=0 note=48 velocity=69 time=0.10677083333333333
        Midi msg: note_off channel=0 note=48 velocity=0 time=0.057291666666666664
        Midi msg: control_change channel=0 control=64 value=0 time=0.020833333333333332
        Midi msg: note_off channel=0 note=55 velocity=0 time=0.0026041666666666665
        Midi msg: note_on channel=0 note=45 velocity=91 time=0
        Midi msg: note_on channel=0 note=33 velocity=87 time=0.005208333333333333
        Midi msg: note_on channel=0 note=48 velocity=75 time=0.1015625
        Midi msg: note_off channel=0 note=48 velocity=0 time=0.0625
        Midi msg: note_on channel=0 note=53 velocity=82 time=0.03125
        Midi msg: note_off channel=0 note=53 velocity=0 time=0.0625
        Midi msg: control_change channel=0 control=64 value=127 time=0.026041666666666664
        Midi msg: note_on channel=0 note=60 velocity=71 time=0.020833333333333332
        Midi msg: note_off channel=0 note=60 velocity=0 time=0.09375
        Midi msg: note_on channel=0 note=65 velocity=98 time=0
        Midi msg: note_off channel=0 note=65 velocity=0 time=0.03645833333333333
        Midi msg: note_on channel=0 note=60 velocity=85 time=0.046875
        Midi msg: note_off channel=0 note=60 velocity=0 time=0.0625
        Midi msg: note_on channel=0 note=65 velocity=88 time=0.03645833333333333
        Midi msg: note_off channel=0 note=65 velocity=0 time=0.0625
        Midi msg: note_on channel=0 note=72 velocity=91 time=0.041666666666666664
        Midi msg: note_on channel=0 note=77 velocity=104 time=0.09895833333333333
        Midi msg: note_off channel=0 note=72 velocity=0 time=0.020833333333333332
        Midi msg: note_off channel=0 note=77 velocity=0 time=0.010416666666666666
        Midi msg: note_on channel=0 note=72 velocity=101 time=0.0546875
        Midi msg: note_off channel=0 note=72 velocity=0 time=0.05208333333333333
        Midi msg: note_on channel=0 note=77 velocity=101 time=0.049479166666666664
        Midi msg: note_off channel=0 note=77 velocity=0 time=0.057291666666666664
        Midi msg: note_on channel=0 note=84 velocity=103 time=0.033854166666666664
        Midi msg: note_on channel=0 note=89 velocity=83 time=0.08854166666666666
        Midi msg: note_off channel=0 note=84 velocity=0 time=0.0026041666666666665
        Midi msg: note_off channel=0 note=89 velocity=0 time=0.03125
        Midi msg: note_on channel=0 note=84 velocity=105 time=0.03125
        Midi msg: note_off channel=0 note=84 velocity=0 time=0.0859375
        Midi msg: note_on channel=0 note=89 velocity=78 time=0.0078125
        Midi msg: note_off channel=0 note=89 velocity=0 time=0.05989583333333333
        Midi msg: note_on channel=0 note=96 velocity=71 time=0.04427083333333333
        Midi msg: control_change channel=0 control=64 value=0 time=0.03645833333333333
        Midi msg: note_off channel=0 note=96 velocity=0 time=0.041666666666666664
        Midi msg: note_on channel=0 note=100 velocity=95 time=0
        Midi msg: note_off channel=0 note=100 velocity=0 time=0.109375
        Midi msg: note_on channel=0 note=96 velocity=69 time=0.013020833333333332
        Midi msg: note_on channel=0 note=90 velocity=82 time=0.078125
        Midi msg: note_off channel=0 note=96 velocity=0 time=0.018229166666666664
        Midi msg: control_change channel=0 control=64 value=127 time=0.010416666666666666
        Midi msg: note_off channel=0 note=90 velocity=0 time=0.03645833333333333
        Midi msg: note_on channel=0 note=84 velocity=83 time=0.026041666666666664
        Midi msg: note_off channel=0 note=84 velocity=0 time=0.0390625
        Midi msg: note_on channel=0 note=88 velocity=85 time=0.057291666666666664
        Midi msg: note_on channel=0 note=84 velocity=78 time=0.09114583333333333
        Midi msg: note_off channel=0 note=88 velocity=0 time=0.020833333333333332
        Midi msg: note_on channel=0 note=78 velocity=76 time=0.07552083333333333
        Midi msg: note_off channel=0 note=84 velocity=0 time=0.033854166666666664
        Midi msg: note_on channel=0 note=72 velocity=70 time=0.07291666666666666
        Midi msg: note_off channel=0 note=78 velocity=0 time=0.0026041666666666665
        Midi msg: note_off channel=0 note=72 velocity=0 time=0.04427083333333333
        Midi msg: note_on channel=0 note=76 velocity=90 time=0.05208333333333333
        Midi msg: note_on channel=0 note=72 velocity=82 time=0.11197916666666666
        Midi msg: note_off channel=0 note=76 velocity=0 time=0.0078125
        Midi msg: note_on channel=0 note=66 velocity=72 time=0.06770833333333333
        Midi msg: note_off channel=0 note=72 velocity=0 time=0.020833333333333332
        Midi msg: note_off channel=0 note=66 velocity=0 time=0.04427083333333333
        Midi msg: note_on channel=0 note=60 velocity=79 time=0.026041666666666664
        Midi msg: note_off channel=0 note=60 velocity=0 time=0.049479166666666664
        Midi msg: note_on channel=0 note=64 velocity=82 time=0.057291666666666664
        Midi msg: note_on channel=0 note=60 velocity=69 time=0.07291666666666666
        Midi msg: note_off channel=0 note=64 velocity=0 time=0.033854166666666664
        Midi msg: note_on channel=0 note=54 velocity=72 time=0.07552083333333333
        Midi msg: note_off channel=0 note=60 velocity=0 time=0.010416666666666666
        Midi msg: note_off channel=0 note=45 velocity=0 time=0.028645833333333332
        Midi msg: note_on channel=0 note=48 velocity=81 time=0.046875
        Midi msg: note_off channel=0 note=33 velocity=0 time=0.0078125
        Midi msg: note_off channel=0 note=54 velocity=0 time=0.06770833333333333
        Midi msg: control_change channel=0 control=64 value=0 time=0.018229166666666664
        Midi msg: note_off channel=0 note=48 velocity=0 time=0.013020833333333332
        Midi msg: note_on channel=0 note=31 velocity=100 time=0.0078125
        Midi msg: note_on channel=0 note=43 velocity=92 time=0
        Midi msg: note_on channel=0 note=48 velocity=74 time=0.09375
        Midi msg: note_off channel=0 note=48 velocity=0 time=0.09895833333333333
        Midi msg: note_on channel=0 note=55 velocity=76 time=0.005208333333333333
        Midi msg: note_off channel=0 note=55 velocity=0 time=0.10677083333333333
        Midi msg: note_on channel=0 note=60 velocity=74 time=0
        Midi msg: note_on channel=0 note=62 velocity=72 time=0.10416666666666666
        Midi msg: control_change channel=0 control=64 value=127 time=0.0026041666666666665
        Midi msg: note_off channel=0 note=60 velocity=0 time=0.033854166666666664
        Midi msg: note_off channel=0 note=62 velocity=0 time=0.005208333333333333
        Midi msg: note_on channel=0 note=60 velocity=97 time=0.057291666666666664
        Midi msg: note_off channel=0 note=60 velocity=0 time=0.05989583333333333
        Midi msg: note_on channel=0 note=67 velocity=87 time=0.0546875
        Midi msg: note_off channel=0 note=67 velocity=0 time=0.09895833333333333
        Midi msg: note_on channel=0 note=72 velocity=79 time=0.005208333333333333
        Midi msg: note_on channel=0 note=74 velocity=80 time=0.09114583333333333
        Midi msg: note_off channel=0 note=72 velocity=0 time=0.020833333333333332
        Midi msg: note_off channel=0 note=74 velocity=0 time=0.015625
        Midi msg: note_on channel=0 note=72 velocity=98 time=0.0546875
        Midi msg: note_off channel=0 note=72 velocity=0 time=0.0546875
        Midi msg: note_on channel=0 note=79 velocity=95 time=0.0390625
        Midi msg: note_off channel=0 note=79 velocity=0 time=0.0703125
        Midi msg: note_on channel=0 note=84 velocity=87 time=0.0234375
        Midi msg: note_on channel=0 note=86 velocity=73 time=0.1015625
        Midi msg: note_off channel=0 note=84 velocity=0 time=0.010416666666666666
        Midi msg: note_off channel=0 note=86 velocity=0 time=0.028645833333333332
        Midi msg: note_on channel=0 note=84 velocity=101 time=0.0390625
        Midi msg: note_off channel=0 note=84 velocity=0 time=0.04427083333333333
        Midi msg: note_on channel=0 note=91 velocity=91 time=0.05989583333333333
        Midi msg: note_off channel=0 note=91 velocity=0 time=0.0625
        Midi msg: note_on channel=0 note=96 velocity=86 time=0.028645833333333332
        Midi msg: control_change channel=0 control=64 value=0 time=0.05989583333333333
        Midi msg: note_on channel=0 note=98 velocity=89 time=0.04427083333333333
        Midi msg: note_off channel=0 note=96 velocity=0 time=0.0026041666666666665
        Midi msg: note_off channel=0 note=98 velocity=0 time=0.10677083333333333
        Midi msg: note_on channel=0 note=95 velocity=75 time=0.0026041666666666665
        Midi msg: note_on channel=0 note=91 velocity=85 time=0.0859375
        Midi msg: control_change channel=0 control=64 value=127 time=0.013020833333333332
        Midi msg: note_off channel=0 note=95 velocity=0 time=0.013020833333333332
        Midi msg: note_off channel=0 note=91 velocity=0 time=0.05208333333333333
        Midi msg: note_on channel=0 note=83 velocity=69 time=0.020833333333333332
        Midi msg: note_off channel=0 note=83 velocity=0 time=0.04427083333333333
        Midi msg: note_on channel=0 note=86 velocity=83 time=0.06770833333333333
        Midi msg: note_off channel=0 note=86 velocity=0 time=0.08854166666666666
        Midi msg: note_on channel=0 note=83 velocity=69 time=0.0234375
        Midi msg: note_off channel=0 note=83 velocity=0 time=0.046875
        Midi msg: note_on channel=0 note=79 velocity=85 time=0.028645833333333332
        Midi msg: note_off channel=0 note=79 velocity=0 time=0.04427083333333333
        Midi msg: note_on channel=0 note=71 velocity=69 time=0.06510416666666666
        Midi msg: note_off channel=0 note=71 velocity=0 time=0.0390625
        Midi msg: note_on channel=0 note=74 velocity=69 time=0.07291666666666666
        Midi msg: note_off channel=0 note=74 velocity=0 time=0.057291666666666664
        Midi msg: note_on channel=0 note=71 velocity=69 time=0.028645833333333332
        Midi msg: note_off channel=0 note=71 velocity=0 time=0.06770833333333333
        Midi msg: note_on channel=0 note=67 velocity=73 time=0.0078125
        Midi msg: note_off channel=0 note=67 velocity=0 time=0.046875
        Midi msg: note_on channel=0 note=59 velocity=70 time=0.05989583333333333
        Midi msg: note_off channel=0 note=59 velocity=0 time=0.033854166666666664
        Midi msg: note_on channel=0 note=62 velocity=76 time=0.06770833333333333
        Midi msg: note_off channel=0 note=31 velocity=0 time=0.0859375
        Midi msg: note_off channel=0 note=62 velocity=0 time=0.0234375
        Midi msg: note_on channel=0 note=59 velocity=69 time=0.0078125
        Midi msg: note_off channel=0 note=43 velocity=0 time=0.013020833333333332
        Midi msg: note_off channel=0 note=59 velocity=0 time=0.041666666666666664
        Midi msg: note_on channel=0 note=55 velocity=71 time=0.03125
        Midi msg: note_on channel=0 note=47 velocity=71 time=0.08333333333333333
        Midi msg: note_off channel=0 note=47 velocity=0 time=0.0390625
        Midi msg: note_on channel=0 note=48 velocity=100 time=0.07552083333333333
        Midi msg: note_on channel=0 note=36 velocity=92 time=0.0026041666666666665
        Midi msg: note_off channel=0 note=55 velocity=0 time=0.0026041666666666665
        Midi msg: control_change channel=0 control=64 value=0 time=0.010416666666666666
        Midi msg: note_on channel=0 note=50 velocity=82 time=0.11197916666666666
        Midi msg: note_off channel=0 note=50 velocity=0 time=0.05208333333333333
        Midi msg: note_on channel=0 note=55 velocity=92 time=0.03125
        Midi msg: note_off channel=0 note=55 velocity=0 time=0.078125
        Midi msg: note_on channel=0 note=62 velocity=69 time=0.0546875
        Midi msg: control_change channel=0 control=64 value=127 time=0.0234375
        Midi msg: note_on channel=0 note=64 velocity=81 time=0.06770833333333333
        Midi msg: note_off channel=0 note=62 velocity=0 time=0.018229166666666664
        Midi msg: note_off channel=0 note=64 velocity=0 time=0.0234375
        Midi msg: note_on channel=0 note=62 velocity=94 time=0.0390625
        Midi msg: note_off channel=0 note=62 velocity=0 time=0.0625
        Midi msg: note_on channel=0 note=67 velocity=102 time=0.0390625
        Midi msg: note_off channel=0 note=67 velocity=0 time=0.09114583333333333
        Midi msg: note_on channel=0 note=74 velocity=97 time=0.018229166666666664
        Midi msg: note_on channel=0 note=76 velocity=91 time=0.09635416666666666
        Midi msg: note_off channel=0 note=74 velocity=0 time=0.0234375
        Midi msg: note_off channel=0 note=76 velocity=0 time=0.013020833333333332
        Midi msg: note_on channel=0 note=74 velocity=105 time=0.0546875
        Midi msg: note_off channel=0 note=74 velocity=0 time=0.033854166666666664
        Midi msg: note_on channel=0 note=79 velocity=103 time=0.049479166666666664
        Midi msg: note_on channel=0 note=86 velocity=98 time=0.10416666666666666
        Midi msg: note_off channel=0 note=79 velocity=0 time=0.0026041666666666665
        Midi msg: note_on channel=0 note=88 velocity=78 time=0.09895833333333333
        Midi msg: note_off channel=0 note=86 velocity=0 time=0.015625
        Midi msg: note_off channel=0 note=88 velocity=0 time=0.0234375
        Midi msg: note_on channel=0 note=86 velocity=103 time=0.03645833333333333
        Midi msg: note_on channel=0 note=91 velocity=101 time=0.1015625
        Midi msg: note_off channel=0 note=86 velocity=0 time=0.010416666666666666
        Midi msg: note_off channel=0 note=91 velocity=0 time=0.078125
        Midi msg: note_on channel=0 note=98 velocity=83 time=0.015625
        Midi msg: control_change channel=0 control=64 value=0 time=0.06770833333333333
        Midi msg: note_off channel=0 note=98 velocity=0 time=0.03125
        Midi msg: note_on channel=0 note=100 velocity=86 time=0
        Midi msg: note_off channel=0 note=100 velocity=0 time=0.10677083333333333
        Midi msg: note_on channel=0 note=96 velocity=81 time=0.0026041666666666665
        Midi msg: control_change channel=0 control=64 value=127 time=0.05208333333333333
        Midi msg: note_on channel=0 note=91 velocity=87 time=0.033854166666666664
        Midi msg: note_off channel=0 note=96 velocity=0 time=0.0078125
        Midi msg: note_off channel=0 note=91 velocity=0 time=0.046875
        Midi msg: note_on channel=0 note=84 velocity=77 time=0.03645833333333333
        Midi msg: note_off channel=0 note=84 velocity=0 time=0.04427083333333333
        Midi msg: note_on channel=0 note=88 velocity=89 time=0.04427083333333333
        Midi msg: note_on channel=0 note=84 velocity=69 time=0.09635416666666666
        Midi msg: note_off channel=0 note=88 velocity=0 time=0.0078125
        Midi msg: note_off channel=0 note=84 velocity=0 time=0.06770833333333333
        Midi msg: note_on channel=0 note=79 velocity=85 time=0.010416666666666666
        Midi msg: note_off channel=0 note=79 velocity=0 time=0.041666666666666664
        Midi msg: note_on channel=0 note=72 velocity=90 time=0.041666666666666664
        Midi msg: note_off channel=0 note=72 velocity=0 time=0.046875
        Midi msg: note_on channel=0 note=76 velocity=81 time=0.06770833333333333
        Midi msg: note_off channel=0 note=76 velocity=0 time=0.1015625
        Midi msg: note_on channel=0 note=72 velocity=83 time=0
        Midi msg: note_off channel=0 note=72 velocity=0 time=0.046875
        Midi msg: note_on channel=0 note=67 velocity=75 time=0.0390625
        Midi msg: note_off channel=0 note=67 velocity=0 time=0.04427083333333333
        Midi msg: note_on channel=0 note=60 velocity=84 time=0.041666666666666664
        Midi msg: note_off channel=0 note=60 velocity=0 time=0.04427083333333333
        Midi msg: note_off channel=0 note=48 velocity=0 time=0.046875
        Midi msg: note_on channel=0 note=64 velocity=87 time=0.020833333333333332
        Midi msg: note_off channel=0 note=64 velocity=0 time=0.10416666666666666
        Midi msg: note_on channel=0 note=60 velocity=70 time=0
        Midi msg: note_off channel=0 note=60 velocity=0 time=0.049479166666666664
        Midi msg: note_off channel=0 note=36 velocity=0 time=0.05208333333333333
        Midi msg: note_on channel=0 note=55 velocity=70 time=0.0026041666666666665
        Midi msg: note_on channel=0 note=48 velocity=88 time=0.10677083333333333
        Midi msg: note_off channel=0 note=55 velocity=0 time=0.078125
        Midi msg: note_off channel=0 note=48 velocity=0 time=0.0234375
        Midi msg: note_on channel=0 note=45 velocity=92 time=0.018229166666666664
        Midi msg: note_on channel=0 note=33 velocity=84 time=0
        Midi msg: control_change channel=0 control=64 value=0 time=0.0390625
        Midi msg: note_on channel=0 note=52 velocity=69 time=0.1875
        Midi msg: note_off channel=0 note=52 velocity=0 time=0.0546875
        Midi msg: note_on channel=0 note=60 velocity=77 time=0.049479166666666664
        Midi msg: note_off channel=0 note=60 velocity=0 time=0.1015625
        Midi msg: note_on channel=0 note=64 velocity=69 time=0.026041666666666664
        Midi msg: control_change channel=0 control=64 value=127 time=0.03125
        Midi msg: note_on channel=0 note=65 velocity=72 time=0.07291666666666666
        Midi msg: note_off channel=0 note=64 velocity=0 time=0.010416666666666666
        Midi msg: note_off channel=0 note=65 velocity=0 time=0.033854166666666664
        Midi msg: note_on channel=0 note=64 velocity=75 time=0.046875
        Midi msg: note_off channel=0 note=64 velocity=0 time=0.09114583333333333
        Midi msg: note_on channel=0 note=72 velocity=84 time=0.03645833333333333
        Midi msg: note_off channel=0 note=72 velocity=0 time=0.06770833333333333
        Midi msg: note_on channel=0 note=76 velocity=69 time=0.04427083333333333
        Midi msg: note_on channel=0 note=77 velocity=69 time=0.09375
        Midi msg: note_off channel=0 note=76 velocity=0 time=0.0078125
        Midi msg: note_off channel=0 note=77 velocity=0 time=0.041666666666666664
        Midi msg: note_on channel=0 note=76 velocity=90 time=0.041666666666666664
        Midi msg: note_off channel=0 note=76 velocity=0 time=0.049479166666666664
        Midi msg: note_on channel=0 note=84 velocity=84 time=0.046875
        Midi msg: note_off channel=0 note=84 velocity=0 time=0.046875
        Midi msg: note_on channel=0 note=88 velocity=85 time=0.05208333333333333
        Midi msg: note_on channel=0 note=89 velocity=74 time=0.09114583333333333
        Midi msg: note_off channel=0 note=88 velocity=0 time=0.005208333333333333
        Midi msg: note_off channel=0 note=89 velocity=0 time=0.033854166666666664
        Midi msg: note_on channel=0 note=88 velocity=87 time=0.049479166666666664
        Midi msg: note_off channel=0 note=33 velocity=0 time=0.015625
        Midi msg: note_off channel=0 note=88 velocity=0 time=0.049479166666666664
        Midi msg: note_off channel=0 note=45 velocity=0 time=0.0078125
        Midi msg: note_on channel=0 note=96 velocity=85 time=0.0390625
        Midi msg: note_off channel=0 note=96 velocity=0 time=0.06770833333333333
        Midi msg: note_on channel=0 note=100 velocity=69 time=0.041666666666666664
        Midi msg: control_change channel=0 control=64 value=0 time=0.015625
        Midi msg: note_on channel=0 note=47 velocity=79 time=0.028645833333333332
        Midi msg: note_on channel=0 note=35 velocity=77 time=0.005208333333333333
        Midi msg: note_off channel=0 note=100 velocity=0 time=0.026041666666666664
        Midi msg: note_on channel=0 note=101 velocity=91 time=0.0026041666666666665
        Midi msg: note_off channel=0 note=101 velocity=0 time=0.057291666666666664
        Midi msg: note_on channel=0 note=98 velocity=72 time=0.0625
        Midi msg: note_off channel=0 note=98 velocity=0 time=0.07552083333333333
        Midi msg: note_on channel=0 note=95 velocity=69 time=0.010416666666666666
        Midi msg: note_off channel=0 note=95 velocity=0 time=0.041666666666666664
        Midi msg: control_change channel=0 control=64 value=127 time=0.028645833333333332
        Midi msg: note_on channel=0 note=86 velocity=79 time=0.0078125
        Midi msg: note_off channel=0 note=86 velocity=0 time=0.046875
        Midi msg: note_on channel=0 note=89 velocity=91 time=0.0546875
        Midi msg: note_off channel=0 note=89 velocity=0 time=0.057291666666666664
        Midi msg: note_on channel=0 note=86 velocity=72 time=0.0625
        Midi msg: note_off channel=0 note=86 velocity=0 time=0.07552083333333333
        Midi msg: note_on channel=0 note=83 velocity=69 time=0.010416666666666666
        Midi msg: note_off channel=0 note=83 velocity=0 time=0.041666666666666664
        Midi msg: note_off channel=0 note=47 velocity=0 time=0.033854166666666664
        Midi msg: note_on channel=0 note=74 velocity=76 time=0.0078125
        Midi msg: note_off channel=0 note=35 velocity=0 time=0.028645833333333332
        Midi msg: note_off channel=0 note=74 velocity=0 time=0.015625
        Midi msg: note_on channel=0 note=77 velocity=80 time=0.0625
        Midi msg: note_on channel=0 note=45 velocity=86 time=0.026041666666666664
        Midi msg: note_on channel=0 note=33 velocity=82 time=0.0026041666666666665
        Midi msg: note_on channel=0 note=74 velocity=69 time=0.0859375
        Midi msg: note_off channel=0 note=77 velocity=0 time=0.005208333333333333
        Midi msg: note_on channel=0 note=71 velocity=69 time=0.06770833333333333
        Midi msg: note_off channel=0 note=74 velocity=0 time=0.018229166666666664
        Midi msg: note_off channel=0 note=71 velocity=0 time=0.0234375
        Midi msg: note_on channel=0 note=62 velocity=69 time=0.05208333333333333
        Midi msg: note_off channel=0 note=62 velocity=0 time=0.041666666666666664
        Midi msg: note_on channel=0 note=65 velocity=76 time=0.07291666666666666
        Midi msg: note_on channel=0 note=62 velocity=69 time=0.08854166666666666
        Midi msg: note_off channel=0 note=65 velocity=0 time=0.0078125
        Midi msg: note_on channel=0 note=59 velocity=69 time=0.0859375
        Midi msg: note_off channel=0 note=45 velocity=0 time=0.03125
        Midi msg: note_off channel=0 note=62 velocity=0 time=0.033854166666666664
        Midi msg: note_on channel=0 note=50 velocity=80 time=0.03125
        Midi msg: note_off channel=0 note=50 velocity=0 time=0.057291666666666664
        Midi msg: control_change channel=0 control=64 value=0 time=0.041666666666666664
        Midi msg: note_off channel=0 note=59 velocity=0 time=0.005208333333333333
        Midi msg: note_on channel=0 note=44 velocity=79 time=0.018229166666666664
        Midi msg: note_on channel=0 note=32 velocity=84 time=0.0078125
        Midi msg: note_off channel=0 note=33 velocity=0 time=0.018229166666666664
        Midi msg: note_on channel=0 note=50 velocity=84 time=0.0859375
        Midi msg: note_off channel=0 note=50 velocity=0 time=0.07552083333333333
        Midi msg: note_on channel=0 note=59 velocity=84 time=0.03125
        Midi msg: note_off channel=0 note=59 velocity=0 time=0.08072916666666666
        Midi msg: note_on channel=0 note=62 velocity=74 time=0.0234375
        Midi msg: control_change channel=0 control=64 value=127 time=0.0859375
        Midi msg: note_on channel=0 note=64 velocity=83 time=0.020833333333333332
        Midi msg: note_off channel=0 note=62 velocity=0 time=0.020833333333333332
        Midi msg: note_off channel=0 note=64 velocity=0 time=0.013020833333333332
        Midi msg: note_on channel=0 note=62 velocity=78 time=0.0625
        Midi msg: note_off channel=0 note=62 velocity=0 time=0.049479166666666664
        Midi msg: note_on channel=0 note=71 velocity=74 time=0.049479166666666664
        Midi msg: note_off channel=0 note=71 velocity=0 time=0.049479166666666664
        Midi msg: note_on channel=0 note=74 velocity=69 time=0.0546875
        Midi msg: note_on channel=0 note=76 velocity=75 time=0.09635416666666666
        Midi msg: note_off channel=0 note=74 velocity=0 time=0.013020833333333332
        Midi msg: note_off channel=0 note=76 velocity=0 time=0.026041666666666664
        Midi msg: note_on channel=0 note=74 velocity=93 time=0.046875
        Midi msg: note_off channel=0 note=74 velocity=0 time=0.041666666666666664
        Midi msg: note_on channel=0 note=83 velocity=78 time=0.06510416666666666
        Midi msg: note_off channel=0 note=83 velocity=0 time=0.049479166666666664
        Midi msg: note_on channel=0 note=86 velocity=83 time=0.041666666666666664
        Midi msg: note_on channel=0 note=88 velocity=77 time=0.09375
        Midi msg: note_off channel=0 note=86 velocity=0 time=0.005208333333333333
        Midi msg: note_off channel=0 note=88 velocity=0 time=0.028645833333333332
        Midi msg: note_off channel=0 note=32 velocity=0 time=0.015625
        Midi msg: note_on channel=0 note=86 velocity=95 time=0.0234375
        Midi msg: note_off channel=0 note=44 velocity=0 time=0.028645833333333332
        Midi msg: note_off channel=0 note=86 velocity=0 time=0.07552083333333333
        Midi msg: note_on channel=0 note=95 velocity=86 time=0.0026041666666666665
        Midi msg: note_off channel=0 note=95 velocity=0 time=0.09895833333333333
        Midi msg: note_on channel=0 note=98 velocity=75 time=0.0026041666666666665
        Midi msg: control_change channel=0 control=64 value=0 time=0.013020833333333332
        Midi msg: note_on channel=0 note=45 velocity=91 time=0.028645833333333332
        Midi msg: note_on channel=0 note=33 velocity=84 time=0
        Midi msg: note_off channel=0 note=98 velocity=0 time=0.03125
        Midi msg: note_on channel=0 note=100 velocity=97 time=0.0026041666666666665
        Midi msg: note_off channel=0 note=100 velocity=0 time=0.11197916666666666
        Midi msg: note_on channel=0 note=96 velocity=90 time=0.0078125
        Midi msg: note_on channel=0 note=93 velocity=87 time=0.09114583333333333
        Midi msg: note_off channel=0 note=96 velocity=0 time=0.020833333333333332
        Midi msg: control_change channel=0 control=64 value=127 time=0.010416666666666666
        Midi msg: note_off channel=0 note=93 velocity=0 time=0.03125
        Midi msg: note_on channel=0 note=84 velocity=81 time=0.026041666666666664
        Midi msg: note_off channel=0 note=84 velocity=0 time=0.049479166666666664
        Midi msg: note_on channel=0 note=88 velocity=91 time=0.05989583333333333
        Midi msg: note_on channel=0 note=84 velocity=79 time=0.09375
        Midi msg: note_off channel=0 note=88 velocity=0 time=0.0078125
        Midi msg: note_off channel=0 note=84 velocity=0 time=0.0859375
        Midi msg: note_on channel=0 note=81 velocity=79 time=0.0078125
        Midi msg: note_off channel=0 note=81 velocity=0 time=0.0390625
        Midi msg: note_on channel=0 note=72 velocity=89 time=0.03645833333333333
        Midi msg: note_off channel=0 note=45 velocity=0 time=0.041666666666666664
        Midi msg: note_off channel=0 note=72 velocity=0 time=0.0078125
        Midi msg: note_off channel=0 note=33 velocity=0 time=0.018229166666666664
        Midi msg: note_on channel=0 note=76 velocity=91 time=0.046875
        Midi msg: note_on channel=0 note=43 velocity=100 time=0.041666666666666664
        Midi msg: note_on channel=0 note=31 velocity=103 time=0
        Midi msg: note_on channel=0 note=72 velocity=87 time=0.0625
        Midi msg: note_off channel=0 note=76 velocity=0 time=0.020833333333333332
        Midi msg: note_on channel=0 note=69 velocity=70 time=0.0859375
        Midi msg: note_off channel=0 note=72 velocity=0 time=0.013020833333333332
        Midi msg: note_off channel=0 note=69 velocity=0 time=0.04427083333333333
        Midi msg: note_on channel=0 note=60 velocity=88 time=0.0390625
        Midi msg: note_off channel=0 note=60 velocity=0 time=0.046875
        Midi msg: note_on channel=0 note=64 velocity=69 time=0.08333333333333333
        Midi msg: note_on channel=0 note=60 velocity=73 time=0.09114583333333333
        Midi msg: note_off channel=0 note=64 velocity=0 time=0.005208333333333333
        Midi msg: note_on channel=0 note=57 velocity=79 time=0.0703125
        Midi msg: note_off channel=0 note=43 velocity=0 time=0.04427083333333333
        Midi msg: note_off channel=0 note=60 velocity=0 time=0.018229166666666664
        Midi msg: note_off channel=0 note=31 velocity=0 time=0.013020833333333332
        Midi msg: note_on channel=0 note=48 velocity=85 time=0.020833333333333332
        Midi msg: note_on channel=0 note=29 velocity=101 time=0.07291666666666666
        Midi msg: control_change channel=0 control=64 value=0 time=0.0026041666666666665
        Midi msg: note_on channel=0 note=41 velocity=93 time=0.0026041666666666665
        Midi msg: note_off channel=0 note=48 velocity=0 time=0.0234375
        Midi msg: note_off channel=0 note=57 velocity=0 time=0.1015625
        Midi msg: note_on channel=0 note=48 velocity=79 time=0.005208333333333333
        Midi msg: note_on channel=0 note=57 velocity=80 time=0.09635416666666666
        Midi msg: note_off channel=0 note=48 velocity=0 time=0.0026041666666666665
        Midi msg: note_off channel=0 note=57 velocity=0 time=0.11197916666666666
        Midi msg: note_on channel=0 note=60 velocity=81 time=0.0026041666666666665
        Midi msg: control_change channel=0 control=64 value=127 time=0.0546875
        Midi msg: note_off channel=0 note=60 velocity=0 time=0.0625
        Midi msg: note_on channel=0 note=64 velocity=69 time=0.010416666666666666
        Midi msg: note_on channel=0 note=60 velocity=89 time=0.05208333333333333
        Midi msg: note_off channel=0 note=64 velocity=0 time=0.0026041666666666665
        Midi msg: note_on channel=0 note=69 velocity=87 time=0.109375
        Midi msg: note_off channel=0 note=60 velocity=0 time=0.0026041666666666665
        Midi msg: note_on channel=0 note=72 velocity=95 time=0.09895833333333333
        Midi msg: note_off channel=0 note=69 velocity=0 time=0.026041666666666664
        Midi msg: note_on channel=0 note=76 velocity=84 time=0.07291666666666666
        Midi msg: note_off channel=0 note=72 velocity=0 time=0.0078125
        Midi msg: note_off channel=0 note=76 velocity=0 time=0.028645833333333332
        Midi msg: note_on channel=0 note=72 velocity=100 time=0.041666666666666664
        Midi msg: note_off channel=0 note=72 velocity=0 time=0.07291666666666666
        Midi msg: note_on channel=0 note=81 velocity=98 time=0.03645833333333333
        Midi msg: note_off channel=0 note=81 velocity=0 time=0.0625
        Midi msg: note_on channel=0 note=84 velocity=94 time=0.04427083333333333
        Midi msg: note_on channel=0 note=88 velocity=81 time=0.07552083333333333
        Midi msg: note_off channel=0 note=84 velocity=0 time=0.013020833333333332
        Midi msg: note_off channel=0 note=88 velocity=0 time=0.026041666666666664
        Midi msg: note_on channel=0 note=84 velocity=95 time=0.041666666666666664
        Midi msg: note_off channel=0 note=84 velocity=0 time=0.07291666666666666
        Midi msg: note_on channel=0 note=93 velocity=98 time=0.0390625
        Midi msg: note_off channel=0 note=93 velocity=0 time=0.05208333333333333
        Midi msg: note_on channel=0 note=96 velocity=88 time=0.041666666666666664
        Midi msg: note_off channel=0 note=96 velocity=0 time=0.05208333333333333
        Midi msg: control_change channel=0 control=64 value=0 time=0.0078125
        Midi msg: note_on channel=0 note=99 velocity=93 time=0.0625
        Midi msg: note_on channel=0 note=95 velocity=70 time=0.1171875
        Midi msg: control_change channel=0 control=64 value=127 time=0.028645833333333332
        Midi msg: note_off channel=0 note=99 velocity=0 time=0.0078125
        Midi msg: note_on channel=0 note=93 velocity=79 time=0.057291666666666664
        Midi msg: note_off channel=0 note=95 velocity=0 time=0.010416666666666666
        Midi msg: note_off channel=0 note=93 velocity=0 time=0.026041666666666664
        Midi msg: note_on channel=0 note=83 velocity=82 time=0.0625
        Midi msg: note_off channel=0 note=83 velocity=0 time=0.03645833333333333
        Midi msg: note_on channel=0 note=87 velocity=73 time=0.0703125
        Midi msg: note_off channel=0 note=87 velocity=0 time=0.049479166666666664
        Midi msg: note_on channel=0 note=83 velocity=69 time=0.06770833333333333
        Midi msg: note_off channel=0 note=83 velocity=0 time=0.06770833333333333
        Midi msg: note_on channel=0 note=81 velocity=69 time=0.028645833333333332
        Midi msg: note_off channel=0 note=81 velocity=0 time=0.057291666666666664
        Midi msg: note_on channel=0 note=71 velocity=76 time=0.0234375
        Midi msg: note_off channel=0 note=71 velocity=0 time=0.041666666666666664
        Midi msg: note_on channel=0 note=75 velocity=87 time=0.049479166666666664
        Midi msg: note_off channel=0 note=75 velocity=0 time=0.11979166666666666
        Midi msg: note_on channel=0 note=71 velocity=78 time=0
        Midi msg: note_off channel=0 note=71 velocity=0 time=0.08854166666666666
        Midi msg: note_on channel=0 note=69 velocity=69 time=0.010416666666666666
        Midi msg: note_off channel=0 note=69 velocity=0 time=0.057291666666666664
        Midi msg: note_on channel=0 note=59 velocity=76 time=0.018229166666666664
        Midi msg: note_off channel=0 note=59 velocity=0 time=0.041666666666666664
        Midi msg: note_on channel=0 note=63 velocity=90 time=0.046875
        Midi msg: note_on channel=0 note=59 velocity=72 time=0.12239583333333333
        Midi msg: note_off channel=0 note=63 velocity=0 time=0.028645833333333332
        Midi msg: note_on channel=0 note=57 velocity=74 time=0.05208333333333333
        Midi msg: note_off channel=0 note=59 velocity=0 time=0.0234375
        Midi msg: note_off channel=0 note=57 velocity=0 time=0.015625
        Midi msg: note_off channel=0 note=41 velocity=0 time=0.018229166666666664
        Midi msg: note_on channel=0 note=47 velocity=81 time=0.057291666666666664
        Midi msg: note_off channel=0 note=29 velocity=0 time=0.0026041666666666665
        Midi msg: note_off channel=0 note=47 velocity=0 time=0.1015625
        Midi msg: note_on channel=0 note=40 velocity=100 time=0
        Midi msg: note_on channel=0 note=28 velocity=102 time=0.0026041666666666665
        Midi msg: control_change channel=0 control=64 value=0 time=0.0234375
        Midi msg: note_on channel=0 note=47 velocity=72 time=0.078125
        Midi msg: note_off channel=0 note=47 velocity=0 time=0.041666666666666664
        Midi msg: note_on channel=0 note=57 velocity=92 time=0.10677083333333333
        Midi msg: note_off channel=0 note=57 velocity=0 time=0.07291666666666666
        Midi msg: note_on channel=0 note=59 velocity=73 time=0.033854166666666664
        Midi msg: control_change channel=0 control=64 value=127 time=0.018229166666666664
        Midi msg: note_off channel=0 note=59 velocity=0 time=0.0859375
        Midi msg: note_on channel=0 note=64 velocity=92 time=0.015625
        Midi msg: note_off channel=0 note=64 velocity=0 time=0.041666666666666664
        Midi msg: note_on channel=0 note=59 velocity=69 time=0.08072916666666666
        Midi msg: note_off channel=0 note=59 velocity=0 time=0.05208333333333333
        Midi msg: note_on channel=0 note=69 velocity=69 time=0.08854166666666666
        Midi msg: note_off channel=0 note=69 velocity=0 time=0.05989583333333333
        Midi msg: note_on channel=0 note=71 velocity=73 time=0.015625
        Midi msg: note_off channel=0 note=71 velocity=0 time=0.09635416666666666
        Midi msg: note_on channel=0 note=76 velocity=69 time=0.0234375
        Midi msg: note_off channel=0 note=76 velocity=0 time=0.05208333333333333
        Midi msg: note_on channel=0 note=71 velocity=76 time=0.010416666666666666
        Midi msg: note_off channel=0 note=71 velocity=0 time=0.041666666666666664
        Midi msg: note_on channel=0 note=81 velocity=97 time=0.06770833333333333
        Midi msg: note_off channel=0 note=81 velocity=0 time=0.06770833333333333
        Midi msg: note_on channel=0 note=83 velocity=79 time=0.03125
        Midi msg: note_on channel=0 note=88 velocity=94 time=0.08854166666666666
        Midi msg: note_off channel=0 note=83 velocity=0 time=0.005208333333333333
        Midi msg: note_off channel=0 note=88 velocity=0 time=0.028645833333333332
        Midi msg: note_on channel=0 note=83 velocity=82 time=0.0546875
        Midi msg: note_off channel=0 note=83 velocity=0 time=0.057291666666666664
        Midi msg: note_on channel=0 note=93 velocity=80 time=0.06510416666666666
        Midi msg: note_off channel=0 note=93 velocity=0 time=0.07552083333333333
        Midi msg: note_on channel=0 note=95 velocity=84 time=0.010416666666666666
        Midi msg: control_change channel=0 control=64 value=0 time=0.06510416666666666
        Midi msg: note_off channel=0 note=95 velocity=0 time=0.03645833333333333
        Midi msg: note_on channel=0 note=100 velocity=92 time=0
        Midi msg: note_on channel=0 note=95 velocity=78 time=0.08854166666666666
        Midi msg: note_off channel=0 note=100 velocity=0 time=0.0078125
        Midi msg: control_change channel=0 control=64 value=127 time=0.07552083333333333
        Midi msg: note_on channel=0 note=92 velocity=75 time=0.026041666666666664
        Midi msg: note_off channel=0 note=95 velocity=0 time=0.010416666666666666
        Midi msg: note_off channel=0 note=92 velocity=0 time=0.0234375
        Midi msg: note_on channel=0 note=83 velocity=83 time=0.028645833333333332
        Midi msg: note_off channel=0 note=83 velocity=0 time=0.04427083333333333
        Midi msg: note_on channel=0 note=88 velocity=86 time=0.05989583333333333
        Midi msg: note_on channel=0 note=83 velocity=76 time=0.10416666666666666
        Midi msg: note_off channel=0 note=88 velocity=0 time=0.0078125
        Midi msg: note_on channel=0 note=80 velocity=83 time=0.07291666666666666
        Midi msg: note_off channel=0 note=83 velocity=0 time=0.03125
        Midi msg: note_off channel=0 note=80 velocity=0 time=0.0078125
        Midi msg: note_on channel=0 note=71 velocity=69 time=0.0625
        Midi msg: note_off channel=0 note=71 velocity=0 time=0.04427083333333333
        Midi msg: note_on channel=0 note=76 velocity=84 time=0.04427083333333333
        Midi msg: note_on channel=0 note=71 velocity=69 time=0.1171875
        Midi msg: note_off channel=0 note=76 velocity=0 time=0.010416666666666666
        Midi msg: note_on channel=0 note=68 velocity=77 time=0.057291666666666664
        Midi msg: note_off channel=0 note=71 velocity=0 time=0.018229166666666664
        Midi msg: note_off channel=0 note=68 velocity=0 time=0.028645833333333332
        Midi msg: note_on channel=0 note=59 velocity=69 time=0.07291666666666666
        Midi msg: note_off channel=0 note=59 velocity=0 time=0.049479166666666664
        Midi msg: note_on channel=0 note=64 velocity=70 time=0.046875
        Midi msg: note_off channel=0 note=28 velocity=0 time=0.06770833333333333
        Midi msg: note_off channel=0 note=64 velocity=0 time=0.041666666666666664
        Midi msg: note_on channel=0 note=59 velocity=69 time=0.020833333333333332
        Midi msg: note_off channel=0 note=40 velocity=0 time=0.049479166666666664
        Midi msg: note_off channel=0 note=59 velocity=0 time=0.0026041666666666665
        Midi msg: note_on channel=0 note=56 velocity=69 time=0.020833333333333332
        Midi msg: note_off channel=0 note=56 velocity=0 time=0.046875
        Midi msg: note_on channel=0 note=47 velocity=72 time=0.07291666666666666
        Midi msg: note_off channel=0 note=47 velocity=0 time=0.041666666666666664
        Midi msg: note_on channel=0 note=33 velocity=79 time=0.12760416666666666
        Midi msg: note_on channel=0 note=45 velocity=79 time=0
        Midi msg: control_change channel=0 control=64 value=0 time=0.026041666666666664
        Midi msg: note_on channel=0 note=52 velocity=77 time=0.11979166666666666
        Midi msg: note_off channel=0 note=52 velocity=0 time=0.078125
        Midi msg: note_on channel=0 note=57 velocity=76 time=0.018229166666666664
        Midi msg: control_change channel=0 control=64 value=127 time=0.09114583333333333
        Midi msg: note_off channel=0 note=57 velocity=0 time=0.005208333333333333
        Midi msg: note_on channel=0 note=61 velocity=78 time=0.010416666666666666
        Midi msg: note_on channel=0 note=67 velocity=95 time=0.1015625
        Midi msg: note_off channel=0 note=61 velocity=0 time=0.026041666666666664
        Midi msg: note_off channel=0 note=67 velocity=0 time=0.010416666666666666
        Midi msg: note_on channel=0 note=64 velocity=74 time=0.08072916666666666
        Midi msg: note_off channel=0 note=64 velocity=0 time=0.05208333333333333
        Midi msg: note_on channel=0 note=69 velocity=95 time=0.026041666666666664
        Midi msg: note_off channel=0 note=69 velocity=0 time=0.05208333333333333
        Midi msg: note_on channel=0 note=73 velocity=88 time=0.0546875
        Midi msg: note_on channel=0 note=79 velocity=91 time=0.078125
        Midi msg: note_off channel=0 note=79 velocity=0 time=0.033854166666666664
        Midi msg: note_off channel=0 note=73 velocity=0 time=0
        Midi msg: note_on channel=0 note=76 velocity=95 time=0.0625
        Midi msg: note_off channel=0 note=76 velocity=0 time=0.0703125
        Midi msg: note_on channel=0 note=81 velocity=96 time=0.015625
        Midi msg: note_on channel=0 note=85 velocity=88 time=0.09635416666666666
        Midi msg: note_off channel=0 note=81 velocity=0 time=0.005208333333333333
        Midi msg: note_on channel=0 note=91 velocity=100 time=0.09114583333333333
        Midi msg: note_off channel=0 note=85 velocity=0 time=0.018229166666666664
        Midi msg: note_on channel=0 note=85 velocity=85 time=0.078125
        Midi msg: note_off channel=0 note=91 velocity=0 time=0.005208333333333333
        Midi msg: note_on channel=0 note=81 velocity=95 time=0.1171875
        Midi msg: note_off channel=0 note=85 velocity=0 time=0.033854166666666664
        Midi msg: note_on channel=0 note=76 velocity=79 time=0.0390625
        Midi msg: note_off channel=0 note=76 velocity=0 time=0.0390625
        Midi msg: note_off channel=0 note=81 velocity=0 time=0
        Midi msg: note_off channel=0 note=45 velocity=0 time=0.0703125
        Midi msg: control_change channel=0 control=64 value=0 time=0.005208333333333333
        Midi msg: note_on channel=0 note=38 velocity=90 time=0.005208333333333333
        Midi msg: note_on channel=0 note=91 velocity=97 time=0.018229166666666664
        Midi msg: note_off channel=0 note=33 velocity=0 time=0.041666666666666664
        Midi msg: note_off channel=0 note=91 velocity=0 time=0.057291666666666664
        Midi msg: note_on channel=0 note=84 velocity=92 time=0.005208333333333333
        Midi msg: control_change channel=0 control=64 value=127 time=0.08072916666666666
        Midi msg: note_on channel=0 note=81 velocity=88 time=0.018229166666666664
        Midi msg: note_off channel=0 note=84 velocity=0 time=0.015625
        Midi msg: note_off channel=0 note=81 velocity=0 time=0.03645833333333333
        Midi msg: note_on channel=0 note=76 velocity=91 time=0.033854166666666664
        Midi msg: note_off channel=0 note=76 velocity=0 time=0.0390625
        Midi msg: note_on channel=0 note=79 velocity=89 time=0.05989583333333333
        Midi msg: note_off channel=0 note=79 velocity=0 time=0.08854166666666666
        Midi msg: note_on channel=0 note=72 velocity=73 time=0
        Midi msg: note_off channel=0 note=72 velocity=0 time=0.06510416666666666
        Midi msg: note_on channel=0 note=69 velocity=69 time=0.015625
        Midi msg: note_off channel=0 note=69 velocity=0 time=0.049479166666666664
        Midi msg: note_on channel=0 note=64 velocity=86 time=0.04427083333333333
        Midi msg: note_off channel=0 note=64 velocity=0 time=0.0390625
        Midi msg: note_on channel=0 note=67 velocity=92 time=0.06510416666666666
        Midi msg: note_on channel=0 note=60 velocity=88 time=0.0859375
        Midi msg: note_off channel=0 note=67 velocity=0 time=0.018229166666666664
        Midi msg: note_on channel=0 note=57 velocity=71 time=0.09895833333333333
        Midi msg: note_off channel=0 note=60 velocity=0 time=0.0078125
        Midi msg: note_on channel=0 note=52 velocity=88 time=0.0546875
        Midi msg: note_off channel=0 note=52 velocity=0 time=0.0390625
        Midi msg: note_off channel=0 note=57 velocity=0 time=0.010416666666666666
        Midi msg: note_on channel=0 note=66 velocity=96 time=0.08072916666666666
        Midi msg: note_on channel=0 note=60 velocity=87 time=0.11979166666666666
        Midi msg: note_off channel=0 note=66 velocity=0 time=0.005208333333333333
        Midi msg: note_on channel=0 note=57 velocity=69 time=0.08854166666666666
        Midi msg: note_off channel=0 note=60 velocity=0 time=0.04427083333333333
        Midi msg: note_on channel=0 note=50 velocity=92 time=0.018229166666666664
        Midi msg: note_off channel=0 note=57 velocity=0 time=0.03645833333333333
        Midi msg: note_off channel=0 note=50 velocity=0 time=0.028645833333333332
        Midi msg: note_on channel=0 note=43 velocity=92 time=0.0234375
        Midi msg: note_on channel=0 note=31 velocity=97 time=0.005208333333333333
        Midi msg: note_off channel=0 note=38 velocity=0 time=0.028645833333333332
        Midi msg: control_change channel=0 control=64 value=0 time=0.013020833333333332
        Midi msg: note_on channel=0 note=50 velocity=81 time=0.0546875
        Midi msg: note_on channel=0 note=55 velocity=91 time=0.09895833333333333
        Midi msg: note_off channel=0 note=50 velocity=0 time=0.0078125
        Midi msg: note_off channel=0 note=55 velocity=0 time=0.09375
        Midi msg: note_on channel=0 note=60 velocity=79 time=0.0078125
        Midi msg: control_change channel=0 control=64 value=127 time=0.0078125
        Midi msg: note_on channel=0 note=65 velocity=84 time=0.0625
        Midi msg: note_off channel=0 note=60 velocity=0 time=0.026041666666666664
        Midi msg: note_off channel=0 note=65 velocity=0 time=0.057291666666666664
        Midi msg: note_on channel=0 note=62 velocity=91 time=0.010416666666666666
        Midi msg: note_off channel=0 note=62 velocity=0 time=0.05208333333333333
        Midi msg: note_on channel=0 note=67 velocity=91 time=0.041666666666666664
        Midi msg: note_off channel=0 note=67 velocity=0 time=0.078125
        Midi msg: note_on channel=0 note=72 velocity=96 time=0.028645833333333332
        Midi msg: note_on channel=0 note=77 velocity=100 time=0.07552083333333333
        Midi msg: note_off channel=0 note=72 velocity=0 time=0.015625
        Midi msg: note_off channel=0 note=77 velocity=0 time=0.015625
        Midi msg: note_on channel=0 note=74 velocity=92 time=0.06770833333333333
        Midi msg: note_off channel=0 note=74 velocity=0 time=0.046875
        Midi msg: note_on channel=0 note=79 velocity=100 time=0.03645833333333333
        Midi msg: note_off channel=0 note=79 velocity=0 time=0.09635416666666666
        Midi msg: note_on channel=0 note=84 velocity=100 time=0
        Midi msg: note_on channel=0 note=89 velocity=100 time=0.0703125
        Midi msg: note_off channel=0 note=84 velocity=0 time=0.018229166666666664
        Midi msg: note_off channel=0 note=89 velocity=0 time=0.013020833333333332
        Midi msg: note_on channel=0 note=86 velocity=78 time=0.057291666666666664
        Midi msg: note_on channel=0 note=91 velocity=99 time=0.0859375
        Midi msg: note_off channel=0 note=86 velocity=0 time=0.0026041666666666665
        Midi msg: note_off channel=0 note=91 velocity=0 time=0.08854166666666666
        Midi msg: note_on channel=0 note=96 velocity=97 time=0.0026041666666666665
        Midi msg: control_change channel=0 control=64 value=0 time=0.0390625
        Midi msg: note_on channel=0 note=101 velocity=96 time=0.0546875
        Midi msg: note_off channel=0 note=96 velocity=0 time=0.020833333333333332
        Midi msg: note_off channel=0 note=101 velocity=0 time=0.04427083333333333
        Midi msg: note_on channel=0 note=95 velocity=74 time=0.033854166666666664
        Midi msg: control_change channel=0 control=64 value=127 time=0.057291666666666664
        Midi msg: note_on channel=0 note=91 velocity=89 time=0.026041666666666664
        Midi msg: note_off channel=0 note=95 velocity=0 time=0.005208333333333333
        Midi msg: note_off channel=0 note=91 velocity=0 time=0.033854166666666664
        Midi msg: note_on channel=0 note=86 velocity=78 time=0.0390625
        Midi msg: note_off channel=0 note=86 velocity=0 time=0.041666666666666664
        Midi msg: note_on channel=0 note=89 velocity=89 time=0.0546875
        Midi msg: note_on channel=0 note=83 velocity=81 time=0.08072916666666666
        Midi msg: note_off channel=0 note=89 velocity=0 time=0.013020833333333332
        Midi msg: note_off channel=0 note=83 velocity=0 time=0.078125
        Midi msg: note_on channel=0 note=79 velocity=69 time=0.020833333333333332
        Midi msg: note_off channel=0 note=79 velocity=0 time=0.049479166666666664
        Midi msg: note_on channel=0 note=74 velocity=92 time=0.0026041666666666665
        Midi msg: note_off channel=0 note=74 velocity=0 time=0.0390625
        Midi msg: note_on channel=0 note=77 velocity=79 time=0.07552083333333333
        Midi msg: note_off channel=0 note=77 velocity=0 time=0.07291666666666666
        Midi msg: note_on channel=0 note=71 velocity=74 time=0
        Midi msg: note_off channel=0 note=71 velocity=0 time=0.09895833333333333
        Midi msg: note_on channel=0 note=67 velocity=79 time=0.0078125
        Midi msg: note_off channel=0 note=67 velocity=0 time=0.041666666666666664
        Midi msg: note_on channel=0 note=62 velocity=82 time=0.03645833333333333
        Midi msg: note_off channel=0 note=62 velocity=0 time=0.041666666666666664
        Midi msg: note_on channel=0 note=65 velocity=84 time=0.07552083333333333
        Midi msg: note_off channel=0 note=65 velocity=0 time=0.08333333333333333
        Midi msg: note_on channel=0 note=59 velocity=75 time=0.0078125
        Midi msg: note_off channel=0 note=59 velocity=0 time=0.057291666666666664
        Midi msg: note_on channel=0 note=55 velocity=78 time=0.049479166666666664
        Midi msg: note_off channel=0 note=55 velocity=0 time=0.0625
        Midi msg: note_on channel=0 note=50 velocity=69 time=0.033854166666666664
        Midi msg: note_off channel=0 note=50 velocity=0 time=0.0703125
        Midi msg: note_on channel=0 note=36 velocity=91 time=0.0625
        Midi msg: note_off channel=0 note=43 velocity=0 time=0.0078125
        Midi msg: control_change channel=0 control=64 value=0 time=0.005208333333333333
        Midi msg: note_off channel=0 note=31 velocity=0 time=0.0234375
        Midi msg: note_on channel=0 note=48 velocity=82 time=0.0625
        Midi msg: note_off channel=0 note=48 velocity=0 time=0.05208333333333333
        Midi msg: note_on channel=0 note=55 velocity=78 time=0.0546875
        Midi msg: note_on channel=0 note=58 velocity=86 time=0.09895833333333333
        Midi msg: note_off channel=0 note=55 velocity=0 time=0.010416666666666666
        Midi msg: control_change channel=0 control=64 value=127 time=0.049479166666666664
        Midi msg: note_on channel=0 note=64 velocity=86 time=0.049479166666666664
        Midi msg: note_off channel=0 note=58 velocity=0 time=0.0234375
        Midi msg: note_off channel=0 note=64 velocity=0 time=0.015625
        Midi msg: note_on channel=0 note=60 velocity=81 time=0.06770833333333333
        Midi msg: note_off channel=0 note=60 velocity=0 time=0.06770833333333333
        Midi msg: note_on channel=0 note=67 velocity=93 time=0.03125
        Midi msg: note_off channel=0 note=67 velocity=0 time=0.07291666666666666
        Midi msg: note_on channel=0 note=70 velocity=95 time=0.03125
        Midi msg: note_on channel=0 note=76 velocity=77 time=0.1015625
        Midi msg: note_off channel=0 note=70 velocity=0 time=0.0078125
        Midi msg: note_off channel=0 note=76 velocity=0 time=0.028645833333333332
        Midi msg: note_on channel=0 note=72 velocity=85 time=0.0546875
        Midi msg: note_off channel=0 note=72 velocity=0 time=0.07291666666666666
        Midi msg: note_on channel=0 note=79 velocity=96 time=0.020833333333333332
        Midi msg: note_off channel=0 note=79 velocity=0 time=0.07291666666666666
        Midi msg: note_on channel=0 note=82 velocity=101 time=0.0234375
        Midi msg: note_off channel=0 note=82 velocity=0 time=0.09895833333333333
        Midi msg: note_on channel=0 note=88 velocity=81 time=0.0026041666666666665
        Midi msg: note_off channel=0 note=88 velocity=0 time=0.03645833333333333
        Midi msg: note_on channel=0 note=84 velocity=95 time=0.04427083333333333
        Midi msg: note_off channel=0 note=84 velocity=0 time=0.06770833333333333
        Midi msg: note_on channel=0 note=91 velocity=91 time=0.0390625
        Midi msg: note_off channel=0 note=91 velocity=0 time=0.0390625
        Midi msg: note_on channel=0 note=96 velocity=81 time=0.0703125
        Midi msg: note_off channel=0 note=96 velocity=0 time=0.05208333333333333
        Midi msg: note_off channel=0 note=36 velocity=0 time=0.026041666666666664
        Midi msg: note_on channel=0 note=42 velocity=78 time=0
        Midi msg: note_on channel=0 note=30 velocity=79 time=0
        Midi msg: note_on channel=0 note=99 velocity=73 time=0.0234375
        Midi msg: control_change channel=0 control=64 value=0 time=0.0078125
        Midi msg: note_off channel=0 note=99 velocity=0 time=0.046875
        Midi msg: note_on channel=0 note=94 velocity=84 time=0.057291666666666664
        Midi msg: note_on channel=0 note=87 velocity=81 time=0.09895833333333333
        Midi msg: note_off channel=0 note=94 velocity=0 time=0.033854166666666664
        Midi msg: control_change channel=0 control=64 value=127 time=0.018229166666666664
        Midi msg: note_off channel=0 note=87 velocity=0 time=0.0390625
        Midi msg: note_on channel=0 note=84 velocity=86 time=0.013020833333333332
        Midi msg: note_off channel=0 note=84 velocity=0 time=0.05208333333333333
        Midi msg: note_on channel=0 note=87 velocity=69 time=0.05208333333333333
        Midi msg: note_off channel=0 note=87 velocity=0 time=0.0625
        Midi msg: note_on channel=0 note=82 velocity=93 time=0.026041666666666664
        Midi msg: note_off channel=0 note=82 velocity=0 time=0.0703125
        Midi msg: note_on channel=0 note=75 velocity=79 time=0.033854166666666664
        Midi msg: note_off channel=0 note=75 velocity=0 time=0.046875
        Midi msg: note_on channel=0 note=72 velocity=97 time=0.015625
        Midi msg: note_off channel=0 note=72 velocity=0 time=0.046875
        Midi msg: note_on channel=0 note=75 velocity=69 time=0.078125
        Midi msg: note_off channel=0 note=75 velocity=0 time=0.057291666666666664
        Midi msg: note_on channel=0 note=70 velocity=92 time=0.0078125
        Midi msg: note_off channel=0 note=70 velocity=0 time=0.09635416666666666
        Midi msg: note_on channel=0 note=63 velocity=89 time=0.013020833333333332
        Midi msg: note_off channel=0 note=63 velocity=0 time=0.04427083333333333
        Midi msg: note_on channel=0 note=60 velocity=76 time=0.03125
        Midi msg: note_off channel=0 note=60 velocity=0 time=0.046875
        Midi msg: note_on channel=0 note=63 velocity=73 time=0.0546875
        Midi msg: note_off channel=0 note=63 velocity=0 time=0.0703125
        Midi msg: note_on channel=0 note=58 velocity=92 time=0.0234375
        Midi msg: note_off channel=0 note=58 velocity=0 time=0.07291666666666666
        Midi msg: note_on channel=0 note=51 velocity=81 time=0.026041666666666664
        Midi msg: note_off channel=0 note=51 velocity=0 time=0.0625
        Midi msg: note_on channel=0 note=48 velocity=89 time=0.018229166666666664
        Midi msg: note_off channel=0 note=42 velocity=0 time=0.03125
        Midi msg: note_off channel=0 note=30 velocity=0 time=0.0078125
        Midi msg: note_off channel=0 note=48 velocity=0 time=0.049479166666666664
        Midi msg: note_on channel=0 note=41 velocity=94 time=0.026041666666666664
        Midi msg: note_on channel=0 note=29 velocity=97 time=0
        Midi msg: control_change channel=0 control=64 value=0 time=0.005208333333333333
        Midi msg: note_on channel=0 note=48 velocity=84 time=0.08333333333333333
        Midi msg: note_off channel=0 note=48 velocity=0 time=0.109375
        Midi msg: note_on channel=0 note=51 velocity=92 time=0
        Midi msg: note_off channel=0 note=51 velocity=0 time=0.03645833333333333
        Midi msg: control_change channel=0 control=64 value=127 time=0.010416666666666666
        Midi msg: note_on channel=0 note=57 velocity=81 time=0.07291666666666666
        Midi msg: note_off channel=0 note=57 velocity=0 time=0.078125
        Midi msg: note_on channel=0 note=63 velocity=76 time=0.046875
        Midi msg: note_off channel=0 note=63 velocity=0 time=0.08333333333333333
        Midi msg: note_on channel=0 note=60 velocity=84 time=0.015625
        Midi msg: note_off channel=0 note=60 velocity=0 time=0.05208333333333333
        Midi msg: note_on channel=0 note=63 velocity=82 time=0.028645833333333332
        Midi msg: note_off channel=0 note=63 velocity=0 time=0.033854166666666664
        Midi msg: note_on channel=0 note=69 velocity=98 time=0.07552083333333333
        Midi msg: note_off channel=0 note=69 velocity=0 time=0.049479166666666664
        Midi msg: note_on channel=0 note=75 velocity=84 time=0.05208333333333333
        Midi msg: note_off channel=0 note=75 velocity=0 time=0.0625
        Midi msg: note_on channel=0 note=72 velocity=91 time=0.026041666666666664
        Midi msg: note_off channel=0 note=72 velocity=0 time=0.05208333333333333
        Midi msg: note_on channel=0 note=75 velocity=86 time=0.03645833333333333
        Midi msg: note_off channel=0 note=29 velocity=0 time=0.015625
        Midi msg: note_off channel=0 note=75 velocity=0 time=0.015625
        Midi msg: note_on channel=0 note=81 velocity=98 time=0.07552083333333333
        Midi msg: note_off channel=0 note=81 velocity=0 time=0.05208333333333333
        Midi msg: note_on channel=0 note=87 velocity=82 time=0.05989583333333333
        Midi msg: note_off channel=0 note=87 velocity=0 time=0.057291666666666664
        Midi msg: note_on channel=0 note=84 velocity=87 time=0.026041666666666664
        Midi msg: note_off channel=0 note=84 velocity=0 time=0.04427083333333333
        Midi msg: note_on channel=0 note=87 velocity=87 time=0.03125
        Midi msg: note_off channel=0 note=87 velocity=0 time=0.033854166666666664
        Midi msg: note_on channel=0 note=93 velocity=72 time=0.09375
        Midi msg: note_off channel=0 note=93 velocity=0 time=0.04427083333333333
        Midi msg: note_on channel=0 note=99 velocity=75 time=0.033854166666666664
        Midi msg: note_on channel=0 note=47 velocity=83 time=0.013020833333333332
        Midi msg: note_on channel=0 note=35 velocity=78 time=0.005208333333333333
        Midi msg: note_off channel=0 note=41 velocity=0 time=0.0078125
        Midi msg: note_off channel=0 note=99 velocity=0 time=0.041666666666666664
        Midi msg: note_on channel=0 note=92 velocity=93 time=0.041666666666666664
        Midi msg: note_off channel=0 note=92 velocity=0 time=0.0703125
        Midi msg: note_on channel=0 note=87 velocity=70 time=0.0390625
        Midi msg: note_off channel=0 note=87 velocity=0 time=0.06770833333333333
        Midi msg: note_on channel=0 note=83 velocity=81 time=0.015625
        Midi msg: control_change channel=0 control=64 value=0 time=0.0625
        Midi msg: note_off channel=0 note=83 velocity=0 time=0.010416666666666666
        Midi msg: note_on channel=0 note=87 velocity=89 time=0.03645833333333333
        Midi msg: note_off channel=0 note=87 velocity=0 time=0.0546875
        Midi msg: note_on channel=0 note=80 velocity=88 time=0.03125
        Midi msg: control_change channel=0 control=64 value=127 time=0.057291666666666664
        Midi msg: note_off channel=0 note=80 velocity=0 time=0.049479166666666664
        Midi msg: note_on channel=0 note=75 velocity=84 time=0
        Midi msg: note_off channel=0 note=75 velocity=0 time=0.041666666666666664
        Midi msg: note_on channel=0 note=71 velocity=75 time=0.028645833333333332
        Midi msg: note_off channel=0 note=71 velocity=0 time=0.04427083333333333
        Midi msg: note_on channel=0 note=75 velocity=83 time=0.07291666666666666
        Midi msg: note_off channel=0 note=75 velocity=0 time=0.046875
        Midi msg: note_on channel=0 note=68 velocity=86 time=0.028645833333333332
        Midi msg: note_on channel=0 note=63 velocity=84 time=0.08854166666666666
        Midi msg: note_off channel=0 note=68 velocity=0 time=0.005208333333333333
        Midi msg: note_off channel=0 note=63 velocity=0 time=0.041666666666666664
        Midi msg: note_on channel=0 note=59 velocity=75 time=0.0390625
        Midi msg: note_off channel=0 note=59 velocity=0 time=0.03645833333333333
        Midi msg: note_on channel=0 note=63 velocity=81 time=0.06770833333333333
        Midi msg: note_off channel=0 note=47 velocity=0 time=0.03125
        Midi msg: note_off channel=0 note=63 velocity=0 time=0.015625
        Midi msg: note_on channel=0 note=56 velocity=84 time=0.03125
        Midi msg: note_off channel=0 note=56 velocity=0 time=0.0859375
        Midi msg: note_on channel=0 note=51 velocity=81 time=0.015625
        Midi msg: note_on channel=0 note=47 velocity=69 time=0.09114583333333333
        Midi msg: note_off channel=0 note=51 velocity=0 time=0.033854166666666664
        Midi msg: note_off channel=0 note=47 velocity=0 time=0.013020833333333332
        Midi msg: note_on channel=0 note=34 velocity=106 time=0.049479166666666664
        Midi msg: note_off channel=0 note=35 velocity=0 time=0.018229166666666664
        Midi msg: control_change channel=0 control=64 value=0 time=0
        Midi msg: note_on channel=0 note=46 velocity=101 time=0.0625
        Midi msg: note_off channel=0 note=46 velocity=0 time=0.0625
        Midi msg: note_on channel=0 note=53 velocity=71 time=0.05208333333333333
        Midi msg: note_off channel=0 note=53 velocity=0 time=0.06770833333333333
        Midi msg: note_on channel=0 note=56 velocity=74 time=0.026041666666666664
        Midi msg: control_change channel=0 control=64 value=127 time=0.03645833333333333
        Midi msg: note_off channel=0 note=56 velocity=0 time=0.0390625
        Midi msg: note_on channel=0 note=62 velocity=96 time=0.0026041666666666665
        Midi msg: note_off channel=0 note=62 velocity=0 time=0.03125
        Midi msg: note_on channel=0 note=58 velocity=91 time=0.078125
        Midi msg: note_off channel=0 note=58 velocity=0 time=0.05208333333333333
        Midi msg: note_on channel=0 note=65 velocity=88 time=0.046875
        Midi msg: note_off channel=0 note=65 velocity=0 time=0.078125
        Midi msg: note_on channel=0 note=68 velocity=85 time=0.010416666666666666
        Midi msg: note_on channel=0 note=74 velocity=102 time=0.078125
        Midi msg: note_off channel=0 note=74 velocity=0 time=0.026041666666666664
        Midi msg: note_off channel=0 note=68 velocity=0 time=0.018229166666666664
        Midi msg: note_on channel=0 note=70 velocity=97 time=0.0546875
        Midi msg: note_off channel=0 note=70 velocity=0 time=0.09895833333333333
        Midi msg: note_on channel=0 note=77 velocity=94 time=0.0026041666666666665
        Midi msg: note_on channel=0 note=80 velocity=87 time=0.07552083333333333
        Midi msg: note_off channel=0 note=77 velocity=0 time=0.026041666666666664
        Midi msg: note_on channel=0 note=86 velocity=103 time=0.05208333333333333
        Midi msg: note_off channel=0 note=80 velocity=0 time=0.018229166666666664
        Midi msg: note_off channel=0 note=86 velocity=0 time=0.010416666666666666
        Midi msg: note_on channel=0 note=82 velocity=104 time=0.06770833333333333
        Midi msg: note_off channel=0 note=82 velocity=0 time=0.09895833333333333
        Midi msg: note_on channel=0 note=89 velocity=96 time=0.0026041666666666665
        Midi msg: note_on channel=0 note=92 velocity=90 time=0.08072916666666666
        Midi msg: note_off channel=0 note=89 velocity=0 time=0.028645833333333332
        Midi msg: note_on channel=0 note=46 velocity=110 time=0.0390625
        Midi msg: control_change channel=0 control=64 value=0 time=0.018229166666666664
        Midi msg: note_on channel=0 note=98 velocity=102 time=0.005208333333333333
        Midi msg: note_off channel=0 note=92 velocity=0 time=0.0026041666666666665
        Midi msg: note_off channel=0 note=98 velocity=0 time=0.09635416666666666
        Midi msg: note_on channel=0 note=92 velocity=70 time=0.0026041666666666665
        Midi msg: control_change channel=0 control=64 value=127 time=0.0703125
        Midi msg: note_on channel=0 note=88 velocity=79 time=0.041666666666666664
        Midi msg: note_off channel=0 note=92 velocity=0 time=0.026041666666666664
        Midi msg: note_off channel=0 note=88 velocity=0 time=0.026041666666666664
        Midi msg: note_on channel=0 note=82 velocity=75 time=0.026041666666666664
        Midi msg: note_off channel=0 note=82 velocity=0 time=0.05208333333333333
        Midi msg: note_on channel=0 note=86 velocity=83 time=0.05208333333333333
        Midi msg: note_off channel=0 note=86 velocity=0 time=0.078125
        Midi msg: note_on channel=0 note=80 velocity=82 time=0.0078125
        Midi msg: note_on channel=0 note=76 velocity=69 time=0.09375
        Midi msg: note_off channel=0 note=80 velocity=0 time=0.0026041666666666665
        Midi msg: note_off channel=0 note=76 velocity=0 time=0.049479166666666664
        Midi msg: note_on channel=0 note=70 velocity=101 time=0.015625
        Midi msg: note_off channel=0 note=70 velocity=0 time=0.04427083333333333
        Midi msg: note_on channel=0 note=74 velocity=85 time=0.0859375
        Midi msg: note_off channel=0 note=74 velocity=0 time=0.0625
        Midi msg: note_on channel=0 note=68 velocity=77 time=0.018229166666666664
        Midi msg: note_on channel=0 note=64 velocity=72 time=0.10677083333333333
        Midi msg: note_off channel=0 note=68 velocity=0 time=0.005208333333333333
        Midi msg: note_off channel=0 note=64 velocity=0 time=0.03645833333333333
        Midi msg: note_on channel=0 note=58 velocity=101 time=0.018229166666666664
        Midi msg: note_off channel=0 note=58 velocity=0 time=0.046875
        Midi msg: note_on channel=0 note=62 velocity=83 time=0.09114583333333333
        Midi msg: note_on channel=0 note=56 velocity=82 time=0.09114583333333333
        Midi msg: note_off channel=0 note=62 velocity=0 time=0.0026041666666666665
        Midi msg: note_off channel=0 note=46 velocity=0 time=0.05989583333333333
        Midi msg: note_off channel=0 note=56 velocity=0 time=0.028645833333333332
        Midi msg: note_on channel=0 note=52 velocity=70 time=0.015625
        Midi msg: note_off channel=0 note=34 velocity=0 time=0.013020833333333332
        Midi msg: note_on channel=0 note=46 velocity=96 time=0.078125
        Midi msg: control_change channel=0 control=64 value=0 time=0.010416666666666666
        Midi msg: note_off channel=0 note=52 velocity=0 time=0.020833333333333332
        Midi msg: note_off channel=0 note=46 velocity=0 time=0.07291666666666666
        Midi msg: note_on channel=0 note=33 velocity=99 time=0.057291666666666664
        Midi msg: note_on channel=0 note=45 velocity=100 time=0.0078125
        Midi msg: note_off channel=0 note=45 velocity=0 time=0.041666666666666664
        Midi msg: control_change channel=0 control=64 value=127 time=0.013020833333333332
        Midi msg: note_on channel=0 note=45 velocity=71 time=0.0859375
        Midi msg: note_off channel=0 note=45 velocity=0 time=0.041666666666666664
        Midi msg: note_on channel=0 note=52 velocity=84 time=0.06770833333333333
        Midi msg: note_off channel=0 note=52 velocity=0 time=0.1015625
        Midi msg: note_on channel=0 note=57 velocity=69 time=0.013020833333333332
        Midi msg: note_on channel=0 note=45 velocity=69 time=0.018229166666666664
        Midi msg: note_on channel=0 note=61 velocity=87 time=0.08072916666666666
        Midi msg: note_off channel=0 note=57 velocity=0 time=0.020833333333333332
        Midi msg: note_off channel=0 note=61 velocity=0 time=0.015625
        Midi msg: note_on channel=0 note=57 velocity=94 time=0.05208333333333333
        Midi msg: note_off channel=0 note=57 velocity=0 time=0.0703125
        Midi msg: note_on channel=0 note=64 velocity=98 time=0.046875
        Midi msg: note_off channel=0 note=64 velocity=0 time=0.09114583333333333
        Midi msg: note_on channel=0 note=69 velocity=81 time=0.020833333333333332
        Midi msg: note_off channel=0 note=69 velocity=0 time=0.04427083333333333
        Midi msg: note_on channel=0 note=73 velocity=86 time=0.020833333333333332
        Midi msg: note_off channel=0 note=73 velocity=0 time=0.03645833333333333
        Midi msg: note_on channel=0 note=69 velocity=83 time=0.08854166666666666
        Midi msg: note_off channel=0 note=69 velocity=0 time=0.0390625
        Midi msg: note_on channel=0 note=76 velocity=69 time=0.04427083333333333
        Midi msg: note_off channel=0 note=76 velocity=0 time=0.0625
        Midi msg: note_on channel=0 note=81 velocity=91 time=0.010416666666666666
        Midi msg: note_off channel=0 note=81 velocity=0 time=0.08072916666666666
        Midi msg: note_on channel=0 note=85 velocity=73 time=0.010416666666666666
        Midi msg: note_off channel=0 note=85 velocity=0 time=0.0390625
        Midi msg: note_on channel=0 note=81 velocity=85 time=0.03125
        Midi msg: note_off channel=0 note=81 velocity=0 time=0.04427083333333333
        Midi msg: note_on channel=0 note=88 velocity=98 time=0.05989583333333333
        Midi msg: note_off channel=0 note=88 velocity=0 time=0.04427083333333333
        Midi msg: note_on channel=0 note=93 velocity=85 time=0.0625
        Midi msg: note_off channel=0 note=93 velocity=0 time=0.04427083333333333
        Midi msg: note_on channel=0 note=97 velocity=95 time=0.06510416666666666
        Midi msg: note_on channel=0 note=93 velocity=91 time=0.10677083333333333
        Midi msg: note_off channel=0 note=97 velocity=0 time=0.0234375
        Midi msg: note_on channel=0 note=88 velocity=87 time=0.07552083333333333
        Midi msg: note_off channel=0 note=93 velocity=0 time=0.020833333333333332
        Midi msg: note_off channel=0 note=88 velocity=0 time=0.015625
        Midi msg: note_on channel=0 note=81 velocity=87 time=0.0390625
        Midi msg: note_off channel=0 note=81 velocity=0 time=0.03645833333333333
        Midi msg: note_on channel=0 note=85 velocity=103 time=0.06510416666666666
        Midi msg: note_off channel=0 note=85 velocity=0 time=0.109375
        Midi msg: note_on channel=0 note=81 velocity=70 time=0.0078125
        Midi msg: note_off channel=0 note=81 velocity=0 time=0.057291666666666664
        Midi msg: note_on channel=0 note=76 velocity=75 time=0.026041666666666664
        Midi msg: note_off channel=0 note=76 velocity=0 time=0.041666666666666664
        Midi msg: note_on channel=0 note=69 velocity=83 time=0.04427083333333333
        Midi msg: note_off channel=0 note=69 velocity=0 time=0.0390625
        Midi msg: note_on channel=0 note=73 velocity=95 time=0.0546875
        Midi msg: note_off channel=0 note=73 velocity=0 time=0.1171875
        Midi msg: note_on channel=0 note=69 velocity=86 time=0.005208333333333333
        Midi msg: note_on channel=0 note=64 velocity=80 time=0.0859375
        Midi msg: note_off channel=0 note=69 velocity=0 time=0.020833333333333332
        Midi msg: note_off channel=0 note=64 velocity=0 time=0.015625
        Midi msg: note_on channel=0 note=57 velocity=69 time=0.0546875
        Midi msg: note_off channel=0 note=57 velocity=0 time=0.049479166666666664
        Midi msg: note_on channel=0 note=61 velocity=90 time=0.041666666666666664
        Midi msg: note_on channel=0 note=57 velocity=79 time=0.1328125
        Midi msg: note_off channel=0 note=61 velocity=0 time=0.0078125
        Midi msg: note_off channel=0 note=45 velocity=0 time=0.010416666666666666
        Midi msg: note_on channel=0 note=52 velocity=75 time=0.0625
        Midi msg: note_off channel=0 note=57 velocity=0 time=0.049479166666666664
        Midi msg: note_on channel=0 note=45 velocity=98 time=0.0546875
        Midi msg: note_off channel=0 note=52 velocity=0 time=0.078125
        Midi msg: note_off channel=0 note=45 velocity=0 time=0.03125
        Midi msg: note_on channel=0 note=38 velocity=89 time=0.06770833333333333
        Midi msg: control_change channel=0 control=64 value=0 time=0.015625
        Midi msg: note_off channel=0 note=33 velocity=0 time=0.11458333333333333
        Midi msg: note_on channel=0 note=45 velocity=84 time=0.010416666666666666
        Midi msg: note_off channel=0 note=45 velocity=0 time=0.078125
        Midi msg: note_on channel=0 note=50 velocity=78 time=0.015625
        Midi msg: note_off channel=0 note=50 velocity=0 time=0.07552083333333333
        Midi msg: note_on channel=0 note=54 velocity=69 time=0.0234375
        Midi msg: control_change channel=0 control=64 value=127 time=0.08072916666666666
        Midi msg: note_on channel=0 note=60 velocity=92 time=0.018229166666666664
        Midi msg: note_off channel=0 note=54 velocity=0 time=0.018229166666666664
        Midi msg: note_off channel=0 note=60 velocity=0 time=0.018229166666666664
        Midi msg: note_on channel=0 note=57 velocity=89 time=0.0625
        Midi msg: note_off channel=0 note=57 velocity=0 time=0.06770833333333333
        Midi msg: note_on channel=0 note=62 velocity=85 time=0.03125
        Midi msg: note_off channel=0 note=62 velocity=0 time=0.05989583333333333
        Midi msg: note_on channel=0 note=66 velocity=80 time=0.03645833333333333
        Midi msg: note_on channel=0 note=72 velocity=94 time=0.08854166666666666
        Midi msg: note_off channel=0 note=66 velocity=0 time=0.028645833333333332
        Midi msg: note_off channel=0 note=72 velocity=0 time=0.005208333333333333
        Midi msg: note_on channel=0 note=69 velocity=92 time=0.05208333333333333
        Midi msg: note_off channel=0 note=69 velocity=0 time=0.0625
        Midi msg: note_on channel=0 note=74 velocity=98 time=0.033854166666666664
        Midi msg: note_off channel=0 note=74 velocity=0 time=0.0625
        Midi msg: note_on channel=0 note=78 velocity=89 time=0.033854166666666664
        Midi msg: note_on channel=0 note=84 velocity=92 time=0.08333333333333333
        Midi msg: note_off channel=0 note=78 velocity=0 time=0.020833333333333332
        Midi msg: note_off channel=0 note=84 velocity=0 time=0.010416666666666666
        Midi msg: note_on channel=0 note=81 velocity=94 time=0.0625
        Midi msg: note_off channel=0 note=81 velocity=0 time=0.046875
        Midi msg: note_on channel=0 note=86 velocity=83 time=0.03645833333333333
        Midi msg: note_on channel=0 note=90 velocity=83 time=0.0859375
        Midi msg: note_off channel=0 note=86 velocity=0 time=0.0078125
        Midi msg: control_change channel=0 control=64 value=0 time=0.057291666666666664
        Midi msg: note_on channel=0 note=43 velocity=78 time=0.005208333333333333
        Midi msg: note_off channel=0 note=90 velocity=0 time=0.005208333333333333
        Midi msg: note_off channel=0 note=38 velocity=0 time=0
        Midi msg: note_on channel=0 note=31 velocity=86 time=0.005208333333333333
        Midi msg: note_on channel=0 note=96 velocity=87 time=0.015625
        Midi msg: note_off channel=0 note=96 velocity=0 time=0.057291666666666664
        Midi msg: note_on channel=0 note=89 velocity=91 time=0.0625
        Midi msg: note_off channel=0 note=89 velocity=0 time=0.0625
        Midi msg: note_on channel=0 note=86 velocity=83 time=0.03125
        Midi msg: control_change channel=0 control=64 value=127 time=0.010416666666666666
        Midi msg: note_off channel=0 note=86 velocity=0 time=0.03645833333333333
        Midi msg: note_on channel=0 note=79 velocity=69 time=0.05208333333333333
        Midi msg: note_off channel=0 note=79 velocity=0 time=0.04427083333333333
        Midi msg: note_on channel=0 note=84 velocity=92 time=0.049479166666666664
        Midi msg: note_off channel=0 note=84 velocity=0 time=0.08854166666666666
        Midi msg: note_on channel=0 note=77 velocity=81 time=0.005208333333333333
        Midi msg: note_on channel=0 note=74 velocity=84 time=0.09375
        Midi msg: note_off channel=0 note=77 velocity=0 time=0.010416666666666666
        Midi msg: note_off channel=0 note=74 velocity=0 time=0.0390625
        Midi msg: note_on channel=0 note=67 velocity=84 time=0.046875
        Midi msg: note_off channel=0 note=67 velocity=0 time=0.041666666666666664
        Midi msg: note_on channel=0 note=72 velocity=99 time=0.0546875
        Midi msg: note_off channel=0 note=72 velocity=0 time=0.078125
        Midi msg: note_on channel=0 note=65 velocity=80 time=0.018229166666666664
        Midi msg: note_off channel=0 note=65 velocity=0 time=0.06770833333333333
        Midi msg: note_on channel=0 note=62 velocity=81 time=0.018229166666666664
        Midi msg: note_off channel=0 note=62 velocity=0 time=0.05208333333333333
        Midi msg: note_on channel=0 note=55 velocity=75 time=0.0546875
        Midi msg: note_off channel=0 note=55 velocity=0 time=0.0390625
        Midi msg: note_on channel=0 note=59 velocity=73 time=0.05989583333333333
        Midi msg: note_off channel=0 note=43 velocity=0 time=0.0859375
        Midi msg: note_on channel=0 note=53 velocity=80 time=0.0078125
        Midi msg: note_off channel=0 note=59 velocity=0 time=0.005208333333333333
        Midi msg: note_on channel=0 note=50 velocity=79 time=0.0625
        Midi msg: note_off channel=0 note=53 velocity=0 time=0.0078125
        Midi msg: note_on channel=0 note=43 velocity=90 time=0.08854166666666666
        Midi msg: note_off channel=0 note=50 velocity=0 time=0.06770833333333333
        Midi msg: control_change channel=0 control=64 value=0 time=0.0026041666666666665
        Midi msg: note_off channel=0 note=31 velocity=0 time=0.015625
        Midi msg: note_on channel=0 note=36 velocity=101 time=0.0026041666666666665
        Midi msg: note_off channel=0 note=43 velocity=0 time=0.005208333333333333
        Midi msg: note_on channel=0 note=43 velocity=78 time=0.1015625
        Midi msg: note_off channel=0 note=43 velocity=0 time=0.078125
        Midi msg: note_on channel=0 note=48 velocity=81 time=0.0078125
        Midi msg: note_on channel=0 note=52 velocity=87 time=0.09895833333333333
        Midi msg: note_off channel=0 note=48 velocity=0 time=0.010416666666666666
        Midi msg: control_change channel=0 control=64 value=127 time=0.05208333333333333
        Midi msg: note_on channel=0 note=59 velocity=78 time=0.03125
        Midi msg: note_off channel=0 note=52 velocity=0 time=0.005208333333333333
        Midi msg: note_off channel=0 note=59 velocity=0 time=0.026041666666666664
        Midi msg: note_on channel=0 note=55 velocity=82 time=0.0703125
        Midi msg: note_off channel=0 note=55 velocity=0 time=0.0546875
        Midi msg: note_on channel=0 note=60 velocity=88 time=0.033854166666666664
        Midi msg: note_off channel=0 note=60 velocity=0 time=0.09114583333333333
        Midi msg: note_on channel=0 note=64 velocity=97 time=0.010416666666666666
        Midi msg: note_on channel=0 note=71 velocity=87 time=0.08854166666666666
        Midi msg: note_off channel=0 note=64 velocity=0 time=0.0026041666666666665
        Midi msg: note_off channel=0 note=71 velocity=0 time=0.028645833333333332
        Midi msg: note_on channel=0 note=67 velocity=83 time=0.06510416666666666
        Midi msg: note_off channel=0 note=67 velocity=0 time=0.057291666666666664
        Midi msg: note_on channel=0 note=72 velocity=98 time=0.028645833333333332
        Midi msg: note_off channel=0 note=72 velocity=0 time=0.0546875
        Midi msg: note_on channel=0 note=76 velocity=101 time=0.033854166666666664
        Midi msg: note_on channel=0 note=83 velocity=87 time=0.09114583333333333
        Midi msg: note_off channel=0 note=76 velocity=0 time=0.010416666666666666
        Midi msg: note_off channel=0 note=83 velocity=0 time=0.018229166666666664
        Midi msg: note_on channel=0 note=79 velocity=97 time=0.0625
        Midi msg: note_off channel=0 note=79 velocity=0 time=0.0625
        Midi msg: note_on channel=0 note=84 velocity=97 time=0.0234375
        Midi msg: note_off channel=0 note=84 velocity=0 time=0.06510416666666666
        Midi msg: note_on channel=0 note=88 velocity=97 time=0.015625
        Midi msg: control_change channel=0 control=64 value=0 time=0.0546875
        Midi msg: note_on channel=0 note=41 velocity=90 time=0.015625
        Midi msg: note_on channel=0 note=29 velocity=89 time=0.005208333333333333
        Midi msg: note_off channel=0 note=36 velocity=0 time=0.013020833333333332
        Midi msg: note_off channel=0 note=88 velocity=0 time=0.0078125
        Midi msg: note_on channel=0 note=95 velocity=88 time=0.0078125
        Midi msg: note_off channel=0 note=95 velocity=0 time=0.10416666666666666
        Midi msg: note_on channel=0 note=88 velocity=91 time=0
        Midi msg: control_change channel=0 control=64 value=127 time=0.0859375
        Midi msg: note_on channel=0 note=84 velocity=97 time=0.020833333333333332
        Midi msg: note_off channel=0 note=88 velocity=0 time=0.0026041666666666665
        Midi msg: note_off channel=0 note=84 velocity=0 time=0.03645833333333333
        Midi msg: note_on channel=0 note=77 velocity=84 time=0.046875
        Midi msg: note_off channel=0 note=77 velocity=0 time=0.049479166666666664
        Midi msg: note_on channel=0 note=83 velocity=89 time=0.049479166666666664
        Midi msg: note_off channel=0 note=83 velocity=0 time=0.1015625
        Midi msg: note_on channel=0 note=76 velocity=93 time=0.0026041666666666665
        Midi msg: note_on channel=0 note=72 velocity=90 time=0.0859375
        Midi msg: note_off channel=0 note=76 velocity=0 time=0.015625
        Midi msg: note_off channel=0 note=72 velocity=0 time=0.026041666666666664
        Midi msg: note_on channel=0 note=65 velocity=77 time=0.057291666666666664
        Midi msg: note_off channel=0 note=65 velocity=0 time=0.04427083333333333
        Midi msg: note_on channel=0 note=71 velocity=75 time=0.046875
        Midi msg: note_off channel=0 note=71 velocity=0 time=0.09375
        Midi msg: note_on channel=0 note=64 velocity=83 time=0
        Midi msg: note_off channel=0 note=64 velocity=0 time=0.06770833333333333
        Midi msg: note_on channel=0 note=60 velocity=78 time=0.015625
        Midi msg: note_off channel=0 note=60 velocity=0 time=0.04427083333333333
        Midi msg: note_on channel=0 note=53 velocity=79 time=0.057291666666666664
        Midi msg: note_off channel=0 note=53 velocity=0 time=0.046875
        Midi msg: note_on channel=0 note=57 velocity=69 time=0.07291666666666666
        Midi msg: note_off channel=0 note=57 velocity=0 time=0.0546875
        Midi msg: note_on channel=0 note=52 velocity=72 time=0.033854166666666664
        Midi msg: note_off channel=0 note=41 velocity=0 time=0.026041666666666664
        Midi msg: note_off channel=0 note=52 velocity=0 time=0.028645833333333332
        Midi msg: note_on channel=0 note=48 velocity=80 time=0.0234375
        Midi msg: note_on channel=0 note=41 velocity=81 time=0.1015625
        Midi msg: note_on channel=0 note=43 velocity=69 time=0.049479166666666664
        Midi msg: note_off channel=0 note=41 velocity=0 time=0.018229166666666664
        Midi msg: note_on channel=0 note=35 velocity=88 time=0.020833333333333332
        Midi msg: control_change channel=0 control=64 value=0 time=0.005208333333333333
        Midi msg: note_off channel=0 note=48 velocity=0 time=0.005208333333333333
        Midi msg: note_off channel=0 note=43 velocity=0 time=0.010416666666666666
        Midi msg: note_off channel=0 note=29 velocity=0 time=0.018229166666666664
        Midi msg: note_on channel=0 note=41 velocity=80 time=0.06770833333333333
        Midi msg: note_off channel=0 note=41 velocity=0 time=0.0625
        Midi msg: note_on channel=0 note=47 velocity=69 time=0.026041666666666664
        Midi msg: note_off channel=0 note=47 velocity=0 time=0.08333333333333333
        Midi msg: note_on channel=0 note=50 velocity=84 time=0.010416666666666666
        Midi msg: note_on channel=0 note=57 velocity=92 time=0.0859375
        Midi msg: note_off channel=0 note=50 velocity=0 time=0.0078125
        Midi msg: control_change channel=0 control=64 value=127 time=0.0078125
        Midi msg: note_off channel=0 note=57 velocity=0 time=0.020833333333333332
        Midi msg: note_on channel=0 note=53 velocity=87 time=0.06770833333333333
        Midi msg: note_off channel=0 note=53 velocity=0 time=0.041666666666666664
        Midi msg: note_on channel=0 note=59 velocity=72 time=0.05208333333333333
        Midi msg: note_off channel=0 note=59 velocity=0 time=0.06770833333333333
        Midi msg: note_on channel=0 note=62 velocity=89 time=0.03125
        Midi msg: note_on channel=0 note=69 velocity=87 time=0.08333333333333333
        Midi msg: note_off channel=0 note=62 velocity=0 time=0.005208333333333333
        Midi msg: note_off channel=0 note=69 velocity=0 time=0.033854166666666664
        Midi msg: note_on channel=0 note=65 velocity=97 time=0.0546875
        Midi msg: note_off channel=0 note=65 velocity=0 time=0.0546875
        Midi msg: note_on channel=0 note=71 velocity=82 time=0.041666666666666664
        Midi msg: note_off channel=0 note=71 velocity=0 time=0.09895833333333333
        Midi msg: note_on channel=0 note=74 velocity=99 time=0.0026041666666666665
        Midi msg: note_off channel=0 note=74 velocity=0 time=0.09375
        Midi msg: note_on channel=0 note=81 velocity=98 time=0.005208333333333333
        Midi msg: note_off channel=0 note=81 velocity=0 time=0.033854166666666664
        Midi msg: note_on channel=0 note=77 velocity=100 time=0.06510416666666666
        Midi msg: note_off channel=0 note=77 velocity=0 time=0.07552083333333333
        Midi msg: note_on channel=0 note=83 velocity=87 time=0.013020833333333332
        Midi msg: note_on channel=0 note=86 velocity=94 time=0.09114583333333333
        Midi msg: note_off channel=0 note=83 velocity=0 time=0.018229166666666664
        Midi msg: control_change channel=0 control=64 value=0 time=0.033854166666666664
        Midi msg: note_off channel=0 note=35 velocity=0 time=0.0078125
        Midi msg: note_on channel=0 note=40 velocity=101 time=0.015625
        Midi msg: note_on channel=0 note=28 velocity=103 time=0.005208333333333333
        Midi msg: note_on channel=0 note=91 velocity=97 time=0.010416666666666666
        Midi msg: note_off channel=0 note=86 velocity=0 time=0.018229166666666664
        Midi msg: note_on channel=0 note=86 velocity=89 time=0.08854166666666666
        Midi msg: note_off channel=0 note=91 velocity=0 time=0.013020833333333332
        Midi msg: control_change channel=0 control=64 value=127 time=0.06770833333333333
        Midi msg: note_on channel=0 note=83 velocity=76 time=0.018229166666666664
        Midi msg: note_off channel=0 note=86 velocity=0 time=0.015625
        Midi msg: note_off channel=0 note=83 velocity=0 time=0.028645833333333332
        Midi msg: note_off channel=0 note=28 velocity=0 time=0.0234375
        Midi msg: note_on channel=0 note=76 velocity=97 time=0.010416666666666666
        Midi msg: note_off channel=0 note=76 velocity=0 time=0.0703125
        Midi msg: note_on channel=0 note=79 velocity=97 time=0.0390625
        Midi msg: note_off channel=0 note=79 velocity=0 time=0.1015625
        Midi msg: note_on channel=0 note=74 velocity=81 time=0
        Midi msg: note_off channel=0 note=74 velocity=0 time=0.06770833333333333
        Midi msg: note_on channel=0 note=71 velocity=77 time=0.010416666666666666
        Midi msg: note_off channel=0 note=71 velocity=0 time=0.046875
        Midi msg: note_on channel=0 note=64 velocity=88 time=0.046875
        Midi msg: control_change channel=0 control=64 value=0 time=0.09375
        Midi msg: note_on channel=0 note=45 velocity=107 time=0.0026041666666666665
        Midi msg: note_off channel=0 note=64 velocity=0 time=0.0026041666666666665
        Midi msg: note_on channel=0 note=33 velocity=105 time=0
        Midi msg: note_on channel=0 note=69 velocity=70 time=0.028645833333333332
        Midi msg: note_off channel=0 note=40 velocity=0 time=0.005208333333333333
        Midi msg: note_off channel=0 note=69 velocity=0 time=0.05989583333333333
        Midi msg: note_on channel=0 note=72 velocity=98 time=0.0026041666666666665
        Midi msg: note_off channel=0 note=72 velocity=0 time=0.09114583333333333
        Midi msg: note_on channel=0 note=79 velocity=98 time=0
        Midi msg: control_change channel=0 control=64 value=127 time=0.018229166666666664
        Midi msg: note_off channel=0 note=79 velocity=0 time=0.0234375
        Midi msg: note_off channel=0 note=45 velocity=0 time=0.0625
        Midi msg: note_on channel=0 note=76 velocity=99 time=0
        Midi msg: note_off channel=0 note=76 velocity=0 time=0.03125
        Midi msg: note_on channel=0 note=81 velocity=100 time=0.057291666666666664
        Midi msg: note_on channel=0 note=84 velocity=100 time=0.08854166666666666
        Midi msg: note_off channel=0 note=81 velocity=0 time=0.0234375
        Midi msg: note_off channel=0 note=84 velocity=0 time=0.0703125
        Midi msg: note_on channel=0 note=91 velocity=98 time=0.010416666666666666
        Midi msg: note_off channel=0 note=91 velocity=0 time=0.09375
        Midi msg: note_on channel=0 note=88 velocity=97 time=0.015625
        Midi msg: control_change channel=0 control=64 value=0 time=0.09895833333333333
        Midi msg: note_on channel=0 note=38 velocity=108 time=0.010416666666666666
        Midi msg: note_on channel=0 note=89 velocity=107 time=0.005208333333333333
        Midi msg: note_on channel=0 note=26 velocity=106 time=0
        Midi msg: note_off channel=0 note=88 velocity=0 time=0.0234375
        Midi msg: note_off channel=0 note=33 velocity=0 time=0.005208333333333333
        Midi msg: note_on channel=0 note=84 velocity=100 time=0.09114583333333333
        Midi msg: note_off channel=0 note=89 velocity=0 time=0.005208333333333333
        Midi msg: note_on channel=0 note=81 velocity=93 time=0.1015625
        Midi msg: note_off channel=0 note=84 velocity=0 time=0.015625
        Midi msg: control_change channel=0 control=64 value=127 time=0
        Midi msg: note_off channel=0 note=81 velocity=0 time=0.0234375
        Midi msg: note_on channel=0 note=74 velocity=85 time=0.041666666666666664
        Midi msg: note_off channel=0 note=26 velocity=0 time=0.005208333333333333
        Midi msg: note_off channel=0 note=74 velocity=0 time=0.03645833333333333
        Midi msg: note_on channel=0 note=77 velocity=81 time=0.0703125
        Midi msg: note_on channel=0 note=72 velocity=88 time=0.0859375
        Midi msg: note_off channel=0 note=77 velocity=0 time=0.015625
        Midi msg: note_off channel=0 note=72 velocity=0 time=0.0625
        Midi msg: note_on channel=0 note=69 velocity=82 time=0.020833333333333332
        Midi msg: note_off channel=0 note=69 velocity=0 time=0.04427083333333333
        Midi msg: note_on channel=0 note=62 velocity=80 time=0.0546875
        Midi msg: note_off channel=0 note=62 velocity=0 time=0.078125
        Midi msg: note_on channel=0 note=43 velocity=91 time=0.03645833333333333
        Midi msg: note_on channel=0 note=31 velocity=94 time=0.005208333333333333
        Midi msg: note_on channel=0 note=67 velocity=96 time=0.0026041666666666665
        Midi msg: note_off channel=0 note=38 velocity=0 time=0.0234375
        Midi msg: control_change channel=0 control=64 value=0 time=0.015625
        Midi msg: note_off channel=0 note=67 velocity=0 time=0.0625
        Midi msg: note_on channel=0 note=71 velocity=84 time=0.005208333333333333
        Midi msg: note_on channel=0 note=77 velocity=100 time=0.09114583333333333
        Midi msg: note_off channel=0 note=71 velocity=0 time=0.0078125
        Midi msg: control_change channel=0 control=64 value=127 time=0.010416666666666666
        Midi msg: note_off channel=0 note=77 velocity=0 time=0.020833333333333332
        Midi msg: note_on channel=0 note=74 velocity=94 time=0.06770833333333333
        Midi msg: note_off channel=0 note=43 velocity=0 time=0.033854166666666664
        Midi msg: note_off channel=0 note=74 velocity=0 time=0.005208333333333333
        Midi msg: note_on channel=0 note=79 velocity=99 time=0.05989583333333333
        Midi msg: note_off channel=0 note=79 velocity=0 time=0.09895833333333333
        Midi msg: note_on channel=0 note=83 velocity=79 time=0.0026041666666666665
        Midi msg: note_off channel=0 note=83 velocity=0 time=0.057291666666666664
        Midi msg: note_on channel=0 note=89 velocity=97 time=0.033854166666666664
        Midi msg: note_off channel=0 note=89 velocity=0 time=0.09895833333333333
        Midi msg: note_on channel=0 note=86 velocity=95 time=0.005208333333333333
        Midi msg: note_on channel=0 note=36 velocity=103 time=0.11197916666666666
        Midi msg: note_on channel=0 note=24 velocity=103 time=0
        Midi msg: note_on channel=0 note=88 velocity=107 time=0.0026041666666666665
        Midi msg: control_change channel=0 control=64 value=0 time=0.0078125
        Midi msg: note_off channel=0 note=86 velocity=0 time=0.013020833333333332
        Midi msg: note_off channel=0 note=31 velocity=0 time=0.018229166666666664
        Midi msg: note_on channel=0 note=83 velocity=90 time=0.07552083333333333
        Midi msg: note_off channel=0 note=88 velocity=0 time=0.013020833333333332
        Midi msg: note_on channel=0 note=79 velocity=93 time=0.08333333333333333
        Midi msg: control_change channel=0 control=64 value=127 time=0.0234375
        Midi msg: note_off channel=0 note=83 velocity=0 time=0.005208333333333333
        Midi msg: note_off channel=0 note=79 velocity=0 time=0.03645833333333333
        Midi msg: note_on channel=0 note=72 velocity=99 time=0.020833333333333332
        Midi msg: note_off channel=0 note=24 velocity=0 time=0.015625
        Midi msg: note_off channel=0 note=72 velocity=0 time=0.033854166666666664
        Midi msg: note_on channel=0 note=76 velocity=75 time=0.08072916666666666
        Midi msg: note_on channel=0 note=71 velocity=69 time=0.07552083333333333
        Midi msg: note_off channel=0 note=76 velocity=0 time=0.015625
        Midi msg: note_on channel=0 note=67 velocity=84 time=0.0625
        Midi msg: note_off channel=0 note=71 velocity=0 time=0.028645833333333332
        Midi msg: note_off channel=0 note=67 velocity=0 time=0.03125
        Midi msg: note_on channel=0 note=60 velocity=92 time=0.041666666666666664
        Midi msg: note_on channel=0 note=41 velocity=102 time=0.10416666666666666
        Midi msg: note_on channel=0 note=29 velocity=105 time=0.0026041666666666665
        Midi msg: control_change channel=0 control=64 value=0 time=0.0026041666666666665
        Midi msg: note_on channel=0 note=65 velocity=97 time=0.005208333333333333
        Midi msg: note_off channel=0 note=60 velocity=0 time=0.005208333333333333
        Midi msg: note_off channel=0 note=36 velocity=0 time=0.041666666666666664
        Midi msg: note_on channel=0 note=69 velocity=98 time=0.05989583333333333
        Midi msg: note_off channel=0 note=65 velocity=0 time=0.018229166666666664
        Midi msg: note_on channel=0 note=76 velocity=108 time=0.06770833333333333
        Midi msg: note_off channel=0 note=69 velocity=0 time=0.0026041666666666665
        Midi msg: control_change channel=0 control=64 value=127 time=0.0234375
        Midi msg: note_off channel=0 note=76 velocity=0 time=0.015625
        Midi msg: note_on channel=0 note=72 velocity=95 time=0.0703125
        Midi msg: note_off channel=0 note=29 velocity=0 time=0.0078125
        Midi msg: note_off channel=0 note=72 velocity=0 time=0.033854166666666664
        Midi msg: note_on channel=0 note=77 velocity=100 time=0.05208333333333333
        Midi msg: note_on channel=0 note=81 velocity=104 time=0.08333333333333333
        Midi msg: note_off channel=0 note=77 velocity=0 time=0.013020833333333332
        Midi msg: note_off channel=0 note=81 velocity=0 time=0.07291666666666666
        Midi msg: note_on channel=0 note=88 velocity=102 time=0.015625
        Midi msg: note_off channel=0 note=88 velocity=0 time=0.10416666666666666
        Midi msg: note_on channel=0 note=84 velocity=100 time=0
        Midi msg: control_change channel=0 control=64 value=0 time=0.09375
        Midi msg: note_on channel=0 note=47 velocity=96 time=0.0078125
        Midi msg: note_on channel=0 note=35 velocity=90 time=0.005208333333333333
        Midi msg: note_on channel=0 note=86 velocity=105 time=0.010416666666666666
        Midi msg: note_off channel=0 note=84 velocity=0 time=0.026041666666666664
        Midi msg: note_off channel=0 note=41 velocity=0 time=0
        Midi msg: note_on channel=0 note=81 velocity=99 time=0.07291666666666666
        Midi msg: note_off channel=0 note=86 velocity=0 time=0.005208333333333333
        Midi msg: control_change channel=0 control=64 value=127 time=0.08072916666666666
        Midi msg: note_on channel=0 note=77 velocity=94 time=0.015625
        Midi msg: note_off channel=0 note=81 velocity=0 time=0.0026041666666666665
        Midi msg: note_off channel=0 note=77 velocity=0 time=0.04427083333333333
        Midi msg: note_on channel=0 note=71 velocity=83 time=0.033854166666666664
        Midi msg: note_off channel=0 note=71 velocity=0 time=0.0390625
        Midi msg: note_on channel=0 note=74 velocity=94 time=0.06770833333333333
        Midi msg: note_off channel=0 note=74 velocity=0 time=0.09635416666666666
        Midi msg: note_on channel=0 note=69 velocity=82 time=0
        Midi msg: note_off channel=0 note=69 velocity=0 time=0.078125
        Midi msg: note_on channel=0 note=65 velocity=83 time=0.0026041666666666665
        Midi msg: note_off channel=0 note=65 velocity=0 time=0.04427083333333333
        Midi msg: note_on channel=0 note=59 velocity=80 time=0.041666666666666664
        Midi msg: note_off channel=0 note=59 velocity=0 time=0.04427083333333333
        Midi msg: note_off channel=0 note=47 velocity=0 time=0.08072916666666666
        Midi msg: note_on channel=0 note=62 velocity=72 time=0.0026041666666666665
        Midi msg: note_on channel=0 note=57 velocity=89 time=0.09114583333333333
        Midi msg: note_off channel=0 note=62 velocity=0 time=0.013020833333333332
        Midi msg: note_off channel=0 note=57 velocity=0 time=0.078125
        Midi msg: note_on channel=0 note=53 velocity=87 time=0
        Midi msg: note_off channel=0 note=35 velocity=0 time=0.03645833333333333
        Midi msg: note_off channel=0 note=53 velocity=0 time=0.0546875
        Midi msg: note_on channel=0 note=47 velocity=84 time=0.0234375
        Midi msg: note_off channel=0 note=47 velocity=0 time=0.09895833333333333
        Midi msg: note_on channel=0 note=35 velocity=100 time=0.026041666666666664
        Midi msg: note_on channel=0 note=47 velocity=102 time=0.453125
        Midi msg: control_change channel=0 control=64 value=0 time=0.0026041666666666665
        Midi msg: note_on channel=0 note=87 velocity=107 time=0.0026041666666666665
        Midi msg: note_on channel=0 note=81 velocity=94 time=0.1171875
        Midi msg: note_off channel=0 note=87 velocity=0 time=0.04427083333333333
        Midi msg: control_change channel=0 control=64 value=127 time=0.028645833333333332
        Midi msg: note_on channel=0 note=78 velocity=74 time=0.046875
        Midi msg: note_off channel=0 note=81 velocity=0 time=0.020833333333333332
        Midi msg: note_off channel=0 note=78 velocity=0 time=0.028645833333333332
        Midi msg: note_on channel=0 note=71 velocity=75 time=0.026041666666666664
        Midi msg: note_off channel=0 note=71 velocity=0 time=0.04427083333333333
        Midi msg: note_on channel=0 note=75 velocity=97 time=0.078125
        Midi msg: note_on channel=0 note=69 velocity=95 time=0.12760416666666666
        Midi msg: note_off channel=0 note=75 velocity=0 time=0.028645833333333332
        Midi msg: note_on channel=0 note=66 velocity=79 time=0.0703125
        Midi msg: note_off channel=0 note=69 velocity=0 time=0.013020833333333332
        Midi msg: note_off channel=0 note=66 velocity=0 time=0.028645833333333332
        Midi msg: note_on channel=0 note=59 velocity=76 time=0.0390625
        Midi msg: note_off channel=0 note=59 velocity=0 time=0.0390625
        Midi msg: note_on channel=0 note=63 velocity=96 time=0.0625
        Midi msg: note_off channel=0 note=47 velocity=0 time=0.08072916666666666
        Midi msg: note_on channel=0 note=57 velocity=97 time=0.04427083333333333
        Midi msg: note_off channel=0 note=63 velocity=0 time=0.033854166666666664
        Midi msg: note_off channel=0 note=35 velocity=0 time=0.015625
        Midi msg: note_on channel=0 note=54 velocity=86 time=0.0546875
        Midi msg: note_off channel=0 note=57 velocity=0 time=0.015625
        Midi msg: note_off channel=0 note=54 velocity=0 time=0.078125
        Midi msg: note_on channel=0 note=47 velocity=91 time=0.013020833333333332
        Midi msg: note_off channel=0 note=47 velocity=0 time=0.03125
        Midi msg: note_on channel=0 note=35 velocity=105 time=0.09895833333333333
        Midi msg: note_off channel=0 note=35 velocity=0 time=0.44791666666666663
        Midi msg: note_on channel=0 note=28 velocity=117 time=0.17708333333333331
        Midi msg: note_on channel=0 note=40 velocity=116 time=0.0026041666666666665
        Midi msg: control_change channel=0 control=64 value=0 time=0.125
        Midi msg: note_on channel=0 note=47 velocity=83 time=0.03645833333333333
        Midi msg: note_off channel=0 note=47 velocity=0 time=0.11979166666666666
        Midi msg: note_on channel=0 note=52 velocity=93 time=0.013020833333333332
        Midi msg: note_on channel=0 note=56 velocity=86 time=0.09635416666666666
        Midi msg: note_off channel=0 note=52 velocity=0 time=0.010416666666666666
        Midi msg: note_off channel=0 note=56 velocity=0 time=0.07291666666666666
        Midi msg: control_change channel=0 control=64 value=127 time=0.005208333333333333
        Midi msg: note_on channel=0 note=64 velocity=100 time=0.04427083333333333
        Midi msg: note_off channel=0 note=64 velocity=0 time=0.033854166666666664
        Midi msg: note_on channel=0 note=59 velocity=83 time=0.07552083333333333
        Midi msg: note_off channel=0 note=59 velocity=0 time=0.057291666666666664
        Midi msg: note_on channel=0 note=64 velocity=99 time=0.0390625
        Midi msg: note_off channel=0 note=64 velocity=0 time=0.057291666666666664
        Midi msg: note_on channel=0 note=68 velocity=86 time=0.049479166666666664
        Midi msg: note_off channel=0 note=68 velocity=0 time=0.0390625
        Midi msg: note_on channel=0 note=76 velocity=69 time=0.078125
        Midi msg: note_off channel=0 note=76 velocity=0 time=0.046875
        Midi msg: note_on channel=0 note=71 velocity=83 time=0.0234375
        Midi msg: note_off channel=0 note=71 velocity=0 time=0.046875
        Midi msg: note_on channel=0 note=76 velocity=84 time=0.041666666666666664
        Midi msg: note_off channel=0 note=76 velocity=0 time=0.06770833333333333
        Midi msg: note_on channel=0 note=80 velocity=92 time=0.018229166666666664
        Midi msg: note_off channel=0 note=80 velocity=0 time=0.06770833333333333
        Midi msg: note_on channel=0 note=88 velocity=94 time=0.026041666666666664
        Midi msg: note_off channel=0 note=88 velocity=0 time=0.033854166666666664
        Midi msg: note_on channel=0 note=83 velocity=92 time=0.041666666666666664
        Midi msg: note_off channel=0 note=83 velocity=0 time=0.09635416666666666
        Midi msg: note_on channel=0 note=88 velocity=69 time=0.04427083333333333
        Midi msg: note_on channel=0 note=92 velocity=95 time=0.049479166666666664
        Midi msg: note_off channel=0 note=88 velocity=0 time=0.015625
        Midi msg: note_off channel=0 note=92 velocity=0 time=0.026041666666666664
        Midi msg: note_on channel=0 note=100 velocity=101 time=0.08072916666666666
        Midi msg: note_off channel=0 note=100 velocity=0 time=0.09114583333333333
        Midi msg: note_on channel=0 note=92 velocity=85 time=0.015625
        Midi msg: note_on channel=0 note=88 velocity=92 time=0.109375
        Midi msg: note_off channel=0 note=92 velocity=0 time=0.03125
        Midi msg: note_off channel=0 note=88 velocity=0 time=0.0625
        Midi msg: note_on channel=0 note=83 velocity=74 time=0.0078125
        Midi msg: note_off channel=0 note=83 velocity=0 time=0.033854166666666664
        Midi msg: note_on channel=0 note=88 velocity=83 time=0.05989583333333333
        Midi msg: note_off channel=0 note=88 velocity=0 time=0.08333333333333333
        Midi msg: note_on channel=0 note=80 velocity=84 time=0.018229166666666664
        Midi msg: note_on channel=0 note=76 velocity=88 time=0.09895833333333333
        Midi msg: note_off channel=0 note=80 velocity=0 time=0.041666666666666664
        Midi msg: note_off channel=0 note=76 velocity=0 time=0.046875
        Midi msg: note_on channel=0 note=71 velocity=78 time=0.010416666666666666
        Midi msg: note_off channel=0 note=71 velocity=0 time=0.03645833333333333
        Midi msg: note_on channel=0 note=76 velocity=89 time=0.06770833333333333
        Midi msg: note_off channel=0 note=76 velocity=0 time=0.09635416666666666
        Midi msg: note_on channel=0 note=68 velocity=83 time=0.013020833333333332
        Midi msg: note_on channel=0 note=64 velocity=79 time=0.125
        Midi msg: note_off channel=0 note=68 velocity=0 time=0.0078125
        Midi msg: note_off channel=0 note=40 velocity=0 time=0.07291666666666666
        Midi msg: note_off channel=0 note=64 velocity=0 time=0.0078125
        Midi msg: note_on channel=0 note=59 velocity=87 time=0.005208333333333333
        Midi msg: note_off channel=0 note=28 velocity=0 time=0.018229166666666664
        Midi msg: note_off channel=0 note=59 velocity=0 time=0.026041666666666664
        Midi msg: note_on channel=0 note=26 velocity=110 time=0.07291666666666666
        Midi msg: note_on channel=0 note=38 velocity=105 time=0
        Midi msg: note_on channel=0 note=65 velocity=99 time=0.005208333333333333
        Midi msg: note_off channel=0 note=65 velocity=0 time=0.14322916666666666
        Midi msg: note_on channel=0 note=59 velocity=84 time=0.026041666666666664
        Midi msg: note_on channel=0 note=55 velocity=86 time=0.109375
        Midi msg: note_off channel=0 note=59 velocity=0 time=0.013020833333333332
        Midi msg: note_on channel=0 note=50 velocity=92 time=0.09635416666666666
        Midi msg: note_off channel=0 note=38 velocity=0 time=0.14583333333333331
        Midi msg: note_off channel=0 note=26 velocity=0 time=0.09114583333333333
        Midi msg: note_off channel=0 note=50 velocity=0 time=0.033854166666666664
        Midi msg: note_on channel=0 note=36 velocity=109 time=0.015625
        Midi msg: note_on channel=0 note=24 velocity=117 time=0.005208333333333333
        Midi msg: note_off channel=0 note=55 velocity=0 time=0.018229166666666664
        Midi msg: note_on channel=0 note=48 velocity=94 time=0.12760416666666666
        Midi msg: control_change channel=0 control=64 value=0 time=0.09895833333333333
        Midi msg: note_off channel=0 note=48 velocity=0 time=0.013020833333333332
        Midi msg: note_on channel=0 note=55 velocity=85 time=0.013020833333333332
        Midi msg: note_on channel=0 note=60 velocity=81 time=0.11197916666666666
        Midi msg: note_off channel=0 note=55 velocity=0 time=0.020833333333333332
        Midi msg: note_on channel=0 note=64 velocity=94 time=0.078125
        Midi msg: note_off channel=0 note=60 velocity=0 time=0.03125
        Midi msg: note_off channel=0 note=64 velocity=0 time=0.005208333333333333
        Midi msg: control_change channel=0 control=64 value=127 time=0.018229166666666664
        Midi msg: note_on channel=0 note=60 velocity=93 time=0.041666666666666664
        Midi msg: note_off channel=0 note=60 velocity=0 time=0.07552083333333333
        Midi msg: note_on channel=0 note=67 velocity=92 time=0.028645833333333332
        Midi msg: note_off channel=0 note=24 velocity=0 time=0.049479166666666664
        Midi msg: note_off channel=0 note=67 velocity=0 time=0.013020833333333332
        Midi msg: note_on channel=0 note=72 velocity=97 time=0.03645833333333333
        Midi msg: note_off channel=0 note=72 velocity=0 time=0.08854166666666666
        Midi msg: note_on channel=0 note=76 velocity=69 time=0.015625
        Midi msg: note_off channel=0 note=76 velocity=0 time=0.057291666666666664
        Midi msg: note_on channel=0 note=72 velocity=75 time=0.013020833333333332
        Midi msg: note_off channel=0 note=72 velocity=0 time=0.0703125
        Midi msg: note_on channel=0 note=79 velocity=87 time=0.0234375
        Midi msg: note_off channel=0 note=79 velocity=0 time=0.06510416666666666
        Midi msg: note_on channel=0 note=84 velocity=89 time=0.026041666666666664
        Midi msg: note_on channel=0 note=88 velocity=82 time=0.08854166666666666
        Midi msg: note_off channel=0 note=84 velocity=0 time=0.005208333333333333
        Midi msg: note_off channel=0 note=88 velocity=0 time=0.028645833333333332
        Midi msg: note_on channel=0 note=84 velocity=106 time=0.03645833333333333
        Midi msg: note_off channel=0 note=84 velocity=0 time=0.09114583333333333
        Midi msg: note_on channel=0 note=91 velocity=96 time=0.010416666666666666
        Midi msg: note_on channel=0 note=96 velocity=88 time=0.1015625
        Midi msg: note_off channel=0 note=91 velocity=0 time=0.020833333333333332
        Midi msg: note_on channel=0 note=48 velocity=109 time=0.0703125
        Midi msg: note_on channel=0 note=100 velocity=95 time=0.005208333333333333
        Midi msg: note_off channel=0 note=96 velocity=0 time=0.005208333333333333
        Midi msg: note_on channel=0 note=96 velocity=69 time=0.09375
        Midi msg: note_off channel=0 note=100 velocity=0 time=0.005208333333333333
        Midi msg: note_on channel=0 note=91 velocity=83 time=0.08854166666666666
        Midi msg: note_off channel=0 note=96 velocity=0 time=0.018229166666666664
        Midi msg: note_off channel=0 note=91 velocity=0 time=0.05208333333333333
        Midi msg: note_on channel=0 note=84 velocity=91 time=0.020833333333333332
        Midi msg: note_off channel=0 note=84 velocity=0 time=0.041666666666666664
        Midi msg: note_on channel=0 note=88 velocity=80 time=0.06510416666666666
        Midi msg: note_on channel=0 note=84 velocity=96 time=0.09895833333333333
        Midi msg: note_off channel=0 note=88 velocity=0 time=0.010416666666666666
        Midi msg: note_on channel=0 note=79 velocity=84 time=0.07291666666666666
        Midi msg: note_off channel=0 note=84 velocity=0 time=0.0390625
        Midi msg: note_off channel=0 note=79 velocity=0 time=0.013020833333333332
        Midi msg: note_on channel=0 note=72 velocity=98 time=0.0390625
        Midi msg: note_off channel=0 note=72 velocity=0 time=0.0390625
        Midi msg: note_on channel=0 note=76 velocity=92 time=0.06770833333333333
        Midi msg: note_on channel=0 note=72 velocity=88 time=0.09375
        Midi msg: note_off channel=0 note=76 velocity=0 time=0.0390625
        Midi msg: note_off channel=0 note=72 velocity=0 time=0.033854166666666664
        Midi msg: note_on channel=0 note=67 velocity=75 time=0.03125
        Midi msg: note_off channel=0 note=67 velocity=0 time=0.04427083333333333
        Midi msg: note_on channel=0 note=60 velocity=82 time=0.04427083333333333
        Midi msg: note_off channel=0 note=60 velocity=0 time=0.04427083333333333
        Midi msg: note_on channel=0 note=64 velocity=81 time=0.06510416666666666
        Midi msg: note_off channel=0 note=48 velocity=0 time=0.010416666666666666
        Midi msg: note_on channel=0 note=60 velocity=70 time=0.08333333333333333
        Midi msg: note_off channel=0 note=36 velocity=0 time=0.0026041666666666665
        Midi msg: note_off channel=0 note=64 velocity=0 time=0.026041666666666664
        Midi msg: note_on channel=0 note=55 velocity=69 time=0.05989583333333333
        Midi msg: note_off channel=0 note=60 velocity=0 time=0.010416666666666666
        Midi msg: note_on channel=0 note=48 velocity=85 time=0.08333333333333333
        Midi msg: note_off channel=0 note=48 velocity=0 time=0.06510416666666666
        Midi msg: note_on channel=0 note=41 velocity=103 time=0.020833333333333332
        Midi msg: note_on channel=0 note=29 velocity=104 time=0.005208333333333333
        Midi msg: note_off channel=0 note=55 velocity=0 time=0.0234375
        Midi msg: control_change channel=0 control=64 value=0 time=0.018229166666666664
        Midi msg: note_on channel=0 note=48 velocity=94 time=0.06510416666666666
        Midi msg: note_off channel=0 note=48 velocity=0 time=0.05208333333333333
        Midi msg: note_on channel=0 note=57 velocity=98 time=0.07291666666666666
        Midi msg: note_off channel=0 note=57 velocity=0 time=0.10416666666666666
        Midi msg: note_on channel=0 note=60 velocity=89 time=0.005208333333333333
        Midi msg: control_change channel=0 control=64 value=127 time=0.005208333333333333
        Midi msg: note_off channel=0 note=60 velocity=0 time=0.10677083333333333
        Midi msg: note_on channel=0 note=65 velocity=95 time=0.0026041666666666665
        Midi msg: note_off channel=0 note=65 velocity=0 time=0.0390625
        Midi msg: note_on channel=0 note=60 velocity=73 time=0.057291666666666664
        Midi msg: note_off channel=0 note=60 velocity=0 time=0.046875
        Midi msg: note_on channel=0 note=69 velocity=95 time=0.05989583333333333
        Midi msg: note_on channel=0 note=72 velocity=101 time=0.09895833333333333
        Midi msg: note_off channel=0 note=69 velocity=0 time=0.013020833333333332
        Midi msg: note_off channel=0 note=72 velocity=0 time=0.08072916666666666
        Midi msg: note_on channel=0 note=77 velocity=90 time=0.005208333333333333
        Midi msg: note_off channel=0 note=77 velocity=0 time=0.033854166666666664
        Midi msg: note_on channel=0 note=72 velocity=97 time=0.033854166666666664
        Midi msg: note_off channel=0 note=72 velocity=0 time=0.109375
        Midi msg: note_on channel=0 note=81 velocity=98 time=0.013020833333333332
        Midi msg: note_on channel=0 note=84 velocity=99 time=0.08333333333333333
        Midi msg: note_off channel=0 note=81 velocity=0 time=0.03125
        Midi msg: note_off channel=0 note=84 velocity=0 time=0.08072916666666666
        Midi msg: note_on channel=0 note=89 velocity=95 time=0.0026041666666666665
        Midi msg: note_off channel=0 note=89 velocity=0 time=0.033854166666666664
        Midi msg: note_on channel=0 note=84 velocity=89 time=0.05208333333333333
        Midi msg: note_off channel=0 note=84 velocity=0 time=0.09375
        Midi msg: note_on channel=0 note=93 velocity=99 time=0.026041666666666664
        Midi msg: note_off channel=0 note=41 velocity=0 time=0.0026041666666666665
        Midi msg: note_off channel=0 note=29 velocity=0 time=0.05989583333333333
        Midi msg: note_on channel=0 note=96 velocity=93 time=0.049479166666666664
        Midi msg: note_off channel=0 note=93 velocity=0 time=0.03645833333333333
        Midi msg: note_off channel=0 note=96 velocity=0 time=0.0546875
        Midi msg: note_on channel=0 note=100 velocity=82 time=0.010416666666666666
        Midi msg: note_on channel=0 note=42 velocity=100 time=0
        Midi msg: note_on channel=0 note=30 velocity=100 time=0.013020833333333332
        Midi msg: control_change channel=0 control=64 value=0 time=0.03125
        Midi msg: note_on channel=0 note=96 velocity=76 time=0.046875
        Midi msg: note_off channel=0 note=100 velocity=0 time=0.018229166666666664
        Midi msg: note_on channel=0 note=93 velocity=83 time=0.08333333333333333
        Midi msg: note_off channel=0 note=96 velocity=0 time=0.026041666666666664
        Midi msg: note_off channel=0 note=93 velocity=0 time=0.026041666666666664
        Midi msg: control_change channel=0 control=64 value=127 time=0
        Midi msg: note_on channel=0 note=84 velocity=88 time=0.03125
        Midi msg: note_off channel=0 note=84 velocity=0 time=0.03645833333333333
        Midi msg: note_on channel=0 note=88 velocity=94 time=0.06770833333333333
        Midi msg: note_on channel=0 note=84 velocity=85 time=0.09375
        Midi msg: note_off channel=0 note=88 velocity=0 time=0.005208333333333333
        Midi msg: note_on channel=0 note=81 velocity=81 time=0.08333333333333333
        Midi msg: note_off channel=0 note=84 velocity=0 time=0.028645833333333332
        Midi msg: note_off channel=0 note=81 velocity=0 time=0.018229166666666664
        Midi msg: note_on channel=0 note=72 velocity=91 time=0.04427083333333333
        Midi msg: note_off channel=0 note=72 velocity=0 time=0.033854166666666664
        Midi msg: note_on channel=0 note=76 velocity=101 time=0.06510416666666666
        Midi msg: note_on channel=0 note=72 velocity=97 time=0.10677083333333333
        Midi msg: note_off channel=0 note=76 velocity=0 time=0.010416666666666666
        Midi msg: note_on channel=0 note=69 velocity=71 time=0.0859375
        Midi msg: note_off channel=0 note=72 velocity=0 time=0.018229166666666664
        Midi msg: note_off channel=0 note=69 velocity=0 time=0.0546875
        Midi msg: note_on channel=0 note=60 velocity=87 time=0.033854166666666664
        Midi msg: note_off channel=0 note=60 velocity=0 time=0.05208333333333333
        Midi msg: note_on channel=0 note=62 velocity=76 time=0.08333333333333333
        Midi msg: note_on channel=0 note=60 velocity=79 time=0.09114583333333333
        Midi msg: note_off channel=0 note=62 velocity=0 time=0.033854166666666664
        Midi msg: note_on channel=0 note=57 velocity=85 time=0.07552083333333333
        Midi msg: note_off channel=0 note=60 velocity=0 time=0.049479166666666664
        Midi msg: note_off channel=0 note=30 velocity=0 time=0.033854166666666664
        Midi msg: note_on channel=0 note=48 velocity=92 time=0.0078125
        Midi msg: note_off channel=0 note=42 velocity=0 time=0.018229166666666664
        Midi msg: note_off channel=0 note=57 velocity=0 time=0.049479166666666664
        Midi msg: note_off channel=0 note=48 velocity=0 time=0.0078125
        Midi msg: note_on channel=0 note=43 velocity=98 time=0.041666666666666664
        Midi msg: note_on channel=0 note=31 velocity=100 time=0.0026041666666666665
        Midi msg: control_change channel=0 control=64 value=0 time=0.018229166666666664
        Midi msg: note_on channel=0 note=47 velocity=79 time=0.15364583333333331
        Midi msg: note_off channel=0 note=47 velocity=0 time=0.08333333333333333
        Midi msg: note_on channel=0 note=55 velocity=78 time=0.0390625
        Midi msg: note_on channel=0 note=59 velocity=69 time=0.10416666666666666
        Midi msg: note_off channel=0 note=55 velocity=0 time=0.026041666666666664
        Midi msg: control_change channel=0 control=64 value=127 time=0.05989583333333333
        Midi msg: note_on channel=0 note=62 velocity=78 time=0.013020833333333332
        Midi msg: note_off channel=0 note=59 velocity=0 time=0.018229166666666664
        Midi msg: note_off channel=0 note=62 velocity=0 time=0.026041666666666664
        Midi msg: note_on channel=0 note=59 velocity=80 time=0.04427083333333333
        Midi msg: note_off channel=0 note=43 velocity=0 time=0.09895833333333333
        Midi msg: note_off channel=0 note=59 velocity=0 time=0.0078125
        Midi msg: note_on channel=0 note=67 velocity=88 time=0.015625
        Midi msg: note_on channel=0 note=71 velocity=69 time=0.1015625
        Midi msg: note_off channel=0 note=67 velocity=0 time=0.0078125
        Midi msg: note_on channel=0 note=74 velocity=80 time=0.07552083333333333
        Midi msg: note_on channel=0 note=42 velocity=97 time=0.010416666666666666
        Midi msg: note_on channel=0 note=30 velocity=94 time=0.005208333333333333
        Midi msg: note_off channel=0 note=71 velocity=0 time=0.0078125
        Midi msg: note_off channel=0 note=31 velocity=0 time=0.013020833333333332
        Midi msg: note_off channel=0 note=74 velocity=0 time=0.0026041666666666665
        Midi msg: note_on channel=0 note=71 velocity=81 time=0.05989583333333333
        Midi msg: note_off channel=0 note=71 velocity=0 time=0.06770833333333333
        Midi msg: note_on channel=0 note=79 velocity=96 time=0.033854166666666664
        Midi msg: note_off channel=0 note=42 velocity=0 time=0.013020833333333332
        Midi msg: note_off channel=0 note=79 velocity=0 time=0.0703125
        Midi msg: note_on channel=0 note=83 velocity=75 time=0.005208333333333333
        Midi msg: note_off channel=0 note=30 velocity=0 time=0.049479166666666664
        Midi msg: note_on channel=0 note=40 velocity=110 time=0.0234375
        Midi msg: note_on channel=0 note=86 velocity=86 time=0
        Midi msg: note_on channel=0 note=28 velocity=110 time=0.005208333333333333
        Midi msg: note_off channel=0 note=86 velocity=0 time=0.028645833333333332
        Midi msg: note_off channel=0 note=83 velocity=0 time=0.0026041666666666665
        Midi msg: note_on channel=0 note=83 velocity=75 time=0.078125
        Midi msg: note_off channel=0 note=83 velocity=0 time=0.0625
        Midi msg: note_on channel=0 note=91 velocity=89 time=0.03125
        Midi msg: note_off channel=0 note=40 velocity=0 time=0.015625
        Midi msg: note_off channel=0 note=28 velocity=0 time=0.05989583333333333
        Midi msg: note_on channel=0 note=93 velocity=91 time=0.005208333333333333
        Midi msg: note_off channel=0 note=91 velocity=0 time=0.018229166666666664
        Midi msg: note_on channel=0 note=38 velocity=109 time=0.07552083333333333
        Midi msg: note_on channel=0 note=26 velocity=110 time=0.005208333333333333
        Midi msg: note_on channel=0 note=98 velocity=94 time=0.013020833333333332
        Midi msg: note_off channel=0 note=93 velocity=0 time=0.0078125
        Midi msg: control_change channel=0 control=64 value=0 time=0.005208333333333333
        Midi msg: note_on channel=0 note=93 velocity=90 time=0.0703125
        Midi msg: note_off channel=0 note=98 velocity=0 time=0.046875
        Midi msg: note_on channel=0 note=90 velocity=84 time=0.06510416666666666
        Midi msg: note_off channel=0 note=93 velocity=0 time=0.0234375
        Midi msg: note_off channel=0 note=90 velocity=0 time=0.049479166666666664
        Midi msg: note_on channel=0 note=84 velocity=91 time=0.0078125
        Midi msg: control_change channel=0 control=64 value=127 time=0.010416666666666666
        Midi msg: note_off channel=0 note=84 velocity=0 time=0.026041666666666664
        Midi msg: note_on channel=0 note=86 velocity=88 time=0.0703125
        Midi msg: note_on channel=0 note=81 velocity=92 time=0.09114583333333333
        Midi msg: note_off channel=0 note=86 velocity=0 time=0.057291666666666664
        Midi msg: note_on channel=0 note=78 velocity=83 time=0.0390625
        Midi msg: note_off channel=0 note=81 velocity=0 time=0.028645833333333332
        Midi msg: note_off channel=0 note=78 velocity=0 time=0.026041666666666664
        Midi msg: note_on channel=0 note=72 velocity=78 time=0.0234375
        Midi msg: note_off channel=0 note=72 velocity=0 time=0.041666666666666664
        Midi msg: note_on channel=0 note=74 velocity=91 time=0.05989583333333333
        Midi msg: note_on channel=0 note=69 velocity=74 time=0.09375
        Midi msg: note_off channel=0 note=74 velocity=0 time=0.0390625
        Midi msg: note_on channel=0 note=66 velocity=82 time=0.049479166666666664
        Midi msg: note_off channel=0 note=69 velocity=0 time=0.033854166666666664
        Midi msg: note_off channel=0 note=66 velocity=0 time=0.026041666666666664
        Midi msg: note_on channel=0 note=60 velocity=88 time=0.0234375
        Midi msg: note_off channel=0 note=60 velocity=0 time=0.04427083333333333
        Midi msg: note_on channel=0 note=62 velocity=82 time=0.06510416666666666
        Midi msg: note_off channel=0 note=26 velocity=0 time=0.07552083333333333
        Midi msg: note_on channel=0 note=57 velocity=79 time=0.03125
        Midi msg: note_off channel=0 note=62 velocity=0 time=0.028645833333333332
        Midi msg: note_off channel=0 note=38 velocity=0 time=0.010416666666666666
        Midi msg: note_on channel=0 note=54 velocity=70 time=0.04427083333333333
        Midi msg: note_off channel=0 note=57 velocity=0 time=0.078125
        Midi msg: note_on channel=0 note=48 velocity=94 time=0.013020833333333332
        Midi msg: note_off channel=0 note=48 velocity=0 time=0.07291666666666666
        Midi msg: note_off channel=0 note=54 velocity=0 time=0.013020833333333332
        Midi msg: note_on channel=0 note=43 velocity=94 time=0.005208333333333333
        Midi msg: note_on channel=0 note=31 velocity=98 time=0
        Midi msg: control_change channel=0 control=64 value=0 time=0.033854166666666664
        Midi msg: note_on channel=0 note=48 velocity=75 time=0.0625
        Midi msg: note_on channel=0 note=53 velocity=78 time=0.09114583333333333
        Midi msg: note_off channel=0 note=48 velocity=0 time=0.005208333333333333
        Midi msg: note_on channel=0 note=56 velocity=86 time=0.06510416666666666
        Midi msg: note_off channel=0 note=53 velocity=0 time=0.046875
        Midi msg: control_change channel=0 control=64 value=127 time=0.018229166666666664
        Midi msg: note_on channel=0 note=62 velocity=87 time=0.033854166666666664
        Midi msg: note_off channel=0 note=56 velocity=0 time=0.03645833333333333
        Midi msg: note_off channel=0 note=62 velocity=0 time=0.010416666666666666
        Midi msg: note_on channel=0 note=60 velocity=86 time=0.0625
        Midi msg: note_off channel=0 note=60 velocity=0 time=0.0546875
        Midi msg: note_on channel=0 note=65 velocity=92 time=0.03125
        Midi msg: note_on channel=0 note=68 velocity=88 time=0.09635416666666666
        Midi msg: note_off channel=0 note=65 velocity=0 time=0.015625
        Midi msg: note_on channel=0 note=74 velocity=89 time=0.07552083333333333
        Midi msg: note_off channel=0 note=68 velocity=0 time=0.026041666666666664
        Midi msg: note_off channel=0 note=74 velocity=0 time=0.015625
        Midi msg: note_on channel=0 note=72 velocity=99 time=0.057291666666666664
        Midi msg: note_off channel=0 note=72 velocity=0 time=0.05208333333333333
        Midi msg: note_on channel=0 note=77 velocity=98 time=0.0234375
        Midi msg: note_on channel=0 note=80 velocity=88 time=0.09375
        Midi msg: note_off channel=0 note=77 velocity=0 time=0.026041666666666664
        Midi msg: note_on channel=0 note=86 velocity=85 time=0.0625
        Midi msg: note_off channel=0 note=80 velocity=0 time=0.0234375
        Midi msg: note_off channel=0 note=86 velocity=0 time=0.020833333333333332
        Midi msg: note_on channel=0 note=84 velocity=99 time=0.0546875
        Midi msg: note_off channel=0 note=84 velocity=0 time=0.07552083333333333
        Midi msg: note_on channel=0 note=89 velocity=95 time=0.018229166666666664
        Midi msg: note_on channel=0 note=92 velocity=81 time=0.07291666666666666
        Midi msg: note_off channel=0 note=89 velocity=0 time=0.03125
        Midi msg: control_change channel=0 control=64 value=0 time=0.033854166666666664
        Midi msg: note_on channel=0 note=98 velocity=87 time=0.0390625
        Midi msg: note_off channel=0 note=92 velocity=0 time=0.005208333333333333
        Midi msg: note_off channel=0 note=98 velocity=0 time=0.10416666666666666
        Midi msg: note_on channel=0 note=91 velocity=75 time=0.0026041666666666665
        Midi msg: control_change channel=0 control=64 value=127 time=0.041666666666666664
        Midi msg: note_on channel=0 note=89 velocity=87 time=0.028645833333333332
        Midi msg: note_off channel=0 note=91 velocity=0 time=0.015625
        Midi msg: note_off channel=0 note=89 velocity=0 time=0.03645833333333333
        Midi msg: note_on channel=0 note=83 velocity=69 time=0.033854166666666664
        Midi msg: note_off channel=0 note=83 velocity=0 time=0.04427083333333333
        Midi msg: note_on channel=0 note=86 velocity=93 time=0.046875
        Midi msg: note_off channel=0 note=86 velocity=0 time=0.10416666666666666
        Midi msg: note_on channel=0 note=79 velocity=76 time=0
        Midi msg: note_on channel=0 note=77 velocity=84 time=0.078125
        Midi msg: note_off channel=0 note=79 velocity=0 time=0.013020833333333332
        Midi msg: note_off channel=0 note=77 velocity=0 time=0.033854166666666664
        Midi msg: note_on channel=0 note=71 velocity=69 time=0.046875
        Midi msg: note_off channel=0 note=71 velocity=0 time=0.0390625
        Midi msg: note_on channel=0 note=74 velocity=97 time=0.05208333333333333
        Midi msg: note_off channel=0 note=74 velocity=0 time=0.1015625
        Midi msg: note_on channel=0 note=67 velocity=89 time=0.005208333333333333
        Midi msg: note_on channel=0 note=65 velocity=85 time=0.08072916666666666
        Midi msg: note_off channel=0 note=67 velocity=0 time=0.005208333333333333
        Midi msg: note_off channel=0 note=65 velocity=0 time=0.04427083333333333
        Midi msg: note_on channel=0 note=59 velocity=77 time=0.041666666666666664
        Midi msg: note_off channel=0 note=59 velocity=0 time=0.03645833333333333
        Midi msg: note_on channel=0 note=63 velocity=105 time=0.10416666666666666
        Midi msg: note_off channel=0 note=63 velocity=0 time=0.11979166666666666
        Midi msg: note_on channel=0 note=55 velocity=72 time=0.0625
        Midi msg: note_off channel=0 note=43 velocity=0 time=0.0859375
        Midi msg: note_on channel=0 note=53 velocity=83 time=0.0078125
        Midi msg: note_off channel=0 note=31 velocity=0 time=0.0390625
        Midi msg: note_off channel=0 note=55 velocity=0 time=0.0390625
        Midi msg: note_on channel=0 note=47 velocity=84 time=0.010416666666666666
        Midi msg: note_off channel=0 note=53 velocity=0 time=0.0859375
        Midi msg: note_off channel=0 note=47 velocity=0 time=0.013020833333333332
        Midi msg: note_on channel=0 note=36 velocity=105 time=0.0390625
        Midi msg: note_on channel=0 note=24 velocity=97 time=0.018229166666666664
        Midi msg: note_on channel=0 note=48 velocity=93 time=0.08854166666666666
        Midi msg: control_change channel=0 control=64 value=0 time=0.03125
        Midi msg: note_on channel=0 note=55 velocity=88 time=0.08072916666666666
        Midi msg: note_off channel=0 note=48 velocity=0 time=0.0026041666666666665
        Midi msg: note_on channel=0 note=60 velocity=85 time=0.09895833333333333
        Midi msg: note_off channel=0 note=55 velocity=0 time=0.041666666666666664
        Midi msg: control_change channel=0 control=64 value=127 time=0.049479166666666664
        Midi msg: note_on channel=0 note=64 velocity=94 time=0.0234375
        Midi msg: note_off channel=0 note=24 velocity=0 time=0.026041666666666664
        Midi msg: note_off channel=0 note=60 velocity=0 time=0.0026041666666666665
        Midi msg: note_off channel=0 note=64 velocity=0 time=0.0026041666666666665
        Midi msg: note_on channel=0 note=60 velocity=102 time=0.0546875
        Midi msg: note_off channel=0 note=60 velocity=0 time=0.0625
        Midi msg: note_on channel=0 note=67 velocity=91 time=0.041666666666666664
        Midi msg: note_on channel=0 note=72 velocity=97 time=0.09375
        Midi msg: note_off channel=0 note=67 velocity=0 time=0.026041666666666664
        Midi msg: note_on channel=0 note=76 velocity=94 time=0.049479166666666664
        Midi msg: note_off channel=0 note=72 velocity=0 time=0.026041666666666664
        Midi msg: note_off channel=0 note=76 velocity=0 time=0.010416666666666666
        Midi msg: note_on channel=0 note=72 velocity=103 time=0.0546875
        Midi msg: note_on channel=0 note=79 velocity=100 time=0.09635416666666666
        Midi msg: note_off channel=0 note=72 velocity=0 time=0.005208333333333333
        Midi msg: note_on channel=0 note=84 velocity=94 time=0.09375
        Midi msg: note_off channel=0 note=79 velocity=0 time=0.03125
        Midi msg: note_on channel=0 note=88 velocity=91 time=0.05208333333333333
        Midi msg: note_off channel=0 note=84 velocity=0 time=0.028645833333333332
        Midi msg: note_off channel=0 note=88 velocity=0 time=0.0026041666666666665
        Midi msg: note_on channel=0 note=84 velocity=105 time=0.05989583333333333
        Midi msg: note_on channel=0 note=91 velocity=89 time=0.09635416666666666
        Midi msg: note_off channel=0 note=84 velocity=0 time=0.015625
        Midi msg: note_on channel=0 note=96 velocity=89 time=0.08072916666666666
        Midi msg: note_off channel=0 note=91 velocity=0 time=0.026041666666666664
        Midi msg: note_on channel=0 note=100 velocity=100 time=0.06770833333333333
        Midi msg: note_on channel=0 note=48 velocity=106 time=0.0026041666666666665
        Midi msg: note_off channel=0 note=96 velocity=0 time=0.005208333333333333
        Midi msg: note_on channel=0 note=96 velocity=72 time=0.0859375
        Midi msg: note_off channel=0 note=100 velocity=0 time=0.0078125
        Midi msg: note_on channel=0 note=91 velocity=88 time=0.09895833333333333
        Midi msg: note_off channel=0 note=96 velocity=0 time=0.026041666666666664
        Midi msg: note_off channel=0 note=91 velocity=0 time=0.0390625
        Midi msg: note_on channel=0 note=84 velocity=84 time=0.020833333333333332
        Midi msg: note_off channel=0 note=84 velocity=0 time=0.0390625
        Midi msg: note_on channel=0 note=88 velocity=100 time=0.05208333333333333
        Midi msg: note_on channel=0 note=84 velocity=87 time=0.09895833333333333
        Midi msg: note_off channel=0 note=88 velocity=0 time=0.010416666666666666
        Midi msg: note_on channel=0 note=79 velocity=84 time=0.078125
        Midi msg: note_off channel=0 note=84 velocity=0 time=0.028645833333333332
        Midi msg: note_off channel=0 note=79 velocity=0 time=0.028645833333333332
        Midi msg: note_on channel=0 note=72 velocity=80 time=0.0390625
        Midi msg: note_off channel=0 note=72 velocity=0 time=0.04427083333333333
        Midi msg: note_on channel=0 note=76 velocity=83 time=0.0625
        Midi msg: note_off channel=0 note=76 velocity=0 time=0.09635416666666666
        Midi msg: note_on channel=0 note=72 velocity=93 time=0
        Midi msg: note_off channel=0 note=72 velocity=0 time=0.09635416666666666
        Midi msg: note_on channel=0 note=67 velocity=81 time=0
        Midi msg: note_off channel=0 note=67 velocity=0 time=0.046875
        Midi msg: note_on channel=0 note=60 velocity=95 time=0.033854166666666664
        Midi msg: note_off channel=0 note=60 velocity=0 time=0.041666666666666664
        Midi msg: note_on channel=0 note=64 velocity=90 time=0.07552083333333333
        Midi msg: note_off channel=0 note=48 velocity=0 time=0.08333333333333333
        Midi msg: note_on channel=0 note=60 velocity=88 time=0.010416666666666666
        Midi msg: note_off channel=0 note=64 velocity=0 time=0.033854166666666664
        Midi msg: note_off channel=0 note=36 velocity=0 time=0.0390625
        Midi msg: note_on channel=0 note=55 velocity=85 time=0.03125
        Midi msg: note_off channel=0 note=60 velocity=0 time=0.015625
        Midi msg: note_on channel=0 note=48 velocity=92 time=0.06770833333333333
        Midi msg: note_off channel=0 note=48 velocity=0 time=0.0546875
        Midi msg: note_off channel=0 note=55 velocity=0 time=0.0026041666666666665
        Midi msg: note_on channel=0 note=45 velocity=106 time=0.018229166666666664
        Midi msg: note_on channel=0 note=33 velocity=99 time=0.005208333333333333
        Midi msg: control_change channel=0 control=64 value=0 time=0.020833333333333332
        Midi msg: note_on channel=0 note=48 velocity=88 time=0.07291666666666666
        Midi msg: note_off channel=0 note=48 velocity=0 time=0.0625
        Midi msg: note_on channel=0 note=53 velocity=96 time=0.013020833333333332
        Midi msg: control_change channel=0 control=64 value=127 time=0.09114583333333333
        Midi msg: note_off channel=0 note=53 velocity=0 time=0.0078125
        Midi msg: note_on channel=0 note=60 velocity=81 time=0.026041666666666664
        Midi msg: note_on channel=0 note=65 velocity=87 time=0.09114583333333333
        Midi msg: note_off channel=0 note=60 velocity=0 time=0.020833333333333332
        Midi msg: note_off channel=0 note=65 velocity=0 time=0.018229166666666664
        Midi msg: note_on channel=0 note=60 velocity=99 time=0.0390625
        Midi msg: note_off channel=0 note=60 velocity=0 time=0.0703125
        Midi msg: note_on channel=0 note=65 velocity=80 time=0.028645833333333332
        Midi msg: note_off channel=0 note=65 velocity=0 time=0.09114583333333333
        Midi msg: note_on channel=0 note=72 velocity=70 time=0.015625
        Midi msg: note_on channel=0 note=77 velocity=97 time=0.0859375
        Midi msg: note_off channel=0 note=72 velocity=0 time=0.0026041666666666665
        Midi msg: note_off channel=0 note=77 velocity=0 time=0.03125
        Midi msg: note_on channel=0 note=72 velocity=97 time=0.04427083333333333
        Midi msg: note_off channel=0 note=72 velocity=0 time=0.057291666666666664
        Midi msg: note_on channel=0 note=77 velocity=99 time=0.033854166666666664
        Midi msg: note_on channel=0 note=84 velocity=98 time=0.09375
        Midi msg: note_off channel=0 note=77 velocity=0 time=0.0078125
        Midi msg: note_on channel=0 note=89 velocity=85 time=0.08072916666666666
        Midi msg: note_off channel=0 note=84 velocity=0 time=0.010416666666666666
        Midi msg: note_off channel=0 note=89 velocity=0 time=0.026041666666666664
        Midi msg: note_on channel=0 note=84 velocity=105 time=0.0390625
        Midi msg: note_off channel=0 note=84 velocity=0 time=0.0703125
        Midi msg: note_on channel=0 note=89 velocity=91 time=0.013020833333333332
        Midi msg: note_on channel=0 note=96 velocity=95 time=0.09114583333333333
        Midi msg: note_off channel=0 note=89 velocity=0 time=0.005208333333333333
        Midi msg: control_change channel=0 control=64 value=0 time=0.06770833333333333
        Midi msg: note_on channel=0 note=100 velocity=94 time=0.0234375
        Midi msg: note_off channel=0 note=96 velocity=0 time=0.005208333333333333
        Midi msg: note_on channel=0 note=96 velocity=96 time=0.06510416666666666
        Midi msg: note_off channel=0 note=100 velocity=0 time=0.026041666666666664
        Midi msg: control_change channel=0 control=64 value=127 time=0.057291666666666664
        Midi msg: note_on channel=0 note=90 velocity=88 time=0.005208333333333333
        Midi msg: note_off channel=0 note=96 velocity=0 time=0.046875
        Midi msg: note_on channel=0 note=84 velocity=85 time=0.041666666666666664
        Midi msg: note_off channel=0 note=90 velocity=0 time=0.020833333333333332
        Midi msg: note_off channel=0 note=84 velocity=0 time=0.015625
        Midi msg: note_on channel=0 note=88 velocity=100 time=0.057291666666666664
        Midi msg: note_on channel=0 note=84 velocity=69 time=0.10677083333333333
        Midi msg: note_off channel=0 note=88 velocity=0 time=0.015625
        Midi msg: note_on channel=0 note=78 velocity=81 time=0.06510416666666666
        Midi msg: note_off channel=0 note=84 velocity=0 time=0.015625
        Midi msg: note_off channel=0 note=78 velocity=0 time=0.033854166666666664
        Midi msg: note_on channel=0 note=72 velocity=99 time=0.0234375
        Midi msg: note_off channel=0 note=72 velocity=0 time=0.0390625
        Midi msg: note_on channel=0 note=75 velocity=99 time=0.09114583333333333
        Midi msg: note_on channel=0 note=72 velocity=75 time=0.125
        Midi msg: note_off channel=0 note=75 velocity=0 time=0.057291666666666664
        Midi msg: note_on channel=0 note=66 velocity=81 time=0.028645833333333332
        Midi msg: note_off channel=0 note=72 velocity=0 time=0.0390625
        Midi msg: note_off channel=0 note=45 velocity=0 time=0.046875
        Midi msg: note_on channel=0 note=60 velocity=84 time=0.005208333333333333
        Midi msg: note_off channel=0 note=66 velocity=0 time=0.005208333333333333
        Midi msg: note_off channel=0 note=60 velocity=0 time=0.0390625
        Midi msg: note_on channel=0 note=63 velocity=98 time=0.06510416666666666
        Midi msg: note_on channel=0 note=44 velocity=99 time=0.010416666666666666
        Midi msg: note_on channel=0 note=32 velocity=92 time=0.005208333333333333
        Midi msg: note_off channel=0 note=33 velocity=0 time=0.03645833333333333
        Midi msg: note_on channel=0 note=60 velocity=69 time=0.049479166666666664
        Midi msg: note_off channel=0 note=63 velocity=0 time=0.07291666666666666
        Midi msg: note_on channel=0 note=54 velocity=78 time=0.033854166666666664
        Midi msg: note_off channel=0 note=60 velocity=0 time=0.0390625
        Midi msg: note_on channel=0 note=48 velocity=70 time=0.04427083333333333
        Midi msg: note_off channel=0 note=44 velocity=0 time=0.057291666666666664
        Midi msg: note_off channel=0 note=48 velocity=0 time=0.018229166666666664
        Midi msg: note_off channel=0 note=54 velocity=0 time=0.018229166666666664
        Midi msg: note_on channel=0 note=43 velocity=103 time=0
        Midi msg: note_on channel=0 note=31 velocity=106 time=0.005208333333333333
        Midi msg: note_off channel=0 note=32 velocity=0 time=0.0078125
        Midi msg: control_change channel=0 control=64 value=0 time=0.0546875
        Midi msg: note_on channel=0 note=48 velocity=87 time=0.005208333333333333
        Midi msg: note_off channel=0 note=48 velocity=0 time=0.11458333333333333
        Midi msg: note_on channel=0 note=55 velocity=86 time=0
        Midi msg: note_on channel=0 note=60 velocity=69 time=0.1015625
        Midi msg: note_off channel=0 note=55 velocity=0 time=0.028645833333333332
        Midi msg: note_on channel=0 note=62 velocity=80 time=0.0703125
        Midi msg: control_change channel=0 control=64 value=127 time=0.013020833333333332
        Midi msg: note_off channel=0 note=62 velocity=0 time=0.028645833333333332
        Midi msg: note_off channel=0 note=60 velocity=0 time=0
        Midi msg: note_on channel=0 note=60 velocity=101 time=0.06510416666666666
        Midi msg: note_off channel=0 note=60 velocity=0 time=0.046875
        Midi msg: note_on channel=0 note=67 velocity=69 time=0.078125
        Midi msg: note_on channel=0 note=72 velocity=91 time=0.05989583333333333
        Midi msg: note_off channel=0 note=67 velocity=0 time=0.0078125
        Midi msg: note_on channel=0 note=74 velocity=93 time=0.078125
        Midi msg: note_off channel=0 note=74 velocity=0 time=0.03125
        Midi msg: note_off channel=0 note=72 velocity=0 time=0
        Midi msg: note_on channel=0 note=72 velocity=95 time=0.07291666666666666
        Midi msg: note_off channel=0 note=72 velocity=0 time=0.04427083333333333
        Midi msg: note_on channel=0 note=79 velocity=101 time=0.033854166666666664
        Midi msg: note_on channel=0 note=84 velocity=91 time=0.09635416666666666
        Midi msg: note_off channel=0 note=79 velocity=0 time=0.0234375
        Midi msg: note_on channel=0 note=86 velocity=92 time=0.0625
        Midi msg: note_off channel=0 note=84 velocity=0 time=0.028645833333333332
        Midi msg: note_off channel=0 note=86 velocity=0 time=0.0026041666666666665
        Midi msg: note_on channel=0 note=84 velocity=106 time=0.06510416666666666
        Midi msg: note_off channel=0 note=84 velocity=0 time=0.046875
        Midi msg: note_on channel=0 note=91 velocity=94 time=0.04427083333333333
        Midi msg: note_on channel=0 note=96 velocity=84 time=0.0859375
        Midi msg: note_off channel=0 note=91 velocity=0 time=0.033854166666666664
        Midi msg: control_change channel=0 control=64 value=0 time=0.03645833333333333
        Midi msg: note_on channel=0 note=98 velocity=98 time=0.0234375
        Midi msg: note_off channel=0 note=96 velocity=0 time=0.018229166666666664
        Midi msg: note_off channel=0 note=98 velocity=0 time=0.08072916666666666
        Midi msg: note_on channel=0 note=95 velocity=76 time=0.013020833333333332
        Midi msg: control_change channel=0 control=64 value=127 time=0.07291666666666666
        Midi msg: note_on channel=0 note=91 velocity=81 time=0.015625
        Midi msg: note_off channel=0 note=95 velocity=0 time=0.018229166666666664
        Midi msg: note_off channel=0 note=91 velocity=0 time=0.03125
        Midi msg: note_on channel=0 note=83 velocity=77 time=0.033854166666666664
        Midi msg: note_off channel=0 note=83 velocity=0 time=0.03645833333333333
        Midi msg: note_on channel=0 note=86 velocity=94 time=0.06770833333333333
        Midi msg: note_off channel=0 note=86 velocity=0 time=0.10416666666666666
        Midi msg: note_on channel=0 note=83 velocity=70 time=0.005208333333333333
        Midi msg: note_on channel=0 note=79 velocity=78 time=0.08072916666666666
        Midi msg: note_off channel=0 note=83 velocity=0 time=0.020833333333333332
        Midi msg: note_off channel=0 note=79 velocity=0 time=0.028645833333333332
        Midi msg: note_on channel=0 note=71 velocity=73 time=0.041666666666666664
        Midi msg: note_off channel=0 note=71 velocity=0 time=0.041666666666666664
        Midi msg: note_on channel=0 note=74 velocity=89 time=0.0625
        Midi msg: note_off channel=0 note=74 velocity=0 time=0.1015625
        Midi msg: note_on channel=0 note=71 velocity=70 time=0.0078125
        Midi msg: note_off channel=0 note=71 velocity=0 time=0.057291666666666664
        Midi msg: note_on channel=0 note=67 velocity=71 time=0.033854166666666664
        Midi msg: note_off channel=0 note=67 velocity=0 time=0.041666666666666664
        Midi msg: note_on channel=0 note=59 velocity=72 time=0.049479166666666664
        Midi msg: note_off channel=0 note=59 velocity=0 time=0.0390625
        Midi msg: note_on channel=0 note=62 velocity=88 time=0.06770833333333333
        Midi msg: note_off channel=0 note=62 velocity=0 time=0.11197916666666666
        Midi msg: note_on channel=0 note=59 velocity=73 time=0.0026041666666666665
        Midi msg: note_off channel=0 note=59 velocity=0 time=0.04427083333333333
        Midi msg: note_on channel=0 note=55 velocity=75 time=0.05208333333333333
        Midi msg: note_off channel=0 note=43 velocity=0 time=0.0859375
        Midi msg: note_on channel=0 note=47 velocity=85 time=0.005208333333333333
        Midi msg: note_off channel=0 note=31 velocity=0 time=0.033854166666666664
        Midi msg: note_off channel=0 note=47 velocity=0 time=0.028645833333333332
        Midi msg: note_off channel=0 note=55 velocity=0 time=0.015625
        Midi msg: note_on channel=0 note=42 velocity=91 time=0.07552083333333333
        Midi msg: note_on channel=0 note=30 velocity=96 time=0
        Midi msg: control_change channel=0 control=64 value=0 time=0.125
        Midi msg: note_on channel=0 note=48 velocity=84 time=0.07291666666666666
        Midi msg: note_off channel=0 note=48 velocity=0 time=0.033854166666666664
        Midi msg: note_on channel=0 note=57 velocity=87 time=0.08072916666666666
        Midi msg: note_on channel=0 note=60 velocity=80 time=0.1015625
        Midi msg: note_off channel=0 note=57 velocity=0 time=0.020833333333333332
        Midi msg: control_change channel=0 control=64 value=127 time=0.09114583333333333
        Midi msg: note_on channel=0 note=62 velocity=87 time=0
        Midi msg: note_off channel=0 note=60 velocity=0 time=0.015625
        Midi msg: note_off channel=0 note=62 velocity=0 time=0.020833333333333332
        Midi msg: note_on channel=0 note=60 velocity=74 time=0.07291666666666666
        Midi msg: note_off channel=0 note=60 velocity=0 time=0.07552083333333333
        Midi msg: note_on channel=0 note=69 velocity=89 time=0.03125
        Midi msg: note_on channel=0 note=72 velocity=85 time=0.10677083333333333
        Midi msg: note_off channel=0 note=69 velocity=0 time=0.020833333333333332
        Midi msg: note_on channel=0 note=74 velocity=71 time=0.09635416666666666
        Midi msg: note_off channel=0 note=72 velocity=0 time=0.0026041666666666665
        Midi msg: note_off channel=0 note=74 velocity=0 time=0.03645833333333333
        Midi msg: note_on channel=0 note=72 velocity=94 time=0.04427083333333333
        Midi msg: note_off channel=0 note=72 velocity=0 time=0.07291666666666666
        Midi msg: note_on channel=0 note=81 velocity=88 time=0.046875
        Midi msg: note_off channel=0 note=81 velocity=0 time=0.06770833333333333
        Midi msg: note_on channel=0 note=84 velocity=90 time=0.013020833333333332
        Midi msg: note_on channel=0 note=86 velocity=89 time=0.10416666666666666
        Midi msg: note_off channel=0 note=84 velocity=0 time=0.026041666666666664
        Midi msg: note_off channel=0 note=86 velocity=0 time=0.0078125
        Midi msg: note_on channel=0 note=84 velocity=99 time=0.05989583333333333
        Midi msg: note_off channel=0 note=84 velocity=0 time=0.06770833333333333
        Midi msg: note_off channel=0 note=42 velocity=0 time=0.03645833333333333
        Midi msg: note_on channel=0 note=93 velocity=95 time=0.0026041666666666665
        Midi msg: note_off channel=0 note=30 velocity=0 time=0.005208333333333333
        Midi msg: note_off channel=0 note=93 velocity=0 time=0.0703125
        Midi msg: note_on channel=0 note=96 velocity=72 time=0.0234375
        Midi msg: note_off channel=0 note=96 velocity=0 time=0.11458333333333333
        Midi msg: note_on channel=0 note=41 velocity=107 time=0.010416666666666666
        Midi msg: note_on channel=0 note=29 velocity=110 time=0.0026041666666666665
        Midi msg: note_on channel=0 note=99 velocity=92 time=0.0078125
        Midi msg: control_change channel=0 control=64 value=0 time=0.049479166666666664
        Midi msg: note_on channel=0 note=96 velocity=69 time=0.046875
        Midi msg: note_off channel=0 note=99 velocity=0 time=0.07552083333333333
        Midi msg: note_on channel=0 note=93 velocity=80 time=0.033854166666666664
        Midi msg: note_off channel=0 note=96 velocity=0 time=0.03645833333333333
        Midi msg: control_change channel=0 control=64 value=127 time=0.0026041666666666665
        Midi msg: note_off channel=0 note=93 velocity=0 time=0.013020833333333332
        Midi msg: note_on channel=0 note=84 velocity=94 time=0.033854166666666664
        Midi msg: note_off channel=0 note=84 velocity=0 time=0.04427083333333333
        Midi msg: note_on channel=0 note=87 velocity=98 time=0.07552083333333333
        Midi msg: note_on channel=0 note=84 velocity=76 time=0.1171875
        Midi msg: note_off channel=0 note=87 velocity=0 time=0.0390625
        Midi msg: note_on channel=0 note=81 velocity=86 time=0.05989583333333333
        Midi msg: note_off channel=0 note=84 velocity=0 time=0.0390625
        Midi msg: note_off channel=0 note=81 velocity=0 time=0.0026041666666666665
        Midi msg: note_on channel=0 note=72 velocity=96 time=0.046875
        Midi msg: note_off channel=0 note=72 velocity=0 time=0.046875
        Midi msg: note_on channel=0 note=75 velocity=95 time=0.07291666666666666
        Midi msg: note_on channel=0 note=72 velocity=79 time=0.11197916666666666
        Midi msg: note_off channel=0 note=75 velocity=0 time=0.033854166666666664
        Midi msg: note_on channel=0 note=69 velocity=80 time=0.057291666666666664
        Midi msg: note_off channel=0 note=72 velocity=0 time=0.033854166666666664
        Midi msg: note_off channel=0 note=69 velocity=0 time=0.005208333333333333
        Midi msg: note_on channel=0 note=60 velocity=88 time=0.049479166666666664
        Midi msg: note_off channel=0 note=60 velocity=0 time=0.046875
        Midi msg: note_on channel=0 note=63 velocity=92 time=0.06510416666666666
        Midi msg: note_on channel=0 note=59 velocity=81 time=0.12239583333333333
        Midi msg: note_off channel=0 note=63 velocity=0 time=0.03125
        Midi msg: note_on channel=0 note=57 velocity=70 time=0.078125
        Midi msg: note_off channel=0 note=59 velocity=0 time=0.010416666666666666
        Midi msg: note_off channel=0 note=57 velocity=0 time=0.03645833333333333
        Midi msg: note_on channel=0 note=47 velocity=86 time=0.07291666666666666
        Midi msg: note_off channel=0 note=41 velocity=0 time=0.0078125
        Midi msg: note_off channel=0 note=29 velocity=0 time=0.08072916666666666
        Midi msg: note_off channel=0 note=47 velocity=0 time=0.028645833333333332
        Midi msg: note_on channel=0 note=40 velocity=114 time=0.06510416666666666
        Midi msg: note_on channel=0 note=28 velocity=115 time=0
        Midi msg: control_change channel=0 control=64 value=0 time=0.0390625
        Midi msg: note_on channel=0 note=47 velocity=89 time=0.09635416666666666
        Midi msg: note_off channel=0 note=47 velocity=0 time=0.09114583333333333
        Midi msg: note_on channel=0 note=56 velocity=93 time=0.06770833333333333
        Midi msg: control_change channel=0 control=64 value=127 time=0.06510416666666666
        Midi msg: note_on channel=0 note=59 velocity=85 time=0.057291666666666664
        Midi msg: note_off channel=0 note=56 velocity=0 time=0.0026041666666666665
        Midi msg: note_off channel=0 note=59 velocity=0 time=0.1328125
        Midi msg: note_on channel=0 note=64 velocity=95 time=0
        Midi msg: note_off channel=0 note=64 velocity=0 time=0.041666666666666664
        Midi msg: note_on channel=0 note=59 velocity=74 time=0.09375
        Midi msg: note_off channel=0 note=59 velocity=0 time=0.078125
        Midi msg: note_on channel=0 note=68 velocity=95 time=0.05208333333333333
        Midi msg: note_on channel=0 note=71 velocity=86 time=0.1171875
        Midi msg: note_off channel=0 note=68 velocity=0 time=0.018229166666666664
        Midi msg: note_on channel=0 note=76 velocity=89 time=0.0859375
        Midi msg: note_off channel=0 note=71 velocity=0 time=0.0078125
        Midi msg: note_off channel=0 note=76 velocity=0 time=0.026041666666666664
        Midi msg: note_on channel=0 note=71 velocity=73 time=0.06510416666666666
        Midi msg: note_off channel=0 note=71 velocity=0 time=0.06510416666666666
        Midi msg: note_on channel=0 note=80 velocity=76 time=0.05208333333333333
        Midi msg: note_off channel=0 note=80 velocity=0 time=0.04427083333333333
        Midi msg: note_on channel=0 note=83 velocity=89 time=0.041666666666666664
        Midi msg: note_off channel=0 note=83 velocity=0 time=0.09375
        Midi msg: note_on channel=0 note=88 velocity=69 time=0.028645833333333332
        Midi msg: note_off channel=0 note=88 velocity=0 time=0.06510416666666666
        Midi msg: note_on channel=0 note=83 velocity=69 time=0.010416666666666666
        Midi msg: note_off channel=0 note=83 velocity=0 time=0.07552083333333333
        Midi msg: note_on channel=0 note=92 velocity=83 time=0.03125
        Midi msg: note_off channel=0 note=92 velocity=0 time=0.046875
        Midi msg: note_on channel=0 note=95 velocity=81 time=0.0625
        Midi msg: note_off channel=0 note=95 velocity=0 time=0.09375
        Midi msg: note_on channel=0 note=100 velocity=99 time=0.026041666666666664
        Midi msg: note_on channel=0 note=95 velocity=69 time=0.10677083333333333
        Midi msg: note_off channel=0 note=100 velocity=0 time=0.0026041666666666665
        Midi msg: note_off channel=0 note=95 velocity=0 time=0.0703125
        Midi msg: note_on channel=0 note=92 velocity=83 time=0.026041666666666664
        Midi msg: note_off channel=0 note=92 velocity=0 time=0.04427083333333333
        Midi msg: note_on channel=0 note=83 velocity=69 time=0.0546875
        Midi msg: note_off channel=0 note=83 velocity=0 time=0.049479166666666664
        Midi msg: note_on channel=0 note=88 velocity=84 time=0.0625
        Midi msg: note_on channel=0 note=83 velocity=78 time=0.10677083333333333
        Midi msg: note_off channel=0 note=88 velocity=0 time=0.026041666666666664
        Midi msg: note_off channel=0 note=83 velocity=0 time=0.0703125
        Midi msg: note_on channel=0 note=80 velocity=69 time=0.0234375
        Midi msg: note_off channel=0 note=80 velocity=0 time=0.057291666666666664
        Midi msg: note_on channel=0 note=71 velocity=69 time=0.018229166666666664
        Midi msg: note_off channel=0 note=71 velocity=0 time=0.041666666666666664
        Midi msg: note_on channel=0 note=76 velocity=86 time=0.046875
        Midi msg: note_on channel=0 note=71 velocity=69 time=0.0859375
        Midi msg: note_off channel=0 note=76 velocity=0 time=0.049479166666666664
        Midi msg: note_on channel=0 note=68 velocity=72 time=0.049479166666666664
        Midi msg: note_off channel=0 note=71 velocity=0 time=0.018229166666666664
        Midi msg: note_off channel=0 note=68 velocity=0 time=0.028645833333333332
        Midi msg: note_on channel=0 note=59 velocity=70 time=0.06770833333333333
        Midi msg: note_off channel=0 note=59 velocity=0 time=0.046875
        Midi msg: note_on channel=0 note=64 velocity=78 time=0.05208333333333333
        Midi msg: note_on channel=0 note=59 velocity=70 time=0.12239583333333333
        Midi msg: note_off channel=0 note=64 velocity=0 time=0.0026041666666666665
        Midi msg: note_off channel=0 note=28 velocity=0 time=0.010416666666666666
        Midi msg: note_off channel=0 note=59 velocity=0 time=0.05208333333333333
        Midi msg: note_on channel=0 note=56 velocity=70 time=0.028645833333333332
        Midi msg: note_off channel=0 note=56 velocity=0 time=0.041666666666666664
        Midi msg: note_on channel=0 note=47 velocity=76 time=0.078125
        Midi msg: note_off channel=0 note=47 velocity=0 time=0.046875
        Midi msg: note_off channel=0 note=40 velocity=0 time=0.171875
        Midi msg: note_on channel=0 note=38 velocity=92 time=0.018229166666666664
        Midi msg: control_change channel=0 control=64 value=0 time=0.08333333333333333
        Midi msg: note_on channel=0 note=50 velocity=83 time=0.0390625
        Midi msg: note_off channel=0 note=50 velocity=0 time=0.109375
        Midi msg: note_on channel=0 note=57 velocity=79 time=0.015625
        Midi msg: note_on channel=0 note=60 velocity=83 time=0.09895833333333333
        Midi msg: note_off channel=0 note=57 velocity=0 time=0.013020833333333332
        Midi msg: control_change channel=0 control=64 value=127 time=0.026041666666666664
        Midi msg: note_on channel=0 note=65 velocity=87 time=0.07552083333333333
        Midi msg: note_off channel=0 note=60 velocity=0 time=0.015625
        Midi msg: note_off channel=0 note=65 velocity=0 time=0.026041666666666664
        Midi msg: note_on channel=0 note=62 velocity=69 time=0.08333333333333333
        Midi msg: note_off channel=0 note=62 velocity=0 time=0.0546875
        Midi msg: note_on channel=0 note=69 velocity=91 time=0.03645833333333333
        Midi msg: note_off channel=0 note=69 velocity=0 time=0.08333333333333333
        Midi msg: note_on channel=0 note=72 velocity=96 time=0.0234375
        Midi msg: note_off channel=0 note=72 velocity=0 time=0.09895833333333333
        Midi msg: note_on channel=0 note=77 velocity=82 time=0.018229166666666664
        Midi msg: note_off channel=0 note=77 velocity=0 time=0.0390625
        Midi msg: note_on channel=0 note=74 velocity=95 time=0.041666666666666664
        Midi msg: note_off channel=0 note=74 velocity=0 time=0.05208333333333333
        Midi msg: note_on channel=0 note=81 velocity=98 time=0.046875
        Midi msg: note_off channel=0 note=81 velocity=0 time=0.08854166666666666
        Midi msg: note_on channel=0 note=84 velocity=99 time=0.010416666666666666
        Midi msg: note_off channel=0 note=84 velocity=0 time=0.09375
        Midi msg: note_on channel=0 note=89 velocity=99 time=0
        Midi msg: note_off channel=0 note=89 velocity=0 time=0.03125
        Midi msg: note_on channel=0 note=86 velocity=94 time=0.05989583333333333
        Midi msg: note_off channel=0 note=86 velocity=0 time=0.09895833333333333
        Midi msg: note_on channel=0 note=93 velocity=100 time=0
        Midi msg: note_on channel=0 note=96 velocity=93 time=0.09895833333333333
        Midi msg: note_off channel=0 note=93 velocity=0 time=0.010416666666666666
        Midi msg: note_on channel=0 note=43 velocity=80 time=0.057291666666666664
        Midi msg: note_on channel=0 note=31 velocity=90 time=0
        Midi msg: note_off channel=0 note=38 velocity=0 time=0.0026041666666666665
        Midi msg: note_on channel=0 note=101 velocity=93 time=0.03125
        Midi msg: control_change channel=0 control=64 value=0 time=0.005208333333333333
        Midi msg: note_off channel=0 note=96 velocity=0 time=0.005208333333333333
        Midi msg: note_off channel=0 note=101 velocity=0 time=0.0703125
        Midi msg: note_on channel=0 note=95 velocity=84 time=0.028645833333333332
        Midi msg: note_on channel=0 note=91 velocity=90 time=0.10416666666666666
        Midi msg: note_off channel=0 note=95 velocity=0 time=0.005208333333333333
        Midi msg: control_change channel=0 control=64 value=127 time=0.0390625
        Midi msg: note_off channel=0 note=91 velocity=0 time=0.0078125
        Midi msg: note_on channel=0 note=86 velocity=87 time=0.028645833333333332
        Midi msg: note_off channel=0 note=86 velocity=0 time=0.041666666666666664
        Midi msg: note_on channel=0 note=89 velocity=95 time=0.05989583333333333
        Midi msg: note_on channel=0 note=83 velocity=84 time=0.09635416666666666
        Midi msg: note_off channel=0 note=89 velocity=0 time=0.0026041666666666665
        Midi msg: note_off channel=0 note=83 velocity=0 time=0.09375
        Midi msg: note_on channel=0 note=79 velocity=78 time=0.005208333333333333
        Midi msg: note_off channel=0 note=79 velocity=0 time=0.041666666666666664
        Midi msg: note_on channel=0 note=74 velocity=87 time=0.033854166666666664
        Midi msg: note_off channel=0 note=74 velocity=0 time=0.03645833333333333
        Midi msg: note_on channel=0 note=77 velocity=85 time=0.06770833333333333
        Midi msg: note_on channel=0 note=71 velocity=69 time=0.0859375
        Midi msg: note_off channel=0 note=77 velocity=0 time=0.010416666666666666
        Midi msg: note_off channel=0 note=71 velocity=0 time=0.0625
        Midi msg: note_on channel=0 note=67 velocity=73 time=0.026041666666666664
        Midi msg: note_off channel=0 note=67 velocity=0 time=0.046875
        Midi msg: note_on channel=0 note=62 velocity=80 time=0.028645833333333332
        Midi msg: note_off channel=0 note=62 velocity=0 time=0.046875
        Midi msg: note_on channel=0 note=65 velocity=85 time=0.06510416666666666
        Midi msg: note_on channel=0 note=59 velocity=75 time=0.09895833333333333
        Midi msg: note_off channel=0 note=65 velocity=0 time=0.010416666666666666
        Midi msg: note_off channel=0 note=59 velocity=0 time=0.08072916666666666
        Midi msg: note_on channel=0 note=55 velocity=70 time=0.0078125
        Midi msg: note_on channel=0 note=50 velocity=75 time=0.10677083333333333
        Midi msg: note_off channel=0 note=50 velocity=0 time=0.07291666666666666
        Midi msg: note_off channel=0 note=55 velocity=0 time=0.0078125
        Midi msg: note_on channel=0 note=36 velocity=96 time=0.04427083333333333
        Midi msg: control_change channel=0 control=64 value=0 time=0.028645833333333332
        Midi msg: note_off channel=0 note=31 velocity=0 time=0.0026041666666666665
        Midi msg: note_off channel=0 note=43 velocity=0 time=0.0078125
        Midi msg: note_on channel=0 note=48 velocity=83 time=0.0625
        Midi msg: note_off channel=0 note=48 velocity=0 time=0.03645833333333333
        Midi msg: note_on channel=0 note=55 velocity=84 time=0.05989583333333333
        Midi msg: note_off channel=0 note=55 velocity=0 time=0.11458333333333333
        Midi msg: note_on channel=0 note=60 velocity=69 time=0.010416666666666666
        Midi msg: control_change channel=0 control=64 value=127 time=0.0390625
        Midi msg: note_on channel=0 note=64 velocity=81 time=0.057291666666666664
        Midi msg: note_off channel=0 note=60 velocity=0 time=0.020833333333333332
        Midi msg: note_off channel=0 note=64 velocity=0 time=0.015625
        Midi msg: note_on channel=0 note=60 velocity=86 time=0.0546875
        Midi msg: note_off channel=0 note=60 velocity=0 time=0.0859375
        Midi msg: note_on channel=0 note=67 velocity=88 time=0.028645833333333332
        Midi msg: note_off channel=0 note=67 velocity=0 time=0.07291666666666666
        Midi msg: note_on channel=0 note=72 velocity=79 time=0.0234375
        Midi msg: note_on channel=0 note=76 velocity=98 time=0.08854166666666666
        Midi msg: note_off channel=0 note=72 velocity=0 time=0.020833333333333332
        Midi msg: note_off channel=0 note=76 velocity=0 time=0.018229166666666664
        Midi msg: note_on channel=0 note=72 velocity=83 time=0.08333333333333333
        Midi msg: note_off channel=0 note=72 velocity=0 time=0.0546875
        Midi msg: note_on channel=0 note=82 velocity=100 time=0.06770833333333333
        Midi msg: note_on channel=0 note=84 velocity=97 time=0.109375
        Midi msg: note_off channel=0 note=82 velocity=0 time=0.020833333333333332
        Midi msg: note_off channel=0 note=84 velocity=0 time=0.08333333333333333
        Midi msg: note_on channel=0 note=91 velocity=105 time=0.005208333333333333
        Midi msg: note_on channel=0 note=84 velocity=94 time=0.08854166666666666
        Midi msg: note_off channel=0 note=91 velocity=0 time=0.020833333333333332
        Midi msg: note_on channel=0 note=82 velocity=82 time=0.09375
        Midi msg: note_on channel=0 note=76 velocity=69 time=0.07291666666666666
        Midi msg: note_off channel=0 note=84 velocity=0 time=0.005208333333333333
        Midi msg: note_off channel=0 note=82 velocity=0 time=0.018229166666666664
        Midi msg: note_off channel=0 note=76 velocity=0 time=0.026041666666666664
        Midi msg: note_on channel=0 note=48 velocity=74 time=0.0390625
        Midi msg: note_on channel=0 note=90 velocity=99 time=0.03125
        Midi msg: control_change channel=0 control=64 value=0 time=0.0234375
        Midi msg: note_on channel=0 note=84 velocity=70 time=0.07552083333333333
        Midi msg: note_off channel=0 note=90 velocity=0 time=0.03125
        Midi msg: control_change channel=0 control=64 value=127 time=0.020833333333333332
        Midi msg: note_on channel=0 note=81 velocity=75 time=0.03125
        Midi msg: note_off channel=0 note=84 velocity=0 time=0.046875
        Midi msg: note_off channel=0 note=81 velocity=0 time=0.005208333333333333
        Midi msg: note_on channel=0 note=75 velocity=78 time=0.026041666666666664
        Midi msg: note_off channel=0 note=75 velocity=0 time=0.041666666666666664
        Midi msg: note_on channel=0 note=78 velocity=81 time=0.0859375
        Midi msg: note_off channel=0 note=78 velocity=0 time=0.049479166666666664
        Midi msg: note_on channel=0 note=72 velocity=88 time=0.07552083333333333
        Midi msg: note_on channel=0 note=69 velocity=74 time=0.08333333333333333
        Midi msg: note_off channel=0 note=72 velocity=0 time=0.0546875
        Midi msg: note_on channel=0 note=63 velocity=69 time=0.0026041666666666665
        Midi msg: note_off channel=0 note=63 velocity=0 time=0.04427083333333333
        Midi msg: note_off channel=0 note=69 velocity=0 time=0.005208333333333333
        Midi msg: note_on channel=0 note=77 velocity=96 time=0.10677083333333333
        Midi msg: control_change channel=0 control=64 value=0 time=0.013020833333333332
        Midi msg: note_on channel=0 note=71 velocity=69 time=0.11458333333333333
        Midi msg: note_off channel=0 note=77 velocity=0 time=0.0234375
        Midi msg: control_change channel=0 control=64 value=127 time=0.0234375
        Midi msg: note_on channel=0 note=68 velocity=69 time=0.0546875
        Midi msg: note_off channel=0 note=71 velocity=0 time=0.041666666666666664
        Midi msg: note_off channel=0 note=68 velocity=0 time=0.015625
        Midi msg: note_on channel=0 note=62 velocity=75 time=0.033854166666666664
        Midi msg: note_off channel=0 note=62 velocity=0 time=0.05208333333333333
        Midi msg: note_on channel=0 note=65 velocity=69 time=0.09114583333333333
        Midi msg: note_off channel=0 note=65 velocity=0 time=0.07552083333333333
        Midi msg: note_on channel=0 note=59 velocity=73 time=0.018229166666666664
        Midi msg: note_off channel=0 note=48 velocity=0 time=0.0026041666666666665
        Midi msg: note_off channel=0 note=59 velocity=0 time=0.05989583333333333
        Midi msg: note_off channel=0 note=36 velocity=0 time=0.05208333333333333
        Midi msg: note_on channel=0 note=56 velocity=76 time=0.005208333333333333
        Midi msg: note_off channel=0 note=56 velocity=0 time=0.07552083333333333
        Midi msg: note_on channel=0 note=50 velocity=76 time=0.020833333333333332
        Midi msg: note_off channel=0 note=50 velocity=0 time=0.05208333333333333
        Midi msg: note_on channel=0 note=36 velocity=95 time=0.0703125
        Midi msg: control_change channel=0 control=64 value=0 time=0.0625
        Midi msg: note_on channel=0 note=48 velocity=84 time=0.013020833333333332
        Midi msg: note_off channel=0 note=48 velocity=0 time=0.0625
        Midi msg: note_on channel=0 note=55 velocity=81 time=0.046875
        Midi msg: control_change channel=0 control=64 value=127 time=0.10416666666666666
        Midi msg: note_on channel=0 note=60 velocity=69 time=0.005208333333333333
        Midi msg: note_off channel=0 note=55 velocity=0 time=0.010416666666666666
        Midi msg: note_on channel=0 note=64 velocity=87 time=0.05208333333333333
        Midi msg: note_off channel=0 note=64 velocity=0 time=0.0390625
        Midi msg: note_off channel=0 note=60 velocity=0 time=0.013020833333333332
        Midi msg: note_on channel=0 note=60 velocity=92 time=0.06510416666666666
        Midi msg: note_off channel=0 note=60 velocity=0 time=0.03645833333333333
        Midi msg: note_on channel=0 note=67 velocity=94 time=0.046875
        Midi msg: note_on channel=0 note=72 velocity=91 time=0.09895833333333333
        Midi msg: note_off channel=0 note=67 velocity=0 time=0.0234375
        Midi msg: note_on channel=0 note=76 velocity=95 time=0.07552083333333333
        Midi msg: note_off channel=0 note=72 velocity=0 time=0.03125
        Midi msg: note_off channel=0 note=76 velocity=0 time=0.005208333333333333
        Midi msg: note_on channel=0 note=72 velocity=99 time=0.05989583333333333
        Midi msg: note_off channel=0 note=72 velocity=0 time=0.06510416666666666
        Midi msg: note_on channel=0 note=79 velocity=92 time=0.041666666666666664
        Midi msg: note_on channel=0 note=84 velocity=84 time=0.0859375
        Midi msg: note_off channel=0 note=79 velocity=0 time=0.0234375
        Midi msg: note_on channel=0 note=88 velocity=107 time=0.057291666666666664
        Midi msg: note_off channel=0 note=84 velocity=0 time=0.015625
        Midi msg: note_on channel=0 note=84 velocity=91 time=0.078125
        Midi msg: note_off channel=0 note=88 velocity=0 time=0.026041666666666664
        Midi msg: note_on channel=0 note=79 velocity=73 time=0.08072916666666666
        Midi msg: note_off channel=0 note=84 velocity=0 time=0.0234375
        Midi msg: note_on channel=0 note=72 velocity=87 time=0.0390625
        Midi msg: note_off channel=0 note=72 velocity=0 time=0.041666666666666664
        Midi msg: note_off channel=0 note=79 velocity=0 time=0.013020833333333332
        Midi msg: note_off channel=0 note=36 velocity=0 time=0.028645833333333332
        Midi msg: note_on channel=0 note=31 velocity=81 time=0.005208333333333333
        Midi msg: note_on channel=0 note=43 velocity=69 time=0.0026041666666666665
        Midi msg: control_change channel=0 control=64 value=0 time=0.0234375
        Midi msg: note_on channel=0 note=87 velocity=103 time=0.013020833333333332
        Midi msg: note_on channel=0 note=81 velocity=78 time=0.11979166666666666
        Midi msg: control_change channel=0 control=64 value=127 time=0.013020833333333332
        Midi msg: note_off channel=0 note=87 velocity=0 time=0.013020833333333332
        Midi msg: note_on channel=0 note=78 velocity=69 time=0.0546875
        Midi msg: note_off channel=0 note=81 velocity=0 time=0.03645833333333333
        Midi msg: note_off channel=0 note=78 velocity=0 time=0.013020833333333332
        Midi msg: note_on channel=0 note=72 velocity=86 time=0.020833333333333332
        Midi msg: note_off channel=0 note=72 velocity=0 time=0.0390625
        Midi msg: note_on channel=0 note=75 velocity=90 time=0.06510416666666666
        Midi msg: note_on channel=0 note=69 velocity=73 time=0.10677083333333333
        Midi msg: note_off channel=0 note=75 velocity=0 time=0.015625
        Midi msg: note_on channel=0 note=66 velocity=69 time=0.08072916666666666
        Midi msg: note_off channel=0 note=69 velocity=0 time=0.03125
        Midi msg: note_off channel=0 note=66 velocity=0 time=0.0390625
        Midi msg: note_on channel=0 note=60 velocity=69 time=0.0026041666666666665
        Midi msg: note_off channel=0 note=60 velocity=0 time=0.0625
        Midi msg: note_on channel=0 note=74 velocity=97 time=0.05989583333333333
        Midi msg: control_change channel=0 control=64 value=0 time=0.015625
        Midi msg: note_off channel=0 note=74 velocity=0 time=0.11979166666666666
        Midi msg: note_on channel=0 note=68 velocity=69 time=0
        Midi msg: control_change channel=0 control=64 value=127 time=0.0390625
        Midi msg: note_on channel=0 note=65 velocity=69 time=0.04427083333333333
        Midi msg: note_off channel=0 note=65 velocity=0 time=0.046875
        Midi msg: note_off channel=0 note=68 velocity=0 time=0
        Midi msg: note_on channel=0 note=59 velocity=69 time=0.04427083333333333
        Midi msg: note_off channel=0 note=59 velocity=0 time=0.0390625
        Midi msg: note_on channel=0 note=62 velocity=76 time=0.057291666666666664
        Midi msg: note_off channel=0 note=62 velocity=0 time=0.09375
        Midi msg: note_on channel=0 note=56 velocity=69 time=0.020833333333333332
        Midi msg: note_off channel=0 note=43 velocity=0 time=0.0026041666666666665
        Midi msg: note_on channel=0 note=53 velocity=69 time=0.09375
        Midi msg: note_off channel=0 note=31 velocity=0 time=0.0026041666666666665
        Midi msg: note_off channel=0 note=56 velocity=0 time=0.020833333333333332
        Midi msg: note_on channel=0 note=47 velocity=69 time=0.07291666666666666
        Midi msg: note_off channel=0 note=53 velocity=0 time=0.0390625
        Midi msg: note_off channel=0 note=47 velocity=0 time=0.015625
        Midi msg: note_on channel=0 note=43 velocity=78 time=0.07291666666666666
        Midi msg: note_on channel=0 note=31 velocity=75 time=0.013020833333333332
        Midi msg: control_change channel=0 control=64 value=0 time=0.057291666666666664
        Midi msg: note_on channel=0 note=46 velocity=92 time=0.015625
        Midi msg: note_off channel=0 note=46 velocity=0 time=0.0703125
        Midi msg: note_on channel=0 note=52 velocity=76 time=0.033854166666666664
        Midi msg: note_off channel=0 note=52 velocity=0 time=0.06770833333333333
        Midi msg: note_on channel=0 note=55 velocity=71 time=0.020833333333333332
        Midi msg: control_change channel=0 control=64 value=127 time=0.0026041666666666665
        Midi msg: note_off channel=0 note=55 velocity=0 time=0.05208333333333333
        Midi msg: note_on channel=0 note=61 velocity=83 time=0.0234375
        Midi msg: note_off channel=0 note=61 velocity=0 time=0.033854166666666664
        Midi msg: note_on channel=0 note=58 velocity=83 time=0.07291666666666666
        Midi msg: note_off channel=0 note=58 velocity=0 time=0.046875
        Midi msg: note_on channel=0 note=64 velocity=84 time=0.05208333333333333
        Midi msg: note_on channel=0 note=67 velocity=76 time=0.078125
        Midi msg: note_off channel=0 note=64 velocity=0 time=0.020833333333333332
        Midi msg: note_off channel=0 note=67 velocity=0 time=0.03645833333333333
        Midi msg: note_on channel=0 note=73 velocity=90 time=0.020833333333333332
        Midi msg: note_off channel=0 note=73 velocity=0 time=0.03125
        Midi msg: note_on channel=0 note=70 velocity=91 time=0.07552083333333333
        Midi msg: note_off channel=0 note=70 velocity=0 time=0.041666666666666664
        Midi msg: note_on channel=0 note=76 velocity=91 time=0.04427083333333333
        Midi msg: note_on channel=0 note=79 velocity=83 time=0.08333333333333333
        Midi msg: note_off channel=0 note=76 velocity=0 time=0.013020833333333332
        Midi msg: note_on channel=0 note=85 velocity=94 time=0.0625
        Midi msg: note_off channel=0 note=79 velocity=0 time=0.015625
        Midi msg: note_off channel=0 note=85 velocity=0 time=0.015625
        Midi msg: note_on channel=0 note=82 velocity=96 time=0.06770833333333333
        Midi msg: note_on channel=0 note=88 velocity=87 time=0.09114583333333333
        Midi msg: note_off channel=0 note=82 velocity=0 time=0.0078125
        Midi msg: note_on channel=0 note=91 velocity=87 time=0.08854166666666666
        Midi msg: note_off channel=0 note=88 velocity=0 time=0.015625
        Midi msg: control_change channel=0 control=64 value=0 time=0.057291666666666664
        Midi msg: note_off channel=0 note=91 velocity=0 time=0.026041666666666664
        Midi msg: note_on channel=0 note=97 velocity=93 time=0
        Midi msg: note_on channel=0 note=90 velocity=84 time=0.09375
        Midi msg: note_off channel=0 note=97 velocity=0 time=0.026041666666666664
        Midi msg: control_change channel=0 control=64 value=127 time=0
        Midi msg: note_on channel=0 note=87 velocity=86 time=0.0625
        Midi msg: note_off channel=0 note=90 velocity=0 time=0.026041666666666664
        Midi msg: note_off channel=0 note=87 velocity=0 time=0.026041666666666664
        Midi msg: note_on channel=0 note=81 velocity=89 time=0.03125
        Midi msg: note_off channel=0 note=81 velocity=0 time=0.03645833333333333
        Midi msg: note_on channel=0 note=85 velocity=94 time=0.057291666666666664
        Midi msg: note_on channel=0 note=78 velocity=82 time=0.09895833333333333
        Midi msg: note_off channel=0 note=85 velocity=0 time=0.013020833333333332
        Midi msg: note_on channel=0 note=75 velocity=78 time=0.07552083333333333
        Midi msg: note_off channel=0 note=78 velocity=0 time=0.033854166666666664
        Midi msg: note_off channel=0 note=75 velocity=0 time=0.0078125
        Midi msg: note_on channel=0 note=69 velocity=71 time=0.049479166666666664
        Midi msg: note_off channel=0 note=69 velocity=0 time=0.04427083333333333
        Midi msg: note_on channel=0 note=73 velocity=95 time=0.046875
        Midi msg: note_on channel=0 note=66 velocity=76 time=0.10416666666666666
        Midi msg: note_off channel=0 note=73 velocity=0 time=0.020833333333333332
        Midi msg: note_on channel=0 note=63 velocity=72 time=0.08854166666666666
        Midi msg: note_off channel=0 note=66 velocity=0 time=0.028645833333333332
        Midi msg: note_on channel=0 note=57 velocity=81 time=0.05989583333333333
        Midi msg: note_off channel=0 note=63 velocity=0 time=0.0234375
        Midi msg: note_off channel=0 note=57 velocity=0 time=0.018229166666666664
        Midi msg: note_on channel=0 note=72 velocity=103 time=0.09375
        Midi msg: note_off channel=0 note=72 velocity=0 time=0.05208333333333333
        Midi msg: note_on channel=0 note=66 velocity=76 time=0.057291666666666664
        Midi msg: note_off channel=0 note=43 velocity=0 time=0.026041666666666664
        Midi msg: note_off channel=0 note=31 velocity=0 time=0.03125
        Midi msg: note_on channel=0 note=63 velocity=82 time=0.010416666666666666
        Midi msg: note_off channel=0 note=66 velocity=0 time=0.078125
        Midi msg: note_on channel=0 note=57 velocity=89 time=0.0078125
        Midi msg: note_off channel=0 note=57 velocity=0 time=0.057291666666666664
        Midi msg: note_off channel=0 note=63 velocity=0 time=0
        Midi msg: note_on channel=0 note=43 velocity=97 time=0.0390625
        Midi msg: note_on channel=0 note=31 velocity=97 time=0.005208333333333333
        Midi msg: control_change channel=0 control=64 value=0 time=0.028645833333333332
        Midi msg: note_on channel=0 note=56 velocity=92 time=0.05208333333333333
        Midi msg: note_on channel=0 note=62 velocity=84 time=0.1015625
        Midi msg: note_off channel=0 note=56 velocity=0 time=0.010416666666666666
        Midi msg: control_change channel=0 control=64 value=127 time=0.028645833333333332
        Midi msg: note_off channel=0 note=62 velocity=0 time=0.015625
        Midi msg: note_on channel=0 note=65 velocity=84 time=0.0390625
        Midi msg: note_off channel=0 note=65 velocity=0 time=0.0546875
        Midi msg: note_on channel=0 note=72 velocity=101 time=0.033854166666666664
        Midi msg: note_off channel=0 note=72 velocity=0 time=0.03125
        Midi msg: note_on channel=0 note=68 velocity=94 time=0.07291666666666666
        Midi msg: note_on channel=0 note=74 velocity=93 time=0.09635416666666666
        Midi msg: note_off channel=0 note=68 velocity=0 time=0.005208333333333333
        Midi msg: note_on channel=0 note=77 velocity=96 time=0.0859375
        Midi msg: note_off channel=0 note=74 velocity=0 time=0.033854166666666664
        Midi msg: note_on channel=0 note=84 velocity=91 time=0.0546875
        Midi msg: note_off channel=0 note=77 velocity=0 time=0.013020833333333332
        Midi msg: note_off channel=0 note=84 velocity=0 time=0.020833333333333332
        Midi msg: note_on channel=0 note=80 velocity=90 time=0.08333333333333333
        Midi msg: note_off channel=0 note=80 velocity=0 time=0.09375
        Midi msg: note_on channel=0 note=86 velocity=89 time=0
        Midi msg: note_on channel=0 note=89 velocity=92 time=0.0859375
        Midi msg: note_off channel=0 note=86 velocity=0 time=0.03125
        Midi msg: note_on channel=0 note=96 velocity=103 time=0.05208333333333333
        Midi msg: note_off channel=0 note=89 velocity=0 time=0.015625
        Midi msg: note_off channel=0 note=96 velocity=0 time=0.07552083333333333
        Midi msg: note_on channel=0 note=89 velocity=73 time=0.0078125
        Midi msg: note_off channel=0 note=89 velocity=0 time=0.08854166666666666
        Midi msg: note_on channel=0 note=86 velocity=85 time=0.018229166666666664
        Midi msg: note_on channel=0 note=80 velocity=78 time=0.08333333333333333
        Midi msg: note_off channel=0 note=86 velocity=0 time=0.018229166666666664
        Midi msg: note_off channel=0 note=80 velocity=0 time=0.020833333333333332
        Midi msg: control_change channel=0 control=64 value=0 time=0.046875
        Midi msg: note_on channel=0 note=95 velocity=76 time=0.03125
        Midi msg: note_off channel=0 note=95 velocity=0 time=0.09635416666666666
        Midi msg: note_on channel=0 note=89 velocity=82 time=0.015625
        Midi msg: control_change channel=0 control=64 value=127 time=0.033854166666666664
        Midi msg: note_on channel=0 note=86 velocity=75 time=0.046875
        Midi msg: note_off channel=0 note=89 velocity=0 time=0.03645833333333333
        Midi msg: note_off channel=0 note=86 velocity=0 time=0.026041666666666664
        Midi msg: note_on channel=0 note=79 velocity=99 time=0.020833333333333332
        Midi msg: note_off channel=0 note=79 velocity=0 time=0.0390625
        Midi msg: note_on channel=0 note=83 velocity=90 time=0.0625
        Midi msg: note_on channel=0 note=77 velocity=88 time=0.09114583333333333
        Midi msg: note_off channel=0 note=83 velocity=0 time=0.0078125
        Midi msg: note_on channel=0 note=74 velocity=83 time=0.08072916666666666
        Midi msg: note_off channel=0 note=77 velocity=0 time=0.03125
        Midi msg: note_off channel=0 note=74 velocity=0 time=0.013020833333333332
        Midi msg: note_on channel=0 note=67 velocity=88 time=0.04427083333333333
        Midi msg: note_off channel=0 note=67 velocity=0 time=0.041666666666666664
        Midi msg: note_on channel=0 note=71 velocity=79 time=0.057291666666666664
        Midi msg: note_on channel=0 note=65 velocity=84 time=0.08333333333333333
        Midi msg: note_off channel=0 note=71 velocity=0 time=0.028645833333333332
        Midi msg: note_on channel=0 note=62 velocity=74 time=0.07552083333333333
        Midi msg: note_off channel=0 note=65 velocity=0 time=0.020833333333333332
        Midi msg: note_off channel=0 note=62 velocity=0 time=0.028645833333333332
        Midi msg: note_on channel=0 note=55 velocity=87 time=0.04427083333333333
        Midi msg: note_off channel=0 note=55 velocity=0 time=0.0390625
        Midi msg: note_on channel=0 note=59 velocity=81 time=0.06770833333333333
        Midi msg: note_off channel=0 note=43 velocity=0 time=0.013020833333333332
        Midi msg: note_on channel=0 note=53 velocity=81 time=0.08333333333333333
        Midi msg: note_off channel=0 note=59 velocity=0 time=0.0234375
        Midi msg: note_off channel=0 note=31 velocity=0 time=0.0234375
        Midi msg: note_on channel=0 note=50 velocity=73 time=0.041666666666666664
        Midi msg: note_off channel=0 note=53 velocity=0 time=0.010416666666666666
        Midi msg: note_on channel=0 note=43 velocity=85 time=0.08333333333333333
        Midi msg: note_off channel=0 note=43 velocity=0 time=0.10677083333333333
        Midi msg: note_off channel=0 note=50 velocity=0 time=0.033854166666666664
        Midi msg: note_on channel=0 note=36 velocity=113 time=0.020833333333333332
        Midi msg: note_on channel=0 note=24 velocity=117 time=0.0026041666666666665
        Midi msg: control_change channel=0 control=64 value=0 time=0.013020833333333332
        Midi msg: note_on channel=0 note=43 velocity=98 time=0.14583333333333331
        Midi msg: note_off channel=0 note=43 velocity=0 time=0.033854166666666664
        Midi msg: note_on channel=0 note=52 velocity=101 time=0.10677083333333333
        Midi msg: control_change channel=0 control=64 value=127 time=0.08072916666666666
        Midi msg: note_off channel=0 note=52 velocity=0 time=0.013020833333333332
        Midi msg: note_on channel=0 note=55 velocity=87 time=0.026041666666666664
        Midi msg: note_on channel=0 note=60 velocity=78 time=0.12760416666666666
        Midi msg: note_off channel=0 note=55 velocity=0 time=0.0078125
        Midi msg: note_off channel=0 note=60 velocity=0 time=0.033854166666666664
        Midi msg: note_on channel=0 note=55 velocity=74 time=0.0625
        Midi msg: note_off channel=0 note=55 velocity=0 time=0.0546875
        Midi msg: note_on channel=0 note=64 velocity=69 time=0.07552083333333333
        Midi msg: note_off channel=0 note=64 velocity=0 time=0.04427083333333333
        Midi msg: note_on channel=0 note=67 velocity=69 time=0.041666666666666664
        Midi msg: note_off channel=0 note=67 velocity=0 time=0.0625
        Midi msg: note_on channel=0 note=72 velocity=75 time=0.020833333333333332
        Midi msg: note_off channel=0 note=72 velocity=0 time=0.041666666666666664
        Midi msg: note_on channel=0 note=67 velocity=79 time=0.033854166666666664
        Midi msg: note_off channel=0 note=67 velocity=0 time=0.057291666666666664
        Midi msg: note_on channel=0 note=76 velocity=97 time=0.049479166666666664
        Midi msg: note_off channel=0 note=76 velocity=0 time=0.05208333333333333
        Midi msg: note_on channel=0 note=79 velocity=97 time=0.03125
        Midi msg: control_change channel=0 control=64 value=0 time=0.05989583333333333
        Midi msg: note_on channel=0 note=84 velocity=98 time=0.033854166666666664
        Midi msg: note_off channel=0 note=79 velocity=0 time=0.005208333333333333
        Midi msg: note_off channel=0 note=84 velocity=0 time=0.026041666666666664
        Midi msg: note_on channel=0 note=79 velocity=93 time=0.05208333333333333
        Midi msg: control_change channel=0 control=64 value=127 time=0.010416666666666666
        Midi msg: note_off channel=0 note=79 velocity=0 time=0.07552083333333333
        Midi msg: note_on channel=0 note=88 velocity=101 time=0.026041666666666664
        Midi msg: note_on channel=0 note=91 velocity=98 time=0.08854166666666666
        Midi msg: note_off channel=0 note=88 velocity=0 time=0.0026041666666666665
        Midi msg: note_off channel=0 note=91 velocity=0 time=0.08333333333333333
        Midi msg: note_on channel=0 note=96 velocity=103 time=0.013020833333333332
        Midi msg: note_on channel=0 note=91 velocity=83 time=0.0859375
        Midi msg: note_off channel=0 note=96 velocity=0 time=0.018229166666666664
        Midi msg: note_on channel=0 note=88 velocity=90 time=0.09114583333333333
        Midi msg: note_off channel=0 note=91 velocity=0 time=0.018229166666666664
        Midi msg: note_off channel=0 note=88 velocity=0 time=0.028645833333333332
        Midi msg: note_on channel=0 note=79 velocity=89 time=0.033854166666666664
        Midi msg: note_off channel=0 note=79 velocity=0 time=0.04427083333333333
        Midi msg: note_on channel=0 note=84 velocity=101 time=0.046875
        Midi msg: note_off channel=0 note=84 velocity=0 time=0.09635416666666666
        Midi msg: note_on channel=0 note=79 velocity=89 time=0.013020833333333332
        Midi msg: note_on channel=0 note=76 velocity=92 time=0.07552083333333333
        Midi msg: note_off channel=0 note=79 velocity=0 time=0.026041666666666664
        Midi msg: note_off channel=0 note=76 velocity=0 time=0.018229166666666664
        Midi msg: note_on channel=0 note=67 velocity=88 time=0.05989583333333333
        Midi msg: note_off channel=0 note=67 velocity=0 time=0.046875
        Midi msg: note_on channel=0 note=72 velocity=97 time=0.041666666666666664
        Midi msg: note_off channel=0 note=72 velocity=0 time=0.09895833333333333
        Midi msg: note_on channel=0 note=67 velocity=85 time=0.0026041666666666665
        Midi msg: note_off channel=0 note=67 velocity=0 time=0.08072916666666666
        Midi msg: note_on channel=0 note=64 velocity=85 time=0.013020833333333332
        Midi msg: note_off channel=0 note=64 velocity=0 time=0.049479166666666664
        Midi msg: note_on channel=0 note=55 velocity=86 time=0.05208333333333333
        Midi msg: note_off channel=0 note=55 velocity=0 time=0.05989583333333333
        Midi msg: note_on channel=0 note=60 velocity=91 time=0.046875
        Midi msg: note_off channel=0 note=36 velocity=0 time=0.09114583333333333
        Midi msg: note_off channel=0 note=60 velocity=0 time=0.018229166666666664
        Midi msg: note_on channel=0 note=55 velocity=84 time=0.005208333333333333
        Midi msg: note_off channel=0 note=24 velocity=0 time=0.010416666666666666
        Midi msg: note_off channel=0 note=55 velocity=0 time=0.05208333333333333
        Midi msg: note_on channel=0 note=52 velocity=82 time=0.04427083333333333
        Midi msg: note_off channel=0 note=52 velocity=0 time=0.057291666666666664
        Midi msg: note_on channel=0 note=43 velocity=94 time=0.041666666666666664
        Midi msg: note_off channel=0 note=43 velocity=0 time=0.057291666666666664
        Midi msg: note_on channel=0 note=24 velocity=106 time=0.05208333333333333
        Midi msg: note_on channel=0 note=36 velocity=103 time=0.005208333333333333
        Midi msg: control_change channel=0 control=64 value=0 time=0.16145833333333331
        Midi msg: control_change channel=0 control=64 value=127 time=0.3046875
        Midi msg: note_off channel=0 note=36 velocity=0 time=0.005208333333333333
        Midi msg: note_off channel=0 note=24 velocity=0 time=0.026041666666666664
        Midi msg: control_change channel=0 control=64 value=0 time=3.6197916666666665
        Midi msg: MetaMessage('end_of_track', time=0.25)
midi testttttttttttttttttttttttt
saved: outputTest.mid
end of reading midi files
