start server
Received file: generated.mid
Size of midi file: 1375
Parsing MIDI from memory...
        Midi msg: MetaMessage('set_tempo', tempo=500000, time=0)
        Midi msg: note_on channel=0 note=61 velocity=60 time=0
        Midi msg: note_on channel=0 note=69 velocity=60 time=0
        Midi msg: note_off channel=0 note=61 velocity=0 time=0.0010416666666666667
        Midi msg: note_off channel=0 note=69 velocity=0 time=0
        Midi msg: note_off channel=0 note=70 velocity=0 time=0
        Midi msg: note_off channel=0 note=62 velocity=0 time=0
        Midi msg: note_off channel=0 note=45 velocity=0 time=0
        Midi msg: note_off channel=0 note=60 velocity=0 time=0
        Midi msg: note_off channel=0 note=77 velocity=0 time=0
        Midi msg: note_off channel=0 note=62 velocity=0 time=0
        Midi msg: note_off channel=0 note=57 velocity=0 time=0
        Midi msg: note_off channel=0 note=81 velocity=0 time=0
        Midi msg: note_off channel=0 note=62 velocity=0 time=0
        Midi msg: note_off channel=0 note=81 velocity=0 time=0
        Midi msg: note_off channel=0 note=69 velocity=0 time=0
        Midi msg: note_off channel=0 note=69 velocity=0 time=0
        Midi msg: note_off channel=0 note=69 velocity=0 time=0
        Midi msg: note_off channel=0 note=25 velocity=0 time=0
        Midi msg: note_off channel=0 note=67 velocity=0 time=0
        Midi msg: note_off channel=0 note=74 velocity=0 time=0
        Midi msg: note_off channel=0 note=64 velocity=0 time=0
        Midi msg: note_off channel=0 note=64 velocity=0 time=0
        Midi msg: note_off channel=0 note=36 velocity=0 time=0
        Midi msg: note_off channel=0 note=65 velocity=0 time=0
        Midi msg: note_off channel=0 note=44 velocity=0 time=0
        Midi msg: note_off channel=0 note=65 velocity=0 time=0
        Midi msg: note_off channel=0 note=77 velocity=0 time=0
        Midi msg: note_off channel=0 note=40 velocity=0 time=0
        Midi msg: note_off channel=0 note=41 velocity=0 time=0
        Midi msg: note_off channel=0 note=49 velocity=0 time=0
        Midi msg: note_off channel=0 note=55 velocity=0 time=0
        Midi msg: note_off channel=0 note=69 velocity=0 time=0
        Midi msg: note_off channel=0 note=72 velocity=0 time=0
        Midi msg: note_off channel=0 note=55 velocity=0 time=0
        Midi msg: note_off channel=0 note=70 velocity=0 time=0
        Midi msg: note_off channel=0 note=53 velocity=0 time=0
        Midi msg: note_off channel=0 note=63 velocity=0 time=0
        Midi msg: note_off channel=0 note=72 velocity=0 time=0
        Midi msg: note_off channel=0 note=67 velocity=0 time=0
        Midi msg: note_off channel=0 note=73 velocity=0 time=0
        Midi msg: note_off channel=0 note=62 velocity=0 time=0
        Midi msg: note_off channel=0 note=41 velocity=0 time=0
        Midi msg: note_off channel=0 note=58 velocity=0 time=0
        Midi msg: note_off channel=0 note=55 velocity=0 time=0
        Midi msg: note_off channel=0 note=53 velocity=0 time=0
        Midi msg: note_off channel=0 note=38 velocity=0 time=0
        Midi msg: note_off channel=0 note=70 velocity=0 time=0
        Midi msg: note_off channel=0 note=81 velocity=0 time=0
        Midi msg: note_off channel=0 note=62 velocity=0 time=0
        Midi msg: note_off channel=0 note=69 velocity=0 time=0
        Midi msg: note_off channel=0 note=65 velocity=0 time=0
        Midi msg: note_off channel=0 note=52 velocity=0 time=0
        Midi msg: note_off channel=0 note=60 velocity=0 time=0
        Midi msg: note_off channel=0 note=48 velocity=0 time=0
        Midi msg: note_off channel=0 note=74 velocity=0 time=0
        Midi msg: note_off channel=0 note=57 velocity=0 time=0
        Midi msg: note_off channel=0 note=79 velocity=0 time=0
        Midi msg: note_off channel=0 note=81 velocity=0 time=0
        Midi msg: note_off channel=0 note=65 velocity=0 time=0
        Midi msg: note_off channel=0 note=53 velocity=0 time=0
        Midi msg: note_off channel=0 note=81 velocity=0 time=0
        Midi msg: note_off channel=0 note=60 velocity=0 time=0
        Midi msg: note_off channel=0 note=53 velocity=0 time=0
        Midi msg: note_off channel=0 note=69 velocity=0 time=0
        Midi msg: note_off channel=0 note=79 velocity=0 time=0
        Midi msg: note_off channel=0 note=57 velocity=0 time=0
        Midi msg: note_off channel=0 note=57 velocity=0 time=0
        Midi msg: note_off channel=0 note=76 velocity=0 time=0
        Midi msg: note_off channel=0 note=70 velocity=0 time=0
        Midi msg: note_off channel=0 note=60 velocity=0 time=0
        Midi msg: note_off channel=0 note=55 velocity=0 time=0
        Midi msg: note_off channel=0 note=50 velocity=0 time=0
        Midi msg: note_off channel=0 note=49 velocity=0 time=0
        Midi msg: note_off channel=0 note=57 velocity=0 time=0
        Midi msg: note_off channel=0 note=41 velocity=0 time=0
        Midi msg: note_off channel=0 note=60 velocity=0 time=0
        Midi msg: note_off channel=0 note=77 velocity=0 time=0
        Midi msg: note_off channel=0 note=70 velocity=0 time=0
        Midi msg: note_off channel=0 note=60 velocity=0 time=0
        Midi msg: note_off channel=0 note=67 velocity=0 time=0
        Midi msg: note_off channel=0 note=70 velocity=0 time=0
        Midi msg: note_off channel=0 note=55 velocity=0 time=0
        Midi msg: note_off channel=0 note=64 velocity=0 time=0
        Midi msg: note_off channel=0 note=67 velocity=0 time=0
        Midi msg: note_off channel=0 note=64 velocity=0 time=0
        Midi msg: note_off channel=0 note=64 velocity=0 time=0
        Midi msg: note_off channel=0 note=62 velocity=0 time=0
        Midi msg: note_off channel=0 note=67 velocity=0 time=0
        Midi msg: note_off channel=0 note=62 velocity=0 time=0
        Midi msg: note_off channel=0 note=67 velocity=0 time=0
        Midi msg: note_off channel=0 note=70 velocity=0 time=0
        Midi msg: note_off channel=0 note=53 velocity=0 time=0
        Midi msg: note_off channel=0 note=57 velocity=0 time=0
        Midi msg: note_off channel=0 note=50 velocity=0 time=0
        Midi msg: note_off channel=0 note=65 velocity=0 time=0
        Midi msg: note_off channel=0 note=53 velocity=0 time=0
        Midi msg: note_off channel=0 note=79 velocity=0 time=0
        Midi msg: note_off channel=0 note=72 velocity=0 time=0
        Midi msg: note_off channel=0 note=41 velocity=0 time=0
        Midi msg: note_off channel=0 note=70 velocity=0 time=0
        Midi msg: note_off channel=0 note=72 velocity=0 time=0
        Midi msg: note_off channel=0 note=62 velocity=0 time=0
        Midi msg: note_off channel=0 note=62 velocity=0 time=0
        Midi msg: note_off channel=0 note=62 velocity=0 time=0
        Midi msg: note_off channel=0 note=58 velocity=0 time=0
        Midi msg: note_off channel=0 note=62 velocity=0 time=0
        Midi msg: note_off channel=0 note=69 velocity=0 time=0
        Midi msg: note_off channel=0 note=62 velocity=0 time=0
        Midi msg: note_off channel=0 note=53 velocity=0 time=0
        Midi msg: note_off channel=0 note=45 velocity=0 time=0
        Midi msg: note_off channel=0 note=56 velocity=0 time=0
        Midi msg: note_off channel=0 note=48 velocity=0 time=0
        Midi msg: note_off channel=0 note=55 velocity=0 time=0
        Midi msg: note_off channel=0 note=77 velocity=0 time=0
        Midi msg: note_off channel=0 note=72 velocity=0 time=0
        Midi msg: note_off channel=0 note=81 velocity=0 time=0
        Midi msg: note_off channel=0 note=82 velocity=0 time=0
        Midi msg: note_off channel=0 note=70 velocity=0 time=0
        Midi msg: note_off channel=0 note=67 velocity=0 time=0
        Midi msg: note_off channel=0 note=36 velocity=0 time=0
        Midi msg: note_off channel=0 note=69 velocity=0 time=0
        Midi msg: note_off channel=0 note=65 velocity=0 time=0
        Midi msg: note_off channel=0 note=38 velocity=0 time=0
        Midi msg: note_off channel=0 note=60 velocity=0 time=0
        Midi msg: note_off channel=0 note=60 velocity=0 time=0
        Midi msg: note_off channel=0 note=81 velocity=0 time=0
        Midi msg: note_off channel=0 note=64 velocity=0 time=0
        Midi msg: note_off channel=0 note=67 velocity=0 time=0
        Midi msg: note_off channel=0 note=70 velocity=0 time=0
        Midi msg: note_off channel=0 note=64 velocity=0 time=0
        Midi msg: note_off channel=0 note=62 velocity=0 time=0
        Midi msg: note_off channel=0 note=69 velocity=0 time=0
        Midi msg: note_off channel=0 note=64 velocity=0 time=0
        Midi msg: note_off channel=0 note=50 velocity=0 time=0
        Midi msg: note_off channel=0 note=77 velocity=0 time=0
        Midi msg: note_off channel=0 note=60 velocity=0 time=0
        Midi msg: note_off channel=0 note=67 velocity=0 time=0
        Midi msg: note_off channel=0 note=65 velocity=0 time=0
        Midi msg: note_off channel=0 note=38 velocity=0 time=0
        Midi msg: note_off channel=0 note=65 velocity=0 time=0
        Midi msg: note_off channel=0 note=60 velocity=0 time=0
        Midi msg: note_off channel=0 note=41 velocity=0 time=0
        Midi msg: note_off channel=0 note=69 velocity=0 time=0
        Midi msg: note_off channel=0 note=58 velocity=0 time=0
        Midi msg: note_off channel=0 note=77 velocity=0 time=0
        Midi msg: note_off channel=0 note=64 velocity=0 time=0
        Midi msg: note_off channel=0 note=76 velocity=0 time=0
        Midi msg: note_off channel=0 note=58 velocity=0 time=0
        Midi msg: note_off channel=0 note=52 velocity=0 time=0
        Midi msg: note_off channel=0 note=60 velocity=0 time=0
        Midi msg: note_off channel=0 note=50 velocity=0 time=0
        Midi msg: note_off channel=0 note=57 velocity=0 time=0
        Midi msg: note_off channel=0 note=41 velocity=0 time=0
        Midi msg: note_off channel=0 note=48 velocity=0 time=0
        Midi msg: note_off channel=0 note=60 velocity=0 time=0
        Midi msg: note_off channel=0 note=62 velocity=0 time=0
        Midi msg: note_off channel=0 note=55 velocity=0 time=0
        Midi msg: note_off channel=0 note=79 velocity=0 time=0
        Midi msg: note_off channel=0 note=55 velocity=0 time=0
        Midi msg: note_off channel=0 note=58 velocity=0 time=0
        Midi msg: note_off channel=0 note=65 velocity=0 time=0
        Midi msg: note_off channel=0 note=67 velocity=0 time=0
        Midi msg: note_off channel=0 note=53 velocity=0 time=0
        Midi msg: note_off channel=0 note=58 velocity=0 time=0
        Midi msg: note_off channel=0 note=70 velocity=0 time=0
        Midi msg: note_off channel=0 note=50 velocity=0 time=0
        Midi msg: note_off channel=0 note=67 velocity=0 time=0
        Midi msg: note_off channel=0 note=55 velocity=0 time=0
        Midi msg: note_off channel=0 note=55 velocity=0 time=0
        Midi msg: note_off channel=0 note=53 velocity=0 time=0
        Midi msg: note_off channel=0 note=55 velocity=0 time=0
        Midi msg: note_off channel=0 note=72 velocity=0 time=0
        Midi msg: note_off channel=0 note=51 velocity=0 time=0
        Midi msg: note_off channel=0 note=62 velocity=0 time=0
        Midi msg: note_off channel=0 note=62 velocity=0 time=0
        Midi msg: note_off channel=0 note=82 velocity=0 time=0
        Midi msg: note_off channel=0 note=77 velocity=0 time=0
        Midi msg: note_off channel=0 note=67 velocity=0 time=0
        Midi msg: note_off channel=0 note=55 velocity=0 time=0
        Midi msg: note_off channel=0 note=55 velocity=0 time=0
        Midi msg: note_off channel=0 note=79 velocity=0 time=0
        Midi msg: note_off channel=0 note=58 velocity=0 time=0
        Midi msg: note_off channel=0 note=39 velocity=0 time=0
        Midi msg: note_off channel=0 note=79 velocity=0 time=0
        Midi msg: note_off channel=0 note=48 velocity=0 time=0
        Midi msg: note_off channel=0 note=70 velocity=0 time=0
        Midi msg: note_off channel=0 note=70 velocity=0 time=0
        Midi msg: note_off channel=0 note=67 velocity=0 time=0
        Midi msg: note_off channel=0 note=51 velocity=0 time=0
        Midi msg: note_off channel=0 note=65 velocity=0 time=0
        Midi msg: note_off channel=0 note=55 velocity=0 time=0
        Midi msg: note_off channel=0 note=67 velocity=0 time=0
        Midi msg: note_off channel=0 note=53 velocity=0 time=0
        Midi msg: note_off channel=0 note=65 velocity=0 time=0
        Midi msg: note_off channel=0 note=77 velocity=0 time=0
        Midi msg: note_off channel=0 note=58 velocity=0 time=0
        Midi msg: note_off channel=0 note=70 velocity=0 time=0
        Midi msg: note_off channel=0 note=91 velocity=0 time=0
        Midi msg: note_off channel=0 note=53 velocity=0 time=0
        Midi msg: note_off channel=0 note=67 velocity=0 time=0
        Midi msg: note_off channel=0 note=51 velocity=0 time=0
        Midi msg: note_off channel=0 note=72 velocity=0 time=0
        Midi msg: note_on channel=0 note=70 velocity=75 time=0.50625
        Midi msg: note_on channel=0 note=62 velocity=60 time=0
        Midi msg: note_on channel=0 note=45 velocity=60 time=0.5072916666666667
        Midi msg: note_on channel=0 note=60 velocity=75 time=0
        Midi msg: note_on channel=0 note=77 velocity=45 time=0
        Midi msg: note_on channel=0 note=62 velocity=60 time=0.5072916666666667
        Midi msg: note_on channel=0 note=57 velocity=60 time=1.046875
        Midi msg: note_on channel=0 note=81 velocity=75 time=0.5072916666666667
        Midi msg: note_on channel=0 note=62 velocity=30 time=0
        Midi msg: note_on channel=0 note=81 velocity=60 time=0.5072916666666667
        Midi msg: note_on channel=0 note=69 velocity=60 time=0
        Midi msg: note_on channel=0 note=69 velocity=60 time=0.5072916666666667
        Midi msg: note_on channel=0 note=69 velocity=60 time=0.5072916666666667
        Midi msg: note_on channel=0 note=25 velocity=60 time=0
        Midi msg: note_on channel=0 note=67 velocity=60 time=0.5072916666666667
        Midi msg: note_on channel=0 note=74 velocity=60 time=0
        Midi msg: note_on channel=0 note=64 velocity=75 time=0.5072916666666667
        Midi msg: note_on channel=0 note=64 velocity=45 time=0
        Midi msg: note_on channel=0 note=36 velocity=60 time=0
        Midi msg: note_on channel=0 note=65 velocity=60 time=0.5072916666666667
        Midi msg: note_on channel=0 note=44 velocity=60 time=1.046875
        Midi msg: note_on channel=0 note=65 velocity=60 time=0.03125
        Midi msg: note_on channel=0 note=77 velocity=60 time=0
        Midi msg: note_on channel=0 note=40 velocity=60 time=0.5072916666666667
        Midi msg: note_on channel=0 note=41 velocity=60 time=0.5072916666666667
        Midi msg: note_on channel=0 note=49 velocity=60 time=0.5072916666666667
        Midi msg: note_on channel=0 note=55 velocity=60 time=0.5072916666666667
        Midi msg: note_on channel=0 note=69 velocity=60 time=0
        Midi msg: note_on channel=0 note=72 velocity=60 time=0
        Midi msg: note_on channel=0 note=55 velocity=60 time=0
        Midi msg: note_on channel=0 note=70 velocity=60 time=0.5072916666666667
        Midi msg: note_on channel=0 note=53 velocity=90 time=0.5072916666666667
        Midi msg: note_on channel=0 note=63 velocity=60 time=0.5072916666666667
        Midi msg: note_on channel=0 note=72 velocity=60 time=0
        Midi msg: note_on channel=0 note=67 velocity=45 time=0.5072916666666667
        Midi msg: note_on channel=0 note=73 velocity=60 time=0
        Midi msg: note_on channel=0 note=62 velocity=30 time=0.5072916666666667
        Midi msg: note_on channel=0 note=41 velocity=60 time=0.5072916666666667
        Midi msg: note_on channel=0 note=58 velocity=45 time=0.5072916666666667
        Midi msg: note_on channel=0 note=55 velocity=60 time=0.5072916666666667
        Midi msg: note_on channel=0 note=53 velocity=60 time=0.5072916666666667
        Midi msg: note_on channel=0 note=38 velocity=105 time=0.5072916666666667
        Midi msg: note_on channel=0 note=70 velocity=60 time=0.5072916666666667
        Midi msg: note_on channel=0 note=81 velocity=60 time=0.5072916666666667
        Midi msg: note_on channel=0 note=62 velocity=60 time=0.5072916666666667
        Midi msg: note_on channel=0 note=69 velocity=60 time=0.5072916666666667
        Midi msg: note_on channel=0 note=65 velocity=60 time=0.5072916666666667
        Midi msg: note_on channel=0 note=52 velocity=75 time=0.5072916666666667
        Midi msg: note_on channel=0 note=60 velocity=30 time=0.5072916666666667
        Midi msg: note_on channel=0 note=48 velocity=60 time=0.5072916666666667
        Midi msg: note_on channel=0 note=74 velocity=60 time=0.5072916666666667
        Midi msg: note_on channel=0 note=57 velocity=60 time=0.5072916666666667
        Midi msg: note_on channel=0 note=79 velocity=60 time=0.5072916666666667
        Midi msg: note_on channel=0 note=81 velocity=60 time=0
        Midi msg: note_on channel=0 note=65 velocity=45 time=0.5072916666666667
        Midi msg: note_on channel=0 note=53 velocity=60 time=0
        Midi msg: note_on channel=0 note=81 velocity=60 time=0.5072916666666667
        Midi msg: note_on channel=0 note=60 velocity=60 time=0
        Midi msg: note_on channel=0 note=53 velocity=60 time=0.5072916666666667
        Midi msg: note_on channel=0 note=69 velocity=60 time=0.5072916666666667
        Midi msg: note_on channel=0 note=79 velocity=60 time=0.5072916666666667
        Midi msg: note_on channel=0 note=57 velocity=45 time=0.5072916666666667
        Midi msg: note_on channel=0 note=57 velocity=45 time=0.5072916666666667
        Midi msg: note_on channel=0 note=76 velocity=60 time=0
        Midi msg: note_on channel=0 note=70 velocity=60 time=0
        Midi msg: note_on channel=0 note=60 velocity=60 time=0.5072916666666667
        Midi msg: note_on channel=0 note=55 velocity=60 time=0.5072916666666667
        Midi msg: note_on channel=0 note=50 velocity=60 time=0.5072916666666667
        Midi msg: note_on channel=0 note=49 velocity=60 time=0
        Midi msg: note_on channel=0 note=57 velocity=60 time=0
        Midi msg: note_on channel=0 note=41 velocity=45 time=0.5072916666666667
        Midi msg: note_on channel=0 note=60 velocity=45 time=0.5072916666666667
        Midi msg: note_on channel=0 note=77 velocity=60 time=0
        Midi msg: note_on channel=0 note=70 velocity=60 time=0
        Midi msg: note_on channel=0 note=60 velocity=60 time=0
        Midi msg: note_on channel=0 note=67 velocity=45 time=0.5072916666666667
        Midi msg: note_on channel=0 note=70 velocity=60 time=0.5072916666666667
        Midi msg: note_on channel=0 note=55 velocity=75 time=0
        Midi msg: note_on channel=0 note=64 velocity=60 time=0.5072916666666667
        Midi msg: note_on channel=0 note=67 velocity=60 time=0.5072916666666667
        Midi msg: note_on channel=0 note=64 velocity=60 time=0
        Midi msg: note_on channel=0 note=64 velocity=60 time=0.5072916666666667
        Midi msg: note_on channel=0 note=62 velocity=60 time=0.6979166666666666
        Midi msg: note_on channel=0 note=67 velocity=60 time=0
        Midi msg: note_on channel=0 note=62 velocity=60 time=0.5072916666666667
        Midi msg: note_on channel=0 note=67 velocity=30 time=0.5072916666666667
        Midi msg: note_on channel=0 note=70 velocity=60 time=0.5072916666666667
        Midi msg: note_on channel=0 note=53 velocity=45 time=0.5072916666666667
        Midi msg: note_on channel=0 note=57 velocity=60 time=0.5072916666666667
        Midi msg: note_on channel=0 note=50 velocity=30 time=0.5072916666666667
        Midi msg: note_on channel=0 note=65 velocity=60 time=0.5072916666666667
        Midi msg: note_on channel=0 note=53 velocity=60 time=0.5072916666666667
        Midi msg: note_on channel=0 note=79 velocity=60 time=0.5072916666666667
        Midi msg: note_on channel=0 note=72 velocity=45 time=0.5072916666666667
        Midi msg: note_on channel=0 note=41 velocity=45 time=0.5072916666666667
        Midi msg: note_on channel=0 note=70 velocity=60 time=0
        Midi msg: note_on channel=0 note=72 velocity=60 time=0.5072916666666667
        Midi msg: note_on channel=0 note=62 velocity=60 time=0.5072916666666667
        Midi msg: note_on channel=0 note=62 velocity=75 time=0.5072916666666667
        Midi msg: note_on channel=0 note=62 velocity=60 time=0.5072916666666667
        Midi msg: note_on channel=0 note=58 velocity=60 time=0.5072916666666667
        Midi msg: note_on channel=0 note=62 velocity=60 time=0.5072916666666667
        Midi msg: note_on channel=0 note=69 velocity=75 time=0.03125
        Midi msg: note_on channel=0 note=62 velocity=60 time=0.5072916666666667
        Midi msg: note_on channel=0 note=53 velocity=60 time=0.5072916666666667
        Midi msg: note_on channel=0 note=45 velocity=60 time=0
        Midi msg: note_on channel=0 note=56 velocity=60 time=0.5072916666666667
        Midi msg: note_on channel=0 note=48 velocity=60 time=0
        Midi msg: note_on channel=0 note=55 velocity=60 time=0
        Midi msg: note_on channel=0 note=77 velocity=60 time=0.5072916666666667
        Midi msg: note_on channel=0 note=72 velocity=60 time=0.5072916666666667
        Midi msg: note_on channel=0 note=81 velocity=60 time=0.5072916666666667
        Midi msg: note_on channel=0 note=82 velocity=45 time=0.5072916666666667
        Midi msg: note_on channel=0 note=70 velocity=60 time=0
        Midi msg: note_on channel=0 note=67 velocity=60 time=0.5072916666666667
        Midi msg: note_on channel=0 note=36 velocity=60 time=0.5072916666666667
        Midi msg: note_on channel=0 note=69 velocity=60 time=0.5072916666666667
        Midi msg: note_on channel=0 note=65 velocity=60 time=0
        Midi msg: note_on channel=0 note=38 velocity=60 time=0.5072916666666667
        Midi msg: note_on channel=0 note=60 velocity=60 time=0.5072916666666667
        Midi msg: note_on channel=0 note=60 velocity=60 time=0.253125
        Midi msg: note_on channel=0 note=81 velocity=60 time=0.5072916666666667
        Midi msg: note_on channel=0 note=64 velocity=60 time=0.5072916666666667
        Midi msg: note_on channel=0 note=67 velocity=45 time=0
        Midi msg: note_on channel=0 note=70 velocity=60 time=0.5072916666666667
        Midi msg: note_on channel=0 note=64 velocity=45 time=0
        Midi msg: note_on channel=0 note=62 velocity=60 time=0.5072916666666667
        Midi msg: note_on channel=0 note=69 velocity=45 time=0
        Midi msg: note_on channel=0 note=64 velocity=45 time=0
        Midi msg: note_on channel=0 note=50 velocity=45 time=0.5072916666666667
        Midi msg: note_on channel=0 note=77 velocity=60 time=0.5072916666666667
        Midi msg: note_on channel=0 note=60 velocity=60 time=0.5072916666666667
        Midi msg: note_on channel=0 note=67 velocity=60 time=0.5072916666666667
        Midi msg: note_on channel=0 note=65 velocity=60 time=0.5072916666666667
        Midi msg: note_on channel=0 note=38 velocity=60 time=0.5072916666666667
        Midi msg: note_on channel=0 note=65 velocity=60 time=0.5072916666666667
        Midi msg: note_on channel=0 note=60 velocity=60 time=0.5072916666666667
        Midi msg: note_on channel=0 note=41 velocity=60 time=0.5072916666666667
        Midi msg: note_on channel=0 note=69 velocity=60 time=0
        Midi msg: note_on channel=0 note=58 velocity=60 time=0.5072916666666667
        Midi msg: note_on channel=0 note=77 velocity=60 time=0.5072916666666667
        Midi msg: note_on channel=0 note=64 velocity=60 time=0
        Midi msg: note_on channel=0 note=76 velocity=60 time=0.5072916666666667
        Midi msg: note_on channel=0 note=58 velocity=45 time=0.5072916666666667
        Midi msg: note_on channel=0 note=52 velocity=60 time=0.5072916666666667
        Midi msg: note_on channel=0 note=60 velocity=60 time=0.5072916666666667
        Midi msg: note_on channel=0 note=50 velocity=60 time=0
        Midi msg: note_on channel=0 note=57 velocity=75 time=0.5072916666666667
        Midi msg: note_on channel=0 note=41 velocity=60 time=0.5072916666666667
        Midi msg: note_on channel=0 note=48 velocity=60 time=0.5072916666666667
        Midi msg: note_on channel=0 note=60 velocity=75 time=0
        Midi msg: note_on channel=0 note=62 velocity=60 time=0.5072916666666667
        Midi msg: note_on channel=0 note=55 velocity=60 time=0.5072916666666667
        Midi msg: note_on channel=0 note=79 velocity=60 time=0.5072916666666667
        Midi msg: note_on channel=0 note=55 velocity=60 time=0.5072916666666667
        Midi msg: note_on channel=0 note=58 velocity=60 time=0.5072916666666667
        Midi msg: note_on channel=0 note=65 velocity=60 time=0.5072916666666667
        Midi msg: note_on channel=0 note=67 velocity=60 time=0.5072916666666667
        Midi msg: note_on channel=0 note=53 velocity=75 time=0.5072916666666667
        Midi msg: note_on channel=0 note=58 velocity=60 time=0.5072916666666667
        Midi msg: note_on channel=0 note=70 velocity=60 time=0.5072916666666667
        Midi msg: note_on channel=0 note=50 velocity=60 time=0.5072916666666667
        Midi msg: note_on channel=0 note=67 velocity=60 time=0.5072916666666667
        Midi msg: note_on channel=0 note=55 velocity=60 time=0.03125
        Midi msg: note_on channel=0 note=55 velocity=60 time=0
        Midi msg: note_on channel=0 note=53 velocity=60 time=0.5072916666666667
        Midi msg: note_on channel=0 note=55 velocity=60 time=0.5072916666666667
        Midi msg: note_on channel=0 note=72 velocity=30 time=0
        Midi msg: note_on channel=0 note=51 velocity=60 time=0.5072916666666667
        Midi msg: note_on channel=0 note=62 velocity=60 time=0
        Midi msg: note_on channel=0 note=62 velocity=60 time=0
        Midi msg: note_on channel=0 note=82 velocity=75 time=0
        Midi msg: note_on channel=0 note=77 velocity=30 time=0.5072916666666667
        Midi msg: note_on channel=0 note=67 velocity=60 time=0
        Midi msg: note_on channel=0 note=55 velocity=60 time=0
        Midi msg: note_on channel=0 note=55 velocity=60 time=0
        Midi msg: note_on channel=0 note=79 velocity=45 time=0.5072916666666667
        Midi msg: note_on channel=0 note=58 velocity=45 time=0.5072916666666667
        Midi msg: note_on channel=0 note=39 velocity=60 time=0.5072916666666667
        Midi msg: note_on channel=0 note=79 velocity=60 time=0.12604166666666666
        Midi msg: note_on channel=0 note=48 velocity=60 time=0.5072916666666667
        Midi msg: note_on channel=0 note=70 velocity=60 time=0.5072916666666667
        Midi msg: note_on channel=0 note=70 velocity=60 time=0.253125
        Midi msg: note_on channel=0 note=67 velocity=60 time=0.5072916666666667
        Midi msg: note_on channel=0 note=51 velocity=60 time=0
        Midi msg: note_on channel=0 note=65 velocity=60 time=0.5072916666666667
        Midi msg: note_on channel=0 note=55 velocity=60 time=0
        Midi msg: note_on channel=0 note=67 velocity=60 time=0.5072916666666667
        Midi msg: note_on channel=0 note=53 velocity=60 time=0.5072916666666667
        Midi msg: note_on channel=0 note=65 velocity=60 time=0
        Midi msg: note_on channel=0 note=77 velocity=45 time=0.5072916666666667
        Midi msg: note_on channel=0 note=58 velocity=60 time=0
        Midi msg: note_on channel=0 note=70 velocity=45 time=0
        Midi msg: note_on channel=0 note=91 velocity=60 time=0.5072916666666667
        Midi msg: note_on channel=0 note=53 velocity=60 time=0.5072916666666667
        Midi msg: note_on channel=0 note=67 velocity=45 time=0.5072916666666667
        Midi msg: note_on channel=0 note=51 velocity=45 time=0.5072916666666667
        Midi msg: note_on channel=0 note=72 velocity=60 time=0.5072916666666667
        Midi msg: MetaMessage('end_of_track', time=0)
INFO:     127.0.0.1:52166 - "POST /api/music/midi/upload HTTP/1.1" 200 OK
INFO:     127.0.0.1:52166 - "GET /api/music/model/selection HTTP/1.1" 200 OK
Received file: Nocturne-in-E-Flat-Opus-9-Nr-2.mid
Size of midi file: 11978
Parsing MIDI from memory...
        Midi msg: MetaMessage('set_tempo', tempo=500000, time=0)
        Midi msg: MetaMessage('time_signature', numerator=4, denominator=4, clocks_per_click=24, notated_32nd_notes_per_beat=8, time=0)
        Midi msg: MetaMessage('track_name', name='A.PIANO 1', time=0)
        Midi msg: MetaMessage('track_name', name='GS/RESET', time=0)
        Midi msg: sysex data=(65,16,66,18,64,0,127,0,65) time=0
        Midi msg: program_change channel=0 program=0 time=2.0
        Midi msg: control_change channel=0 control=7 value=127 time=0
        Midi msg: note_on channel=0 note=70 velocity=46 time=0
        Midi msg: control_change channel=0 control=64 value=127 time=0.19791666666666666
        Midi msg: note_on channel=0 note=79 velocity=81 time=0.5729166666666666
        Midi msg: note_on channel=0 note=39 velocity=24 time=0.015625
        Midi msg: note_off channel=0 note=70 velocity=0 time=0.04427083333333333
        Midi msg: control_change channel=0 control=64 value=0 time=0.0859375
        Midi msg: note_off channel=0 note=39 velocity=0 time=0.15625
        Midi msg: control_change channel=0 control=64 value=127 time=0.0026041666666666665
        Midi msg: note_on channel=0 note=55 velocity=31 time=0.42447916666666663
        Midi msg: note_on channel=0 note=63 velocity=25 time=0.0026041666666666665
        Midi msg: note_off channel=0 note=55 velocity=0 time=0.15625
        Midi msg: note_off channel=0 note=63 velocity=0 time=0.04427083333333333
        Midi msg: note_on channel=0 note=67 velocity=29 time=0.3125
        Midi msg: note_on channel=0 note=58 velocity=19 time=0.005208333333333333
        Midi msg: note_on channel=0 note=63 velocity=34 time=0.005208333333333333
        Midi msg: note_off channel=0 note=67 velocity=0 time=0.140625
        Midi msg: note_off channel=0 note=63 velocity=0 time=0.03125
        Midi msg: note_off channel=0 note=58 velocity=0 time=0.13802083333333331
        Midi msg: note_on channel=0 note=51 velocity=40 time=0.24739583333333331
        Midi msg: control_change channel=0 control=64 value=0 time=0.028645833333333332
        Midi msg: control_change channel=0 control=64 value=127 time=0.20833333333333331
        Midi msg: note_off channel=0 note=51 velocity=0 time=0.0234375
        Midi msg: note_on channel=0 note=77 velocity=78 time=0.3255208333333333
        Midi msg: note_on channel=0 note=56 velocity=23 time=0.033854166666666664
        Midi msg: note_on channel=0 note=62 velocity=27 time=0.020833333333333332
        Midi msg: note_off channel=0 note=79 velocity=0 time=0.078125
        Midi msg: note_off channel=0 note=62 velocity=0 time=0.026041666666666664
        Midi msg: note_off channel=0 note=56 velocity=0 time=0.013020833333333332
        Midi msg: note_on channel=0 note=79 velocity=94 time=0.3046875
        Midi msg: note_on channel=0 note=68 velocity=33 time=0.020833333333333332
        Midi msg: note_on channel=0 note=59 velocity=24 time=0.010416666666666666
        Midi msg: note_on channel=0 note=62 velocity=9 time=0.005208333333333333
        Midi msg: note_off channel=0 note=68 velocity=0 time=0.078125
        Midi msg: note_off channel=0 note=62 velocity=0 time=0.0026041666666666665
        Midi msg: note_off channel=0 note=59 velocity=0 time=0.0026041666666666665
        Midi msg: note_off channel=0 note=77 velocity=0 time=0
        Midi msg: note_on channel=0 note=77 velocity=79 time=0.47135416666666663
        Midi msg: note_on channel=0 note=39 velocity=36 time=0.028645833333333332
        Midi msg: control_change channel=0 control=64 value=0 time=0.0026041666666666665
        Midi msg: note_off channel=0 note=79 velocity=0 time=0.1015625
        Midi msg: note_off channel=0 note=39 velocity=0 time=0.13020833333333331
        Midi msg: control_change channel=0 control=64 value=127 time=0.0026041666666666665
        Midi msg: note_on channel=0 note=63 velocity=33 time=0.390625
        Midi msg: note_on channel=0 note=55 velocity=22 time=0.026041666666666664
        Midi msg: note_off channel=0 note=55 velocity=0 time=0.11197916666666666
        Midi msg: note_off channel=0 note=63 velocity=0 time=0
        Midi msg: note_on channel=0 note=58 velocity=20 time=0.3828125
        Midi msg: note_on channel=0 note=67 velocity=28 time=0.013020833333333332
        Midi msg: note_on channel=0 note=63 velocity=24 time=0.010416666666666666
        Midi msg: note_off channel=0 note=63 velocity=0 time=0.078125
        Midi msg: note_off channel=0 note=67 velocity=0 time=0.010416666666666666
        Midi msg: note_off channel=0 note=58 velocity=0 time=0.0859375
        Midi msg: note_on channel=0 note=75 velocity=42 time=0.2786458333333333
        Midi msg: note_on channel=0 note=38 velocity=50 time=0.026041666666666664
        Midi msg: control_change channel=0 control=64 value=0 time=0.07291666666666666
        Midi msg: note_off channel=0 note=77 velocity=0 time=0.07291666666666666
        Midi msg: note_off channel=0 note=38 velocity=0 time=0.11979166666666666
        Midi msg: control_change channel=0 control=64 value=127 time=0.015625
        Midi msg: note_on channel=0 note=63 velocity=35 time=0.33072916666666663
        Midi msg: note_on channel=0 note=55 velocity=31 time=0.0026041666666666665
        Midi msg: note_off channel=0 note=75 velocity=0 time=0.078125
        Midi msg: note_off channel=0 note=63 velocity=0 time=0.07291666666666666
        Midi msg: note_off channel=0 note=55 velocity=0 time=0.04427083333333333
        Midi msg: note_on channel=0 note=70 velocity=65 time=0.2734375
        Midi msg: note_on channel=0 note=58 velocity=22 time=0.028645833333333332
        Midi msg: note_on channel=0 note=67 velocity=35 time=0
        Midi msg: note_on channel=0 note=63 velocity=39 time=0.020833333333333332
        Midi msg: note_off channel=0 note=67 velocity=0 time=0.04427083333333333
        Midi msg: note_off channel=0 note=63 velocity=0 time=0.04427083333333333
        Midi msg: note_off channel=0 note=58 velocity=0 time=0.0625
        Midi msg: note_on channel=0 note=36 velocity=59 time=0.34375
        Midi msg: note_on channel=0 note=79 velocity=84 time=0.005208333333333333
        Midi msg: note_off channel=0 note=70 velocity=0 time=0.0859375
        Midi msg: control_change channel=0 control=64 value=0 time=0
        Midi msg: note_off channel=0 note=36 velocity=0 time=0.1953125
        Midi msg: control_change channel=0 control=64 value=127 time=0.03125
        Midi msg: note_on channel=0 note=55 velocity=52 time=0.1953125
        Midi msg: note_on channel=0 note=64 velocity=35 time=0.005208333333333333
        Midi msg: note_off channel=0 note=64 velocity=0 time=0.13541666666666666
        Midi msg: note_off channel=0 note=55 velocity=0 time=0.0625
        Midi msg: note_on channel=0 note=72 velocity=61 time=0.23958333333333331
        Midi msg: note_off channel=0 note=79 velocity=0 time=0.0078125
        Midi msg: note_on channel=0 note=67 velocity=24 time=0.046875
        Midi msg: note_on channel=0 note=58 velocity=15 time=0
        Midi msg: note_on channel=0 note=64 velocity=39 time=0.010416666666666666
        Midi msg: note_off channel=0 note=64 velocity=0 time=0.06510416666666666
        Midi msg: note_off channel=0 note=67 velocity=0 time=0.0078125
        Midi msg: note_on channel=0 note=73 velocity=67 time=0.015625
        Midi msg: note_off channel=0 note=72 velocity=0 time=0.0078125
        Midi msg: note_off channel=0 note=58 velocity=0 time=0.06770833333333333
        Midi msg: note_on channel=0 note=72 velocity=60 time=0.020833333333333332
        Midi msg: note_off channel=0 note=73 velocity=0 time=0.041666666666666664
        Midi msg: note_on channel=0 note=71 velocity=81 time=0.08072916666666666
        Midi msg: note_off channel=0 note=72 velocity=0 time=0.015625
        Midi msg: note_off channel=0 note=71 velocity=0 time=0.08333333333333333
        Midi msg: note_on channel=0 note=72 velocity=75 time=0.005208333333333333
        Midi msg: note_on channel=0 note=48 velocity=39 time=0.05989583333333333
        Midi msg: control_change channel=0 control=64 value=0 time=0.07552083333333333
        Midi msg: note_off channel=0 note=72 velocity=0 time=0.08333333333333333
        Midi msg: note_on channel=0 note=84 velocity=94 time=0
        Midi msg: control_change channel=0 control=64 value=127 time=0.15625
        Midi msg: note_off channel=0 note=48 velocity=0 time=0.0546875
        Midi msg: note_on channel=0 note=64 velocity=57 time=0.2552083333333333
        Midi msg: note_on channel=0 note=55 velocity=41 time=0.018229166666666664
        Midi msg: note_off channel=0 note=64 velocity=0 time=0.13541666666666666
        Midi msg: note_off channel=0 note=55 velocity=0 time=0.0078125
        Midi msg: note_on channel=0 note=79 velocity=92 time=0.33072916666666663
        Midi msg: note_on channel=0 note=70 velocity=34 time=0.0078125
        Midi msg: note_on channel=0 note=60 velocity=28 time=0.015625
        Midi msg: note_on channel=0 note=64 velocity=25 time=0.010416666666666666
        Midi msg: note_off channel=0 note=64 velocity=0 time=0.0703125
        Midi msg: note_off channel=0 note=70 velocity=0 time=0.015625
        Midi msg: note_off channel=0 note=60 velocity=0 time=0.0078125
        Midi msg: note_off channel=0 note=84 velocity=0 time=0.11197916666666666
        Midi msg: note_on channel=0 note=82 velocity=69 time=0.29947916666666663
        Midi msg: note_on channel=0 note=41 velocity=44 time=0.0078125
        Midi msg: control_change channel=0 control=64 value=0 time=0.010416666666666666
        Midi msg: note_off channel=0 note=79 velocity=0 time=0.08854166666666666
        Midi msg: note_off channel=0 note=41 velocity=0 time=0.11458333333333333
        Midi msg: control_change channel=0 control=64 value=127 time=0.005208333333333333
        Midi msg: note_on channel=0 note=61 velocity=33 time=0.2864583333333333
        Midi msg: note_on channel=0 note=53 velocity=32 time=0.020833333333333332
        Midi msg: note_off channel=0 note=53 velocity=0 time=0.08072916666666666
        Midi msg: note_off channel=0 note=61 velocity=0 time=0.05989583333333333
        Midi msg: note_on channel=0 note=58 velocity=21 time=0.39322916666666663
        Midi msg: note_on channel=0 note=64 velocity=29 time=0
        Midi msg: note_on channel=0 note=61 velocity=23 time=0.010416666666666666
        Midi msg: note_off channel=0 note=64 velocity=0 time=0.13020833333333331
        Midi msg: note_off channel=0 note=61 velocity=0 time=0.015625
        Midi msg: note_off channel=0 note=58 velocity=0 time=0.010416666666666666
        Midi msg: note_on channel=0 note=80 velocity=45 time=0.37760416666666663
        Midi msg: note_on channel=0 note=41 velocity=22 time=0.0234375
        Midi msg: control_change channel=0 control=64 value=0 time=0.015625
        Midi msg: note_off channel=0 note=82 velocity=0 time=0.14583333333333331
        Midi msg: note_off channel=0 note=41 velocity=0 time=0.09375
        Midi msg: control_change channel=0 control=64 value=127 time=0
        Midi msg: note_on channel=0 note=60 velocity=24 time=0.3515625
        Midi msg: note_on channel=0 note=53 velocity=34 time=0.0234375
        Midi msg: note_off channel=0 note=53 velocity=0 time=0.14583333333333331
        Midi msg: note_off channel=0 note=60 velocity=0 time=0.0390625
        Midi msg: note_off channel=0 note=80 velocity=0 time=0.19270833333333331
        Midi msg: note_on channel=0 note=79 velocity=85 time=0.1171875
        Midi msg: note_on channel=0 note=56 velocity=29 time=0.015625
        Midi msg: note_on channel=0 note=65 velocity=24 time=0.0234375
        Midi msg: note_off channel=0 note=65 velocity=0 time=0.1015625
        Midi msg: note_off channel=0 note=56 velocity=0 time=0.18229166666666666
        Midi msg: note_on channel=0 note=77 velocity=83 time=0.21354166666666666
        Midi msg: note_on channel=0 note=46 velocity=40 time=0.020833333333333332
        Midi msg: control_change channel=0 control=64 value=0 time=0.04427083333333333
        Midi msg: note_off channel=0 note=79 velocity=0 time=0.07552083333333333
        Midi msg: note_off channel=0 note=46 velocity=0 time=0.140625
        Midi msg: control_change channel=0 control=64 value=127 time=0.010416666666666666
        Midi msg: note_on channel=0 note=62 velocity=36 time=0.21875
        Midi msg: note_on channel=0 note=53 velocity=44 time=0.013020833333333332
        Midi msg: note_off channel=0 note=62 velocity=0 time=0.09635416666666666
        Midi msg: note_off channel=0 note=53 velocity=0 time=0.0078125
        Midi msg: note_on channel=0 note=68 velocity=44 time=0.34635416666666663
        Midi msg: note_on channel=0 note=62 velocity=35 time=0.018229166666666664
        Midi msg: note_on channel=0 note=58 velocity=33 time=0.0026041666666666665
        Midi msg: note_off channel=0 note=62 velocity=0 time=0.0625
        Midi msg: note_off channel=0 note=68 velocity=0 time=0.0078125
        Midi msg: note_off channel=0 note=58 velocity=0 time=0.1015625
        Midi msg: note_on channel=0 note=79 velocity=91 time=0.2890625
        Midi msg: note_on channel=0 note=47 velocity=49 time=0.03125
        Midi msg: control_change channel=0 control=64 value=0 time=0.020833333333333332
        Midi msg: note_off channel=0 note=77 velocity=0 time=0.06510416666666666
        Midi msg: control_change channel=0 control=64 value=127 time=0.17447916666666666
        Midi msg: note_off channel=0 note=47 velocity=0 time=0.018229166666666664
        Midi msg: note_on channel=0 note=65 velocity=34 time=0.23958333333333331
        Midi msg: note_on channel=0 note=55 velocity=22 time=0.0234375
        Midi msg: note_off channel=0 note=55 velocity=0 time=0.16927083333333331
        Midi msg: note_off channel=0 note=65 velocity=0 time=0.010416666666666666
        Midi msg: note_on channel=0 note=74 velocity=78 time=0.3020833333333333
        Midi msg: note_on channel=0 note=67 velocity=37 time=0.028645833333333332
        Midi msg: note_on channel=0 note=62 velocity=30 time=0.0234375
        Midi msg: note_on channel=0 note=65 velocity=6 time=0.0026041666666666665
        Midi msg: note_off channel=0 note=67 velocity=0 time=0.0703125
        Midi msg: note_off channel=0 note=62 velocity=0 time=0.005208333333333333
        Midi msg: note_off channel=0 note=65 velocity=0 time=0.010416666666666666
        Midi msg: note_off channel=0 note=79 velocity=0 time=0.10416666666666666
        Midi msg: note_on channel=0 note=75 velocity=69 time=0.2734375
        Midi msg: control_change channel=0 control=64 value=0 time=0.013020833333333332
        Midi msg: note_on channel=0 note=48 velocity=31 time=0.018229166666666664
        Midi msg: note_off channel=0 note=74 velocity=0 time=0.05989583333333333
        Midi msg: control_change channel=0 control=64 value=127 time=0.13020833333333331
        Midi msg: note_off channel=0 note=48 velocity=0 time=0.013020833333333332
        Midi msg: note_on channel=0 note=63 velocity=28 time=0.3098958333333333
        Midi msg: note_on channel=0 note=55 velocity=8 time=0.020833333333333332
        Midi msg: note_off channel=0 note=55 velocity=0 time=0.10416666666666666
        Midi msg: note_off channel=0 note=63 velocity=0 time=0.049479166666666664
        Midi msg: note_on channel=0 note=67 velocity=27 time=0.3515625
        Midi msg: note_on channel=0 note=63 velocity=20 time=0.028645833333333332
        Midi msg: note_on channel=0 note=60 velocity=18 time=0.020833333333333332
        Midi msg: note_off channel=0 note=63 velocity=0 time=0.10677083333333333
        Midi msg: note_off channel=0 note=60 velocity=0 time=0.005208333333333333
        Midi msg: note_off channel=0 note=67 velocity=0 time=0
        Midi msg: note_on channel=0 note=72 velocity=36 time=0.3359375
        Midi msg: control_change channel=0 control=64 value=0 time=0.015625
        Midi msg: note_on channel=0 note=45 velocity=22 time=0.013020833333333332
        Midi msg: note_off channel=0 note=75 velocity=0 time=0.06770833333333333
        Midi msg: control_change channel=0 control=64 value=127 time=0.14322916666666666
        Midi msg: note_off channel=0 note=45 velocity=0 time=0.018229166666666664
        Midi msg: note_on channel=0 note=63 velocity=22 time=0.29166666666666663
        Midi msg: note_on channel=0 note=54 velocity=14 time=0.033854166666666664
        Midi msg: note_off channel=0 note=63 velocity=0 time=0.1328125
        Midi msg: note_off channel=0 note=54 velocity=0 time=0.0390625
        Midi msg: note_on channel=0 note=66 velocity=9 time=0.375
        Midi msg: note_on channel=0 note=60 velocity=11 time=0.03125
        Midi msg: note_on channel=0 note=63 velocity=17 time=0.0026041666666666665
        Midi msg: note_off channel=0 note=66 velocity=0 time=0.11979166666666666
        Midi msg: note_off channel=0 note=63 velocity=0 time=0.09895833333333333
        Midi msg: note_off channel=0 note=60 velocity=0 time=0.08333333333333333
        Midi msg: note_off channel=0 note=72 velocity=0 time=0.15885416666666666
        Midi msg: note_on channel=0 note=70 velocity=62 time=0.1171875
        Midi msg: note_on channel=0 note=46 velocity=17 time=0.0546875
        Midi msg: control_change channel=0 control=64 value=0 time=0.07552083333333333
        Midi msg: note_off channel=0 note=46 velocity=0 time=0.16927083333333331
        Midi msg: control_change channel=0 control=64 value=127 time=0.005208333333333333
        Midi msg: note_off channel=0 note=70 velocity=0 time=0.11197916666666666
        Midi msg: note_on channel=0 note=86 velocity=89 time=0.29166666666666663
        Midi msg: note_on channel=0 note=63 velocity=41 time=0.015625
        Midi msg: note_on channel=0 note=53 velocity=50 time=0.0390625
        Midi msg: note_off channel=0 note=53 velocity=0 time=0.1171875
        Midi msg: note_off channel=0 note=63 velocity=0 time=0.12239583333333333
        Midi msg: note_on channel=0 note=84 velocity=95 time=0.38541666666666663
        Midi msg: note_on channel=0 note=68 velocity=37 time=0.010416666666666666
        Midi msg: note_on channel=0 note=58 velocity=27 time=0.0078125
        Midi msg: note_on channel=0 note=63 velocity=38 time=0.010416666666666666
        Midi msg: note_off channel=0 note=68 velocity=0 time=0.05208333333333333
        Midi msg: note_off channel=0 note=63 velocity=0 time=0.049479166666666664
        Midi msg: note_off channel=0 note=86 velocity=0 time=0.03125
        Midi msg: note_off channel=0 note=58 velocity=0 time=0.0234375
        Midi msg: note_on channel=0 note=82 velocity=75 time=0.34635416666666663
        Midi msg: note_on channel=0 note=34 velocity=37 time=0.013020833333333332
        Midi msg: control_change channel=0 control=64 value=0 time=0.0390625
        Midi msg: note_off channel=0 note=84 velocity=0 time=0.0546875
        Midi msg: control_change channel=0 control=64 value=127 time=0.10416666666666666
        Midi msg: note_off channel=0 note=34 velocity=0 time=0.026041666666666664
        Midi msg: note_on channel=0 note=80 velocity=78 time=0.1796875
        Midi msg: note_off channel=0 note=82 velocity=0 time=0.0859375
        Midi msg: note_off channel=0 note=80 velocity=0 time=0.19791666666666666
        Midi msg: note_on channel=0 note=79 velocity=84 time=0.013020833333333332
        Midi msg: note_on channel=0 note=62 velocity=31 time=0.03645833333333333
        Midi msg: note_on channel=0 note=53 velocity=45 time=0.015625
        Midi msg: note_off channel=0 note=53 velocity=0 time=0.1328125
        Midi msg: note_off channel=0 note=62 velocity=0 time=0.03125
        Midi msg: note_off channel=0 note=79 velocity=0 time=0.020833333333333332
        Midi msg: note_on channel=0 note=80 velocity=83 time=0.020833333333333332
        Midi msg: note_on channel=0 note=58 velocity=17 time=0.24479166666666666
        Midi msg: note_on channel=0 note=72 velocity=70 time=0.0026041666666666665
        Midi msg: note_on channel=0 note=68 velocity=38 time=0.005208333333333333
        Midi msg: note_off channel=0 note=80 velocity=0 time=0.033854166666666664
        Midi msg: note_off channel=0 note=68 velocity=0 time=0.08854166666666666
        Midi msg: note_on channel=0 note=74 velocity=85 time=0.16145833333333331
        Midi msg: note_off channel=0 note=58 velocity=0 time=0.018229166666666664
        Midi msg: note_off channel=0 note=72 velocity=0 time=0.028645833333333332
        Midi msg: note_on channel=0 note=75 velocity=64 time=0.3098958333333333
        Midi msg: note_on channel=0 note=39 velocity=52 time=0.013020833333333332
        Midi msg: control_change channel=0 control=64 value=0 time=0.013020833333333332
        Midi msg: note_off channel=0 note=74 velocity=0 time=0.028645833333333332
        Midi msg: control_change channel=0 control=64 value=127 time=0.21354166666666666
        Midi msg: note_off channel=0 note=39 velocity=0 time=0.005208333333333333
        Midi msg: note_on channel=0 note=63 velocity=47 time=0.3046875
        Midi msg: note_on channel=0 note=55 velocity=18 time=0.018229166666666664
        Midi msg: note_off channel=0 note=63 velocity=0 time=0.171875
        Midi msg: note_off channel=0 note=55 velocity=0 time=0.08072916666666666
        Midi msg: note_on channel=0 note=67 velocity=33 time=0.265625
        Midi msg: note_on channel=0 note=58 velocity=20 time=0.010416666666666666
        Midi msg: note_on channel=0 note=63 velocity=26 time=0.018229166666666664
        Midi msg: note_off channel=0 note=63 velocity=0 time=0.09635416666666666
        Midi msg: note_off channel=0 note=67 velocity=0 time=0.049479166666666664
        Midi msg: note_off channel=0 note=58 velocity=0 time=0.13020833333333331
        Midi msg: note_on channel=0 note=51 velocity=31 time=0.21614583333333331
        Midi msg: note_off channel=0 note=51 velocity=0 time=0.1640625
        Midi msg: note_on channel=0 note=63 velocity=33 time=0.3411458333333333
        Midi msg: note_on channel=0 note=55 velocity=26 time=0.010416666666666666
        Midi msg: note_off channel=0 note=75 velocity=0 time=0.049479166666666664
        Midi msg: note_off channel=0 note=63 velocity=0 time=0.09895833333333333
        Midi msg: note_off channel=0 note=55 velocity=0 time=0.2109375
        Midi msg: note_on channel=0 note=70 velocity=42 time=0.32291666666666663
        Midi msg: note_on channel=0 note=67 velocity=16 time=0.020833333333333332
        Midi msg: note_on channel=0 note=63 velocity=16 time=0
        Midi msg: note_on channel=0 note=58 velocity=13 time=0.0026041666666666665
        Midi msg: note_off channel=0 note=67 velocity=0 time=0.14322916666666666
        Midi msg: note_off channel=0 note=63 velocity=0 time=0.005208333333333333
        Midi msg: note_off channel=0 note=58 velocity=0 time=0.0703125
        Midi msg: note_on channel=0 note=79 velocity=69 time=0.4192708333333333
        Midi msg: note_on channel=0 note=51 velocity=37 time=0.010416666666666666
        Midi msg: control_change channel=0 control=64 value=0 time=0.010416666666666666
        Midi msg: note_off channel=0 note=70 velocity=0 time=0.049479166666666664
        Midi msg: control_change channel=0 control=64 value=127 time=0.12760416666666666
        Midi msg: note_off channel=0 note=51 velocity=0 time=0.0390625
        Midi msg: note_on channel=0 note=63 velocity=33 time=0.3177083333333333
        Midi msg: note_on channel=0 note=55 velocity=25 time=0.015625
        Midi msg: note_off channel=0 note=63 velocity=0 time=0.17708333333333331
        Midi msg: note_off channel=0 note=55 velocity=0 time=0.14583333333333331
        Midi msg: note_on channel=0 note=58 velocity=21 time=0.20052083333333331
        Midi msg: note_on channel=0 note=67 velocity=26 time=0.015625
        Midi msg: note_on channel=0 note=63 velocity=18 time=0.013020833333333332
        Midi msg: note_off channel=0 note=67 velocity=0 time=0.1171875
        Midi msg: note_off channel=0 note=63 velocity=0 time=0.057291666666666664
        Midi msg: note_off channel=0 note=58 velocity=0 time=0.04427083333333333
        Midi msg: note_on channel=0 note=51 velocity=29 time=0.22395833333333331
        Midi msg: note_on channel=0 note=77 velocity=65 time=0.026041666666666664
        Midi msg: note_off channel=0 note=79 velocity=0 time=0.0078125
        Midi msg: control_change channel=0 control=64 value=0 time=0.0390625
        Midi msg: control_change channel=0 control=64 value=127 time=0.16145833333333331
        Midi msg: note_off channel=0 note=51 velocity=0 time=0.020833333333333332
        Midi msg: note_off channel=0 note=77 velocity=0 time=0.07552083333333333
        Midi msg: note_on channel=0 note=79 velocity=73 time=0.0026041666666666665
        Midi msg: note_off channel=0 note=79 velocity=0 time=0.08072916666666666
        Midi msg: note_on channel=0 note=77 velocity=57 time=0.0703125
        Midi msg: note_off channel=0 note=77 velocity=0 time=0.04427083333333333
        Midi msg: note_on channel=0 note=79 velocity=79 time=0.0234375
        Midi msg: note_on channel=0 note=77 velocity=66 time=0.046875
        Midi msg: note_on channel=0 note=56 velocity=16 time=0
        Midi msg: note_on channel=0 note=62 velocity=19 time=0.015625
        Midi msg: note_off channel=0 note=79 velocity=0 time=0.049479166666666664
        Midi msg: note_off channel=0 note=62 velocity=0 time=0.109375
        Midi msg: note_on channel=0 note=76 velocity=70 time=0.06770833333333333
        Midi msg: note_off channel=0 note=77 velocity=0 time=0.03645833333333333
        Midi msg: note_on channel=0 note=68 velocity=26 time=0.19791666666666666
        Midi msg: note_on channel=0 note=62 velocity=23 time=0.015625
        Midi msg: note_on channel=0 note=77 velocity=67 time=0.0026041666666666665
        Midi msg: note_on channel=0 note=59 velocity=34 time=0.010416666666666666
        Midi msg: control_change channel=0 control=64 value=0 time=0.0078125
        Midi msg: note_off channel=0 note=76 velocity=0 time=0.04427083333333333
        Midi msg: note_off channel=0 note=62 velocity=0 time=0.078125
        Midi msg: control_change channel=0 control=64 value=127 time=0.07291666666666666
        Midi msg: note_off channel=0 note=68 velocity=0 time=0.028645833333333332
        Midi msg: note_on channel=0 note=79 velocity=69 time=0.0234375
        Midi msg: note_off channel=0 note=77 velocity=0 time=0.020833333333333332
        Midi msg: note_off channel=0 note=59 velocity=0 time=0.028645833333333332
        Midi msg: note_off channel=0 note=56 velocity=0 time=0.04427083333333333
        Midi msg: note_on channel=0 note=77 velocity=50 time=0.23177083333333331
        Midi msg: note_off channel=0 note=79 velocity=0 time=0.018229166666666664
        Midi msg: control_change channel=0 control=64 value=0 time=0.0026041666666666665
        Midi msg: note_on channel=0 note=51 velocity=31 time=0.005208333333333333
        Midi msg: control_change channel=0 control=64 value=127 time=0.20052083333333331
        Midi msg: note_off channel=0 note=51 velocity=0 time=0.0390625
        Midi msg: note_off channel=0 note=77 velocity=0 time=0.03125
        Midi msg: note_on channel=0 note=75 velocity=41 time=0.3359375
        Midi msg: note_on channel=0 note=63 velocity=29 time=0.03125
        Midi msg: note_on channel=0 note=55 velocity=29 time=0.026041666666666664
        Midi msg: note_off channel=0 note=63 velocity=0 time=0.109375
        Midi msg: note_off channel=0 note=55 velocity=0 time=0.07552083333333333
        Midi msg: note_on channel=0 note=67 velocity=41 time=0.26822916666666663
        Midi msg: note_on channel=0 note=58 velocity=24 time=0.005208333333333333
        Midi msg: note_on channel=0 note=63 velocity=26 time=0.020833333333333332
        Midi msg: note_off channel=0 note=67 velocity=0 time=0.078125
        Midi msg: note_off channel=0 note=63 velocity=0 time=0.020833333333333332
        Midi msg: note_off channel=0 note=58 velocity=0 time=0.05989583333333333
        Midi msg: note_on channel=0 note=50 velocity=45 time=0.26822916666666663
        Midi msg: control_change channel=0 control=64 value=0 time=0.026041666666666664
        Midi msg: control_change channel=0 control=64 value=127 time=0.15885416666666666
        Midi msg: note_off channel=0 note=50 velocity=0 time=0.0390625
        Midi msg: note_on channel=0 note=77 velocity=60 time=0.1328125
        Midi msg: note_off channel=0 note=75 velocity=0 time=0.033854166666666664
        Midi msg: note_off channel=0 note=77 velocity=0 time=0.0625
        Midi msg: note_on channel=0 note=75 velocity=47 time=0.0625
        Midi msg: note_on channel=0 note=63 velocity=32 time=0.046875
        Midi msg: note_off channel=0 note=75 velocity=0 time=0.005208333333333333
        Midi msg: note_on channel=0 note=55 velocity=27 time=0.0078125
        Midi msg: note_on channel=0 note=77 velocity=69 time=0.013020833333333332
        Midi msg: note_on channel=0 note=75 velocity=53 time=0.05208333333333333
        Midi msg: note_off channel=0 note=77 velocity=0 time=0.0703125
        Midi msg: note_off channel=0 note=55 velocity=0 time=0.033854166666666664
        Midi msg: note_off channel=0 note=63 velocity=0 time=0.010416666666666666
        Midi msg: note_on channel=0 note=74 velocity=81 time=0.125
        Midi msg: note_off channel=0 note=75 velocity=0 time=0.041666666666666664
        Midi msg: note_on channel=0 note=58 velocity=21 time=0.13541666666666666
        Midi msg: note_on channel=0 note=67 velocity=27 time=0.020833333333333332
        Midi msg: note_on channel=0 note=63 velocity=32 time=0.015625
        Midi msg: note_on channel=0 note=75 velocity=82 time=0.015625
        Midi msg: note_off channel=0 note=67 velocity=0 time=0.041666666666666664
        Midi msg: note_off channel=0 note=74 velocity=0 time=0.018229166666666664
        Midi msg: note_off channel=0 note=63 velocity=0 time=0.026041666666666664
        Midi msg: note_off channel=0 note=58 velocity=0 time=0.0234375
        Midi msg: note_on channel=0 note=77 velocity=81 time=0.12760416666666666
        Midi msg: note_off channel=0 note=75 velocity=0 time=0.0859375
        Midi msg: note_on channel=0 note=48 velocity=29 time=0.12760416666666666
        Midi msg: control_change channel=0 control=64 value=0 time=0.06510416666666666
        Midi msg: note_off channel=0 note=77 velocity=0 time=0.005208333333333333
        Midi msg: note_on channel=0 note=79 velocity=73 time=0.0026041666666666665
        Midi msg: note_off channel=0 note=79 velocity=0 time=0.19270833333333331
        Midi msg: control_change channel=0 control=64 value=127 time=0.0234375
        Midi msg: note_off channel=0 note=48 velocity=0 time=0.028645833333333332
        Midi msg: note_on channel=0 note=71 velocity=71 time=0.033854166666666664
        Midi msg: note_off channel=0 note=71 velocity=0 time=0.1875
        Midi msg: note_on channel=0 note=72 velocity=74 time=0.07552083333333333
        Midi msg: note_on channel=0 note=55 velocity=21 time=0.026041666666666664
        Midi msg: note_on channel=0 note=64 velocity=26 time=0.0078125
        Midi msg: note_off channel=0 note=64 velocity=0 time=0.12239583333333333
        Midi msg: note_off channel=0 note=72 velocity=0 time=0.013020833333333332
        Midi msg: note_off channel=0 note=55 velocity=0 time=0.0026041666666666665
        Midi msg: note_on channel=0 note=73 velocity=75 time=0.057291666666666664
        Midi msg: note_on channel=0 note=58 velocity=25 time=0.23177083333333331
        Midi msg: note_on channel=0 note=67 velocity=31 time=0.0078125
        Midi msg: note_off channel=0 note=73 velocity=0 time=0.0026041666666666665
        Midi msg: note_on channel=0 note=64 velocity=36 time=0
        Midi msg: note_on channel=0 note=72 velocity=86 time=0.005208333333333333
        Midi msg: note_off channel=0 note=64 velocity=0 time=0.057291666666666664
        Midi msg: note_off channel=0 note=67 velocity=0 time=0.015625
        Midi msg: note_off channel=0 note=72 velocity=0 time=0.05208333333333333
        Midi msg: note_off channel=0 note=58 velocity=0 time=0.026041666666666664
        Midi msg: note_on channel=0 note=77 velocity=93 time=0.07291666666666666
        Midi msg: note_on channel=0 note=76 velocity=86 time=0.2552083333333333
        Midi msg: control_change channel=0 control=64 value=0 time=0
        Midi msg: note_on channel=0 note=48 velocity=38 time=0.0078125
        Midi msg: note_off channel=0 note=77 velocity=0 time=0.0026041666666666665
        Midi msg: note_off channel=0 note=76 velocity=0 time=0.125
        Midi msg: control_change channel=0 control=64 value=127 time=0.0234375
        Midi msg: note_off channel=0 note=48 velocity=0 time=0.0234375
        Midi msg: note_on channel=0 note=80 velocity=89 time=0.0546875
        Midi msg: note_on channel=0 note=79 velocity=92 time=0.2708333333333333
        Midi msg: note_off channel=0 note=80 velocity=0 time=0.0026041666666666665
        Midi msg: note_on channel=0 note=64 velocity=32 time=0.0234375
        Midi msg: note_on channel=0 note=55 velocity=34 time=0.018229166666666664
        Midi msg: note_off channel=0 note=79 velocity=0 time=0.09635416666666666
        Midi msg: note_off channel=0 note=55 velocity=0 time=0.09114583333333333
        Midi msg: note_off channel=0 note=64 velocity=0 time=0.0078125
        Midi msg: note_on channel=0 note=85 velocity=92 time=0.04427083333333333
        Midi msg: note_on channel=0 note=84 velocity=90 time=0.3411458333333333
        Midi msg: note_on channel=0 note=70 velocity=32 time=0.010416666666666666
        Midi msg: note_on channel=0 note=60 velocity=22 time=0.0026041666666666665
        Midi msg: note_on channel=0 note=64 velocity=17 time=0.010416666666666666
        Midi msg: note_off channel=0 note=85 velocity=0 time=0.049479166666666664
        Midi msg: note_off channel=0 note=64 velocity=0 time=0.0703125
        Midi msg: note_off channel=0 note=70 velocity=0 time=0.005208333333333333
        Midi msg: note_off channel=0 note=60 velocity=0 time=0.033854166666666664
        Midi msg: note_on channel=0 note=79 velocity=94 time=0.11458333333333333
        Midi msg: note_off channel=0 note=84 velocity=0 time=0.005208333333333333
        Midi msg: note_on channel=0 note=82 velocity=69 time=0.40885416666666663
        Midi msg: note_on channel=0 note=41 velocity=57 time=0.0078125
        Midi msg: control_change channel=0 control=64 value=0 time=0.05208333333333333
        Midi msg: note_off channel=0 note=79 velocity=0 time=0.010416666666666666
        Midi msg: note_off channel=0 note=41 velocity=0 time=0.20572916666666666
        Midi msg: control_change channel=0 control=64 value=127 time=0.0078125
        Midi msg: note_on channel=0 note=61 velocity=49 time=0.2786458333333333
        Midi msg: note_on channel=0 note=53 velocity=51 time=0.0078125
        Midi msg: note_off channel=0 note=53 velocity=0 time=0.0859375
        Midi msg: note_off channel=0 note=61 velocity=0 time=0.11979166666666666
        Midi msg: note_on channel=0 note=64 velocity=52 time=0.3645833333333333
        Midi msg: note_on channel=0 note=61 velocity=29 time=0.015625
        Midi msg: note_on channel=0 note=58 velocity=27 time=0
        Midi msg: note_off channel=0 note=64 velocity=0 time=0.13020833333333331
        Midi msg: note_off channel=0 note=61 velocity=0 time=0.03645833333333333
        Midi msg: note_off channel=0 note=58 velocity=0 time=0.041666666666666664
        Midi msg: note_on channel=0 note=80 velocity=69 time=0.3411458333333333
        Midi msg: note_on channel=0 note=41 velocity=34 time=0.0234375
        Midi msg: control_change channel=0 control=64 value=0 time=0.09375
        Midi msg: note_off channel=0 note=82 velocity=0 time=0.046875
        Midi msg: note_off channel=0 note=41 velocity=0 time=0.15104166666666666
        Midi msg: control_change channel=0 control=64 value=127 time=0.0234375
        Midi msg: note_on channel=0 note=53 velocity=36 time=0.2578125
        Midi msg: note_on channel=0 note=60 velocity=39 time=0
        Midi msg: note_off channel=0 note=60 velocity=0 time=0.24739583333333331
        Midi msg: note_off channel=0 note=53 velocity=0 time=0.0026041666666666665
        Midi msg: note_on channel=0 note=79 velocity=63 time=0.4348958333333333
        Midi msg: note_on channel=0 note=60 velocity=10 time=0.028645833333333332
        Midi msg: note_on channel=0 note=56 velocity=24 time=0.0026041666666666665
        Midi msg: note_on channel=0 note=65 velocity=22 time=0.0026041666666666665
        Midi msg: note_off channel=0 note=80 velocity=0 time=0.109375
        Midi msg: note_off channel=0 note=65 velocity=0 time=0.03645833333333333
        Midi msg: note_off channel=0 note=60 velocity=0 time=0.0390625
        Midi msg: note_off channel=0 note=56 velocity=0 time=0.15104166666666666
        Midi msg: note_on channel=0 note=77 velocity=52 time=0.29947916666666663
        Midi msg: note_on channel=0 note=46 velocity=28 time=0.010416666666666666
        Midi msg: note_off channel=0 note=79 velocity=0 time=0.020833333333333332
        Midi msg: control_change channel=0 control=64 value=0 time=0.0390625
        Midi msg: note_on channel=0 note=79 velocity=55 time=0.20572916666666666
        Midi msg: control_change channel=0 control=64 value=127 time=0.0026041666666666665
        Midi msg: note_off channel=0 note=77 velocity=0 time=0.0026041666666666665
        Midi msg: note_off channel=0 note=46 velocity=0 time=0.05208333333333333
        Midi msg: note_off channel=0 note=79 velocity=0 time=0.020833333333333332
        Midi msg: note_on channel=0 note=77 velocity=31 time=0.05208333333333333
        Midi msg: note_off channel=0 note=77 velocity=0 time=0.0625
        Midi msg: note_on channel=0 note=79 velocity=55 time=0.0390625
        Midi msg: note_off channel=0 note=79 velocity=0 time=0.0546875
        Midi msg: note_on channel=0 note=77 velocity=44 time=0.020833333333333332
        Midi msg: note_on channel=0 note=62 velocity=25 time=0.028645833333333332
        Midi msg: note_on channel=0 note=53 velocity=19 time=0.013020833333333332
        Midi msg: note_off channel=0 note=77 velocity=0 time=0.015625
        Midi msg: note_on channel=0 note=79 velocity=60 time=0.015625
        Midi msg: note_off channel=0 note=62 velocity=0 time=0.041666666666666664
        Midi msg: note_off channel=0 note=53 velocity=0 time=0.0078125
        Midi msg: note_off channel=0 note=79 velocity=0 time=0.013020833333333332
        Midi msg: note_on channel=0 note=77 velocity=45 time=0.033854166666666664
        Midi msg: note_off channel=0 note=77 velocity=0 time=0.0546875
        Midi msg: note_on channel=0 note=79 velocity=72 time=0.026041666666666664
        Midi msg: note_off channel=0 note=79 velocity=0 time=0.05208333333333333
        Midi msg: note_on channel=0 note=77 velocity=57 time=0.018229166666666664
        Midi msg: note_off channel=0 note=77 velocity=0 time=0.06510416666666666
        Midi msg: note_on channel=0 note=79 velocity=68 time=0.015625
        Midi msg: note_off channel=0 note=79 velocity=0 time=0.046875
        Midi msg: note_on channel=0 note=77 velocity=58 time=0.04427083333333333
        Midi msg: note_on channel=0 note=68 velocity=31 time=0.0078125
        Midi msg: note_on channel=0 note=62 velocity=7 time=0.0078125
        Midi msg: note_on channel=0 note=58 velocity=17 time=0.013020833333333332
        Midi msg: note_off channel=0 note=77 velocity=0 time=0.020833333333333332
        Midi msg: note_on channel=0 note=79 velocity=73 time=0.020833333333333332
        Midi msg: note_off channel=0 note=62 velocity=0 time=0.005208333333333333
        Midi msg: note_off channel=0 note=68 velocity=0 time=0.0234375
        Midi msg: note_off channel=0 note=79 velocity=0 time=0.0234375
        Midi msg: note_on channel=0 note=77 velocity=46 time=0.03125
        Midi msg: note_off channel=0 note=58 velocity=0 time=0.0234375
        Midi msg: note_off channel=0 note=77 velocity=0 time=0.018229166666666664
        Midi msg: note_on channel=0 note=79 velocity=80 time=0.018229166666666664
        Midi msg: note_on channel=0 note=77 velocity=44 time=0.09375
        Midi msg: note_off channel=0 note=79 velocity=0 time=0.026041666666666664
        Midi msg: note_off channel=0 note=77 velocity=0 time=0.07552083333333333
        Midi msg: note_on channel=0 note=76 velocity=67 time=0.015625
        Midi msg: note_off channel=0 note=76 velocity=0 time=0.13020833333333331
        Midi msg: note_on channel=0 note=77 velocity=71 time=0.0078125
        Midi msg: note_on channel=0 note=47 velocity=24 time=0.11197916666666666
        Midi msg: control_change channel=0 control=64 value=0 time=0.0625
        Midi msg: note_off channel=0 note=77 velocity=0 time=0.078125
        Midi msg: note_on channel=0 note=79 velocity=69 time=0
        Midi msg: control_change channel=0 control=64 value=127 time=0.1640625
        Midi msg: note_off channel=0 note=47 velocity=0 time=0.0026041666666666665
        Midi msg: note_off channel=0 note=79 velocity=0 time=0.11979166666666666
        Midi msg: note_on channel=0 note=79 velocity=72 time=0.2578125
        Midi msg: note_on channel=0 note=65 velocity=15 time=0.03645833333333333
        Midi msg: note_on channel=0 note=55 velocity=21 time=0.020833333333333332
        Midi msg: note_off channel=0 note=55 velocity=0 time=0.08854166666666666
        Midi msg: note_off channel=0 note=65 velocity=0 time=0.06510416666666666
        Midi msg: note_on channel=0 note=74 velocity=61 time=0.3489583333333333
        Midi msg: note_on channel=0 note=67 velocity=24 time=0.018229166666666664
        Midi msg: note_on channel=0 note=62 velocity=22 time=0.0078125
        Midi msg: note_on channel=0 note=65 velocity=13 time=0.005208333333333333
        Midi msg: note_off channel=0 note=65 velocity=0 time=0.1015625
        Midi msg: note_off channel=0 note=67 velocity=0 time=0.005208333333333333
        Midi msg: note_off channel=0 note=62 velocity=0 time=0.010416666666666666
        Midi msg: note_off channel=0 note=79 velocity=0 time=0.018229166666666664
        Midi msg: control_change channel=0 control=64 value=0 time=0.3802083333333333
        Midi msg: note_on channel=0 note=48 velocity=33 time=0.020833333333333332
        Midi msg: note_on channel=0 note=75 velocity=51 time=0.010416666666666666
        Midi msg: note_off channel=0 note=74 velocity=0 time=0.013020833333333332
        Midi msg: control_change channel=0 control=64 value=127 time=0.18229166666666666
        Midi msg: note_off channel=0 note=48 velocity=0 time=0.033854166666666664
        Midi msg: note_on channel=0 note=55 velocity=29 time=0.29947916666666663
        Midi msg: note_on channel=0 note=63 velocity=18 time=0.010416666666666666
        Midi msg: note_off channel=0 note=55 velocity=0 time=0.15104166666666666
        Midi msg: note_off channel=0 note=63 velocity=0 time=0.041666666666666664
        Midi msg: note_on channel=0 note=67 velocity=23 time=0.328125
        Midi msg: note_on channel=0 note=63 velocity=21 time=0.0078125
        Midi msg: note_on channel=0 note=60 velocity=20 time=0.015625
        Midi msg: note_off channel=0 note=67 velocity=0 time=0.08333333333333333
        Midi msg: note_off channel=0 note=63 velocity=0 time=0.020833333333333332
        Midi msg: note_off channel=0 note=60 velocity=0 time=0.05208333333333333
        Midi msg: control_change channel=0 control=64 value=0 time=0.4114583333333333
        Midi msg: note_on channel=0 note=72 velocity=37 time=0.015625
        Midi msg: note_on channel=0 note=45 velocity=17 time=0.018229166666666664
        Midi msg: note_off channel=0 note=75 velocity=0 time=0.013020833333333332
        Midi msg: control_change channel=0 control=64 value=127 time=0.19270833333333331
        Midi msg: note_off channel=0 note=45 velocity=0 time=0.03645833333333333
        Midi msg: note_on channel=0 note=63 velocity=28 time=0.28385416666666663
        Midi msg: note_on channel=0 note=54 velocity=31 time=0.010416666666666666
        Midi msg: note_off channel=0 note=54 velocity=0 time=0.08072916666666666
        Midi msg: note_off channel=0 note=63 velocity=0 time=0.08333333333333333
        Midi msg: note_on channel=0 note=66 velocity=17 time=0.4583333333333333
        Midi msg: note_on channel=0 note=60 velocity=18 time=0.0026041666666666665
        Midi msg: note_on channel=0 note=63 velocity=18 time=0.0026041666666666665
        Midi msg: note_off channel=0 note=63 velocity=0 time=0.10416666666666666
        Midi msg: note_off channel=0 note=66 velocity=0 time=0.0078125
        Midi msg: note_off channel=0 note=60 velocity=0 time=0.0625
        Midi msg: note_off channel=0 note=72 velocity=0 time=0.27604166666666663
        Midi msg: note_on channel=0 note=70 velocity=64 time=0.13802083333333331
        Midi msg: note_on channel=0 note=46 velocity=23 time=0.05208333333333333
        Midi msg: control_change channel=0 control=64 value=0 time=0.033854166666666664
        Midi msg: control_change channel=0 control=64 value=127 time=0.19270833333333331
        Midi msg: note_off channel=0 note=46 velocity=0 time=0.0546875
        Midi msg: note_off channel=0 note=70 velocity=0 time=0.09895833333333333
        Midi msg: note_on channel=0 note=86 velocity=89 time=0.3125
        Midi msg: note_on channel=0 note=63 velocity=34 time=0.0078125
        Midi msg: note_on channel=0 note=53 velocity=41 time=0.020833333333333332
        Midi msg: note_off channel=0 note=53 velocity=0 time=0.12239583333333333
        Midi msg: note_off channel=0 note=63 velocity=0 time=0.11197916666666666
        Midi msg: note_on channel=0 note=68 velocity=43 time=0.3411458333333333
        Midi msg: note_on channel=0 note=58 velocity=26 time=0.010416666666666666
        Midi msg: note_on channel=0 note=84 velocity=95 time=0.0026041666666666665
        Midi msg: note_on channel=0 note=63 velocity=39 time=0
        Midi msg: note_off channel=0 note=68 velocity=0 time=0.08854166666666666
        Midi msg: note_off channel=0 note=63 velocity=0 time=0.04427083333333333
        Midi msg: note_off channel=0 note=86 velocity=0 time=0.005208333333333333
        Midi msg: note_off channel=0 note=58 velocity=0 time=0.049479166666666664
        Midi msg: note_on channel=0 note=82 velocity=79 time=0.3671875
        Midi msg: note_on channel=0 note=34 velocity=47 time=0.026041666666666664
        Midi msg: note_off channel=0 note=84 velocity=0 time=0.07552083333333333
        Midi msg: control_change channel=0 control=64 value=0 time=0.06770833333333333
        Midi msg: note_off channel=0 note=34 velocity=0 time=0.1484375
        Midi msg: control_change channel=0 control=64 value=127 time=0.028645833333333332
        Midi msg: note_on channel=0 note=80 velocity=81 time=0.08854166666666666
        Midi msg: note_off channel=0 note=82 velocity=0 time=0.0546875
        Midi msg: note_off channel=0 note=80 velocity=0 time=0.15364583333333331
        Midi msg: note_on channel=0 note=79 velocity=86 time=0.09895833333333333
        Midi msg: note_on channel=0 note=62 velocity=37 time=0.0390625
        Midi msg: note_on channel=0 note=53 velocity=50 time=0.018229166666666664
        Midi msg: note_off channel=0 note=53 velocity=0 time=0.0703125
        Midi msg: note_off channel=0 note=79 velocity=0 time=0.0078125
        Midi msg: note_off channel=0 note=62 velocity=0 time=0.08072916666666666
        Midi msg: note_on channel=0 note=80 velocity=84 time=0.06770833333333333
        Midi msg: note_off channel=0 note=80 velocity=0 time=0.0546875
        Midi msg: note_on channel=0 note=80 velocity=65 time=0.109375
        Midi msg: note_on channel=0 note=58 velocity=23 time=0.0234375
        Midi msg: note_on channel=0 note=68 velocity=26 time=0.11458333333333333
        Midi msg: note_on channel=0 note=72 velocity=64 time=0.015625
        Midi msg: note_off channel=0 note=80 velocity=0 time=0.03125
        Midi msg: note_off channel=0 note=68 velocity=0 time=0.10416666666666666
        Midi msg: note_off channel=0 note=58 velocity=0 time=0.17708333333333331
        Midi msg: note_on channel=0 note=74 velocity=73 time=0.033854166666666664
        Midi msg: note_off channel=0 note=72 velocity=0 time=0.078125
        Midi msg: control_change channel=0 control=64 value=0 time=0.36979166666666663
        Midi msg: note_on channel=0 note=75 velocity=60 time=0.0026041666666666665
        Midi msg: note_on channel=0 note=39 velocity=36 time=0.020833333333333332
        Midi msg: note_off channel=0 note=74 velocity=0 time=0.0026041666666666665
        Midi msg: control_change channel=0 control=64 value=127 time=0.19791666666666666
        Midi msg: note_off channel=0 note=39 velocity=0 time=0.026041666666666664
        Midi msg: note_on channel=0 note=63 velocity=30 time=0.4296875
        Midi msg: note_on channel=0 note=55 velocity=26 time=0.018229166666666664
        Midi msg: note_off channel=0 note=63 velocity=0 time=0.13802083333333331
        Midi msg: note_off channel=0 note=55 velocity=0 time=0.0026041666666666665
        Midi msg: note_on channel=0 note=67 velocity=26 time=0.3567708333333333
        Midi msg: note_on channel=0 note=58 velocity=20 time=0.0078125
        Midi msg: note_on channel=0 note=63 velocity=18 time=0.005208333333333333
        Midi msg: note_off channel=0 note=63 velocity=0 time=0.08072916666666666
        Midi msg: note_off channel=0 note=67 velocity=0 time=0.0625
        Midi msg: note_off channel=0 note=58 velocity=0 time=0.125
        Midi msg: note_on channel=0 note=51 velocity=35 time=0.23177083333333331
        Midi msg: note_off channel=0 note=51 velocity=0 time=0.171875
        Midi msg: note_on channel=0 note=74 velocity=63 time=0.4505208333333333
        Midi msg: note_on channel=0 note=63 velocity=25 time=0.03125
        Midi msg: note_on channel=0 note=55 velocity=21 time=0.010416666666666666
        Midi msg: note_off channel=0 note=75 velocity=0 time=0.020833333333333332
        Midi msg: note_off channel=0 note=63 velocity=0 time=0.09635416666666666
        Midi msg: note_off channel=0 note=55 velocity=0 time=0.078125
        Midi msg: note_on channel=0 note=75 velocity=68 time=0.2942708333333333
        Midi msg: note_on channel=0 note=67 velocity=30 time=0.010416666666666666
        Midi msg: note_on channel=0 note=58 velocity=25 time=0.010416666666666666
        Midi msg: note_on channel=0 note=63 velocity=20 time=0.0026041666666666665
        Midi msg: note_off channel=0 note=74 velocity=0 time=0.046875
        Midi msg: note_off channel=0 note=67 velocity=0 time=0.015625
        Midi msg: note_off channel=0 note=63 velocity=0 time=0.03645833333333333
        Midi msg: note_off channel=0 note=58 velocity=0 time=0.12760416666666666
        Midi msg: control_change channel=0 control=64 value=0 time=0.265625
        Midi msg: note_on channel=0 note=77 velocity=64 time=0.005208333333333333
        Midi msg: note_on channel=0 note=46 velocity=28 time=0
        Midi msg: note_off channel=0 note=75 velocity=0 time=0.0625
        Midi msg: note_off channel=0 note=46 velocity=0 time=0.171875
        Midi msg: control_change channel=0 control=64 value=127 time=0
        Midi msg: note_on channel=0 note=62 velocity=30 time=0.28385416666666663
        Midi msg: note_on channel=0 note=53 velocity=37 time=0.010416666666666666
        Midi msg: note_off channel=0 note=62 velocity=0 time=0.10416666666666666
        Midi msg: note_off channel=0 note=53 velocity=0 time=0.0234375
        Midi msg: note_on channel=0 note=62 velocity=19 time=0.3671875
        Midi msg: note_on channel=0 note=58 velocity=30 time=0.0078125
        Midi msg: note_on channel=0 note=65 velocity=32 time=0
        Midi msg: note_off channel=0 note=65 velocity=0 time=0.13541666666666666
        Midi msg: note_off channel=0 note=62 velocity=0 time=0.010416666666666666
        Midi msg: note_off channel=0 note=58 velocity=0 time=0.12760416666666666
        Midi msg: note_on channel=0 note=79 velocity=81 time=0.20052083333333331
        Midi msg: note_on channel=0 note=46 velocity=43 time=0.026041666666666664
        Midi msg: note_off channel=0 note=77 velocity=0 time=0.109375
        Midi msg: note_off channel=0 note=46 velocity=0 time=0.026041666666666664
        Midi msg: note_on channel=0 note=62 velocity=40 time=0.3645833333333333
        Midi msg: note_on channel=0 note=53 velocity=58 time=0.0026041666666666665
        Midi msg: note_off channel=0 note=62 velocity=0 time=0.17447916666666666
        Midi msg: note_off channel=0 note=53 velocity=0 time=0.010416666666666666
        Midi msg: note_on channel=0 note=77 velocity=82 time=0.296875
        Midi msg: note_on channel=0 note=65 velocity=37 time=0.026041666666666664
        Midi msg: note_on channel=0 note=58 velocity=25 time=0.013020833333333332
        Midi msg: note_on channel=0 note=62 velocity=35 time=0.0026041666666666665
        Midi msg: note_off channel=0 note=65 velocity=0 time=0.0546875
        Midi msg: note_off channel=0 note=79 velocity=0 time=0.010416666666666666
        Midi msg: note_off channel=0 note=62 velocity=0 time=0.0234375
        Midi msg: note_off channel=0 note=58 velocity=0 time=0.09895833333333333
        Midi msg: note_off channel=0 note=77 velocity=0 time=0.17708333333333331
        Midi msg: note_on channel=0 note=45 velocity=37 time=0.09635416666666666
        Midi msg: note_on channel=0 note=77 velocity=52 time=0.0026041666666666665
        Midi msg: control_change channel=0 control=64 value=0 time=0.03125
        Midi msg: control_change channel=0 control=64 value=127 time=0.22395833333333331
        Midi msg: note_off channel=0 note=45 velocity=0 time=0.013020833333333332
        Midi msg: note_on channel=0 note=60 velocity=17 time=0.26041666666666663
        Midi msg: note_on channel=0 note=53 velocity=27 time=0.020833333333333332
        Midi msg: note_off channel=0 note=60 velocity=0 time=0.1484375
        Midi msg: note_off channel=0 note=53 velocity=0 time=0.0234375
        Midi msg: note_on channel=0 note=65 velocity=22 time=0.3671875
        Midi msg: note_on channel=0 note=60 velocity=21 time=0.018229166666666664
        Midi msg: note_off channel=0 note=65 velocity=0 time=0.12239583333333333
        Midi msg: note_off channel=0 note=60 velocity=0 time=0.0625
        Midi msg: note_on channel=0 note=72 velocity=39 time=0.328125
        Midi msg: note_on channel=0 note=45 velocity=17 time=0.0234375
        Midi msg: note_off channel=0 note=77 velocity=0 time=0.13802083333333331
        Midi msg: note_off channel=0 note=45 velocity=0 time=0.015625
        Midi msg: note_on channel=0 note=60 velocity=10 time=0.3828125
        Midi msg: note_on channel=0 note=53 velocity=40 time=0.0026041666666666665
        Midi msg: note_off channel=0 note=53 velocity=0 time=0.1484375
        Midi msg: note_off channel=0 note=60 velocity=0 time=0.07552083333333333
        Midi msg: note_on channel=0 note=65 velocity=22 time=0.3177083333333333
        Midi msg: note_on channel=0 note=60 velocity=27 time=0.0026041666666666665
        Midi msg: note_off channel=0 note=65 velocity=0 time=0.11197916666666666
        Midi msg: note_off channel=0 note=60 velocity=0 time=0.0625
        Midi msg: note_off channel=0 note=72 velocity=0 time=0.2942708333333333
        Midi msg: note_on channel=0 note=75 velocity=47 time=0.296875
        Midi msg: note_on channel=0 note=44 velocity=35 time=0.046875
        Midi msg: control_change channel=0 control=64 value=0 time=0.013020833333333332
        Midi msg: control_change channel=0 control=64 value=127 time=0.22395833333333331
        Midi msg: note_off channel=0 note=44 velocity=0 time=0.05208333333333333
        Midi msg: note_off channel=0 note=75 velocity=0 time=0.15104166666666666
        Midi msg: note_on channel=0 note=75 velocity=56 time=0.078125
        Midi msg: note_on channel=0 note=51 velocity=32 time=0.05208333333333333
        Midi msg: note_on channel=0 note=60 velocity=31 time=0.0026041666666666665
        Midi msg: note_off channel=0 note=60 velocity=0 time=0.09635416666666666
        Midi msg: note_off channel=0 note=51 velocity=0 time=0.049479166666666664
        Midi msg: note_off channel=0 note=75 velocity=0 time=0.12239583333333333
        Midi msg: note_on channel=0 note=75 velocity=54 time=0.15885416666666666
        Midi msg: note_on channel=0 note=56 velocity=26 time=0.049479166666666664
        Midi msg: note_on channel=0 note=63 velocity=22 time=0.005208333333333333
        Midi msg: note_on channel=0 note=60 velocity=13 time=0.013020833333333332
        Midi msg: note_off channel=0 note=63 velocity=0 time=0.0546875
        Midi msg: note_off channel=0 note=60 velocity=0 time=0.03125
        Midi msg: note_off channel=0 note=56 velocity=0 time=0.06770833333333333
        Midi msg: note_off channel=0 note=75 velocity=0 time=0.1875
        Midi msg: note_on channel=0 note=75 velocity=40 time=0.18489583333333331
        Midi msg: note_on channel=0 note=32 velocity=20 time=0.0234375
        Midi msg: control_change channel=0 control=64 value=0 time=0.09375
        Midi msg: control_change channel=0 control=64 value=127 time=0.17447916666666666
        Midi msg: note_off channel=0 note=32 velocity=0 time=0.015625
        Midi msg: note_on channel=0 note=74 velocity=42 time=0.4036458333333333
        Midi msg: note_on channel=0 note=59 velocity=17 time=0.0390625
        Midi msg: note_on channel=0 note=51 velocity=17 time=0.0026041666666666665
        Midi msg: note_off channel=0 note=75 velocity=0 time=0.03125
        Midi msg: note_off channel=0 note=59 velocity=0 time=0.15364583333333331
        Midi msg: note_off channel=0 note=51 velocity=0 time=0.013020833333333332
        Midi msg: note_on channel=0 note=75 velocity=47 time=0.10416666666666666
        Midi msg: note_off channel=0 note=74 velocity=0 time=0.046875
        Midi msg: note_on channel=0 note=63 velocity=18 time=0.18229166666666666
        Midi msg: note_on channel=0 note=59 velocity=5 time=0.0078125
        Midi msg: note_on channel=0 note=56 velocity=15 time=0.0026041666666666665
        Midi msg: note_on channel=0 note=77 velocity=54 time=0.125
        Midi msg: note_off channel=0 note=75 velocity=0 time=0.0078125
        Midi msg: note_off channel=0 note=63 velocity=0 time=0.013020833333333332
        Midi msg: note_off channel=0 note=59 velocity=0 time=0.07291666666666666
        Midi msg: note_off channel=0 note=56 velocity=0 time=0.11979166666666666
        Midi msg: note_off channel=0 note=77 velocity=0 time=0.06770833333333333
        Midi msg: note_on channel=0 note=75 velocity=47 time=0.33854166666666663
        Midi msg: note_off channel=0 note=75 velocity=0 time=0.13541666666666666
        Midi msg: note_on channel=0 note=75 velocity=68 time=0.0625
        Midi msg: control_change channel=0 control=64 value=0 time=0.005208333333333333
        Midi msg: note_on channel=0 note=39 velocity=24 time=0.020833333333333332
        Midi msg: control_change channel=0 control=64 value=127 time=0.1875
        Midi msg: note_off channel=0 note=39 velocity=0 time=0.010416666666666666
        Midi msg: note_on channel=0 note=63 velocity=34 time=0.4765625
        Midi msg: note_on channel=0 note=55 velocity=26 time=0.020833333333333332
        Midi msg: note_off channel=0 note=55 velocity=0 time=0.1171875
        Midi msg: note_off channel=0 note=63 velocity=0 time=0.013020833333333332
        Midi msg: note_on channel=0 note=67 velocity=33 time=0.34635416666666663
        Midi msg: note_on channel=0 note=58 velocity=24 time=0.015625
        Midi msg: note_on channel=0 note=63 velocity=27 time=0.005208333333333333
        Midi msg: note_off channel=0 note=67 velocity=0 time=0.0859375
        Midi msg: note_off channel=0 note=63 velocity=0 time=0.0078125
        Midi msg: note_off channel=0 note=58 velocity=0 time=0.05989583333333333
        Midi msg: note_off channel=0 note=75 velocity=0 time=0.26041666666666663
        Midi msg: note_on channel=0 note=70 velocity=55 time=0.028645833333333332
        Midi msg: note_on channel=0 note=51 velocity=24 time=0.015625
        Midi msg: note_off channel=0 note=70 velocity=0 time=0.05989583333333333
        Midi msg: note_off channel=0 note=51 velocity=0 time=0.010416666666666666
        Midi msg: note_on channel=0 note=63 velocity=39 time=0.4453125
        Midi msg: note_on channel=0 note=55 velocity=34 time=0.010416666666666666
        Midi msg: note_off channel=0 note=55 velocity=0 time=0.13020833333333331
        Midi msg: note_off channel=0 note=63 velocity=0 time=0.018229166666666664
        Midi msg: note_on channel=0 note=67 velocity=47 time=0.359375
        Midi msg: note_on channel=0 note=58 velocity=29 time=0.010416666666666666
        Midi msg: note_on channel=0 note=63 velocity=28 time=0.005208333333333333
        Midi msg: note_off channel=0 note=63 velocity=0 time=0.0625
        Midi msg: note_off channel=0 note=67 velocity=0 time=0
        Midi msg: note_off channel=0 note=58 velocity=0 time=0.08072916666666666
        Midi msg: note_on channel=0 note=82 velocity=86 time=0.5
        Midi msg: note_on channel=0 note=40 velocity=64 time=0.010416666666666666
        Midi msg: control_change channel=0 control=64 value=0 time=0.03645833333333333
        Midi msg: note_off channel=0 note=40 velocity=0 time=0.19270833333333331
        Midi msg: control_change channel=0 control=64 value=127 time=0.013020833333333332
        Midi msg: note_on channel=0 note=61 velocity=58 time=0.29947916666666663
        Midi msg: note_on channel=0 note=52 velocity=65 time=0.010416666666666666
        Midi msg: note_off channel=0 note=52 velocity=0 time=0.0625
        Midi msg: note_off channel=0 note=61 velocity=0 time=0.078125
        Midi msg: note_on channel=0 note=67 velocity=61 time=0.33072916666666663
        Midi msg: note_on channel=0 note=58 velocity=37 time=0.0026041666666666665
        Midi msg: note_on channel=0 note=61 velocity=51 time=0.0078125
        Midi msg: note_off channel=0 note=67 velocity=0 time=0.078125
        Midi msg: note_off channel=0 note=61 velocity=0 time=0.0546875
        Midi msg: note_off channel=0 note=58 velocity=0 time=0.03125
        Midi msg: note_on channel=0 note=81 velocity=89 time=0.29166666666666663
        Midi msg: note_on channel=0 note=40 velocity=68 time=0.020833333333333332
        Midi msg: control_change channel=0 control=64 value=0 time=0.03125
        Midi msg: note_off channel=0 note=82 velocity=0 time=0.041666666666666664
        Midi msg: note_off channel=0 note=40 velocity=0 time=0.1171875
        Midi msg: control_change channel=0 control=64 value=127 time=0.049479166666666664
        Midi msg: note_on channel=0 note=60 velocity=60 time=0.22135416666666666
        Midi msg: note_on channel=0 note=52 velocity=51 time=0.0078125
        Midi msg: note_off channel=0 note=52 velocity=0 time=0.08333333333333333
        Midi msg: note_off channel=0 note=60 velocity=0 time=0.057291666666666664
        Midi msg: note_on channel=0 note=67 velocity=64 time=0.359375
        Midi msg: note_on channel=0 note=79 velocity=95 time=0
        Midi msg: note_on channel=0 note=58 velocity=40 time=0.018229166666666664
        Midi msg: note_on channel=0 note=60 velocity=47 time=0
        Midi msg: note_off channel=0 note=81 velocity=0 time=0.07291666666666666
        Midi msg: note_off channel=0 note=67 velocity=0 time=0.010416666666666666
        Midi msg: note_off channel=0 note=60 velocity=0 time=0.06770833333333333
        Midi msg: note_off channel=0 note=58 velocity=0 time=0.028645833333333332
        Midi msg: note_on channel=0 note=77 velocity=95 time=0.2734375
        Midi msg: note_on channel=0 note=69 velocity=62 time=0.0078125
        Midi msg: note_on channel=0 note=41 velocity=63 time=0.005208333333333333
        Midi msg: control_change channel=0 control=64 value=0 time=0.015625
        Midi msg: note_off channel=0 note=79 velocity=0 time=0.033854166666666664
        Midi msg: note_off channel=0 note=41 velocity=0 time=0.13541666666666666
        Midi msg: control_change channel=0 control=64 value=127 time=0.0390625
        Midi msg: note_on channel=0 note=63 velocity=56 time=0.20833333333333331
        Midi msg: note_on channel=0 note=53 velocity=69 time=0.018229166666666664
        Midi msg: note_off channel=0 note=53 velocity=0 time=0.078125
        Midi msg: note_off channel=0 note=63 velocity=0 time=0.09635416666666666
        Midi msg: note_off channel=0 note=69 velocity=0 time=0.03645833333333333
        Midi msg: note_on channel=0 note=69 velocity=65 time=0.2578125
        Midi msg: note_on channel=0 note=63 velocity=62 time=0.010416666666666666
        Midi msg: note_on channel=0 note=60 velocity=64 time=0
        Midi msg: note_off channel=0 note=69 velocity=0 time=0.13020833333333331
        Midi msg: note_off channel=0 note=63 velocity=0 time=0.005208333333333333
        Midi msg: note_off channel=0 note=60 velocity=0 time=0.013020833333333332
        Midi msg: note_on channel=0 note=70 velocity=68 time=0.3125
        Midi msg: note_on channel=0 note=74 velocity=87 time=0.0078125
        Midi msg: note_on channel=0 note=43 velocity=53 time=0.0026041666666666665
        Midi msg: control_change channel=0 control=64 value=0 time=0.057291666666666664
        Midi msg: note_off channel=0 note=77 velocity=0 time=0.11979166666666666
        Midi msg: note_off channel=0 note=43 velocity=0 time=0.07291666666666666
        Midi msg: control_change channel=0 control=64 value=127 time=0.015625
        Midi msg: note_on channel=0 note=62 velocity=62 time=0.18489583333333331
        Midi msg: note_on channel=0 note=55 velocity=52 time=0.015625
        Midi msg: note_off channel=0 note=62 velocity=0 time=0.1015625
        Midi msg: note_off channel=0 note=55 velocity=0 time=0.033854166666666664
        Midi msg: note_off channel=0 note=70 velocity=0 time=0.08854166666666666
        Midi msg: note_on channel=0 note=70 velocity=67 time=0.2552083333333333
        Midi msg: note_on channel=0 note=58 velocity=49 time=0.020833333333333332
        Midi msg: note_on channel=0 note=62 velocity=55 time=0.0078125
        Midi msg: note_off channel=0 note=70 velocity=0 time=0.057291666666666664
        Midi msg: note_off channel=0 note=62 velocity=0 time=0.03645833333333333
        Midi msg: note_off channel=0 note=58 velocity=0 time=0.1171875
        Midi msg: note_on channel=0 note=75 velocity=79 time=0.40625
        Midi msg: note_on channel=0 note=67 velocity=64 time=0.0026041666666666665
        Midi msg: note_on channel=0 note=36 velocity=49 time=0.0234375
        Midi msg: note_off channel=0 note=74 velocity=0 time=0.0234375
        Midi msg: control_change channel=0 control=64 value=0 time=0
        Midi msg: note_off channel=0 note=36 velocity=0 time=0.2109375
        Midi msg: control_change channel=0 control=64 value=127 time=0.013020833333333332
        Midi msg: note_off channel=0 note=67 velocity=0 time=0.2421875
        Midi msg: note_on channel=0 note=63 velocity=64 time=0.05208333333333333
        Midi msg: note_on channel=0 note=55 velocity=37 time=0.010416666666666666
        Midi msg: note_off channel=0 note=55 velocity=0 time=0.17447916666666666
        Midi msg: note_off channel=0 note=63 velocity=0 time=0.03125
        Midi msg: note_on channel=0 note=67 velocity=62 time=0.29166666666666663
        Midi msg: note_on channel=0 note=60 velocity=52 time=0.010416666666666666
        Midi msg: note_on channel=0 note=63 velocity=53 time=0.010416666666666666
        Midi msg: note_off channel=0 note=67 velocity=0 time=0.09375
        Midi msg: note_off channel=0 note=60 velocity=0 time=0.028645833333333332
        Midi msg: note_off channel=0 note=63 velocity=0 time=0.010416666666666666
        Midi msg: note_off channel=0 note=75 velocity=0 time=0.19791666666666666
        Midi msg: note_on channel=0 note=74 velocity=87 time=0.09635416666666666
        Midi msg: note_on channel=0 note=69 velocity=60 time=0.0026041666666666665
        Midi msg: note_on channel=0 note=41 velocity=63 time=0.028645833333333332
        Midi msg: control_change channel=0 control=64 value=0 time=0.015625
        Midi msg: note_off channel=0 note=41 velocity=0 time=0.17447916666666666
        Midi msg: control_change channel=0 control=64 value=127 time=0.033854166666666664
        Midi msg: note_off channel=0 note=69 velocity=0 time=0.04427083333333333
        Midi msg: note_off channel=0 note=74 velocity=0 time=0.08854166666666666
        Midi msg: note_on channel=0 note=69 velocity=59 time=0.05989583333333333
        Midi msg: note_on channel=0 note=72 velocity=77 time=0
        Midi msg: note_on channel=0 note=53 velocity=59 time=0
        Midi msg: note_on channel=0 note=63 velocity=62 time=0.013020833333333332
        Midi msg: note_off channel=0 note=63 velocity=0 time=0.20572916666666666
        Midi msg: note_off channel=0 note=69 velocity=0 time=0.06510416666666666
        Midi msg: note_off channel=0 note=53 velocity=0 time=0.028645833333333332
        Midi msg: note_on channel=0 note=74 velocity=84 time=0.15364583333333331
        Midi msg: note_off channel=0 note=72 velocity=0 time=0.0026041666666666665
        Midi msg: note_on channel=0 note=69 velocity=67 time=0
        Midi msg: note_on channel=0 note=65 velocity=44 time=0.010416666666666666
        Midi msg: note_on channel=0 note=63 velocity=53 time=0.0026041666666666665
        Midi msg: note_on channel=0 note=60 velocity=39 time=0.005208333333333333
        Midi msg: note_off channel=0 note=60 velocity=0 time=0.09635416666666666
        Midi msg: note_off channel=0 note=65 velocity=0 time=0.0546875
        Midi msg: note_off channel=0 note=69 velocity=0 time=0.08333333333333333
        Midi msg: note_off channel=0 note=63 velocity=0 time=0.08072916666666666
        Midi msg: note_off channel=0 note=74 velocity=0 time=0.046875
        Midi msg: note_on channel=0 note=70 velocity=66 time=0.15885416666666666
        Midi msg: note_on channel=0 note=65 velocity=57 time=0.013020833333333332
        Midi msg: note_on channel=0 note=58 velocity=29 time=0
        Midi msg: note_on channel=0 note=62 velocity=38 time=0.005208333333333333
        Midi msg: control_change channel=0 control=64 value=0 time=0.15885416666666666
        Midi msg: note_off channel=0 note=62 velocity=0 time=0.13802083333333331
        Midi msg: control_change channel=0 control=64 value=127 time=0.0703125
        Midi msg: note_off channel=0 note=70 velocity=0 time=0.05989583333333333
        Midi msg: note_off channel=0 note=65 velocity=0 time=0.0026041666666666665
        Midi msg: note_off channel=0 note=58 velocity=0 time=0.0026041666666666665
        Midi msg: note_on channel=0 note=63 velocity=54 time=0.15625
        Midi msg: note_on channel=0 note=66 velocity=55 time=0.0026041666666666665
        Midi msg: note_on channel=0 note=71 velocity=85 time=0
        Midi msg: note_on channel=0 note=57 velocity=35 time=0
        Midi msg: control_change channel=0 control=64 value=0 time=0.2708333333333333
        Midi msg: note_off channel=0 note=57 velocity=0 time=0.109375
        Midi msg: note_off channel=0 note=71 velocity=0 time=0.020833333333333332
        Midi msg: control_change channel=0 control=64 value=127 time=0.013020833333333332
        Midi msg: note_off channel=0 note=63 velocity=0 time=0.013020833333333332
        Midi msg: note_off channel=0 note=66 velocity=0 time=0.026041666666666664
        Midi msg: note_on channel=0 note=71 velocity=91 time=0.09375
        Midi msg: note_on channel=0 note=56 velocity=65 time=0.013020833333333332
        Midi msg: note_on channel=0 note=64 velocity=65 time=0.0026041666666666665
        Midi msg: note_off channel=0 note=64 velocity=0 time=0.28125
        Midi msg: note_off channel=0 note=71 velocity=0 time=0.0703125
        Midi msg: note_on channel=0 note=70 velocity=65 time=0.09635416666666666
        Midi msg: note_on channel=0 note=72 velocity=81 time=0
        Midi msg: note_on channel=0 note=64 velocity=63 time=0.013020833333333332
        Midi msg: note_off channel=0 note=56 velocity=0 time=0.005208333333333333
        Midi msg: note_on channel=0 note=55 velocity=72 time=0
        Midi msg: control_change channel=0 control=64 value=0 time=0.05989583333333333
        Midi msg: control_change channel=0 control=64 value=127 time=0.19270833333333331
        Midi msg: note_off channel=0 note=64 velocity=0 time=0.041666666666666664
        Midi msg: note_off channel=0 note=72 velocity=0 time=0.010416666666666666
        Midi msg: note_off channel=0 note=55 velocity=0 time=0.0078125
        Midi msg: note_off channel=0 note=70 velocity=0 time=0.078125
        Midi msg: note_on channel=0 note=72 velocity=87 time=0.07291666666666666
        Midi msg: note_on channel=0 note=63 velocity=70 time=0
        Midi msg: note_on channel=0 note=65 velocity=70 time=0
        Midi msg: note_on channel=0 note=69 velocity=67 time=0.0026041666666666665
        Midi msg: note_on channel=0 note=60 velocity=45 time=0.005208333333333333
        Midi msg: note_on channel=0 note=53 velocity=81 time=0.0026041666666666665
        Midi msg: control_change channel=0 control=64 value=0 time=0.11197916666666666
        Midi msg: control_change channel=0 control=64 value=127 time=0.20833333333333331
        Midi msg: note_off channel=0 note=65 velocity=0 time=0.046875
        Midi msg: note_off channel=0 note=53 velocity=0 time=0.005208333333333333
        Midi msg: note_off channel=0 note=69 velocity=0 time=0.0546875
        Midi msg: note_off channel=0 note=63 velocity=0 time=0.033854166666666664
        Midi msg: note_off channel=0 note=72 velocity=0 time=0.010416666666666666
        Midi msg: note_off channel=0 note=60 velocity=0 time=0.0078125
        Midi msg: note_on channel=0 note=68 velocity=78 time=0.0703125
        Midi msg: note_on channel=0 note=74 velocity=95 time=0.005208333333333333
        Midi msg: note_on channel=0 note=65 velocity=62 time=0.005208333333333333
        Midi msg: note_on channel=0 note=58 velocity=55 time=0.0078125
        Midi msg: control_change channel=0 control=64 value=0 time=0.057291666666666664
        Midi msg: control_change channel=0 control=64 value=127 time=0.20833333333333331
        Midi msg: note_off channel=0 note=65 velocity=0 time=0.0026041666666666665
        Midi msg: note_off channel=0 note=58 velocity=0 time=0.12760416666666666
        Midi msg: note_off channel=0 note=68 velocity=0 time=0
        Midi msg: note_on channel=0 note=67 velocity=76 time=0
        Midi msg: note_off channel=0 note=74 velocity=0 time=0.005208333333333333
        Midi msg: note_on channel=0 note=70 velocity=65 time=0.09635416666666666
        Midi msg: note_on channel=0 note=75 velocity=62 time=0.11197916666666666
        Midi msg: note_on channel=0 note=39 velocity=69 time=0.06770833333333333
        Midi msg: control_change channel=0 control=64 value=0 time=0.06770833333333333
        Midi msg: note_on channel=0 note=79 velocity=97 time=0.06770833333333333
        Midi msg: note_off channel=0 note=75 velocity=0 time=0.041666666666666664
        Midi msg: control_change channel=0 control=64 value=127 time=0.08333333333333333
        Midi msg: note_off channel=0 note=39 velocity=0 time=0.03125
        Midi msg: note_off channel=0 note=67 velocity=0 time=0.11458333333333333
        Midi msg: note_on channel=0 note=63 velocity=72 time=0.31510416666666663
        Midi msg: note_on channel=0 note=55 velocity=52 time=0.018229166666666664
        Midi msg: note_off channel=0 note=70 velocity=0 time=0.0625
        Midi msg: note_off channel=0 note=63 velocity=0 time=0.22395833333333331
        Midi msg: note_off channel=0 note=55 velocity=0 time=0.17447916666666666
        Midi msg: note_on channel=0 note=69 velocity=73 time=0.020833333333333332
        Midi msg: note_on channel=0 note=58 velocity=41 time=0.005208333333333333
        Midi msg: note_on channel=0 note=67 velocity=57 time=0.0078125
        Midi msg: note_on channel=0 note=63 velocity=44 time=0.010416666666666666
        Midi msg: note_off channel=0 note=79 velocity=0 time=0.010416666666666666
        Midi msg: note_off channel=0 note=63 velocity=0 time=0.0703125
        Midi msg: note_off channel=0 note=67 velocity=0 time=0.06770833333333333
        Midi msg: note_on channel=0 note=70 velocity=75 time=0.10677083333333333
        Midi msg: note_off channel=0 note=58 velocity=0 time=0.07291666666666666
        Midi msg: note_off channel=0 note=69 velocity=0 time=0
        Midi msg: note_on channel=0 note=51 velocity=54 time=0.1484375
        Midi msg: note_on channel=0 note=71 velocity=89 time=0.010416666666666666
        Midi msg: control_change channel=0 control=64 value=0 time=0.033854166666666664
        Midi msg: note_off channel=0 note=70 velocity=0 time=0.015625
        Midi msg: control_change channel=0 control=64 value=127 time=0.15885416666666666
        Midi msg: note_off channel=0 note=51 velocity=0 time=0.010416666666666666
        Midi msg: note_on channel=0 note=70 velocity=78 time=0.0026041666666666665
        Midi msg: note_off channel=0 note=71 velocity=0 time=0.0546875
        Midi msg: note_on channel=0 note=73 velocity=76 time=0.15364583333333331
        Midi msg: note_on channel=0 note=62 velocity=43 time=0.005208333333333333
        Midi msg: note_on channel=0 note=56 velocity=33 time=0
        Midi msg: note_off channel=0 note=70 velocity=0 time=0.06510416666666666
        Midi msg: control_change channel=0 control=64 value=0 time=0.05989583333333333
        Midi msg: control_change channel=0 control=64 value=127 time=0.11458333333333333
        Midi msg: note_on channel=0 note=74 velocity=91 time=0.020833333333333332
        Midi msg: note_off channel=0 note=62 velocity=0 time=0.020833333333333332
        Midi msg: note_off channel=0 note=73 velocity=0 time=0.028645833333333332
        Midi msg: note_on channel=0 note=58 velocity=26 time=0.15625
        Midi msg: note_on channel=0 note=62 velocity=14 time=0.07552083333333333
        Midi msg: note_on channel=0 note=68 velocity=31 time=0.09375
        Midi msg: control_change channel=0 control=64 value=0 time=0.033854166666666664
        Midi msg: note_on channel=0 note=79 velocity=72 time=0.0026041666666666665
        Midi msg: note_off channel=0 note=74 velocity=0 time=0.026041666666666664
        Midi msg: note_off channel=0 note=56 velocity=0 time=0.06510416666666666
        Midi msg: control_change channel=0 control=64 value=127 time=0.1328125
        Midi msg: note_off channel=0 note=62 velocity=0 time=0.125
        Midi msg: note_off channel=0 note=68 velocity=0 time=0.0234375
        Midi msg: note_off channel=0 note=58 velocity=0 time=0.08072916666666666
        Midi msg: note_on channel=0 note=77 velocity=61 time=0.15364583333333331
        Midi msg: note_off channel=0 note=79 velocity=0 time=0.03125
        Midi msg: note_off channel=0 note=77 velocity=0 time=0.0234375
        Midi msg: note_on channel=0 note=77 velocity=43 time=0.1171875
        Midi msg: note_on channel=0 note=51 velocity=31 time=0.028645833333333332
        Midi msg: control_change channel=0 control=64 value=0 time=0.0234375
        Midi msg: control_change channel=0 control=64 value=127 time=0.20833333333333331
        Midi msg: note_off channel=0 note=51 velocity=0 time=0.04427083333333333
        Midi msg: note_on channel=0 note=63 velocity=22 time=0.3125
        Midi msg: note_on channel=0 note=55 velocity=22 time=0.033854166666666664
        Midi msg: note_off channel=0 note=63 velocity=0 time=0.16927083333333331
        Midi msg: note_off channel=0 note=55 velocity=0 time=0.0234375
        Midi msg: note_on channel=0 note=75 velocity=36 time=0.31510416666666663
        Midi msg: note_on channel=0 note=67 velocity=22 time=0.026041666666666664
        Midi msg: note_on channel=0 note=58 velocity=18 time=0.0078125
        Midi msg: note_on channel=0 note=63 velocity=26 time=0.010416666666666666
        Midi msg: note_off channel=0 note=77 velocity=0 time=0.06510416666666666
        Midi msg: note_off channel=0 note=67 velocity=0 time=0.07291666666666666
        Midi msg: note_off channel=0 note=63 velocity=0 time=0.049479166666666664
        Midi msg: note_off channel=0 note=58 velocity=0 time=0.06510416666666666
        Midi msg: note_on channel=0 note=50 velocity=37 time=0.2578125
        Midi msg: note_off channel=0 note=50 velocity=0 time=0.2630208333333333
        Midi msg: note_on channel=0 note=77 velocity=51 time=0.041666666666666664
        Midi msg: note_off channel=0 note=75 velocity=0 time=0.0078125
        Midi msg: note_off channel=0 note=77 velocity=0 time=0.04427083333333333
        Midi msg: note_on channel=0 note=75 velocity=48 time=0.07291666666666666
        Midi msg: note_off channel=0 note=75 velocity=0 time=0.057291666666666664
        Midi msg: note_on channel=0 note=77 velocity=62 time=0.026041666666666664
        Midi msg: note_on channel=0 note=75 velocity=55 time=0.05989583333333333
        Midi msg: note_on channel=0 note=63 velocity=30 time=0.005208333333333333
        Midi msg: note_on channel=0 note=55 velocity=33 time=0.005208333333333333
        Midi msg: note_off channel=0 note=77 velocity=0 time=0.03645833333333333
        Midi msg: note_off channel=0 note=55 velocity=0 time=0.11197916666666666
        Midi msg: note_off channel=0 note=63 velocity=0 time=0.028645833333333332
        Midi msg: note_on channel=0 note=74 velocity=78 time=0.06510416666666666
        Midi msg: note_off channel=0 note=75 velocity=0 time=0.046875
        Midi msg: note_on channel=0 note=75 velocity=79 time=0.17447916666666666
        Midi msg: note_on channel=0 note=67 velocity=42 time=0.010416666666666666
        Midi msg: note_on channel=0 note=58 velocity=23 time=0
        Midi msg: note_on channel=0 note=63 velocity=41 time=0.018229166666666664
        Midi msg: note_off channel=0 note=74 velocity=0 time=0.03125
        Midi msg: note_off channel=0 note=67 velocity=0 time=0.020833333333333332
        Midi msg: note_off channel=0 note=63 velocity=0 time=0.0390625
        Midi msg: note_off channel=0 note=58 velocity=0 time=0.05208333333333333
        Midi msg: note_on channel=0 note=77 velocity=76 time=0.0625
        Midi msg: note_off channel=0 note=75 velocity=0 time=0.07291666666666666
        Midi msg: note_on channel=0 note=79 velocity=67 time=0.17708333333333331
        Midi msg: note_on channel=0 note=48 velocity=33 time=0
        Midi msg: control_change channel=0 control=64 value=0 time=0.0078125
        Midi msg: note_off channel=0 note=77 velocity=0 time=0.005208333333333333
        Midi msg: control_change channel=0 control=64 value=127 time=0.1875
        Midi msg: note_off channel=0 note=48 velocity=0 time=0.03125
        Midi msg: note_on channel=0 note=71 velocity=63 time=0.005208333333333333
        Midi msg: note_off channel=0 note=79 velocity=0 time=0.010416666666666666
        Midi msg: note_off channel=0 note=71 velocity=0 time=0.19010416666666666
        Midi msg: note_on channel=0 note=72 velocity=69 time=0.07552083333333333
        Midi msg: note_on channel=0 note=55 velocity=28 time=0.010416666666666666
        Midi msg: note_on channel=0 note=64 velocity=21 time=0.0026041666666666665
        Midi msg: note_off channel=0 note=64 velocity=0 time=0.09375
        Midi msg: note_off channel=0 note=72 velocity=0 time=0.049479166666666664
        Midi msg: note_off channel=0 note=55 velocity=0 time=0.013020833333333332
        Midi msg: note_on channel=0 note=73 velocity=78 time=0.0859375
        Midi msg: note_on channel=0 note=72 velocity=88 time=0.24479166666666666
        Midi msg: note_on channel=0 note=67 velocity=37 time=0.018229166666666664
        Midi msg: note_off channel=0 note=73 velocity=0 time=0.0078125
        Midi msg: note_on channel=0 note=64 velocity=21 time=0.005208333333333333
        Midi msg: note_on channel=0 note=58 velocity=24 time=0.005208333333333333
        Midi msg: note_off channel=0 note=64 velocity=0 time=0.057291666666666664
        Midi msg: note_off channel=0 note=67 velocity=0 time=0.0026041666666666665
        Midi msg: note_off channel=0 note=72 velocity=0 time=0.028645833333333332
        Midi msg: note_off channel=0 note=58 velocity=0 time=0.041666666666666664
        Midi msg: note_on channel=0 note=77 velocity=92 time=0.049479166666666664
        Midi msg: note_on channel=0 note=76 velocity=84 time=0.25260416666666663
        Midi msg: note_off channel=0 note=77 velocity=0 time=0.013020833333333332
        Midi msg: control_change channel=0 control=64 value=0 time=0
        Midi msg: note_on channel=0 note=48 velocity=39 time=0.0078125
        Midi msg: control_change channel=0 control=64 value=127 time=0.12239583333333333
        Midi msg: note_off channel=0 note=76 velocity=0 time=0.013020833333333332
        Midi msg: note_off channel=0 note=48 velocity=0 time=0.041666666666666664
        Midi msg: note_on channel=0 note=80 velocity=88 time=0.041666666666666664
        Midi msg: note_on channel=0 note=64 velocity=36 time=0.24739583333333331
        Midi msg: note_on channel=0 note=55 velocity=30 time=0.005208333333333333
        Midi msg: note_on channel=0 note=79 velocity=94 time=0.013020833333333332
        Midi msg: note_off channel=0 note=80 velocity=0 time=0.005208333333333333
        Midi msg: control_change channel=0 control=64 value=0 time=0.08333333333333333
        Midi msg: note_off channel=0 note=79 velocity=0 time=0.046875
        Midi msg: control_change channel=0 control=64 value=127 time=0.046875
        Midi msg: note_off channel=0 note=55 velocity=0 time=0.0625
        Midi msg: note_off channel=0 note=64 velocity=0 time=0.005208333333333333
        Midi msg: note_on channel=0 note=85 velocity=90 time=0.010416666666666666
        Midi msg: note_on channel=0 note=60 velocity=28 time=0.25
        Midi msg: note_on channel=0 note=70 velocity=30 time=0.005208333333333333
        Midi msg: note_on channel=0 note=64 velocity=15 time=0.013020833333333332
        Midi msg: note_on channel=0 note=84 velocity=91 time=0.0703125
        Midi msg: note_off channel=0 note=70 velocity=0 time=0.015625
        Midi msg: note_off channel=0 note=64 velocity=0 time=0.04427083333333333
        Midi msg: note_off channel=0 note=85 velocity=0 time=0.010416666666666666
        Midi msg: note_off channel=0 note=60 velocity=0 time=0.11458333333333333
        Midi msg: note_on channel=0 note=79 velocity=91 time=0.11197916666666666
        Midi msg: note_off channel=0 note=84 velocity=0 time=0.0026041666666666665
        Midi msg: note_on channel=0 note=82 velocity=70 time=0.40625
        Midi msg: note_on channel=0 note=41 velocity=40 time=0.018229166666666664
        Midi msg: control_change channel=0 control=64 value=0 time=0.013020833333333332
        Midi msg: note_off channel=0 note=79 velocity=0 time=0.06510416666666666
        Midi msg: control_change channel=0 control=64 value=127 time=0.15625
        Midi msg: note_off channel=0 note=41 velocity=0 time=0.020833333333333332
        Midi msg: note_on channel=0 note=61 velocity=30 time=0.3489583333333333
        Midi msg: note_on channel=0 note=53 velocity=36 time=0.026041666666666664
        Midi msg: note_off channel=0 note=53 velocity=0 time=0.1328125
        Midi msg: note_off channel=0 note=61 velocity=0 time=0.05208333333333333
        Midi msg: note_on channel=0 note=64 velocity=41 time=0.34375
        Midi msg: note_on channel=0 note=61 velocity=30 time=0
        Midi msg: note_on channel=0 note=58 velocity=22 time=0.0026041666666666665
        Midi msg: note_off channel=0 note=64 velocity=0 time=0.171875
        Midi msg: note_off channel=0 note=61 velocity=0 time=0.018229166666666664
        Midi msg: note_off channel=0 note=58 velocity=0 time=0.033854166666666664
        Midi msg: note_on channel=0 note=80 velocity=54 time=0.3567708333333333
        Midi msg: note_on channel=0 note=41 velocity=29 time=0.026041666666666664
        Midi msg: control_change channel=0 control=64 value=0 time=0.05208333333333333
        Midi msg: note_off channel=0 note=82 velocity=0 time=0.08333333333333333
        Midi msg: note_off channel=0 note=41 velocity=0 time=0.13802083333333331
        Midi msg: control_change channel=0 control=64 value=127 time=0.0026041666666666665
        Midi msg: note_on channel=0 note=60 velocity=24 time=0.3645833333333333
        Midi msg: note_on channel=0 note=53 velocity=17 time=0.0078125
        Midi msg: note_off channel=0 note=60 velocity=0 time=0.15885416666666666
        Midi msg: note_off channel=0 note=53 velocity=0 time=0.018229166666666664
        Midi msg: note_off channel=0 note=80 velocity=0 time=0.5104166666666666
        Midi msg: note_on channel=0 note=79 velocity=42 time=0.005208333333333333
        Midi msg: note_on channel=0 note=56 velocity=17 time=0.028645833333333332
        Midi msg: note_on channel=0 note=60 velocity=2 time=0.013020833333333332
        Midi msg: note_on channel=0 note=65 velocity=8 time=0.0078125
        Midi msg: note_off channel=0 note=60 velocity=0 time=0.0859375
        Midi msg: note_off channel=0 note=65 velocity=0 time=0.05989583333333333
        Midi msg: note_off channel=0 note=56 velocity=0 time=0.20833333333333331
        Midi msg: note_on channel=0 note=46 velocity=24 time=0.20833333333333331
        Midi msg: note_on channel=0 note=77 velocity=36 time=0.03645833333333333
        Midi msg: note_off channel=0 note=79 velocity=0 time=0.013020833333333332
        Midi msg: control_change channel=0 control=64 value=0 time=0.015625
        Midi msg: control_change channel=0 control=64 value=127 time=0.1953125
        Midi msg: note_off channel=0 note=77 velocity=0 time=0.041666666666666664
        Midi msg: note_on channel=0 note=79 velocity=42 time=0.013020833333333332
        Midi msg: note_off channel=0 note=46 velocity=0 time=0.0026041666666666665
        Midi msg: note_off channel=0 note=79 velocity=0 time=0.06770833333333333
        Midi msg: note_on channel=0 note=77 velocity=31 time=0.033854166666666664
        Midi msg: note_off channel=0 note=77 velocity=0 time=0.05989583333333333
        Midi msg: note_on channel=0 note=79 velocity=41 time=0.028645833333333332
        Midi msg: note_off channel=0 note=79 velocity=0 time=0.0625
        Midi msg: note_on channel=0 note=77 velocity=43 time=0.0026041666666666665
        Midi msg: note_on channel=0 note=62 velocity=28 time=0.0234375
        Midi msg: note_on channel=0 note=53 velocity=24 time=0.026041666666666664
        Midi msg: note_off channel=0 note=77 velocity=0 time=0.018229166666666664
        Midi msg: note_on channel=0 note=79 velocity=59 time=0.0078125
        Midi msg: note_off channel=0 note=62 velocity=0 time=0.03125
        Midi msg: note_off channel=0 note=53 velocity=0 time=0.020833333333333332
        Midi msg: note_off channel=0 note=79 velocity=0 time=0.013020833333333332
        Midi msg: note_on channel=0 note=77 velocity=50 time=0.028645833333333332
        Midi msg: note_off channel=0 note=77 velocity=0 time=0.0546875
        Midi msg: note_on channel=0 note=79 velocity=72 time=0.028645833333333332
        Midi msg: note_off channel=0 note=79 velocity=0 time=0.05208333333333333
        Midi msg: note_on channel=0 note=77 velocity=53 time=0.03645833333333333
        Midi msg: note_off channel=0 note=77 velocity=0 time=0.046875
        Midi msg: note_on channel=0 note=79 velocity=72 time=0.020833333333333332
        Midi msg: note_off channel=0 note=79 velocity=0 time=0.046875
        Midi msg: note_on channel=0 note=68 velocity=36 time=0.046875
        Midi msg: note_on channel=0 note=77 velocity=42 time=0.005208333333333333
        Midi msg: note_on channel=0 note=62 velocity=10 time=0.015625
        Midi msg: note_on channel=0 note=58 velocity=21 time=0.005208333333333333
        Midi msg: note_off channel=0 note=77 velocity=0 time=0.028645833333333332
        Midi msg: note_on channel=0 note=79 velocity=70 time=0.0078125
        Midi msg: note_off channel=0 note=68 velocity=0 time=0.013020833333333332
        Midi msg: note_off channel=0 note=62 velocity=0 time=0.020833333333333332
        Midi msg: note_off channel=0 note=79 velocity=0 time=0.018229166666666664
        Midi msg: note_on channel=0 note=77 velocity=57 time=0.015625
        Midi msg: note_off channel=0 note=77 velocity=0 time=0.05989583333333333
        Midi msg: note_off channel=0 note=58 velocity=0 time=0.0026041666666666665
        Midi msg: note_on channel=0 note=79 velocity=78 time=0.015625
        Midi msg: note_on channel=0 note=77 velocity=59 time=0.08333333333333333
        Midi msg: note_off channel=0 note=79 velocity=0 time=0.03645833333333333
        Midi msg: note_off channel=0 note=77 velocity=0 time=0.0625
        Midi msg: note_on channel=0 note=76 velocity=68 time=0.020833333333333332
        Midi msg: note_off channel=0 note=76 velocity=0 time=0.11979166666666666
        Midi msg: note_on channel=0 note=77 velocity=68 time=0
        Midi msg: note_off channel=0 note=77 velocity=0 time=0.06770833333333333
        Midi msg: note_on channel=0 note=47 velocity=34 time=0.015625
        Midi msg: control_change channel=0 control=64 value=0 time=0.041666666666666664
        Midi msg: note_on channel=0 note=79 velocity=72 time=0.07291666666666666
        Midi msg: control_change channel=0 control=64 value=127 time=0.18489583333333331
        Midi msg: note_off channel=0 note=47 velocity=0 time=0.020833333333333332
        Midi msg: note_off channel=0 note=79 velocity=0 time=0.1171875
        Midi msg: note_on channel=0 note=79 velocity=70 time=0.23177083333333331
        Midi msg: note_on channel=0 note=65 velocity=14 time=0.0625
        Midi msg: note_on channel=0 note=55 velocity=10 time=0.0078125
        Midi msg: note_off channel=0 note=55 velocity=0 time=0.13541666666666666
        Midi msg: note_off channel=0 note=65 velocity=0 time=0.010416666666666666
        Midi msg: note_on channel=0 note=74 velocity=58 time=0.3802083333333333
        Midi msg: note_on channel=0 note=67 velocity=16 time=0.033854166666666664
        Midi msg: note_on channel=0 note=65 velocity=11 time=0.010416666666666666
        Midi msg: note_on channel=0 note=62 velocity=18 time=0.0026041666666666665
        Midi msg: note_off channel=0 note=79 velocity=0 time=0.07552083333333333
        Midi msg: note_off channel=0 note=65 velocity=0 time=0.018229166666666664
        Midi msg: note_off channel=0 note=67 velocity=0 time=0.0026041666666666665
        Midi msg: note_off channel=0 note=62 velocity=0 time=0.0234375
        Midi msg: note_on channel=0 note=75 velocity=48 time=0.359375
        Midi msg: note_off channel=0 note=74 velocity=0 time=0.005208333333333333
        Midi msg: control_change channel=0 control=64 value=0 time=0.005208333333333333
        Midi msg: note_on channel=0 note=48 velocity=34 time=0.0026041666666666665
        Midi msg: control_change channel=0 control=64 value=127 time=0.22135416666666666
        Midi msg: note_off channel=0 note=48 velocity=0 time=0.03645833333333333
        Midi msg: note_on channel=0 note=55 velocity=15 time=0.3125
        Midi msg: note_on channel=0 note=63 velocity=21 time=0.005208333333333333
        Midi msg: note_off channel=0 note=55 velocity=0 time=0.19010416666666666
        Midi msg: note_off channel=0 note=63 velocity=0 time=0.0026041666666666665
        Midi msg: note_on channel=0 note=67 velocity=26 time=0.3645833333333333
        Midi msg: note_on channel=0 note=63 velocity=13 time=0.013020833333333332
        Midi msg: note_on channel=0 note=60 velocity=19 time=0.005208333333333333
        Midi msg: note_off channel=0 note=67 velocity=0 time=0.10677083333333333
        Midi msg: note_off channel=0 note=63 velocity=0 time=0.03125
        Midi msg: note_off channel=0 note=60 velocity=0 time=0.03125
        Midi msg: note_on channel=0 note=45 velocity=26 time=0.390625
        Midi msg: note_on channel=0 note=72 velocity=35 time=0.005208333333333333
        Midi msg: control_change channel=0 control=64 value=0 time=0.026041666666666664
        Midi msg: note_off channel=0 note=75 velocity=0 time=0.041666666666666664
        Midi msg: control_change channel=0 control=64 value=127 time=0.18229166666666666
        Midi msg: note_off channel=0 note=45 velocity=0 time=0.04427083333333333
        Midi msg: note_on channel=0 note=63 velocity=24 time=0.23958333333333331
        Midi msg: note_on channel=0 note=54 velocity=16 time=0.015625
        Midi msg: note_off channel=0 note=54 velocity=0 time=0.203125
        Midi msg: note_off channel=0 note=63 velocity=0 time=0.0026041666666666665
        Midi msg: note_on channel=0 note=66 velocity=14 time=0.4453125
        Midi msg: note_on channel=0 note=63 velocity=23 time=0.018229166666666664
        Midi msg: note_on channel=0 note=60 velocity=24 time=0.005208333333333333
        Midi msg: note_off channel=0 note=66 velocity=0 time=0.125
        Midi msg: note_off channel=0 note=63 velocity=0 time=0.078125
        Midi msg: note_off channel=0 note=60 velocity=0 time=0.0234375
        Midi msg: note_off channel=0 note=72 velocity=0 time=0.1953125
        Midi msg: note_on channel=0 note=70 velocity=47 time=0.24739583333333331
        Midi msg: note_on channel=0 note=46 velocity=19 time=0.0546875
        Midi msg: control_change channel=0 control=64 value=0 time=0.015625
        Midi msg: control_change channel=0 control=64 value=127 time=0.20833333333333331
        Midi msg: note_off channel=0 note=46 velocity=0 time=0.04427083333333333
        Midi msg: note_off channel=0 note=70 velocity=0 time=0.12239583333333333
        Midi msg: note_on channel=0 note=86 velocity=86 time=0.2552083333333333
        Midi msg: note_on channel=0 note=63 velocity=38 time=0.0234375
        Midi msg: note_on channel=0 note=53 velocity=28 time=0.028645833333333332
        Midi msg: note_off channel=0 note=53 velocity=0 time=0.11458333333333333
        Midi msg: note_off channel=0 note=63 velocity=0 time=0.03125
        Midi msg: note_on channel=0 note=85 velocity=80 time=0.40104166666666663
        Midi msg: note_on channel=0 note=68 velocity=44 time=0.0026041666666666665
        Midi msg: note_on channel=0 note=58 velocity=26 time=0.0026041666666666665
        Midi msg: note_on channel=0 note=63 velocity=29 time=0.013020833333333332
        Midi msg: note_off channel=0 note=86 velocity=0 time=0.018229166666666664
        Midi msg: note_off channel=0 note=68 velocity=0 time=0.04427083333333333
        Midi msg: note_off channel=0 note=63 velocity=0 time=0.04427083333333333
        Midi msg: note_off channel=0 note=58 velocity=0 time=0.08854166666666666
        Midi msg: note_off channel=0 note=85 velocity=0 time=0.3411458333333333
        Midi msg: note_on channel=0 note=84 velocity=74 time=0.0026041666666666665
        Midi msg: note_on channel=0 note=34 velocity=37 time=0.04427083333333333
        Midi msg: control_change channel=0 control=64 value=0 time=0.18489583333333331
        Midi msg: note_on channel=0 note=83 velocity=94 time=0.0859375
        Midi msg: note_off channel=0 note=34 velocity=0 time=0.04427083333333333
        Midi msg: note_off channel=0 note=84 velocity=0 time=0.005208333333333333
        Midi msg: control_change channel=0 control=64 value=127 time=0.010416666666666666
        Midi msg: note_on channel=0 note=82 velocity=71 time=0.171875
        Midi msg: note_off channel=0 note=83 velocity=0 time=0.020833333333333332
        Midi msg: note_off channel=0 note=82 velocity=0 time=0.16145833333333331
        Midi msg: note_on channel=0 note=81 velocity=54 time=0.013020833333333332
        Midi msg: note_on channel=0 note=62 velocity=30 time=0.005208333333333333
        Midi msg: note_on channel=0 note=53 velocity=38 time=0.0078125
        Midi msg: note_off channel=0 note=53 velocity=0 time=0.13541666666666666
        Midi msg: note_on channel=0 note=80 velocity=65 time=0.0026041666666666665
        Midi msg: note_off channel=0 note=81 velocity=0 time=0.015625
        Midi msg: note_off channel=0 note=62 velocity=0 time=0.015625
        Midi msg: note_on channel=0 note=77 velocity=70 time=0.09895833333333333
        Midi msg: note_off channel=0 note=80 velocity=0 time=0.010416666666666666
        Midi msg: note_on channel=0 note=74 velocity=75 time=0.11197916666666666
        Midi msg: note_off channel=0 note=77 velocity=0 time=0.020833333333333332
        Midi msg: note_on channel=0 note=58 velocity=23 time=0.020833333333333332
        Midi msg: note_off channel=0 note=74 velocity=0 time=0.05208333333333333
        Midi msg: note_on channel=0 note=71 velocity=70 time=0.033854166666666664
        Midi msg: note_on channel=0 note=62 velocity=28 time=0.0078125
        Midi msg: note_on channel=0 note=68 velocity=28 time=0.13020833333333331
        Midi msg: note_on channel=0 note=70 velocity=66 time=0.0026041666666666665
        Midi msg: note_off channel=0 note=71 velocity=0 time=0.018229166666666664
        Midi msg: note_on channel=0 note=74 velocity=65 time=0.1484375
        Midi msg: note_off channel=0 note=70 velocity=0 time=0.018229166666666664
        Midi msg: control_change channel=0 control=64 value=0 time=0.0703125
        Midi msg: note_off channel=0 note=74 velocity=0 time=0.08333333333333333
        Midi msg: note_on channel=0 note=79 velocity=71 time=0
        Midi msg: note_off channel=0 note=68 velocity=0 time=0.09375
        Midi msg: control_change channel=0 control=64 value=127 time=0.015625
        Midi msg: note_off channel=0 note=62 velocity=0 time=0.0078125
        Midi msg: note_on channel=0 note=77 velocity=61 time=0.10416666666666666
        Midi msg: note_off channel=0 note=58 velocity=0 time=0.0026041666666666665
        Midi msg: note_off channel=0 note=79 velocity=0 time=0.020833333333333332
        Midi msg: note_off channel=0 note=77 velocity=0 time=0.16145833333333331
        Midi msg: note_on channel=0 note=75 velocity=60 time=0.026041666666666664
        Midi msg: note_off channel=0 note=75 velocity=0 time=0.12760416666666666
        Midi msg: note_on channel=0 note=39 velocity=29 time=0.078125
        Midi msg: note_on channel=0 note=75 velocity=46 time=0.005208333333333333
        Midi msg: control_change channel=0 control=64 value=0 time=0.041666666666666664
        Midi msg: note_off channel=0 note=39 velocity=0 time=0.21354166666666666
        Midi msg: control_change channel=0 control=64 value=127 time=0.013020833333333332
        Midi msg: note_on channel=0 note=63 velocity=24 time=0.44010416666666663
        Midi msg: note_on channel=0 note=55 velocity=22 time=0.010416666666666666
        Midi msg: note_off channel=0 note=55 velocity=0 time=0.11458333333333333
        Midi msg: note_off channel=0 note=63 velocity=0 time=0.057291666666666664
        Midi msg: note_on channel=0 note=67 velocity=26 time=0.3645833333333333
        Midi msg: note_on channel=0 note=63 velocity=10 time=0.005208333333333333
        Midi msg: note_on channel=0 note=58 velocity=10 time=0.0026041666666666665
        Midi msg: note_off channel=0 note=63 velocity=0 time=0.1171875
        Midi msg: note_off channel=0 note=67 velocity=0 time=0.015625
        Midi msg: note_off channel=0 note=58 velocity=0 time=0.15364583333333331
        Midi msg: note_on channel=0 note=51 velocity=32 time=0.2109375
        Midi msg: note_off channel=0 note=51 velocity=0 time=0.15625
        Midi msg: note_on channel=0 note=74 velocity=48 time=0.5078125
        Midi msg: note_on channel=0 note=63 velocity=25 time=0.0078125
        Midi msg: note_on channel=0 note=55 velocity=19 time=0.010416666666666666
        Midi msg: note_off channel=0 note=75 velocity=0 time=0.015625
        Midi msg: note_off channel=0 note=63 velocity=0 time=0.12760416666666666
        Midi msg: note_off channel=0 note=55 velocity=0 time=0.018229166666666664
        Midi msg: note_on channel=0 note=75 velocity=46 time=0.3515625
        Midi msg: note_on channel=0 note=58 velocity=18 time=0.013020833333333332
        Midi msg: note_on channel=0 note=67 velocity=15 time=0.010416666666666666
        Midi msg: note_on channel=0 note=63 velocity=17 time=0.0078125
        Midi msg: note_off channel=0 note=74 velocity=0 time=0.013020833333333332
        Midi msg: note_off channel=0 note=67 velocity=0 time=0.0625
        Midi msg: note_off channel=0 note=63 velocity=0 time=0.020833333333333332
        Midi msg: note_off channel=0 note=58 velocity=0 time=0.10416666666666666
        Midi msg: note_on channel=0 note=77 velocity=47 time=0.4270833333333333
        Midi msg: note_on channel=0 note=46 velocity=17 time=0.010416666666666666
        Midi msg: control_change channel=0 control=64 value=0 time=0.0026041666666666665
        Midi msg: note_off channel=0 note=75 velocity=0 time=0.020833333333333332
        Midi msg: control_change channel=0 control=64 value=127 time=0.21875
        Midi msg: note_off channel=0 note=46 velocity=0 time=0.05989583333333333
        Midi msg: note_on channel=0 note=62 velocity=12 time=0.3125
        Midi msg: note_on channel=0 note=53 velocity=31 time=0.018229166666666664
        Midi msg: note_off channel=0 note=53 velocity=0 time=0.13802083333333331
        Midi msg: note_off channel=0 note=62 velocity=0 time=0
        Midi msg: note_on channel=0 note=58 velocity=18 time=0.36979166666666663
        Midi msg: note_on channel=0 note=65 velocity=17 time=0.005208333333333333
        Midi msg: note_on channel=0 note=62 velocity=19 time=0
        Midi msg: note_off channel=0 note=65 velocity=0 time=0.11979166666666666
        Midi msg: note_off channel=0 note=62 velocity=0 time=0.04427083333333333
        Midi msg: note_off channel=0 note=58 velocity=0 time=0.07552083333333333
        Midi msg: note_on channel=0 note=46 velocity=24 time=0.23177083333333331
        Midi msg: note_on channel=0 note=79 velocity=73 time=0.018229166666666664
        Midi msg: note_off channel=0 note=77 velocity=0 time=0.1015625
        Midi msg: note_off channel=0 note=46 velocity=0 time=0.08072916666666666
        Midi msg: note_on channel=0 note=62 velocity=28 time=0.35416666666666663
        Midi msg: note_on channel=0 note=53 velocity=44 time=0.013020833333333332
        Midi msg: note_off channel=0 note=62 velocity=0 time=0.20052083333333331
        Midi msg: note_off channel=0 note=53 velocity=0 time=0.010416666666666666
        Midi msg: note_on channel=0 note=77 velocity=77 time=0.3020833333333333
        Midi msg: note_on channel=0 note=58 velocity=25 time=0.026041666666666664
        Midi msg: note_on channel=0 note=62 velocity=33 time=0.013020833333333332
        Midi msg: note_on channel=0 note=65 velocity=24 time=0.0026041666666666665
        Midi msg: note_off channel=0 note=79 velocity=0 time=0.05989583333333333
        Midi msg: note_off channel=0 note=65 velocity=0 time=0.005208333333333333
        Midi msg: note_off channel=0 note=62 velocity=0 time=0.0078125
        Midi msg: note_off channel=0 note=58 velocity=0 time=0.10416666666666666
        Midi msg: note_off channel=0 note=77 velocity=0 time=0.1875
        Midi msg: note_on channel=0 note=77 velocity=56 time=0.08072916666666666
        Midi msg: note_on channel=0 note=45 velocity=34 time=0.0234375
        Midi msg: control_change channel=0 control=64 value=0 time=0.041666666666666664
        Midi msg: note_off channel=0 note=45 velocity=0 time=0.21875
        Midi msg: control_change channel=0 control=64 value=127 time=0.0078125
        Midi msg: note_on channel=0 note=60 velocity=16 time=0.3333333333333333
        Midi msg: note_on channel=0 note=53 velocity=18 time=0.0078125
        Midi msg: note_off channel=0 note=53 velocity=0 time=0.171875
        Midi msg: note_off channel=0 note=60 velocity=0 time=0.03125
        Midi msg: note_on channel=0 note=65 velocity=21 time=0.34635416666666663
        Midi msg: note_on channel=0 note=60 velocity=26 time=0
        Midi msg: note_off channel=0 note=60 velocity=0 time=0.10677083333333333
        Midi msg: note_off channel=0 note=65 velocity=0 time=0.015625
        Midi msg: note_on channel=0 note=72 velocity=50 time=0.35416666666666663
        Midi msg: note_on channel=0 note=45 velocity=16 time=0.020833333333333332
        Midi msg: note_off channel=0 note=77 velocity=0 time=0.1015625
        Midi msg: note_off channel=0 note=45 velocity=0 time=0.05208333333333333
        Midi msg: note_on channel=0 note=60 velocity=16 time=0.37760416666666663
        Midi msg: note_on channel=0 note=53 velocity=26 time=0.010416666666666666
        Midi msg: note_off channel=0 note=53 velocity=0 time=0.1015625
        Midi msg: note_off channel=0 note=60 velocity=0 time=0.08333333333333333
        Midi msg: note_on channel=0 note=65 velocity=20 time=0.37760416666666663
        Midi msg: note_on channel=0 note=60 velocity=14 time=0.0078125
        Midi msg: note_off channel=0 note=65 velocity=0 time=0.109375
        Midi msg: note_off channel=0 note=60 velocity=0 time=0.09114583333333333
        Midi msg: note_off channel=0 note=72 velocity=0 time=0.14583333333333331
        Midi msg: note_on channel=0 note=75 velocity=33 time=0.44010416666666663
        Midi msg: control_change channel=0 control=64 value=0 time=0.010416666666666666
        Midi msg: note_on channel=0 note=44 velocity=32 time=0.0234375
        Midi msg: control_change channel=0 control=64 value=127 time=0.23177083333333331
        Midi msg: note_off channel=0 note=44 velocity=0 time=0.03645833333333333
        Midi msg: note_off channel=0 note=75 velocity=0 time=0.109375
        Midi msg: note_on channel=0 note=75 velocity=40 time=0.10677083333333333
        Midi msg: note_on channel=0 note=60 velocity=25 time=0.11458333333333333
        Midi msg: note_on channel=0 note=51 velocity=16 time=0.010416666666666666
        Midi msg: note_off channel=0 note=51 velocity=0 time=0.10416666666666666
        Midi msg: note_off channel=0 note=75 velocity=0 time=0.03645833333333333
        Midi msg: note_off channel=0 note=60 velocity=0 time=0.0026041666666666665
        Midi msg: note_on channel=0 note=75 velocity=38 time=0.13020833333333331
        Midi msg: note_off channel=0 note=75 velocity=0 time=0.21614583333333331
        Midi msg: note_on channel=0 note=56 velocity=19 time=0.0078125
        Midi msg: note_on channel=0 note=63 velocity=11 time=0.018229166666666664
        Midi msg: note_on channel=0 note=60 velocity=8 time=0.0078125
        Midi msg: note_off channel=0 note=63 velocity=0 time=0.07552083333333333
        Midi msg: note_off channel=0 note=60 velocity=0 time=0.057291666666666664
        Midi msg: note_on channel=0 note=75 velocity=41 time=0.05208333333333333
        Midi msg: note_off channel=0 note=56 velocity=0 time=0.010416666666666666
        Midi msg: note_off channel=0 note=75 velocity=0 time=0.27604166666666663
        Midi msg: note_on channel=0 note=32 velocity=28 time=0.14322916666666666
        Midi msg: note_on channel=0 note=75 velocity=43 time=0.046875
        Midi msg: control_change channel=0 control=64 value=0 time=0.0390625
        Midi msg: note_off channel=0 note=32 velocity=0 time=0.20572916666666666
        Midi msg: control_change channel=0 control=64 value=127 time=0
        Midi msg: note_on channel=0 note=74 velocity=47 time=0.4765625
        Midi msg: note_on channel=0 note=59 velocity=21 time=0.041666666666666664
        Midi msg: note_on channel=0 note=51 velocity=19 time=0.0026041666666666665
        Midi msg: note_off channel=0 note=75 velocity=0 time=0.0078125
        Midi msg: note_off channel=0 note=59 velocity=0 time=0.14583333333333331
        Midi msg: note_on channel=0 note=75 velocity=49 time=0.08072916666666666
        Midi msg: note_off channel=0 note=74 velocity=0 time=0.04427083333333333
        Midi msg: note_on channel=0 note=56 velocity=13 time=0.24739583333333331
        Midi msg: note_on channel=0 note=63 velocity=23 time=0.0026041666666666665
        Midi msg: note_on channel=0 note=59 velocity=13 time=0
        Midi msg: note_off channel=0 note=75 velocity=0 time=0.0625
        Midi msg: note_on channel=0 note=77 velocity=50 time=0.010416666666666666
        Midi msg: note_off channel=0 note=63 velocity=0 time=0.11197916666666666
        Midi msg: note_off channel=0 note=59 velocity=0 time=0.018229166666666664
        Midi msg: note_off channel=0 note=56 velocity=0 time=0.1484375
        Midi msg: note_off channel=0 note=51 velocity=0 time=0.0546875
        Midi msg: note_off channel=0 note=77 velocity=0 time=0.10677083333333333
        Midi msg: note_on channel=0 note=75 velocity=38 time=0.1953125
        Midi msg: note_off channel=0 note=75 velocity=0 time=0.0625
        Midi msg: note_on channel=0 note=39 velocity=21 time=0.09114583333333333
        Midi msg: note_on channel=0 note=75 velocity=26 time=0.026041666666666664
        Midi msg: control_change channel=0 control=64 value=0 time=0.018229166666666664
        Midi msg: note_off channel=0 note=39 velocity=0 time=0.20572916666666666
        Midi msg: control_change channel=0 control=64 value=127 time=0.015625
        Midi msg: note_on channel=0 note=63 velocity=18 time=0.3802083333333333
        Midi msg: note_on channel=0 note=55 velocity=27 time=0.0234375
        Midi msg: note_off channel=0 note=55 velocity=0 time=0.11979166666666666
        Midi msg: note_off channel=0 note=63 velocity=0 time=0.03645833333333333
        Midi msg: note_on channel=0 note=67 velocity=31 time=0.3333333333333333
        Midi msg: note_on channel=0 note=58 velocity=22 time=0
        Midi msg: note_on channel=0 note=63 velocity=25 time=0.015625
        Midi msg: note_off channel=0 note=67 velocity=0 time=0.140625
        Midi msg: note_off channel=0 note=63 velocity=0 time=0.06510416666666666
        Midi msg: note_off channel=0 note=58 velocity=0 time=0.08854166666666666
        Midi msg: note_on channel=0 note=70 velocity=36 time=0.1796875
        Midi msg: note_on channel=0 note=51 velocity=35 time=0.028645833333333332
        Midi msg: note_off channel=0 note=51 velocity=0 time=0.18229166666666666
        Midi msg: note_off channel=0 note=75 velocity=0 time=0
        Midi msg: note_on channel=0 note=63 velocity=42 time=0.29947916666666663
        Midi msg: note_on channel=0 note=55 velocity=41 time=0.010416666666666666
        Midi msg: note_off channel=0 note=55 velocity=0 time=0.11458333333333333
        Midi msg: note_off channel=0 note=63 velocity=0 time=0.0625
        Midi msg: note_off channel=0 note=70 velocity=0 time=0.1953125
        Midi msg: note_on channel=0 note=67 velocity=58 time=0.109375
        Midi msg: note_on channel=0 note=58 velocity=34 time=0
        Midi msg: note_on channel=0 note=63 velocity=42 time=0.0078125
        Midi msg: note_off channel=0 note=67 velocity=0 time=0.049479166666666664
        Midi msg: note_off channel=0 note=63 velocity=0 time=0.013020833333333332
        Midi msg: note_off channel=0 note=58 velocity=0 time=0.09375
        Midi msg: note_on channel=0 note=82 velocity=89 time=0.4895833333333333
        Midi msg: note_on channel=0 note=40 velocity=72 time=0
        Midi msg: control_change channel=0 control=64 value=0 time=0.03645833333333333
        Midi msg: note_off channel=0 note=40 velocity=0 time=0.19270833333333331
        Midi msg: control_change channel=0 control=64 value=127 time=0.013020833333333332
        Midi msg: note_on channel=0 note=61 velocity=62 time=0.2552083333333333
        Midi msg: note_on channel=0 note=52 velocity=48 time=0.018229166666666664
        Midi msg: note_off channel=0 note=52 velocity=0 time=0.0625
        Midi msg: note_off channel=0 note=61 velocity=0 time=0.09635416666666666
        Midi msg: note_on channel=0 note=67 velocity=64 time=0.29166666666666663
        Midi msg: note_on channel=0 note=58 velocity=36 time=0.0026041666666666665
        Midi msg: note_on channel=0 note=61 velocity=48 time=0.010416666666666666
        Midi msg: note_off channel=0 note=67 velocity=0 time=0.05989583333333333
        Midi msg: note_off channel=0 note=61 velocity=0 time=0.08072916666666666
        Midi msg: note_off channel=0 note=58 velocity=0 time=0.0026041666666666665
        Midi msg: note_on channel=0 note=81 velocity=83 time=0.3359375
        Midi msg: note_on channel=0 note=40 velocity=83 time=0.0078125
        Midi msg: control_change channel=0 control=64 value=0 time=0.057291666666666664
        Midi msg: note_off channel=0 note=82 velocity=0 time=0.07291666666666666
        Midi msg: note_off channel=0 note=40 velocity=0 time=0.09895833333333333
        Midi msg: control_change channel=0 control=64 value=127 time=0.013020833333333332
        Midi msg: note_on channel=0 note=60 velocity=70 time=0.23958333333333331
        Midi msg: note_on channel=0 note=52 velocity=71 time=0.015625
        Midi msg: note_off channel=0 note=52 velocity=0 time=0.08072916666666666
        Midi msg: note_off channel=0 note=60 velocity=0 time=0.0390625
        Midi msg: note_on channel=0 note=79 velocity=98 time=0.3020833333333333
        Midi msg: note_on channel=0 note=67 velocity=70 time=0.010416666666666666
        Midi msg: note_on channel=0 note=58 velocity=43 time=0.018229166666666664
        Midi msg: note_on channel=0 note=60 velocity=60 time=0.0026041666666666665
        Midi msg: note_off channel=0 note=81 velocity=0 time=0.0390625
        Midi msg: note_off channel=0 note=67 velocity=0 time=0.018229166666666664
        Midi msg: note_off channel=0 note=60 velocity=0 time=0.08072916666666666
        Midi msg: note_off channel=0 note=58 velocity=0 time=0.0390625
        Midi msg: note_on channel=0 note=77 velocity=91 time=0.328125
        Midi msg: note_on channel=0 note=69 velocity=57 time=0.005208333333333333
        Midi msg: note_on channel=0 note=41 velocity=73 time=0.0078125
        Midi msg: control_change channel=0 control=64 value=0 time=0.03125
        Midi msg: note_off channel=0 note=79 velocity=0 time=0.0234375
        Midi msg: note_off channel=0 note=41 velocity=0 time=0.171875
        Midi msg: control_change channel=0 control=64 value=127 time=0.010416666666666666
        Midi msg: note_on channel=0 note=63 velocity=54 time=0.23697916666666666
        Midi msg: note_on channel=0 note=53 velocity=68 time=0.015625
        Midi msg: note_off channel=0 note=53 velocity=0 time=0.078125
        Midi msg: note_off channel=0 note=63 velocity=0 time=0.10416666666666666
        Midi msg: note_off channel=0 note=69 velocity=0 time=0.0078125
        Midi msg: note_on channel=0 note=69 velocity=59 time=0.25
        Midi msg: note_on channel=0 note=63 velocity=61 time=0.010416666666666666
        Midi msg: note_on channel=0 note=60 velocity=47 time=0.010416666666666666
        Midi msg: note_off channel=0 note=63 velocity=0 time=0.11458333333333333
        Midi msg: note_off channel=0 note=69 velocity=0 time=0
        Midi msg: note_off channel=0 note=60 velocity=0 time=0.0234375
        Midi msg: note_on channel=0 note=70 velocity=56 time=0.37760416666666663
        Midi msg: note_on channel=0 note=74 velocity=80 time=0.0026041666666666665
        Midi msg: note_on channel=0 note=43 velocity=41 time=0.0234375
        Midi msg: control_change channel=0 control=64 value=0 time=0.08854166666666666
        Midi msg: note_off channel=0 note=77 velocity=0 time=0.0625
        Midi msg: note_off channel=0 note=43 velocity=0 time=0.1328125
        Midi msg: control_change channel=0 control=64 value=127 time=0.015625
        Midi msg: note_on channel=0 note=55 velocity=40 time=0.2265625
        Midi msg: note_on channel=0 note=62 velocity=32 time=0.0026041666666666665
        Midi msg: note_off channel=0 note=62 velocity=0 time=0.16927083333333331
        Midi msg: note_off channel=0 note=55 velocity=0 time=0.0234375
        Midi msg: note_off channel=0 note=70 velocity=0 time=0.05989583333333333
        Midi msg: note_on channel=0 note=70 velocity=44 time=0.20833333333333331
        Midi msg: note_on channel=0 note=58 velocity=21 time=0.015625
        Midi msg: note_on channel=0 note=62 velocity=42 time=0
        Midi msg: note_off channel=0 note=62 velocity=0 time=0.09635416666666666
        Midi msg: note_off channel=0 note=70 velocity=0 time=0.010416666666666666
        Midi msg: note_off channel=0 note=58 velocity=0 time=0.09114583333333333
        Midi msg: note_off channel=0 note=74 velocity=0 time=0.18489583333333331
        Midi msg: note_on channel=0 note=75 velocity=86 time=0.203125
        Midi msg: note_on channel=0 note=67 velocity=54 time=0.0234375
        Midi msg: note_on channel=0 note=36 velocity=58 time=0
        Midi msg: control_change channel=0 control=64 value=0 time=0.05989583333333333
        Midi msg: note_off channel=0 note=36 velocity=0 time=0.1875
        Midi msg: control_change channel=0 control=64 value=127 time=0.020833333333333332
        Midi msg: note_on channel=0 note=63 velocity=62 time=0.2552083333333333
        Midi msg: note_on channel=0 note=55 velocity=43 time=0.010416666666666666
        Midi msg: note_off channel=0 note=55 velocity=0 time=0.15885416666666666
        Midi msg: note_off channel=0 note=67 velocity=0 time=0.026041666666666664
        Midi msg: note_off channel=0 note=63 velocity=0 time=0.020833333333333332
        Midi msg: note_on channel=0 note=67 velocity=66 time=0.25260416666666663
        Midi msg: note_on channel=0 note=63 velocity=65 time=0.010416666666666666
        Midi msg: note_on channel=0 note=60 velocity=52 time=0.0078125
        Midi msg: note_off channel=0 note=67 velocity=0 time=0.11458333333333333
        Midi msg: note_off channel=0 note=63 velocity=0 time=0.026041666666666664
        Midi msg: note_off channel=0 note=60 velocity=0 time=0.015625
        Midi msg: note_off channel=0 note=75 velocity=0 time=0.1796875
        Midi msg: note_on channel=0 note=74 velocity=80 time=0.10416666666666666
        Midi msg: note_on channel=0 note=69 velocity=54 time=0.0026041666666666665
        Midi msg: note_on channel=0 note=41 velocity=62 time=0.0078125
        Midi msg: control_change channel=0 control=64 value=0 time=0.0546875
        Midi msg: note_off channel=0 note=41 velocity=0 time=0.1640625
        Midi msg: control_change channel=0 control=64 value=127 time=0.028645833333333332
        Midi msg: note_off channel=0 note=69 velocity=0 time=0.046875
        Midi msg: note_on channel=0 note=69 velocity=53 time=0.2578125
        Midi msg: note_on channel=0 note=72 velocity=75 time=0.005208333333333333
        Midi msg: note_on channel=0 note=63 velocity=50 time=0.010416666666666666
        Midi msg: note_on channel=0 note=53 velocity=50 time=0.0026041666666666665
        Midi msg: note_off channel=0 note=74 velocity=0 time=0.06510416666666666
        Midi msg: note_off channel=0 note=63 velocity=0 time=0.057291666666666664
        Midi msg: note_off channel=0 note=69 velocity=0 time=0.0859375
        Midi msg: note_on channel=0 note=74 velocity=81 time=0.28125
        Midi msg: note_on channel=0 note=69 velocity=51 time=0.0026041666666666665
        Midi msg: note_on channel=0 note=65 velocity=35 time=0.0026041666666666665
        Midi msg: note_on channel=0 note=63 velocity=29 time=0.005208333333333333
        Midi msg: note_on channel=0 note=60 velocity=33 time=0.0026041666666666665
        Midi msg: control_change channel=0 control=64 value=0 time=0.0234375
        Midi msg: note_off channel=0 note=72 velocity=0 time=0.04427083333333333
        Midi msg: note_off channel=0 note=65 velocity=0 time=0.1171875
        Midi msg: control_change channel=0 control=64 value=127 time=0.03125
        Midi msg: note_off channel=0 note=60 velocity=0 time=0.005208333333333333
        Midi msg: note_off channel=0 note=63 velocity=0 time=0.03125
        Midi msg: note_off channel=0 note=69 velocity=0 time=0.078125
        Midi msg: note_on channel=0 note=58 velocity=52 time=0.1015625
        Midi msg: note_on channel=0 note=70 velocity=71 time=0.0026041666666666665
        Midi msg: note_on channel=0 note=65 velocity=54 time=0.005208333333333333
        Midi msg: note_on channel=0 note=62 velocity=55 time=0.005208333333333333
        Midi msg: note_off channel=0 note=53 velocity=0 time=0.020833333333333332
        Midi msg: note_off channel=0 note=74 velocity=0 time=0.013020833333333332
        Midi msg: control_change channel=0 control=64 value=0 time=0.13541666666666666
        Midi msg: note_off channel=0 note=62 velocity=0 time=0.07291666666666666
        Midi msg: note_off channel=0 note=65 velocity=0 time=0.11197916666666666
        Midi msg: control_change channel=0 control=64 value=127 time=0.0078125
        Midi msg: note_off channel=0 note=70 velocity=0 time=0.0026041666666666665
        Midi msg: note_off channel=0 note=58 velocity=0 time=0.010416666666666666
        Midi msg: note_on channel=0 note=71 velocity=87 time=0.07291666666666666
        Midi msg: note_on channel=0 note=66 velocity=63 time=0
        Midi msg: note_on channel=0 note=63 velocity=60 time=0.005208333333333333
        Midi msg: note_on channel=0 note=57 velocity=52 time=0.0026041666666666665
        Midi msg: control_change channel=0 control=64 value=0 time=0.16145833333333331
        Midi msg: note_off channel=0 note=71 velocity=0 time=0.1796875
        Midi msg: control_change channel=0 control=64 value=127 time=0.013020833333333332
        Midi msg: note_off channel=0 note=66 velocity=0 time=0.057291666666666664
        Midi msg: note_on channel=0 note=71 velocity=89 time=0.05208333333333333
        Midi msg: note_on channel=0 note=64 velocity=69 time=0.010416666666666666
        Midi msg: note_on channel=0 note=56 velocity=60 time=0.0026041666666666665
        Midi msg: note_off channel=0 note=63 velocity=0 time=0.0026041666666666665
        Midi msg: note_off channel=0 note=57 velocity=0 time=0.015625
        Midi msg: note_off channel=0 note=64 velocity=0 time=0.3515625
        Midi msg: note_off channel=0 note=71 velocity=0 time=0.049479166666666664
        Midi msg: note_on channel=0 note=72 velocity=87 time=0.057291666666666664
        Midi msg: note_on channel=0 note=70 velocity=66 time=0.005208333333333333
        Midi msg: note_on channel=0 note=64 velocity=65 time=0.010416666666666666
        Midi msg: note_on channel=0 note=55 velocity=78 time=0.0026041666666666665
        Midi msg: note_off channel=0 note=56 velocity=0 time=0.0546875
        Midi msg: control_change channel=0 control=64 value=0 time=0.03125
        Midi msg: control_change channel=0 control=64 value=127 time=0.2265625
        Midi msg: note_off channel=0 note=72 velocity=0 time=0.046875
        Midi msg: note_off channel=0 note=64 velocity=0 time=0.0026041666666666665
        Midi msg: note_on channel=0 note=72 velocity=94 time=0.12760416666666666
        Midi msg: note_on channel=0 note=69 velocity=75 time=0
        Midi msg: note_on channel=0 note=65 velocity=70 time=0.0026041666666666665
        Midi msg: note_on channel=0 note=63 velocity=72 time=0.005208333333333333
        Midi msg: note_off channel=0 note=55 velocity=0 time=0.0026041666666666665
        Midi msg: note_on channel=0 note=60 velocity=53 time=0
        Midi msg: note_on channel=0 note=53 velocity=89 time=0
        Midi msg: note_off channel=0 note=70 velocity=0 time=0.06770833333333333
        Midi msg: control_change channel=0 control=64 value=0 time=0.12760416666666666
        Midi msg: note_off channel=0 note=65 velocity=0 time=0.19791666666666666
        Midi msg: control_change channel=0 control=64 value=127 time=0.010416666666666666
        Midi msg: note_off channel=0 note=69 velocity=0 time=0.033854166666666664
        Midi msg: note_off channel=0 note=63 velocity=0 time=0.03125
        Midi msg: note_off channel=0 note=53 velocity=0 time=0.0703125
        Midi msg: note_on channel=0 note=74 velocity=94 time=0.015625
        Midi msg: note_on channel=0 note=65 velocity=64 time=0.005208333333333333
        Midi msg: note_on channel=0 note=68 velocity=73 time=0.0026041666666666665
        Midi msg: note_on channel=0 note=58 velocity=60 time=0
        Midi msg: note_off channel=0 note=60 velocity=0 time=0.020833333333333332
        Midi msg: note_off channel=0 note=72 velocity=0 time=0.03125
        Midi msg: control_change channel=0 control=64 value=0 time=0.04427083333333333
        Midi msg: note_off channel=0 note=65 velocity=0 time=0.13802083333333331
        Midi msg: control_change channel=0 control=64 value=127 time=0.0546875
        Midi msg: note_off channel=0 note=58 velocity=0 time=0.1015625
        Midi msg: note_on channel=0 note=67 velocity=81 time=0.015625
        Midi msg: note_off channel=0 note=68 velocity=0 time=0.0078125
        Midi msg: note_off channel=0 note=74 velocity=0 time=0.049479166666666664
        Midi msg: note_on channel=0 note=70 velocity=73 time=0.05989583333333333
        Midi msg: note_on channel=0 note=75 velocity=78 time=0.12239583333333333
        Midi msg: note_on channel=0 note=39 velocity=73 time=0.09635416666666666
        Midi msg: control_change channel=0 control=64 value=0 time=0.09114583333333333
        Midi msg: note_on channel=0 note=79 velocity=100 time=0.05208333333333333
        Midi msg: note_off channel=0 note=75 velocity=0 time=0.05989583333333333
        Midi msg: control_change channel=0 control=64 value=127 time=0.12760416666666666
        Midi msg: note_off channel=0 note=39 velocity=0 time=0.026041666666666664
        Midi msg: note_off channel=0 note=67 velocity=0 time=0.08854166666666666
        Midi msg: note_off channel=0 note=70 velocity=0 time=0.234375
        Midi msg: note_on channel=0 note=63 velocity=60 time=0.0703125
        Midi msg: note_on channel=0 note=55 velocity=45 time=0.015625
        Midi msg: note_off channel=0 note=63 velocity=0 time=0.2864583333333333
        Midi msg: note_on channel=0 note=69 velocity=64 time=0.18229166666666666
        Midi msg: note_on channel=0 note=58 velocity=36 time=0.026041666666666664
        Midi msg: note_on channel=0 note=67 velocity=39 time=0.0234375
        Midi msg: note_on channel=0 note=63 velocity=44 time=0
        Midi msg: note_off channel=0 note=55 velocity=0 time=0.005208333333333333
        Midi msg: note_off channel=0 note=79 velocity=0 time=0.013020833333333332
        Midi msg: note_off channel=0 note=67 velocity=0 time=0.20572916666666666
        Midi msg: note_on channel=0 note=70 velocity=75 time=0.028645833333333332
        Midi msg: note_off channel=0 note=63 velocity=0 time=0.0546875
        Midi msg: note_off channel=0 note=58 velocity=0 time=0.041666666666666664
        Midi msg: note_off channel=0 note=69 velocity=0 time=0.010416666666666666
        Midi msg: note_on channel=0 note=51 velocity=54 time=0.13541666666666666
        Midi msg: note_on channel=0 note=71 velocity=91 time=0.015625
        Midi msg: note_off channel=0 note=70 velocity=0 time=0.041666666666666664
        Midi msg: control_change channel=0 control=64 value=0 time=0.046875
        Midi msg: note_on channel=0 note=70 velocity=81 time=0.13020833333333331
        Midi msg: note_off channel=0 note=51 velocity=0 time=0.0078125
        Midi msg: control_change channel=0 control=64 value=127 time=0.0078125
        Midi msg: note_off channel=0 note=71 velocity=0 time=0.041666666666666664
        Midi msg: note_on channel=0 note=56 velocity=42 time=0.14322916666666666
        Midi msg: note_on channel=0 note=73 velocity=84 time=0.015625
        Midi msg: note_on channel=0 note=62 velocity=36 time=0.018229166666666664
        Midi msg: note_off channel=0 note=70 velocity=0 time=0.0390625
        Midi msg: note_off channel=0 note=62 velocity=0 time=0.171875
        Midi msg: note_on channel=0 note=74 velocity=95 time=0.0078125
        Midi msg: note_off channel=0 note=73 velocity=0 time=0.057291666666666664
        Midi msg: note_on channel=0 note=58 velocity=28 time=0.1484375
        Midi msg: note_on channel=0 note=62 velocity=19 time=0.09114583333333333
        Midi msg: note_on channel=0 note=79 velocity=84 time=0.1171875
        Midi msg: note_on channel=0 note=68 velocity=31 time=0
        Midi msg: control_change channel=0 control=64 value=0 time=0.013020833333333332
        Midi msg: note_off channel=0 note=74 velocity=0 time=0.049479166666666664
        Midi msg: note_off channel=0 note=56 velocity=0 time=0.109375
        Midi msg: control_change channel=0 control=64 value=127 time=0.0625
        Midi msg: note_off channel=0 note=68 velocity=0 time=0.12760416666666666
        Midi msg: note_off channel=0 note=62 velocity=0 time=0.013020833333333332
        Midi msg: note_off channel=0 note=58 velocity=0 time=0.0859375
        Midi msg: note_on channel=0 note=77 velocity=74 time=0.046875
        Midi msg: note_off channel=0 note=79 velocity=0 time=0.046875
        Midi msg: note_off channel=0 note=77 velocity=0 time=0.05208333333333333
        Midi msg: note_on channel=0 note=51 velocity=32 time=0.05208333333333333
        Midi msg: note_on channel=0 note=77 velocity=67 time=0.026041666666666664
        Midi msg: control_change channel=0 control=64 value=0 time=0.046875
        Midi msg: control_change channel=0 control=64 value=127 time=0.20833333333333331
        Midi msg: note_off channel=0 note=51 velocity=0 time=0.020833333333333332
        Midi msg: note_on channel=0 note=63 velocity=31 time=0.28125
        Midi msg: note_on channel=0 note=55 velocity=28 time=0.041666666666666664
        Midi msg: note_off channel=0 note=55 velocity=0 time=0.1484375
        Midi msg: note_off channel=0 note=63 velocity=0 time=0.04427083333333333
        Midi msg: note_on channel=0 note=58 velocity=23 time=0.23177083333333331
        Midi msg: note_on channel=0 note=67 velocity=23 time=0.03125
        Midi msg: note_on channel=0 note=63 velocity=19 time=0.033854166666666664
        Midi msg: note_off channel=0 note=67 velocity=0 time=0.05208333333333333
        Midi msg: note_on channel=0 note=75 velocity=45 time=0.013020833333333332
        Midi msg: note_off channel=0 note=63 velocity=0 time=0.0390625
        Midi msg: note_off channel=0 note=58 velocity=0 time=0.057291666666666664
        Midi msg: note_off channel=0 note=77 velocity=0 time=0.013020833333333332
        Midi msg: note_on channel=0 note=50 velocity=46 time=0.2734375
        Midi msg: control_change channel=0 control=64 value=0 time=0.046875
        Midi msg: control_change channel=0 control=64 value=127 time=0.19270833333333331
        Midi msg: note_off channel=0 note=50 velocity=0 time=0.06510416666666666
        Midi msg: note_on channel=0 note=77 velocity=54 time=0.0625
        Midi msg: note_off channel=0 note=75 velocity=0 time=0.005208333333333333
        Midi msg: note_off channel=0 note=77 velocity=0 time=0.041666666666666664
        Midi msg: note_on channel=0 note=75 velocity=60 time=0.033854166666666664
        Midi msg: note_off channel=0 note=75 velocity=0 time=0.07291666666666666
        Midi msg: note_on channel=0 note=77 velocity=51 time=0.013020833333333332
        Midi msg: note_on channel=0 note=63 velocity=50 time=0.028645833333333332
        Midi msg: note_on channel=0 note=55 velocity=47 time=0.03125
        Midi msg: note_on channel=0 note=75 velocity=75 time=0
        Midi msg: note_off channel=0 note=77 velocity=0 time=0.05989583333333333
        Midi msg: note_off channel=0 note=55 velocity=0 time=0.013020833333333332
        Midi msg: note_off channel=0 note=63 velocity=0 time=0.08333333333333333
        Midi msg: note_on channel=0 note=74 velocity=86 time=0.09375
        Midi msg: note_off channel=0 note=75 velocity=0 time=0.0546875
        Midi msg: note_on channel=0 note=58 velocity=32 time=0.06770833333333333
        Midi msg: note_on channel=0 note=63 velocity=38 time=0.0703125
        Midi msg: note_on channel=0 note=75 velocity=79 time=0.015625
        Midi msg: note_on channel=0 note=67 velocity=44 time=0.020833333333333332
        Midi msg: note_off channel=0 note=74 velocity=0 time=0.04427083333333333
        Midi msg: note_off channel=0 note=63 velocity=0 time=0.013020833333333332
        Midi msg: note_off channel=0 note=67 velocity=0 time=0.015625
        Midi msg: note_off channel=0 note=58 velocity=0 time=0.07552083333333333
        Midi msg: note_on channel=0 note=77 velocity=87 time=0.06770833333333333
        Midi msg: note_off channel=0 note=75 velocity=0 time=0.1015625
        Midi msg: note_on channel=0 note=79 velocity=84 time=0.15364583333333331
        Midi msg: note_on channel=0 note=48 velocity=42 time=0.005208333333333333
        Midi msg: note_off channel=0 note=77 velocity=0 time=0.013020833333333332
        Midi msg: control_change channel=0 control=64 value=0 time=0.005208333333333333
        Midi msg: control_change channel=0 control=64 value=127 time=0.19270833333333331
        Midi msg: note_off channel=0 note=79 velocity=0 time=0.0234375
        Midi msg: note_off channel=0 note=48 velocity=0 time=0.0390625
        Midi msg: note_on channel=0 note=71 velocity=75 time=0
        Midi msg: note_off channel=0 note=71 velocity=0 time=0.1953125
        Midi msg: note_on channel=0 note=72 velocity=74 time=0.06770833333333333
        Midi msg: note_on channel=0 note=55 velocity=34 time=0.018229166666666664
        Midi msg: note_on channel=0 note=64 velocity=31 time=0.005208333333333333
        Midi msg: note_off channel=0 note=72 velocity=0 time=0.1484375
        Midi msg: note_off channel=0 note=64 velocity=0 time=0.0234375
        Midi msg: note_on channel=0 note=73 velocity=78 time=0.05208333333333333
        Midi msg: note_off channel=0 note=55 velocity=0 time=0.013020833333333332
        Midi msg: note_on channel=0 note=72 velocity=89 time=0.22916666666666666
        Midi msg: note_off channel=0 note=73 velocity=0 time=0.015625
        Midi msg: note_on channel=0 note=67 velocity=46 time=0.013020833333333332
        Midi msg: note_on channel=0 note=64 velocity=31 time=0.018229166666666664
        Midi msg: note_on channel=0 note=58 velocity=21 time=0.0026041666666666665
        Midi msg: note_off channel=0 note=64 velocity=0 time=0.06770833333333333
        Midi msg: note_off channel=0 note=72 velocity=0 time=0.0026041666666666665
        Midi msg: note_off channel=0 note=67 velocity=0 time=0.010416666666666666
        Midi msg: note_off channel=0 note=58 velocity=0 time=0.06770833333333333
        Midi msg: note_on channel=0 note=77 velocity=94 time=0.033854166666666664
        Midi msg: note_on channel=0 note=48 velocity=44 time=0.24479166666666666
        Midi msg: note_on channel=0 note=76 velocity=84 time=0
        Midi msg: note_off channel=0 note=77 velocity=0 time=0.015625
        Midi msg: note_off channel=0 note=76 velocity=0 time=0.12239583333333333
        Midi msg: note_on channel=0 note=80 velocity=85 time=0.1171875
        Midi msg: control_change channel=0 control=64 value=0 time=0.020833333333333332
        Midi msg: note_off channel=0 note=48 velocity=0 time=0.12760416666666666
        Midi msg: control_change channel=0 control=64 value=127 time=0.0026041666666666665
        Midi msg: note_on channel=0 note=79 velocity=85 time=0.15364583333333331
        Midi msg: note_on channel=0 note=64 velocity=39 time=0.0234375
        Midi msg: note_on channel=0 note=55 velocity=36 time=0.005208333333333333
        Midi msg: note_off channel=0 note=80 velocity=0 time=0.05208333333333333
        Midi msg: note_off channel=0 note=55 velocity=0 time=0.0546875
        Midi msg: note_off channel=0 note=79 velocity=0 time=0.010416666666666666
        Midi msg: note_off channel=0 note=64 velocity=0 time=0.0390625
        Midi msg: note_on channel=0 note=85 velocity=86 time=0.0859375
        Midi msg: note_on channel=0 note=60 velocity=21 time=0.2864583333333333
        Midi msg: note_on channel=0 note=64 velocity=28 time=0.010416666666666666
        Midi msg: note_on channel=0 note=84 velocity=84 time=0
        Midi msg: note_on channel=0 note=70 velocity=29 time=0.015625
        Midi msg: note_off channel=0 note=85 velocity=0 time=0.06510416666666666
        Midi msg: note_off channel=0 note=70 velocity=0 time=0.06510416666666666
        Midi msg: note_off channel=0 note=64 velocity=0 time=0.0703125
        Midi msg: note_off channel=0 note=60 velocity=0 time=0.11979166666666666
        Midi msg: note_on channel=0 note=79 velocity=84 time=0
        Midi msg: note_off channel=0 note=84 velocity=0 time=0.0026041666666666665
        Midi msg: note_off channel=0 note=79 velocity=0 time=0.07552083333333333
        Midi msg: note_on channel=0 note=79 velocity=84 time=0.09895833333333333
        Midi msg: note_on channel=0 note=41 velocity=34 time=0.2109375
        Midi msg: control_change channel=0 control=64 value=0 time=0.11979166666666666
        Midi msg: note_on channel=0 note=82 velocity=67 time=0.03645833333333333
        Midi msg: note_off channel=0 note=79 velocity=0 time=0.0703125
        Midi msg: control_change channel=0 control=64 value=127 time=0.11979166666666666
        Midi msg: note_off channel=0 note=41 velocity=0 time=0.020833333333333332
        Midi msg: note_on channel=0 note=61 velocity=31 time=0.35416666666666663
        Midi msg: note_on channel=0 note=53 velocity=44 time=0.018229166666666664
        Midi msg: note_off channel=0 note=53 velocity=0 time=0.13020833333333331
        Midi msg: note_off channel=0 note=61 velocity=0 time=0.07291666666666666
        Midi msg: note_on channel=0 note=61 velocity=29 time=0.359375
        Midi msg: note_on channel=0 note=64 velocity=42 time=0.0026041666666666665
        Midi msg: note_on channel=0 note=58 velocity=24 time=0.0078125
        Midi msg: note_off channel=0 note=64 velocity=0 time=0.1640625
        Midi msg: note_off channel=0 note=61 velocity=0 time=0.013020833333333332
        Midi msg: note_off channel=0 note=58 velocity=0 time=0.03125
        Midi msg: note_on channel=0 note=80 velocity=58 time=0.3411458333333333
        Midi msg: note_on channel=0 note=41 velocity=26 time=0.03645833333333333
        Midi msg: control_change channel=0 control=64 value=0 time=0.0625
        Midi msg: note_off channel=0 note=82 velocity=0 time=0.0546875
        Midi msg: note_off channel=0 note=41 velocity=0 time=0.12760416666666666
        Midi msg: control_change channel=0 control=64 value=127 time=0.010416666666666666
        Midi msg: note_on channel=0 note=60 velocity=21 time=0.36979166666666663
        Midi msg: note_on channel=0 note=53 velocity=31 time=0.03125
        Midi msg: note_off channel=0 note=53 velocity=0 time=0.1171875
        Midi msg: note_off channel=0 note=60 velocity=0 time=0.09375
        Midi msg: note_on channel=0 note=79 velocity=65 time=0.390625
        Midi msg: note_on channel=0 note=65 velocity=17 time=0.04427083333333333
        Midi msg: note_on channel=0 note=56 velocity=20 time=0.0078125
        Midi msg: note_on channel=0 note=60 velocity=9 time=0.005208333333333333
        Midi msg: note_off channel=0 note=80 velocity=0 time=0.03125
        Midi msg: note_off channel=0 note=65 velocity=0 time=0.12760416666666666
        Midi msg: note_off channel=0 note=60 velocity=0 time=0.0026041666666666665
        Midi msg: note_off channel=0 note=56 velocity=0 time=0.12239583333333333
        Midi msg: note_on channel=0 note=46 velocity=16 time=0.34635416666666663
        Midi msg: note_off channel=0 note=79 velocity=0 time=0.0546875
        Midi msg: note_on channel=0 note=77 velocity=39 time=0.005208333333333333
        Midi msg: control_change channel=0 control=64 value=0 time=0.057291666666666664
        Midi msg: control_change channel=0 control=64 value=127 time=0.17708333333333331
        Midi msg: note_off channel=0 note=77 velocity=0 time=0.018229166666666664
        Midi msg: note_off channel=0 note=46 velocity=0 time=0.013020833333333332
        Midi msg: note_on channel=0 note=79 velocity=36 time=0.0078125
        Midi msg: note_off channel=0 note=79 velocity=0 time=0.0703125
        Midi msg: note_on channel=0 note=77 velocity=45 time=0
        Midi msg: note_off channel=0 note=77 velocity=0 time=0.06510416666666666
        Midi msg: note_on channel=0 note=79 velocity=49 time=0.028645833333333332
        Midi msg: note_on channel=0 note=62 velocity=30 time=0.0625
        Midi msg: note_off channel=0 note=79 velocity=0 time=0.0026041666666666665
        Midi msg: note_on channel=0 note=53 velocity=32 time=0.015625
        Midi msg: note_on channel=0 note=77 velocity=41 time=0.005208333333333333
        Midi msg: note_off channel=0 note=77 velocity=0 time=0.057291666666666664
        Midi msg: note_off channel=0 note=53 velocity=0 time=0.010416666666666666
        Midi msg: note_off channel=0 note=62 velocity=0 time=0.0078125
        Midi msg: note_on channel=0 note=79 velocity=59 time=0.0026041666666666665
        Midi msg: note_off channel=0 note=79 velocity=0 time=0.057291666666666664
        Midi msg: note_on channel=0 note=77 velocity=54 time=0.020833333333333332
        Midi msg: note_off channel=0 note=77 velocity=0 time=0.06770833333333333
        Midi msg: note_on channel=0 note=79 velocity=69 time=0.028645833333333332
        Midi msg: note_off channel=0 note=79 velocity=0 time=0.049479166666666664
        Midi msg: note_on channel=0 note=77 velocity=61 time=0.0234375
        Midi msg: note_off channel=0 note=77 velocity=0 time=0.05208333333333333
        Midi msg: note_on channel=0 note=79 velocity=68 time=0.03125
        Midi msg: note_off channel=0 note=79 velocity=0 time=0.05208333333333333
        Midi msg: note_on channel=0 note=68 velocity=32 time=0.010416666666666666
        Midi msg: note_on channel=0 note=58 velocity=22 time=0.026041666666666664
        Midi msg: note_on channel=0 note=62 velocity=24 time=0.015625
        Midi msg: note_on channel=0 note=77 velocity=44 time=0.010416666666666666
        Midi msg: note_on channel=0 note=79 velocity=73 time=0.0390625
        Midi msg: note_off channel=0 note=77 velocity=0 time=0.0078125
        Midi msg: note_off channel=0 note=62 velocity=0 time=0.028645833333333332
        Midi msg: note_off channel=0 note=68 velocity=0 time=0.0026041666666666665
        Midi msg: note_off channel=0 note=79 velocity=0 time=0.0078125
        Midi msg: note_on channel=0 note=77 velocity=51 time=0.04427083333333333
        Midi msg: note_off channel=0 note=77 velocity=0 time=0.046875
        Midi msg: note_off channel=0 note=58 velocity=0 time=0
        Midi msg: note_on channel=0 note=79 velocity=73 time=0.015625
        Midi msg: note_on channel=0 note=77 velocity=52 time=0.06510416666666666
        Midi msg: note_off channel=0 note=79 velocity=0 time=0.05989583333333333
        Midi msg: note_on channel=0 note=76 velocity=63 time=0.06770833333333333
        Midi msg: note_off channel=0 note=77 velocity=0 time=0.010416666666666666
        Midi msg: note_on channel=0 note=77 velocity=59 time=0.10416666666666666
        Midi msg: note_off channel=0 note=76 velocity=0 time=0.0234375
        Midi msg: control_change channel=0 control=64 value=0 time=0.07291666666666666
        Midi msg: note_on channel=0 note=47 velocity=34 time=0.0078125
        Midi msg: note_off channel=0 note=77 velocity=0 time=0.1171875
        Midi msg: note_on channel=0 note=79 velocity=67 time=0.005208333333333333
        Midi msg: note_off channel=0 note=47 velocity=0 time=0.13541666666666666
        Midi msg: control_change channel=0 control=64 value=127 time=0.005208333333333333
        Midi msg: note_off channel=0 note=79 velocity=0 time=0.15885416666666666
        Midi msg: note_on channel=0 note=65 velocity=19 time=0.24479166666666666
        Midi msg: note_on channel=0 note=79 velocity=79 time=0.0026041666666666665
        Midi msg: note_on channel=0 note=55 velocity=20 time=0.013020833333333332
        Midi msg: note_off channel=0 note=55 velocity=0 time=0.1484375
        Midi msg: note_off channel=0 note=65 velocity=0 time=0.018229166666666664
        Midi msg: note_on channel=0 note=67 velocity=19 time=0.3880208333333333
        Midi msg: note_on channel=0 note=74 velocity=69 time=0
        Midi msg: note_on channel=0 note=65 velocity=24 time=0.010416666666666666
        Midi msg: note_on channel=0 note=62 velocity=16 time=0.010416666666666666
        Midi msg: note_off channel=0 note=65 velocity=0 time=0.078125
        Midi msg: note_off channel=0 note=67 velocity=0 time=0.0234375
        Midi msg: note_off channel=0 note=79 velocity=0 time=0.005208333333333333
        Midi msg: note_off channel=0 note=62 velocity=0 time=0.005208333333333333
        Midi msg: note_on channel=0 note=75 velocity=54 time=0.4114583333333333
        Midi msg: control_change channel=0 control=64 value=0 time=0.0026041666666666665
        Midi msg: note_on channel=0 note=48 velocity=31 time=0.005208333333333333
        Midi msg: note_off channel=0 note=74 velocity=0 time=0.04427083333333333
        Midi msg: control_change channel=0 control=64 value=127 time=0.19010416666666666
        Midi msg: note_off channel=0 note=48 velocity=0 time=0.0078125
        Midi msg: note_on channel=0 note=63 velocity=30 time=0.3359375
        Midi msg: note_on channel=0 note=55 velocity=25 time=0.0234375
        Midi msg: note_off channel=0 note=63 velocity=0 time=0.06770833333333333
        Midi msg: note_off channel=0 note=55 velocity=0 time=0.03125
        Midi msg: note_on channel=0 note=67 velocity=30 time=0.39322916666666663
        Midi msg: note_on channel=0 note=63 velocity=22 time=0.015625
        Midi msg: note_on channel=0 note=60 velocity=19 time=0.0078125
        Midi msg: note_off channel=0 note=67 velocity=0 time=0.10677083333333333
        Midi msg: note_off channel=0 note=63 velocity=0 time=0.0390625
        Midi msg: note_off channel=0 note=60 velocity=0 time=0.05208333333333333
        Midi msg: note_on channel=0 note=45 velocity=36 time=0.3333333333333333
        Midi msg: note_on channel=0 note=72 velocity=36 time=0.005208333333333333
        Midi msg: control_change channel=0 control=64 value=0 time=0.0859375
        Midi msg: note_off channel=0 note=75 velocity=0 time=0.04427083333333333
        Midi msg: control_change channel=0 control=64 value=127 time=0.1953125
        Midi msg: note_off channel=0 note=45 velocity=0 time=0.028645833333333332
        Midi msg: note_on channel=0 note=54 velocity=25 time=0.21875
        Midi msg: note_on channel=0 note=63 velocity=34 time=0
        Midi msg: note_off channel=0 note=63 velocity=0 time=0.17708333333333331
        Midi msg: note_off channel=0 note=54 velocity=0 time=0.005208333333333333
        Midi msg: note_on channel=0 note=66 velocity=20 time=0.4739583333333333
        Midi msg: note_on channel=0 note=60 velocity=16 time=0.015625
        Midi msg: note_on channel=0 note=63 velocity=5 time=0.0026041666666666665
        Midi msg: note_off channel=0 note=63 velocity=0 time=0.14322916666666666
        Midi msg: note_off channel=0 note=66 velocity=0 time=0.11979166666666666
        Midi msg: note_off channel=0 note=60 velocity=0 time=0.08333333333333333
        Midi msg: note_off channel=0 note=72 velocity=0 time=0.3880208333333333
        Midi msg: note_on channel=0 note=70 velocity=42 time=0.033854166666666664
        Midi msg: note_on channel=0 note=46 velocity=28 time=0.020833333333333332
        Midi msg: control_change channel=0 control=64 value=0 time=0.018229166666666664
        Midi msg: control_change channel=0 control=64 value=127 time=0.19010416666666666
        Midi msg: note_off channel=0 note=70 velocity=0 time=0.041666666666666664
        Midi msg: note_off channel=0 note=46 velocity=0 time=0.010416666666666666
        Midi msg: note_on channel=0 note=86 velocity=72 time=0.20052083333333331
        Midi msg: note_on channel=0 note=63 velocity=37 time=0.4921875
        Midi msg: note_on channel=0 note=53 velocity=42 time=0.0234375
        Midi msg: note_off channel=0 note=53 velocity=0 time=0.16666666666666666
        Midi msg: note_off channel=0 note=86 velocity=0 time=0.15625
        Midi msg: note_off channel=0 note=63 velocity=0 time=0.03125
        Midi msg: note_on channel=0 note=85 velocity=78 time=0
        Midi msg: note_off channel=0 note=85 velocity=0 time=0.22395833333333331
        Midi msg: note_on channel=0 note=68 velocity=31 time=0.11197916666666666
        Midi msg: note_on channel=0 note=84 velocity=78 time=0.0026041666666666665
        Midi msg: note_on channel=0 note=58 velocity=18 time=0.010416666666666666
        Midi msg: note_on channel=0 note=63 velocity=22 time=0.0026041666666666665
        Midi msg: note_off channel=0 note=68 velocity=0 time=0.08072916666666666
        Midi msg: note_off channel=0 note=63 velocity=0 time=0.005208333333333333
        Midi msg: note_off channel=0 note=58 velocity=0 time=0.08333333333333333
        Midi msg: note_off channel=0 note=84 velocity=0 time=0.020833333333333332
        Midi msg: note_on channel=0 note=83 velocity=99 time=0.09114583333333333
        Midi msg: note_off channel=0 note=83 velocity=0 time=0.1484375
        Midi msg: note_on channel=0 note=34 velocity=26 time=0.16666666666666666
        Midi msg: note_on channel=0 note=82 velocity=65 time=0.010416666666666666
        Midi msg: control_change channel=0 control=64 value=0 time=0.033854166666666664
        Midi msg: control_change channel=0 control=64 value=127 time=0.17708333333333331
        Midi msg: note_off channel=0 note=34 velocity=0 time=0.0026041666666666665
        Midi msg: note_off channel=0 note=82 velocity=0 time=0.05989583333333333
        Midi msg: note_on channel=0 note=81 velocity=20 time=0.20572916666666666
        Midi msg: note_off channel=0 note=81 velocity=0 time=0.14583333333333331
        Midi msg: note_on channel=0 note=80 velocity=27 time=0.22135416666666666
        Midi msg: note_on channel=0 note=62 velocity=9 time=0.03125
        Midi msg: note_on channel=0 note=53 velocity=30 time=0.0078125
        Midi msg: note_off channel=0 note=80 velocity=0 time=0.12760416666666666
        Midi msg: note_off channel=0 note=53 velocity=0 time=0.03125
        Midi msg: note_off channel=0 note=62 velocity=0 time=0.05208333333333333
        Midi msg: note_on channel=0 note=69 velocity=38 time=0.041666666666666664
        Midi msg: note_off channel=0 note=69 velocity=0 time=0.0859375
        Midi msg: note_on channel=0 note=70 velocity=39 time=0.09895833333333333
        Midi msg: note_off channel=0 note=70 velocity=0 time=0.08072916666666666
        Midi msg: note_on channel=0 note=71 velocity=55 time=0.046875
        Midi msg: note_on channel=0 note=58 velocity=15 time=0.0234375
        Midi msg: note_off channel=0 note=71 velocity=0 time=0.0546875
        Midi msg: note_on channel=0 note=62 velocity=19 time=0.03645833333333333
        Midi msg: note_on channel=0 note=72 velocity=45 time=0.020833333333333332
        Midi msg: note_on channel=0 note=68 velocity=20 time=0.11458333333333333
        Midi msg: note_off channel=0 note=72 velocity=0 time=0.0078125
        Midi msg: note_on channel=0 note=73 velocity=48 time=0
        Midi msg: note_off channel=0 note=73 velocity=0 time=0.125
        Midi msg: note_on channel=0 note=74 velocity=55 time=0.026041666666666664
        Midi msg: control_change channel=0 control=64 value=0 time=0.09375
        Midi msg: note_off channel=0 note=74 velocity=0 time=0.06770833333333333
        Midi msg: note_on channel=0 note=79 velocity=53 time=0.03645833333333333
        Midi msg: control_change channel=0 control=64 value=127 time=0.041666666666666664
        Midi msg: note_off channel=0 note=62 velocity=0 time=0.05989583333333333
        Midi msg: note_off channel=0 note=68 velocity=0 time=0.005208333333333333
        Midi msg: note_off channel=0 note=79 velocity=0 time=0.13020833333333331
        Midi msg: note_off channel=0 note=58 velocity=0 time=0.0026041666666666665
        Midi msg: note_on channel=0 note=77 velocity=42 time=0.028645833333333332
        Midi msg: note_off channel=0 note=77 velocity=0 time=0.07291666666666666
        Midi msg: note_on channel=0 note=75 velocity=39 time=0.15625
        Midi msg: note_off channel=0 note=75 velocity=0 time=0.17708333333333331
        Midi msg: note_on channel=0 note=75 velocity=31 time=0.10677083333333333
        Midi msg: control_change channel=0 control=64 value=0 time=0.028645833333333332
        Midi msg: note_on channel=0 note=39 velocity=23 time=0.015625
        Midi msg: note_off channel=0 note=39 velocity=0 time=0.20833333333333331
        Midi msg: control_change channel=0 control=64 value=127 time=0
        Midi msg: note_on channel=0 note=63 velocity=16 time=0.46875
        Midi msg: note_on channel=0 note=55 velocity=19 time=0.0234375
        Midi msg: note_off channel=0 note=55 velocity=0 time=0.0859375
        Midi msg: note_off channel=0 note=63 velocity=0 time=0.05208333333333333
        Midi msg: note_on channel=0 note=67 velocity=13 time=0.359375
        Midi msg: note_on channel=0 note=58 velocity=12 time=0.005208333333333333
        Midi msg: note_on channel=0 note=63 velocity=14 time=0.041666666666666664
        Midi msg: note_off channel=0 note=63 velocity=0 time=0.08333333333333333
        Midi msg: note_off channel=0 note=67 velocity=0 time=0.0078125
        Midi msg: note_off channel=0 note=58 velocity=0 time=0.0546875
        Midi msg: note_on channel=0 note=51 velocity=29 time=0.3333333333333333
        Midi msg: note_off channel=0 note=51 velocity=0 time=0.11458333333333333
        Midi msg: note_on channel=0 note=63 velocity=33 time=0.40625
        Midi msg: note_on channel=0 note=55 velocity=21 time=0.005208333333333333
        Midi msg: note_off channel=0 note=63 velocity=0 time=0.21875
        Midi msg: note_off channel=0 note=55 velocity=0 time=0.026041666666666664
        Midi msg: note_on channel=0 note=58 velocity=17 time=0.3333333333333333
        Midi msg: note_on channel=0 note=63 velocity=11 time=0
        Midi msg: note_on channel=0 note=67 velocity=24 time=0.0026041666666666665
        Midi msg: note_off channel=0 note=63 velocity=0 time=0.09375
        Midi msg: note_off channel=0 note=67 velocity=0 time=0.0026041666666666665
        Midi msg: note_off channel=0 note=58 velocity=0 time=0.18489583333333331
        Midi msg: note_off channel=0 note=75 velocity=0 time=0.057291666666666664
        Midi msg: note_on channel=0 note=75 velocity=44 time=0.5338541666666666
        Midi msg: control_change channel=0 control=64 value=0 time=0.010416666666666666
        Midi msg: note_on channel=0 note=39 velocity=20 time=0.010416666666666666
        Midi msg: control_change channel=0 control=64 value=127 time=0.19791666666666666
        Midi msg: note_off channel=0 note=39 velocity=0 time=0.020833333333333332
        Midi msg: note_on channel=0 note=56 velocity=19 time=0.4583333333333333
        Midi msg: note_on channel=0 note=63 velocity=27 time=0.010416666666666666
        Midi msg: note_on channel=0 note=59 velocity=6 time=0.010416666666666666
        Midi msg: note_off channel=0 note=59 velocity=0 time=0.078125
        Midi msg: note_off channel=0 note=63 velocity=0 time=0.010416666666666666
        Midi msg: note_off channel=0 note=56 velocity=0 time=0.018229166666666664
        Midi msg: note_on channel=0 note=68 velocity=23 time=0.5
        Midi msg: note_on channel=0 note=63 velocity=15 time=0.026041666666666664
        Midi msg: note_on channel=0 note=59 velocity=11 time=0.010416666666666666
        Midi msg: note_off channel=0 note=63 velocity=0 time=0.078125
        Midi msg: note_off channel=0 note=59 velocity=0 time=0.018229166666666664
        Midi msg: note_off channel=0 note=68 velocity=0 time=0.0234375
        Midi msg: note_on channel=0 note=77 velocity=63 time=0.3489583333333333
        Midi msg: note_on channel=0 note=51 velocity=27 time=0.0234375
        Midi msg: note_off channel=0 note=75 velocity=0 time=0.09375
        Midi msg: note_off channel=0 note=51 velocity=0 time=0.026041666666666664
        Midi msg: note_on channel=0 note=75 velocity=57 time=0.4270833333333333
        Midi msg: note_on channel=0 note=63 velocity=28 time=0.018229166666666664
        Midi msg: note_on channel=0 note=56 velocity=19 time=0.018229166666666664
        Midi msg: note_off channel=0 note=77 velocity=0 time=0.09114583333333333
        Midi msg: note_off channel=0 note=56 velocity=0 time=0.020833333333333332
        Midi msg: note_off channel=0 note=63 velocity=0 time=0.049479166666666664
        Midi msg: note_on channel=0 note=77 velocity=58 time=0.36197916666666663
        Midi msg: note_on channel=0 note=68 velocity=15 time=0.03125
        Midi msg: note_on channel=0 note=59 velocity=25 time=0.0078125
        Midi msg: note_off channel=0 note=75 velocity=0 time=0.0703125
        Midi msg: note_off channel=0 note=68 velocity=0 time=0.010416666666666666
        Midi msg: note_off channel=0 note=59 velocity=0 time=0.0859375
        Midi msg: note_on channel=0 note=39 velocity=29 time=0.47916666666666663
        Midi msg: note_on channel=0 note=79 velocity=52 time=0.010416666666666666
        Midi msg: control_change channel=0 control=64 value=0 time=0
        Midi msg: note_off channel=0 note=77 velocity=0 time=0.005208333333333333
        Midi msg: note_off channel=0 note=39 velocity=0 time=0.2109375
        Midi msg: control_change channel=0 control=64 value=127 time=0.013020833333333332
        Midi msg: note_on channel=0 note=63 velocity=25 time=0.38541666666666663
        Midi msg: note_on channel=0 note=55 velocity=30 time=0.018229166666666664
        Midi msg: note_off channel=0 note=55 velocity=0 time=0.109375
        Midi msg: note_off channel=0 note=63 velocity=0 time=0.0859375
        Midi msg: note_on channel=0 note=58 velocity=20 time=0.3046875
        Midi msg: note_on channel=0 note=67 velocity=20 time=0.0026041666666666665
        Midi msg: note_on channel=0 note=63 velocity=19 time=0.0234375
        Midi msg: note_off channel=0 note=63 velocity=0 time=0.1015625
        Midi msg: note_off channel=0 note=67 velocity=0 time=0.020833333333333332
        Midi msg: note_off channel=0 note=58 velocity=0 time=0.14583333333333331
        Midi msg: note_on channel=0 note=51 velocity=30 time=0.25
        Midi msg: note_off channel=0 note=51 velocity=0 time=0.1328125
        Midi msg: note_on channel=0 note=63 velocity=18 time=0.390625
        Midi msg: note_on channel=0 note=55 velocity=13 time=0.020833333333333332
        Midi msg: note_off channel=0 note=55 velocity=0 time=0.12239583333333333
        Midi msg: note_off channel=0 note=63 velocity=0 time=0.0625
        Midi msg: note_on channel=0 note=58 velocity=11 time=0.359375
        Midi msg: note_on channel=0 note=67 velocity=14 time=0.005208333333333333
        Midi msg: note_on channel=0 note=63 velocity=16 time=0.0026041666666666665
        Midi msg: note_off channel=0 note=63 velocity=0 time=0.10416666666666666
        Midi msg: note_off channel=0 note=67 velocity=0 time=0.046875
        Midi msg: note_off channel=0 note=58 velocity=0 time=0.125
        Midi msg: note_off channel=0 note=79 velocity=0 time=0.31510416666666663
        Midi msg: note_on channel=0 note=75 velocity=36 time=0.21875
        Midi msg: control_change channel=0 control=64 value=0 time=0.020833333333333332
        Midi msg: note_on channel=0 note=39 velocity=19 time=0.010416666666666666
        Midi msg: note_off channel=0 note=39 velocity=0 time=0.19791666666666666
        Midi msg: control_change channel=0 control=64 value=127 time=0
        Midi msg: note_on channel=0 note=63 velocity=22 time=0.43229166666666663
        Midi msg: note_on channel=0 note=56 velocity=17 time=0.015625
        Midi msg: note_on channel=0 note=59 velocity=2 time=0.010416666666666666
        Midi msg: note_off channel=0 note=59 velocity=0 time=0.06510416666666666
        Midi msg: note_off channel=0 note=56 velocity=0 time=0.05989583333333333
        Midi msg: note_off channel=0 note=63 velocity=0 time=0.010416666666666666
        Midi msg: note_on channel=0 note=68 velocity=24 time=0.37760416666666663
        Midi msg: note_on channel=0 note=63 velocity=16 time=0.0234375
        Midi msg: note_on channel=0 note=59 velocity=20 time=0.0078125
        Midi msg: note_off channel=0 note=63 velocity=0 time=0.109375
        Midi msg: note_off channel=0 note=59 velocity=0 time=0.0390625
        Midi msg: note_off channel=0 note=68 velocity=0 time=0.010416666666666666
        Midi msg: note_on channel=0 note=51 velocity=23 time=0.390625
        Midi msg: note_off channel=0 note=51 velocity=0 time=0.08854166666666666
        Midi msg: note_on channel=0 note=77 velocity=41 time=0.26041666666666663
        Midi msg: note_off channel=0 note=75 velocity=0 time=0.05208333333333333
        Midi msg: note_on channel=0 note=63 velocity=20 time=0.265625
        Midi msg: note_on channel=0 note=56 velocity=15 time=0.033854166666666664
        Midi msg: note_on channel=0 note=59 velocity=8 time=0.010416666666666666
        Midi msg: note_on channel=0 note=75 velocity=46 time=0.0390625
        Midi msg: note_off channel=0 note=77 velocity=0 time=0.0078125
        Midi msg: note_off channel=0 note=56 velocity=0 time=0.03645833333333333
        Midi msg: note_off channel=0 note=59 velocity=0 time=0.010416666666666666
        Midi msg: note_off channel=0 note=63 velocity=0 time=0.049479166666666664
        Midi msg: note_on channel=0 note=77 velocity=48 time=0.1875
        Midi msg: note_off channel=0 note=75 velocity=0 time=0.0234375
        Midi msg: note_on channel=0 note=68 velocity=21 time=0.15625
        Midi msg: note_on channel=0 note=59 velocity=13 time=0.015625
        Midi msg: note_on channel=0 note=63 velocity=12 time=0
        Midi msg: note_off channel=0 note=77 velocity=0 time=0.026041666666666664
        Midi msg: note_on channel=0 note=75 velocity=38 time=0.03645833333333333
        Midi msg: note_off channel=0 note=68 velocity=0 time=0.0026041666666666665
        Midi msg: note_off channel=0 note=63 velocity=0 time=0.020833333333333332
        Midi msg: note_off channel=0 note=59 velocity=0 time=0.0026041666666666665
        Midi msg: note_off channel=0 note=75 velocity=0 time=0.26822916666666663
        Midi msg: note_on channel=0 note=77 velocity=34 time=0.028645833333333332
        Midi msg: note_off channel=0 note=77 velocity=0 time=0.09635416666666666
        Midi msg: note_on channel=0 note=39 velocity=19 time=0.3125
        Midi msg: control_change channel=0 control=64 value=0 time=0
        Midi msg: note_on channel=0 note=79 velocity=41 time=0.0026041666666666665
        Midi msg: note_off channel=0 note=39 velocity=0 time=0.23958333333333331
        Midi msg: control_change channel=0 control=64 value=127 time=0
        Midi msg: note_on channel=0 note=63 velocity=32 time=0.4505208333333333
        Midi msg: note_on channel=0 note=55 velocity=11 time=0.020833333333333332
        Midi msg: note_off channel=0 note=55 velocity=0 time=0.1171875
        Midi msg: note_off channel=0 note=63 velocity=0 time=0.0703125
        Midi msg: note_on channel=0 note=75 velocity=54 time=0.26041666666666663
        Midi msg: note_on channel=0 note=58 velocity=23 time=0.05989583333333333
        Midi msg: note_on channel=0 note=67 velocity=27 time=0.0078125
        Midi msg: note_on channel=0 note=63 velocity=15 time=0.020833333333333332
        Midi msg: note_off channel=0 note=79 velocity=0 time=0.0078125
        Midi msg: note_on channel=0 note=77 velocity=66 time=0.07552083333333333
        Midi msg: note_off channel=0 note=75 velocity=0 time=0.0026041666666666665
        Midi msg: note_off channel=0 note=63 velocity=0 time=0.018229166666666664
        Midi msg: note_off channel=0 note=67 velocity=0 time=0
        Midi msg: note_on channel=0 note=75 velocity=60 time=0.06770833333333333
        Midi msg: note_off channel=0 note=58 velocity=0 time=0.026041666666666664
        Midi msg: note_off channel=0 note=77 velocity=0 time=0.005208333333333333
        Midi msg: note_off channel=0 note=75 velocity=0 time=0.09895833333333333
        Midi msg: note_on channel=0 note=74 velocity=74 time=0
        Midi msg: note_off channel=0 note=74 velocity=0 time=0.04427083333333333
        Midi msg: note_on channel=0 note=75 velocity=65 time=0.04427083333333333
        Midi msg: note_on channel=0 note=51 velocity=34 time=0.15364583333333331
        Midi msg: note_on channel=0 note=87 velocity=83 time=0.018229166666666664
        Midi msg: control_change channel=0 control=64 value=0 time=0.03125
        Midi msg: note_off channel=0 note=75 velocity=0 time=0.005208333333333333
        Midi msg: control_change channel=0 control=64 value=127 time=0.18489583333333331
        Midi msg: note_off channel=0 note=51 velocity=0 time=0.0859375
        Midi msg: note_off channel=0 note=87 velocity=0 time=0.28385416666666663
        Midi msg: note_on channel=0 note=86 velocity=79 time=0.0026041666666666665
        Midi msg: note_on channel=0 note=63 velocity=36 time=0.013020833333333332
        Midi msg: note_on channel=0 note=55 velocity=20 time=0.015625
        Midi msg: note_off channel=0 note=63 velocity=0 time=0.1640625
        Midi msg: note_off channel=0 note=55 velocity=0 time=0.005208333333333333
        Midi msg: note_on channel=0 note=84 velocity=94 time=0.3359375
        Midi msg: note_on channel=0 note=58 velocity=27 time=0.018229166666666664
        Midi msg: note_on channel=0 note=67 velocity=34 time=0.005208333333333333
        Midi msg: note_on channel=0 note=63 velocity=27 time=0.015625
        Midi msg: note_off channel=0 note=67 velocity=0 time=0.14583333333333331
        Midi msg: note_off channel=0 note=86 velocity=0 time=0.06510416666666666
        Midi msg: note_off channel=0 note=63 velocity=0 time=0.005208333333333333
        Midi msg: note_off channel=0 note=58 velocity=0 time=0.03645833333333333
        Midi msg: note_on channel=0 note=82 velocity=69 time=0.2265625
        Midi msg: note_on channel=0 note=51 velocity=26 time=0.0703125
        Midi msg: note_off channel=0 note=84 velocity=0 time=0.11979166666666666
        Midi msg: control_change channel=0 control=64 value=0 time=0.018229166666666664
        Midi msg: control_change channel=0 control=64 value=127 time=0.20833333333333331
        Midi msg: note_off channel=0 note=51 velocity=0 time=0.12239583333333333
        Midi msg: note_on channel=0 note=62 velocity=31 time=0.13541666666666666
        Midi msg: note_on channel=0 note=53 velocity=29 time=0.010416666666666666
        Midi msg: note_off channel=0 note=53 velocity=0 time=0.09114583333333333
        Midi msg: note_off channel=0 note=62 velocity=0 time=0.046875
        Midi msg: note_on channel=0 note=81 velocity=75 time=0.3802083333333333
        Midi msg: note_on channel=0 note=68 velocity=28 time=0.03645833333333333
        Midi msg: note_on channel=0 note=58 velocity=24 time=0
        Midi msg: note_off channel=0 note=82 velocity=0 time=0.049479166666666664
        Midi msg: note_off channel=0 note=68 velocity=0 time=0.09895833333333333
        Midi msg: note_off channel=0 note=58 velocity=0 time=0.10677083333333333
        Midi msg: note_on channel=0 note=80 velocity=75 time=0.234375
        Midi msg: note_on channel=0 note=51 velocity=26 time=0.018229166666666664
        Midi msg: note_off channel=0 note=81 velocity=0 time=0.057291666666666664
        Midi msg: control_change channel=0 control=64 value=0 time=0.21354166666666666
        Midi msg: control_change channel=0 control=64 value=127 time=0.14322916666666666
        Midi msg: note_on channel=0 note=72 velocity=66 time=0.046875
        Midi msg: note_on channel=0 note=53 velocity=51 time=0.0234375
        Midi msg: note_off channel=0 note=51 velocity=0 time=0.0026041666666666665
        Midi msg: note_on channel=0 note=62 velocity=22 time=0.010416666666666666
        Midi msg: note_off channel=0 note=53 velocity=0 time=0.08854166666666666
        Midi msg: note_off channel=0 note=62 velocity=0 time=0.018229166666666664
        Midi msg: note_off channel=0 note=80 velocity=0 time=0.06510416666666666
        Midi msg: note_on channel=0 note=74 velocity=81 time=0.30729166666666663
        Midi msg: note_on channel=0 note=68 velocity=28 time=0.013020833333333332
        Midi msg: note_on channel=0 note=58 velocity=29 time=0.015625
        Midi msg: note_off channel=0 note=72 velocity=0 time=0.04427083333333333
        Midi msg: note_off channel=0 note=68 velocity=0 time=0.07552083333333333
        Midi msg: note_off channel=0 note=58 velocity=0 time=0.10677083333333333
        Midi msg: note_on channel=0 note=51 velocity=35 time=0.21875
        Midi msg: note_on channel=0 note=75 velocity=70 time=0.0078125
        Midi msg: control_change channel=0 control=64 value=0 time=0.04427083333333333
        Midi msg: note_off channel=0 note=74 velocity=0 time=0.015625
        Midi msg: control_change channel=0 control=64 value=127 time=0.20833333333333331
        Midi msg: note_off channel=0 note=51 velocity=0 time=0.005208333333333333
        Midi msg: note_on channel=0 note=77 velocity=71 time=0.3333333333333333
        Midi msg: note_on channel=0 note=63 velocity=32 time=0.010416666666666666
        Midi msg: note_off channel=0 note=75 velocity=0 time=0.010416666666666666
        Midi msg: note_on channel=0 note=55 velocity=27 time=0.015625
        Midi msg: note_off channel=0 note=63 velocity=0 time=0.1796875
        Midi msg: note_off channel=0 note=77 velocity=0 time=0.0078125
        Midi msg: note_on channel=0 note=75 velocity=62 time=0.04427083333333333
        Midi msg: note_off channel=0 note=75 velocity=0 time=0.046875
        Midi msg: note_on channel=0 note=77 velocity=63 time=0.005208333333333333
        Midi msg: note_on channel=0 note=75 velocity=52 time=0.0703125
        Midi msg: note_off channel=0 note=77 velocity=0 time=0.07552083333333333
        Midi msg: note_on channel=0 note=58 velocity=26 time=0.013020833333333332
        Midi msg: note_on channel=0 note=63 velocity=32 time=0.026041666666666664
        Midi msg: note_on channel=0 note=67 velocity=29 time=0.010416666666666666
        Midi msg: note_on channel=0 note=74 velocity=80 time=0.06770833333333333
        Midi msg: note_off channel=0 note=75 velocity=0 time=0.018229166666666664
        Midi msg: note_off channel=0 note=67 velocity=0 time=0.013020833333333332
        Midi msg: note_off channel=0 note=63 velocity=0 time=0.05208333333333333
        Midi msg: note_off channel=0 note=58 velocity=0 time=0.028645833333333332
        Midi msg: note_off channel=0 note=55 velocity=0 time=0.0026041666666666665
        Midi msg: note_off channel=0 note=74 velocity=0 time=0.07552083333333333
        Midi msg: note_on channel=0 note=75 velocity=69 time=0.0703125
        Midi msg: note_off channel=0 note=75 velocity=0 time=0.041666666666666664
        Midi msg: note_on channel=0 note=75 velocity=50 time=0.0859375
        Midi msg: note_on channel=0 note=45 velocity=39 time=0.08072916666666666
        Midi msg: control_change channel=0 control=64 value=0 time=0.018229166666666664
        Midi msg: control_change channel=0 control=64 value=127 time=0.19010416666666666
        Midi msg: note_off channel=0 note=75 velocity=0 time=0.015625
        Midi msg: note_on channel=0 note=91 velocity=72 time=0.140625
        Midi msg: note_off channel=0 note=45 velocity=0 time=0.20572916666666666
        Midi msg: note_on channel=0 note=63 velocity=36 time=0.4505208333333333
        Midi msg: note_on channel=0 note=53 velocity=34 time=0.03125
        Midi msg: note_on channel=0 note=89 velocity=73 time=0.09635416666666666
        Midi msg: note_off channel=0 note=91 velocity=0 time=0.06510416666666666
        Midi msg: note_off channel=0 note=53 velocity=0 time=0.1015625
        Midi msg: note_off channel=0 note=63 velocity=0 time=0.049479166666666664
        Midi msg: note_off channel=0 note=89 velocity=0 time=0.005208333333333333
        Midi msg: note_on channel=0 note=87 velocity=85 time=0.15364583333333331
        Midi msg: note_off channel=0 note=87 velocity=0 time=0.16666666666666666
        Midi msg: note_on channel=0 note=65 velocity=33 time=0.09635416666666666
        Midi msg: note_on channel=0 note=86 velocity=89 time=0.005208333333333333
        Midi msg: note_on channel=0 note=63 velocity=23 time=0.005208333333333333
        Midi msg: note_on channel=0 note=60 velocity=20 time=0.010416666666666666
        Midi msg: note_off channel=0 note=65 velocity=0 time=0.171875
        Midi msg: note_off channel=0 note=63 velocity=0 time=0.03125
        Midi msg: note_off channel=0 note=86 velocity=0 time=0
        Midi msg: note_off channel=0 note=60 velocity=0 time=0.018229166666666664
        Midi msg: note_on channel=0 note=84 velocity=89 time=0.033854166666666664
        Midi msg: note_off channel=0 note=84 velocity=0 time=0.16145833333333331
        Midi msg: note_on channel=0 note=83 velocity=99 time=0.11979166666666666
        Midi msg: note_on channel=0 note=46 velocity=24 time=0.010416666666666666
        Midi msg: control_change channel=0 control=64 value=0 time=0.049479166666666664
        Midi msg: control_change channel=0 control=64 value=127 time=0.22135416666666666
        Midi msg: note_off channel=0 note=46 velocity=0 time=0.0390625
        Midi msg: note_on channel=0 note=82 velocity=73 time=0.3177083333333333
        Midi msg: note_on channel=0 note=63 velocity=36 time=0.015625
        Midi msg: note_on channel=0 note=53 velocity=34 time=0.041666666666666664
        Midi msg: note_off channel=0 note=83 velocity=0 time=0.033854166666666664
        Midi msg: note_off channel=0 note=53 velocity=0 time=0.07291666666666666
        Midi msg: note_off channel=0 note=63 velocity=0 time=0.057291666666666664
        Midi msg: note_on channel=0 note=68 velocity=22 time=0.3489583333333333
        Midi msg: note_on channel=0 note=81 velocity=70 time=0.028645833333333332
        Midi msg: note_on channel=0 note=58 velocity=21 time=0.0026041666666666665
        Midi msg: note_on channel=0 note=63 velocity=24 time=0.005208333333333333
        Midi msg: note_off channel=0 note=68 velocity=0 time=0.06770833333333333
        Midi msg: note_off channel=0 note=82 velocity=0 time=0.0026041666666666665
        Midi msg: note_off channel=0 note=63 velocity=0 time=0.013020833333333332
        Midi msg: note_off channel=0 note=58 velocity=0 time=0.08333333333333333
        Midi msg: note_off channel=0 note=81 velocity=0 time=0.19270833333333331
        Midi msg: note_on channel=0 note=81 velocity=66 time=0.16145833333333331
        Midi msg: note_on channel=0 note=34 velocity=27 time=0.005208333333333333
        Midi msg: control_change channel=0 control=64 value=0 time=0.015625
        Midi msg: note_off channel=0 note=34 velocity=0 time=0.20572916666666666
        Midi msg: control_change channel=0 control=64 value=127 time=0.015625
        Midi msg: note_on channel=0 note=80 velocity=59 time=0.22135416666666666
        Midi msg: note_off channel=0 note=81 velocity=0 time=0.03125
        Midi msg: note_off channel=0 note=80 velocity=0 time=0.125
        Midi msg: note_on channel=0 note=80 velocity=50 time=0.14583333333333331
        Midi msg: note_on channel=0 note=62 velocity=19 time=0.046875
        Midi msg: note_on channel=0 note=53 velocity=22 time=0.015625
        Midi msg: note_off channel=0 note=53 velocity=0 time=0.13020833333333331
        Midi msg: note_off channel=0 note=62 velocity=0 time=0.013020833333333332
        Midi msg: note_off channel=0 note=80 velocity=0 time=0.10416666666666666
        Midi msg: note_on channel=0 note=79 velocity=51 time=0.020833333333333332
        Midi msg: note_off channel=0 note=79 velocity=0 time=0.2109375
        Midi msg: note_on channel=0 note=79 velocity=45 time=0.21875
        Midi msg: note_on channel=0 note=68 velocity=14 time=0.0078125
        Midi msg: note_on channel=0 note=58 velocity=4 time=0.041666666666666664
        Midi msg: note_on channel=0 note=62 velocity=8 time=0.013020833333333332
        Midi msg: note_off channel=0 note=62 velocity=0 time=0.21875
        Midi msg: note_off channel=0 note=68 velocity=0 time=0.11458333333333333
        Midi msg: note_off channel=0 note=58 velocity=0 time=0.18489583333333331
        Midi msg: note_off channel=0 note=79 velocity=0 time=0.25260416666666663
        Midi msg: note_on channel=0 note=77 velocity=30 time=0.005208333333333333
        Midi msg: note_off channel=0 note=77 velocity=0 time=0.234375
        Midi msg: note_on channel=0 note=75 velocity=37 time=0.10677083333333333
        Midi msg: control_change channel=0 control=64 value=0 time=0.0026041666666666665
        Midi msg: note_on channel=0 note=39 velocity=21 time=0.0078125
        Midi msg: note_off channel=0 note=39 velocity=0 time=0.21875
        Midi msg: control_change channel=0 control=64 value=127 time=0
        Midi msg: note_on channel=0 note=63 velocity=18 time=0.48697916666666663
        Midi msg: note_on channel=0 note=55 velocity=7 time=0.033854166666666664
        Midi msg: note_off channel=0 note=63 velocity=0 time=0.09895833333333333
        Midi msg: note_off channel=0 note=55 velocity=0 time=0.013020833333333332
        Midi msg: note_on channel=0 note=67 velocity=13 time=0.421875
        Midi msg: note_on channel=0 note=58 velocity=9 time=0.0026041666666666665
        Midi msg: note_on channel=0 note=63 velocity=12 time=0.0078125
        Midi msg: note_off channel=0 note=63 velocity=0 time=0.109375
        Midi msg: note_off channel=0 note=67 velocity=0 time=0.041666666666666664
        Midi msg: note_off channel=0 note=58 velocity=0 time=0.08333333333333333
        Midi msg: note_on channel=0 note=51 velocity=24 time=0.26041666666666663
        Midi msg: note_off channel=0 note=51 velocity=0 time=0.14583333333333331
        Midi msg: note_on channel=0 note=63 velocity=29 time=0.3958333333333333
        Midi msg: note_on channel=0 note=55 velocity=23 time=0.015625
        Midi msg: note_off channel=0 note=55 velocity=0 time=0.11979166666666666
        Midi msg: note_off channel=0 note=63 velocity=0 time=0.049479166666666664
        Midi msg: note_on channel=0 note=58 velocity=17 time=0.3671875
        Midi msg: note_on channel=0 note=67 velocity=26 time=0
        Midi msg: note_on channel=0 note=63 velocity=19 time=0.005208333333333333
        Midi msg: note_off channel=0 note=63 velocity=0 time=0.07552083333333333
        Midi msg: note_off channel=0 note=67 velocity=0 time=0.015625
        Midi msg: note_off channel=0 note=75 velocity=0 time=0.10416666666666666
        Midi msg: note_off channel=0 note=58 velocity=0 time=0.020833333333333332
        Midi msg: note_on channel=0 note=32 velocity=27 time=0.59375
        Midi msg: control_change channel=0 control=64 value=0 time=0.0026041666666666665
        Midi msg: note_on channel=0 note=75 velocity=44 time=0.0234375
        Midi msg: note_off channel=0 note=32 velocity=0 time=0.21614583333333331
        Midi msg: control_change channel=0 control=64 value=127 time=0.0026041666666666665
        Midi msg: note_on channel=0 note=51 velocity=20 time=0.5234375
        Midi msg: note_on channel=0 note=59 velocity=24 time=0.015625
        Midi msg: note_on channel=0 note=56 velocity=4 time=0.005208333333333333
        Midi msg: note_off channel=0 note=56 velocity=0 time=0.1015625
        Midi msg: note_off channel=0 note=59 velocity=0 time=0.013020833333333332
        Midi msg: note_off channel=0 note=51 velocity=0 time=0.0703125
        Midi msg: note_on channel=0 note=63 velocity=33 time=0.32291666666666663
        Midi msg: note_on channel=0 note=56 velocity=33 time=0.013020833333333332
        Midi msg: note_off channel=0 note=56 velocity=0 time=0.10677083333333333
        Midi msg: note_off channel=0 note=63 velocity=0 time=0
        Midi msg: note_on channel=0 note=68 velocity=23 time=0.41666666666666663
        Midi msg: note_on channel=0 note=59 velocity=27 time=0.0234375
        Midi msg: note_off channel=0 note=68 velocity=0 time=0.07552083333333333
        Midi msg: note_off channel=0 note=59 velocity=0 time=0.17447916666666666
        Midi msg: note_on channel=0 note=77 velocity=56 time=0.109375
        Midi msg: note_off channel=0 note=75 velocity=0 time=0.04427083333333333
        Midi msg: note_on channel=0 note=75 velocity=52 time=0.23697916666666666
        Midi msg: note_on channel=0 note=63 velocity=35 time=0.010416666666666666
        Midi msg: note_on channel=0 note=56 velocity=23 time=0.010416666666666666
        Midi msg: note_on channel=0 note=59 velocity=17 time=0.010416666666666666
        Midi msg: note_off channel=0 note=77 velocity=0 time=0.005208333333333333
        Midi msg: note_off channel=0 note=59 velocity=0 time=0.078125
        Midi msg: note_off channel=0 note=63 velocity=0 time=0.08072916666666666
        Midi msg: note_off channel=0 note=56 velocity=0 time=0.03645833333333333
        Midi msg: note_on channel=0 note=77 velocity=63 time=0.0026041666666666665
        Midi msg: note_off channel=0 note=75 velocity=0 time=0.0078125
        Midi msg: note_off channel=0 note=77 velocity=0 time=0.15625
        Midi msg: note_on channel=0 note=75 velocity=61 time=0.005208333333333333
        Midi msg: note_on channel=0 note=51 velocity=33 time=0.16145833333333331
        Midi msg: note_on channel=0 note=56 velocity=23 time=0.0078125
        Midi msg: note_on channel=0 note=59 velocity=20 time=0.013020833333333332
        Midi msg: note_off channel=0 note=75 velocity=0 time=0.057291666666666664
        Midi msg: note_on channel=0 note=77 velocity=55 time=0.013020833333333332
        Midi msg: note_off channel=0 note=59 velocity=0 time=0.018229166666666664
        Midi msg: note_off channel=0 note=56 velocity=0 time=0.1171875
        Midi msg: note_off channel=0 note=77 velocity=0 time=0.03125
        Midi msg: note_off channel=0 note=51 velocity=0 time=0.0078125
        Midi msg: note_on channel=0 note=75 velocity=50 time=0.013020833333333332
        Midi msg: note_off channel=0 note=75 velocity=0 time=0.2109375
        Midi msg: note_on channel=0 note=77 velocity=51 time=0.010416666666666666
        Midi msg: note_on channel=0 note=39 velocity=24 time=0.22395833333333331
        Midi msg: note_off channel=0 note=77 velocity=0 time=0.04427083333333333
        Midi msg: control_change channel=0 control=64 value=0 time=0.03125
        Midi msg: note_on channel=0 note=79 velocity=66 time=0.020833333333333332
        Midi msg: note_off channel=0 note=39 velocity=0 time=0.19791666666666666
        Midi msg: control_change channel=0 control=64 value=127 time=0.005208333333333333
        Midi msg: note_on channel=0 note=63 velocity=21 time=0.4114583333333333
        Midi msg: note_on channel=0 note=55 velocity=17 time=0.013020833333333332
        Midi msg: note_off channel=0 note=55 velocity=0 time=0.08854166666666666
        Midi msg: note_off channel=0 note=63 velocity=0 time=0.05989583333333333
        Midi msg: note_on channel=0 note=58 velocity=15 time=0.3984375
        Midi msg: note_on channel=0 note=67 velocity=18 time=0.0026041666666666665
        Midi msg: note_on channel=0 note=63 velocity=13 time=0.010416666666666666
        Midi msg: note_off channel=0 note=67 velocity=0 time=0.09635416666666666
        Midi msg: note_off channel=0 note=63 velocity=0 time=0.0026041666666666665
        Midi msg: note_off channel=0 note=58 velocity=0 time=0.078125
        Midi msg: note_on channel=0 note=51 velocity=4 time=0.3802083333333333
        Midi msg: note_off channel=0 note=51 velocity=0 time=0.10416666666666666
        Midi msg: note_on channel=0 note=63 velocity=29 time=0.375
        Midi msg: note_on channel=0 note=55 velocity=17 time=0.0234375
        Midi msg: note_off channel=0 note=55 velocity=0 time=0.08854166666666666
        Midi msg: note_off channel=0 note=63 velocity=0 time=0.08072916666666666
        Midi msg: note_off channel=0 note=79 velocity=0 time=0.3177083333333333
        Midi msg: note_on channel=0 note=58 velocity=22 time=0.020833333333333332
        Midi msg: note_on channel=0 note=67 velocity=35 time=0
        Midi msg: note_on channel=0 note=63 velocity=20 time=0.015625
        Midi msg: note_off channel=0 note=63 velocity=0 time=0.09375
        Midi msg: note_off channel=0 note=67 velocity=0 time=0.020833333333333332
        Midi msg: note_off channel=0 note=58 velocity=0 time=0.08072916666666666
        Midi msg: note_on channel=0 note=75 velocity=58 time=0.4348958333333333
        Midi msg: note_on channel=0 note=32 velocity=48 time=0.0078125
        Midi msg: control_change channel=0 control=64 value=0 time=0.12239583333333333
        Midi msg: note_off channel=0 note=32 velocity=0 time=0.1484375
        Midi msg: control_change channel=0 control=64 value=127 time=0.03125
        Midi msg: note_on channel=0 note=68 velocity=56 time=0.40104166666666663
        Midi msg: note_off channel=0 note=75 velocity=0 time=0.005208333333333333
        Midi msg: note_on channel=0 note=51 velocity=28 time=0.033854166666666664
        Midi msg: note_on channel=0 note=59 velocity=31 time=0.026041666666666664
        Midi msg: note_on channel=0 note=56 velocity=3 time=0.010416666666666666
        Midi msg: note_off channel=0 note=56 velocity=0 time=0.07552083333333333
        Midi msg: note_off channel=0 note=59 velocity=0 time=0.08854166666666666
        Midi msg: note_on channel=0 note=70 velocity=56 time=0.057291666666666664
        Midi msg: note_off channel=0 note=68 velocity=0 time=0.018229166666666664
        Midi msg: note_off channel=0 note=70 velocity=0 time=0.046875
        Midi msg: note_on channel=0 note=68 velocity=42 time=0.057291666666666664
        Midi msg: note_off channel=0 note=68 velocity=0 time=0.05989583333333333
        Midi msg: note_on channel=0 note=70 velocity=55 time=0.020833333333333332
        Midi msg: note_on channel=0 note=63 velocity=48 time=0.04427083333333333
        Midi msg: note_on channel=0 note=59 velocity=13 time=0.013020833333333332
        Midi msg: note_on channel=0 note=68 velocity=54 time=0.005208333333333333
        Midi msg: note_on channel=0 note=56 velocity=18 time=0
        Midi msg: note_off channel=0 note=70 velocity=0 time=0.0703125
        Midi msg: note_off channel=0 note=59 velocity=0 time=0.018229166666666664
        Midi msg: note_off channel=0 note=56 velocity=0 time=0.109375
        Midi msg: note_on channel=0 note=67 velocity=84 time=0.041666666666666664
        Midi msg: note_off channel=0 note=68 velocity=0 time=0.0026041666666666665
        Midi msg: note_off channel=0 note=63 velocity=0 time=0.0078125
        Midi msg: note_off channel=0 note=51 velocity=0 time=0.0859375
        Midi msg: note_on channel=0 note=68 velocity=83 time=0.11979166666666666
        Midi msg: note_off channel=0 note=67 velocity=0 time=0.013020833333333332
        Midi msg: note_on channel=0 note=51 velocity=29 time=0.005208333333333333
        Midi msg: note_on channel=0 note=56 velocity=43 time=0
        Midi msg: note_on channel=0 note=59 velocity=46 time=0.010416666666666666
        Midi msg: note_off channel=0 note=56 velocity=0 time=0.17708333333333331
        Midi msg: note_off channel=0 note=68 velocity=0 time=0.013020833333333332
        Midi msg: note_off channel=0 note=59 velocity=0 time=0.0078125
        Midi msg: note_on channel=0 note=71 velocity=94 time=0.0078125
        Midi msg: note_off channel=0 note=71 velocity=0 time=0.057291666666666664
        Midi msg: note_on channel=0 note=75 velocity=92 time=0.13020833333333331
        Midi msg: note_on channel=0 note=63 velocity=79 time=0.015625
        Midi msg: note_on channel=0 note=56 velocity=48 time=0.0234375
        Midi msg: note_on channel=0 note=59 velocity=40 time=0.005208333333333333
        Midi msg: note_off channel=0 note=59 velocity=0 time=0.125
        Midi msg: note_off channel=0 note=75 velocity=0 time=0
        Midi msg: note_on channel=0 note=80 velocity=94 time=0.028645833333333332
        Midi msg: note_off channel=0 note=56 velocity=0 time=0.07291666666666666
        Midi msg: note_off channel=0 note=63 velocity=0 time=0.078125
        Midi msg: note_off channel=0 note=51 velocity=0 time=0.005208333333333333
        Midi msg: note_off channel=0 note=80 velocity=0 time=0.05989583333333333
        Midi msg: note_on channel=0 note=87 velocity=95 time=0.04427083333333333
        Midi msg: note_on channel=0 note=51 velocity=63 time=0.005208333333333333
        Midi msg: note_on channel=0 note=56 velocity=76 time=0.0026041666666666665
        Midi msg: note_on channel=0 note=59 velocity=89 time=0
        Midi msg: note_off channel=0 note=87 velocity=0 time=0.08854166666666666
        Midi msg: note_off channel=0 note=59 velocity=0 time=0.1015625
        Midi msg: note_off channel=0 note=56 velocity=0 time=0.057291666666666664
        Midi msg: note_off channel=0 note=51 velocity=0 time=0.046875
        Midi msg: note_on channel=0 note=89 velocity=106 time=0.14322916666666666
        Midi msg: note_off channel=0 note=89 velocity=0 time=0.12760416666666666
        Midi msg: note_on channel=0 note=91 velocity=106 time=0.09895833333333333
        Midi msg: note_on channel=0 note=39 velocity=90 time=0.010416666666666666
        Midi msg: control_change channel=0 control=64 value=0 time=0.026041666666666664
        Midi msg: control_change channel=0 control=64 value=127 time=0.20572916666666666
        Midi msg: note_off channel=0 note=39 velocity=0 time=0.018229166666666664
        Midi msg: note_on channel=0 note=87 velocity=94 time=0.2630208333333333
        Midi msg: note_off channel=0 note=91 velocity=0 time=0.018229166666666664
        Midi msg: note_on channel=0 note=63 velocity=87 time=0
        Midi msg: note_on channel=0 note=55 velocity=73 time=0.0078125
        Midi msg: note_off channel=0 note=63 velocity=0 time=0.18489583333333331
        Midi msg: note_off channel=0 note=87 velocity=0 time=0.09895833333333333
        Midi msg: note_off channel=0 note=55 velocity=0 time=0.09635416666666666
        Midi msg: note_on channel=0 note=87 velocity=97 time=0.1484375
        Midi msg: note_on channel=0 note=99 velocity=103 time=0.005208333333333333
        Midi msg: note_on channel=0 note=58 velocity=57 time=0.015625
        Midi msg: note_on channel=0 note=67 velocity=72 time=0.0026041666666666665
        Midi msg: note_on channel=0 note=63 velocity=67 time=0.005208333333333333
        Midi msg: note_off channel=0 note=67 velocity=0 time=0.12239583333333333
        Midi msg: note_off channel=0 note=63 velocity=0 time=0.018229166666666664
        Midi msg: note_off channel=0 note=58 velocity=0 time=0.041666666666666664
        Midi msg: note_on channel=0 note=45 velocity=91 time=0.22916666666666666
        Midi msg: control_change channel=0 control=64 value=0 time=0.005208333333333333
        Midi msg: note_off channel=0 note=45 velocity=0 time=0.1796875
        Midi msg: control_change channel=0 control=64 value=127 time=0.028645833333333332
        Midi msg: note_off channel=0 note=87 velocity=0 time=0.15104166666666666
        Midi msg: note_off channel=0 note=99 velocity=0 time=0.026041666666666664
        Midi msg: note_on channel=0 note=98 velocity=114 time=0.08072916666666666
        Midi msg: note_on channel=0 note=63 velocity=75 time=0.0026041666666666665
        Midi msg: note_on channel=0 note=86 velocity=105 time=0.0026041666666666665
        Midi msg: note_on channel=0 note=53 velocity=75 time=0
        Midi msg: note_on channel=0 note=60 velocity=50 time=0.0078125
        Midi msg: note_off channel=0 note=60 velocity=0 time=0.09635416666666666
        Midi msg: note_off channel=0 note=53 velocity=0 time=0.033854166666666664
        Midi msg: note_off channel=0 note=63 velocity=0 time=0.12239583333333333
        Midi msg: note_off channel=0 note=98 velocity=0 time=0.026041666666666664
        Midi msg: note_off channel=0 note=86 velocity=0 time=0.026041666666666664
        Midi msg: note_on channel=0 note=84 velocity=106 time=0.11458333333333333
        Midi msg: note_on channel=0 note=96 velocity=108 time=0.005208333333333333
        Midi msg: note_on channel=0 note=65 velocity=74 time=0.015625
        Midi msg: note_on channel=0 note=63 velocity=61 time=0.0078125
        Midi msg: note_on channel=0 note=60 velocity=63 time=0.005208333333333333
        Midi msg: note_off channel=0 note=65 velocity=0 time=0.11197916666666666
        Midi msg: note_off channel=0 note=63 velocity=0 time=0.049479166666666664
        Midi msg: note_off channel=0 note=60 velocity=0 time=0.0078125
        Midi msg: note_off channel=0 note=96 velocity=0 time=0.05989583333333333
        Midi msg: note_off channel=0 note=84 velocity=0 time=0.026041666666666664
        Midi msg: note_on channel=0 note=95 velocity=108 time=0.1171875
        Midi msg: note_on channel=0 note=83 velocity=121 time=0.0026041666666666665
        Midi msg: note_on channel=0 note=46 velocity=91 time=0.005208333333333333
        Midi msg: control_change channel=0 control=64 value=0 time=0.0625
        Midi msg: note_off channel=0 note=46 velocity=0 time=0.171875
        Midi msg: control_change channel=0 control=64 value=127 time=0.005208333333333333
        Midi msg: note_off channel=0 note=83 velocity=0 time=0.07552083333333333
        Midi msg: note_off channel=0 note=95 velocity=0 time=0.005208333333333333
        Midi msg: note_on channel=0 note=94 velocity=96 time=0.109375
        Midi msg: note_on channel=0 note=82 velocity=99 time=0
        Midi msg: note_on channel=0 note=63 velocity=75 time=0.018229166666666664
        Midi msg: note_on channel=0 note=53 velocity=91 time=0.013020833333333332
        Midi msg: note_off channel=0 note=53 velocity=0 time=0.13020833333333331
        Midi msg: note_off channel=0 note=63 velocity=0 time=0.057291666666666664
        Midi msg: note_off channel=0 note=82 velocity=0 time=0.03125
        Midi msg: note_off channel=0 note=94 velocity=0 time=0.015625
        Midi msg: note_on channel=0 note=93 velocity=106 time=0.09635416666666666
        Midi msg: note_on channel=0 note=81 velocity=102 time=0.0026041666666666665
        Midi msg: note_on channel=0 note=68 velocity=82 time=0.0078125
        Midi msg: note_on channel=0 note=58 velocity=50 time=0.0026041666666666665
        Midi msg: note_on channel=0 note=63 velocity=38 time=0
        Midi msg: note_off channel=0 note=58 velocity=0 time=0.05208333333333333
        Midi msg: note_off channel=0 note=68 velocity=0 time=0
        Midi msg: note_off channel=0 note=63 velocity=0 time=0.0026041666666666665
        Midi msg: note_off channel=0 note=93 velocity=0 time=0.18229166666666666
        Midi msg: note_off channel=0 note=81 velocity=0 time=0.0078125
        Midi msg: note_on channel=0 note=92 velocity=98 time=0.09375
        Midi msg: note_on channel=0 note=80 velocity=105 time=0
        Midi msg: note_on channel=0 note=47 velocity=95 time=0.015625
        Midi msg: control_change channel=0 control=64 value=0 time=0.010416666666666666
        Midi msg: note_off channel=0 note=47 velocity=0 time=0.15625
        Midi msg: control_change channel=0 control=64 value=127 time=0.018229166666666664
        Midi msg: note_off channel=0 note=80 velocity=0 time=0.07291666666666666
        Midi msg: note_off channel=0 note=92 velocity=0 time=0.018229166666666664
        Midi msg: note_on channel=0 note=91 velocity=106 time=0.06770833333333333
        Midi msg: note_on channel=0 note=79 velocity=105 time=0.010416666666666666
        Midi msg: note_on channel=0 note=65 velocity=55 time=0.010416666666666666
        Midi msg: note_on channel=0 note=55 velocity=69 time=0.005208333333333333
        Midi msg: note_off channel=0 note=55 velocity=0 time=0.046875
        Midi msg: note_off channel=0 note=65 velocity=0 time=0.0078125
        Midi msg: note_off channel=0 note=91 velocity=0 time=0.0026041666666666665
        Midi msg: note_off channel=0 note=79 velocity=0 time=0.0625
        Midi msg: note_on channel=0 note=86 velocity=107 time=0.20052083333333331
        Midi msg: note_on channel=0 note=74 velocity=105 time=0.005208333333333333
        Midi msg: note_on channel=0 note=67 velocity=83 time=0.010416666666666666
        Midi msg: note_on channel=0 note=65 velocity=65 time=0.0026041666666666665
        Midi msg: note_on channel=0 note=62 velocity=72 time=0.005208333333333333
        Midi msg: note_off channel=0 note=67 velocity=0 time=0.04427083333333333
        Midi msg: note_off channel=0 note=65 velocity=0 time=0.010416666666666666
        Midi msg: note_off channel=0 note=62 velocity=0 time=0.013020833333333332
        Midi msg: note_off channel=0 note=74 velocity=0 time=0.15104166666666666
        Midi msg: note_off channel=0 note=86 velocity=0 time=0.03645833333333333
        Midi msg: note_on channel=0 note=87 velocity=101 time=0.13020833333333331
        Midi msg: note_on channel=0 note=48 velocity=88 time=0.005208333333333333
        Midi msg: note_on channel=0 note=75 velocity=103 time=0
        Midi msg: control_change channel=0 control=64 value=0 time=0.010416666666666666
        Midi msg: control_change channel=0 control=64 value=127 time=0.17447916666666666
        Midi msg: note_off channel=0 note=75 velocity=0 time=0.005208333333333333
        Midi msg: note_off channel=0 note=48 velocity=0 time=0
        Midi msg: note_off channel=0 note=87 velocity=0 time=0.05989583333333333
        Midi msg: note_on channel=0 note=99 velocity=106 time=0.296875
        Midi msg: note_on channel=0 note=87 velocity=100 time=0.0026041666666666665
        Midi msg: note_on channel=0 note=63 velocity=78 time=0.015625
        Midi msg: note_on channel=0 note=55 velocity=73 time=0.0026041666666666665
        Midi msg: note_off channel=0 note=55 velocity=0 time=0.16145833333333331
        Midi msg: note_off channel=0 note=63 velocity=0 time=0.041666666666666664
        Midi msg: note_on channel=0 note=67 velocity=80 time=0.20833333333333331
        Midi msg: note_on channel=0 note=60 velocity=70 time=0.010416666666666666
        Midi msg: note_on channel=0 note=63 velocity=72 time=0
        Midi msg: note_off channel=0 note=67 velocity=0 time=0.0625
        Midi msg: note_off channel=0 note=63 velocity=0 time=0.0234375
        Midi msg: note_off channel=0 note=60 velocity=0 time=0.020833333333333332
        Midi msg: note_on channel=0 note=45 velocity=98 time=0.3177083333333333
        Midi msg: control_change channel=0 control=64 value=0 time=0.0026041666666666665
        Midi msg: note_off channel=0 note=99 velocity=0 time=0.125
        Midi msg: control_change channel=0 control=64 value=127 time=0.03645833333333333
        Midi msg: note_off channel=0 note=87 velocity=0 time=0.005208333333333333
        Midi msg: note_off channel=0 note=45 velocity=0 time=0.05208333333333333
        Midi msg: note_on channel=0 note=89 velocity=107 time=0.1796875
        Midi msg: note_on channel=0 note=77 velocity=101 time=0.0026041666666666665
        Midi msg: note_on channel=0 note=63 velocity=85 time=0.0078125
        Midi msg: note_on channel=0 note=60 velocity=59 time=0.0026041666666666665
        Midi msg: note_on channel=0 note=53 velocity=73 time=0
        Midi msg: note_off channel=0 note=60 velocity=0 time=0.09635416666666666
        Midi msg: note_off channel=0 note=53 velocity=0 time=0.08072916666666666
        Midi msg: note_off channel=0 note=77 velocity=0 time=0.046875
        Midi msg: note_off channel=0 note=89 velocity=0 time=0.07291666666666666
        Midi msg: note_off channel=0 note=63 velocity=0 time=0.020833333333333332
        Midi msg: note_on channel=0 note=96 velocity=111 time=0.2864583333333333
        Midi msg: note_on channel=0 note=84 velocity=106 time=0.0026041666666666665
        Midi msg: note_on channel=0 note=65 velocity=87 time=0.0078125
        Midi msg: note_on channel=0 note=60 velocity=85 time=0.0078125
        Midi msg: note_on channel=0 note=63 velocity=79 time=0.005208333333333333
        Midi msg: note_off channel=0 note=65 velocity=0 time=0.033854166666666664
        Midi msg: note_off channel=0 note=63 velocity=0 time=0.010416666666666666
        Midi msg: note_off channel=0 note=60 velocity=0 time=0.013020833333333332
        Midi msg: note_off channel=0 note=96 velocity=0 time=0.36197916666666663
        Midi msg: note_off channel=0 note=84 velocity=0 time=0.049479166666666664
        Midi msg: note_on channel=0 note=95 velocity=106 time=0.21875
        Midi msg: note_on channel=0 note=83 velocity=114 time=0.0026041666666666665
        Midi msg: note_on channel=0 note=34 velocity=97 time=0.013020833333333332
        Midi msg: control_change channel=0 control=64 value=0 time=0.24479166666666666
        Midi msg: note_on channel=0 note=46 velocity=89 time=0.140625
        Midi msg: note_off channel=0 note=34 velocity=0 time=0.020833333333333332
        Midi msg: control_change channel=0 control=64 value=127 time=0.013020833333333332
        Midi msg: note_off channel=0 note=46 velocity=0 time=0.05989583333333333
        Midi msg: note_on channel=0 note=53 velocity=103 time=0.25260416666666663
        Midi msg: note_on channel=0 note=56 velocity=84 time=0.28125
        Midi msg: note_off channel=0 note=53 velocity=0 time=0.0390625
        Midi msg: note_off channel=0 note=56 velocity=0 time=0.265625
        Midi msg: note_on channel=0 note=62 velocity=89 time=0
        Midi msg: note_on channel=0 note=58 velocity=78 time=0.3411458333333333
        Midi msg: note_off channel=0 note=62 velocity=0 time=0.020833333333333332
        Midi msg: note_on channel=0 note=65 velocity=79 time=0.390625
        Midi msg: note_off channel=0 note=58 velocity=0 time=0.020833333333333332
        Midi msg: note_on channel=0 note=68 velocity=83 time=0.421875
        Midi msg: note_off channel=0 note=65 velocity=0 time=0.03645833333333333
        Midi msg: note_off channel=0 note=83 velocity=0 time=0.08072916666666666
        Midi msg: note_on channel=0 note=82 velocity=86 time=0.6770833333333333
        Midi msg: note_on channel=0 note=74 velocity=87 time=0.005208333333333333
        Midi msg: note_on channel=0 note=94 velocity=86 time=0.0026041666666666665
        Midi msg: note_off channel=0 note=95 velocity=0 time=0.09635416666666666
        Midi msg: note_off channel=0 note=82 velocity=0 time=1.2213541666666665
        Midi msg: note_off channel=0 note=94 velocity=0 time=0.59375
        Midi msg: note_on channel=0 note=95 velocity=73 time=0.049479166666666664
        Midi msg: note_on channel=0 note=94 velocity=61 time=0.26041666666666663
        Midi msg: note_off channel=0 note=95 velocity=0 time=0.0546875
        Midi msg: note_on channel=0 note=96 velocity=71 time=0.13541666666666666
        Midi msg: note_off channel=0 note=94 velocity=0 time=0.07291666666666666
        Midi msg: note_on channel=0 note=93 velocity=65 time=0.08072916666666666
        Midi msg: note_off channel=0 note=96 velocity=0 time=0.04427083333333333
        Midi msg: note_on channel=0 note=95 velocity=63 time=0.109375
        Midi msg: note_off channel=0 note=93 velocity=0 time=0.046875
        Midi msg: note_on channel=0 note=94 velocity=43 time=0.09635416666666666
        Midi msg: note_off channel=0 note=95 velocity=0 time=0.0078125
        Midi msg: note_on channel=0 note=96 velocity=55 time=0.11979166666666666
        Midi msg: note_off channel=0 note=94 velocity=0 time=0.013020833333333332
        Midi msg: note_on channel=0 note=93 velocity=54 time=0.07552083333333333
        Midi msg: note_off channel=0 note=96 velocity=0 time=0.03125
        Midi msg: note_off channel=0 note=93 velocity=0 time=0.078125
        Midi msg: note_on channel=0 note=95 velocity=56 time=0
        Midi msg: note_off channel=0 note=95 velocity=0 time=0.0703125
        Midi msg: note_on channel=0 note=94 velocity=55 time=0.018229166666666664
        Midi msg: note_on channel=0 note=96 velocity=68 time=0.08333333333333333
        Midi msg: note_off channel=0 note=94 velocity=0 time=0.020833333333333332
        Midi msg: note_on channel=0 note=93 velocity=61 time=0.041666666666666664
        Midi msg: note_off channel=0 note=96 velocity=0 time=0.020833333333333332
        Midi msg: note_off channel=0 note=93 velocity=0 time=0.05208333333333333
        Midi msg: note_on channel=0 note=95 velocity=72 time=0.010416666666666666
        Midi msg: note_off channel=0 note=95 velocity=0 time=0.07291666666666666
        Midi msg: note_on channel=0 note=94 velocity=66 time=0
        Midi msg: note_on channel=0 note=96 velocity=88 time=0.07552083333333333
        Midi msg: note_off channel=0 note=74 velocity=0 time=0.0078125
        Midi msg: note_off channel=0 note=94 velocity=0 time=0.020833333333333332
        Midi msg: note_on channel=0 note=93 velocity=81 time=0.04427083333333333
        Midi msg: note_off channel=0 note=96 velocity=0 time=0.0546875
        Midi msg: note_off channel=0 note=68 velocity=0 time=0.0026041666666666665
        Midi msg: note_on channel=0 note=95 velocity=90 time=0.015625
        Midi msg: note_off channel=0 note=93 velocity=0 time=0.05208333333333333
        Midi msg: note_on channel=0 note=94 velocity=72 time=0.03645833333333333
        Midi msg: note_off channel=0 note=95 velocity=0 time=0.0234375
        Midi msg: note_on channel=0 note=96 velocity=86 time=0.049479166666666664
        Midi msg: note_off channel=0 note=94 velocity=0 time=0.046875
        Midi msg: note_on channel=0 note=93 velocity=73 time=0.013020833333333332
        Midi msg: note_off channel=0 note=96 velocity=0 time=0.05989583333333333
        Midi msg: note_on channel=0 note=95 velocity=84 time=0.0026041666666666665
        Midi msg: note_off channel=0 note=93 velocity=0 time=0.057291666666666664
        Midi msg: note_on channel=0 note=94 velocity=74 time=0.015625
        Midi msg: note_off channel=0 note=95 velocity=0 time=0.028645833333333332
        Midi msg: note_on channel=0 note=96 velocity=85 time=0.049479166666666664
        Midi msg: note_off channel=0 note=94 velocity=0 time=0.041666666666666664
        Midi msg: note_on channel=0 note=93 velocity=81 time=0
        Midi msg: note_off channel=0 note=96 velocity=0 time=0.0625
        Midi msg: note_on channel=0 note=95 velocity=88 time=0.013020833333333332
        Midi msg: note_off channel=0 note=93 velocity=0 time=0.05208333333333333
        Midi msg: note_on channel=0 note=94 velocity=68 time=0.018229166666666664
        Midi msg: note_off channel=0 note=95 velocity=0 time=0.041666666666666664
        Midi msg: note_on channel=0 note=96 velocity=85 time=0.0234375
        Midi msg: note_off channel=0 note=94 velocity=0 time=0.046875
        Midi msg: note_on channel=0 note=93 velocity=73 time=0.018229166666666664
        Midi msg: note_off channel=0 note=96 velocity=0 time=0.046875
        Midi msg: note_on channel=0 note=95 velocity=84 time=0.015625
        Midi msg: note_off channel=0 note=93 velocity=0 time=0.026041666666666664
        Midi msg: note_on channel=0 note=94 velocity=66 time=0.046875
        Midi msg: note_off channel=0 note=95 velocity=0 time=0.046875
        Midi msg: note_on channel=0 note=96 velocity=76 time=0.020833333333333332
        Midi msg: note_off channel=0 note=94 velocity=0 time=0.041666666666666664
        Midi msg: note_on channel=0 note=93 velocity=65 time=0.010416666666666666
        Midi msg: note_off channel=0 note=96 velocity=0 time=0.0546875
        Midi msg: note_on channel=0 note=95 velocity=74 time=0.018229166666666664
        Midi msg: note_off channel=0 note=93 velocity=0 time=0.010416666666666666
        Midi msg: note_on channel=0 note=94 velocity=53 time=0.0625
        Midi msg: note_off channel=0 note=95 velocity=0 time=0.013020833333333332
        Midi msg: note_on channel=0 note=96 velocity=65 time=0.05989583333333333
        Midi msg: note_off channel=0 note=94 velocity=0 time=0.010416666666666666
        Midi msg: note_on channel=0 note=93 velocity=58 time=0.041666666666666664
        Midi msg: note_off channel=0 note=96 velocity=0 time=0.020833333333333332
        Midi msg: note_off channel=0 note=93 velocity=0 time=0.04427083333333333
        Midi msg: note_on channel=0 note=95 velocity=55 time=0.0078125
        Midi msg: note_off channel=0 note=95 velocity=0 time=0.0703125
        Midi msg: note_on channel=0 note=94 velocity=47 time=0.010416666666666666
        Midi msg: note_off channel=0 note=94 velocity=0 time=0.07552083333333333
        Midi msg: note_on channel=0 note=96 velocity=61 time=0
        Midi msg: note_on channel=0 note=93 velocity=39 time=0.08333333333333333
        Midi msg: note_off channel=0 note=96 velocity=0 time=0.005208333333333333
        Midi msg: note_on channel=0 note=95 velocity=48 time=0.06510416666666666
        Midi msg: note_off channel=0 note=93 velocity=0 time=0.005208333333333333
        Midi msg: note_off channel=0 note=95 velocity=0 time=0.08854166666666666
        Midi msg: note_on channel=0 note=94 velocity=39 time=0.005208333333333333
        Midi msg: note_off channel=0 note=94 velocity=0 time=0.10677083333333333
        Midi msg: note_on channel=0 note=96 velocity=45 time=0
        Midi msg: note_off channel=0 note=96 velocity=0 time=0.078125
        Midi msg: note_on channel=0 note=93 velocity=47 time=0.010416666666666666
        Midi msg: note_off channel=0 note=93 velocity=0 time=0.09895833333333333
        Midi msg: note_on channel=0 note=95 velocity=36 time=0.033854166666666664
        Midi msg: note_off channel=0 note=95 velocity=0 time=0.09375
        Midi msg: note_on channel=0 note=94 velocity=52 time=0.005208333333333333
        Midi msg: note_on channel=0 note=98 velocity=63 time=0.20052083333333331
        Midi msg: note_off channel=0 note=94 velocity=0 time=0.046875
        Midi msg: note_on channel=0 note=96 velocity=59 time=0.18489583333333331
        Midi msg: note_off channel=0 note=98 velocity=0 time=0.033854166666666664
        Midi msg: note_on channel=0 note=94 velocity=44 time=0.1796875
        Midi msg: note_off channel=0 note=96 velocity=0 time=0.028645833333333332
        Midi msg: note_on channel=0 note=93 velocity=52 time=0.16145833333333331
        Midi msg: note_off channel=0 note=94 velocity=0 time=0.010416666666666666
        Midi msg: note_on channel=0 note=92 velocity=51 time=0.19010416666666666
        Midi msg: note_off channel=0 note=93 velocity=0 time=0.03645833333333333
        Midi msg: note_on channel=0 note=91 velocity=57 time=0.17708333333333331
        Midi msg: note_off channel=0 note=92 velocity=0 time=0.04427083333333333
        Midi msg: note_off channel=0 note=91 velocity=0 time=0.18229166666666666
        Midi msg: note_on channel=0 note=89 velocity=47 time=0.015625
        Midi msg: note_on channel=0 note=86 velocity=48 time=0.265625
        Midi msg: note_off channel=0 note=89 velocity=0 time=0.05208333333333333
        Midi msg: note_on channel=0 note=87 velocity=39 time=0.22135416666666666
        Midi msg: note_off channel=0 note=86 velocity=0 time=0.057291666666666664
        Midi msg: note_on channel=0 note=84 velocity=53 time=0.22135416666666666
        Midi msg: note_off channel=0 note=87 velocity=0 time=0.005208333333333333
        Midi msg: note_on channel=0 note=82 velocity=42 time=0.3177083333333333
        Midi msg: note_off channel=0 note=84 velocity=0 time=0.046875
        Midi msg: control_change channel=0 control=64 value=0 time=0.11979166666666666
        Midi msg: control_change channel=0 control=64 value=127 time=0.14583333333333331
        Midi msg: note_on channel=0 note=80 velocity=44 time=0.03125
        Midi msg: note_off channel=0 note=82 velocity=0 time=0.1171875
        Midi msg: note_on channel=0 note=72 velocity=36 time=0.328125
        Midi msg: note_off channel=0 note=80 velocity=0 time=0.13802083333333331
        Midi msg: note_on channel=0 note=74 velocity=44 time=0.4765625
        Midi msg: note_off channel=0 note=72 velocity=0 time=0.11458333333333333
        Midi msg: note_on channel=0 note=75 velocity=47 time=0.5807291666666666
        Midi msg: note_on channel=0 note=39 velocity=24 time=0.026041666666666664
        Midi msg: note_on channel=0 note=67 velocity=24 time=0.0026041666666666665
        Midi msg: note_off channel=0 note=74 velocity=0 time=0.07291666666666666
        Midi msg: control_change channel=0 control=64 value=0 time=0.049479166666666664
        Midi msg: control_change channel=0 control=64 value=127 time=0.2708333333333333
        Midi msg: note_off channel=0 note=39 velocity=0 time=0.14583333333333331
        Midi msg: note_on channel=0 note=70 velocity=25 time=0.3125
        Midi msg: note_on channel=0 note=58 velocity=18 time=0.018229166666666664
        Midi msg: note_off channel=0 note=67 velocity=0 time=0.13802083333333331
        Midi msg: note_off channel=0 note=58 velocity=0 time=0.0234375
        Midi msg: note_off channel=0 note=75 velocity=0 time=0.010416666666666666
        Midi msg: note_off channel=0 note=70 velocity=0 time=0.3828125
        Midi msg: note_on channel=0 note=79 velocity=46 time=0.015625
        Midi msg: note_on channel=0 note=46 velocity=23 time=0.026041666666666664
        Midi msg: note_off channel=0 note=46 velocity=0 time=0.13541666666666666
        Midi msg: note_off channel=0 note=79 velocity=0 time=0.15625
        Midi msg: note_on channel=0 note=75 velocity=34 time=0.16666666666666666
        Midi msg: note_on channel=0 note=67 velocity=13 time=0.041666666666666664
        Midi msg: note_on channel=0 note=51 velocity=15 time=0.020833333333333332
        Midi msg: note_off channel=0 note=51 velocity=0 time=0.22135416666666666
        Midi msg: note_off channel=0 note=67 velocity=0 time=0.11197916666666666
        Midi msg: note_off channel=0 note=75 velocity=0 time=0.0078125
        Midi msg: note_on channel=0 note=70 velocity=22 time=0.07552083333333333
        Midi msg: note_on channel=0 note=58 velocity=15 time=0.03125
        Midi msg: note_off channel=0 note=58 velocity=0 time=0.25
        Midi msg: note_off channel=0 note=70 velocity=0 time=0.15625
        Midi msg: note_on channel=0 note=46 velocity=20 time=0.07291666666666666
        Midi msg: note_on channel=0 note=79 velocity=36 time=0
        Midi msg: note_off channel=0 note=79 velocity=0 time=0.2890625
        Midi msg: note_off channel=0 note=46 velocity=0 time=0.078125
        Midi msg: note_on channel=0 note=39 velocity=26 time=0.1015625
        Midi msg: note_on channel=0 note=75 velocity=23 time=0.005208333333333333
        Midi msg: note_on channel=0 note=67 velocity=19 time=0.010416666666666666
        Midi msg: note_off channel=0 note=39 velocity=0 time=0.1953125
        Midi msg: note_off channel=0 note=75 velocity=0 time=0.2265625
        Midi msg: note_off channel=0 note=67 velocity=0 time=0.010416666666666666
        Midi msg: note_on channel=0 note=58 velocity=19 time=0.018229166666666664
        Midi msg: note_on channel=0 note=70 velocity=25 time=0.0026041666666666665
        Midi msg: note_off channel=0 note=58 velocity=0 time=0.36197916666666663
        Midi msg: note_off channel=0 note=70 velocity=0 time=0.078125
        Midi msg: note_on channel=0 note=46 velocity=18 time=0.041666666666666664
        Midi msg: note_on channel=0 note=79 velocity=45 time=0.010416666666666666
        Midi msg: note_off channel=0 note=46 velocity=0 time=0.08854166666666666
        Midi msg: note_off channel=0 note=79 velocity=0 time=0.13802083333333331
        Midi msg: note_on channel=0 note=75 velocity=29 time=0.23958333333333331
        Midi msg: note_on channel=0 note=67 velocity=11 time=0.015625
        Midi msg: note_on channel=0 note=51 velocity=17 time=0.005208333333333333
        Midi msg: note_off channel=0 note=51 velocity=0 time=0.22916666666666666
        Midi msg: note_off channel=0 note=67 velocity=0 time=0.03125
        Midi msg: note_off channel=0 note=75 velocity=0 time=0.19270833333333331
        Midi msg: note_on channel=0 note=70 velocity=24 time=0.04427083333333333
        Midi msg: note_on channel=0 note=58 velocity=13 time=0.05208333333333333
        Midi msg: note_off channel=0 note=58 velocity=0 time=0.19791666666666666
        Midi msg: note_off channel=0 note=70 velocity=0 time=0.18229166666666666
        Midi msg: note_on channel=0 note=79 velocity=39 time=0.17447916666666666
        Midi msg: note_on channel=0 note=46 velocity=23 time=0.0026041666666666665
        Midi msg: note_off channel=0 note=79 velocity=0 time=0.30729166666666663
        Midi msg: note_off channel=0 note=46 velocity=0 time=0.1328125
        Midi msg: note_on channel=0 note=75 velocity=31 time=0.23958333333333331
        Midi msg: note_on channel=0 note=67 velocity=15 time=0.005208333333333333
        Midi msg: note_on channel=0 note=51 velocity=17 time=0.005208333333333333
        Midi msg: note_on channel=0 note=58 velocity=12 time=0
        Midi msg: note_off channel=0 note=58 velocity=0 time=0.328125
        Midi msg: note_off channel=0 note=51 velocity=0 time=0.041666666666666664
        Midi msg: note_off channel=0 note=67 velocity=0 time=0.1953125
        Midi msg: note_off channel=0 note=75 velocity=0 time=0.7864583333333333
        Midi msg: note_on channel=0 note=87 velocity=39 time=0.765625
        Midi msg: note_on channel=0 note=70 velocity=20 time=0
        Midi msg: note_on channel=0 note=63 velocity=26 time=0
        Midi msg: note_on channel=0 note=79 velocity=42 time=0.005208333333333333
        Midi msg: note_off channel=0 note=79 velocity=0 time=0.37760416666666663
        Midi msg: note_off channel=0 note=70 velocity=0 time=0.3567708333333333
        Midi msg: note_off channel=0 note=63 velocity=0 time=0.09375
        Midi msg: note_off channel=0 note=87 velocity=0 time=0.2109375
        Midi msg: note_on channel=0 note=63 velocity=34 time=1.625
        Midi msg: note_on channel=0 note=55 velocity=24 time=0.005208333333333333
        Midi msg: note_on channel=0 note=46 velocity=15 time=0
        Midi msg: note_on channel=0 note=39 velocity=17 time=0
        Midi msg: note_off channel=0 note=39 velocity=0 time=4.895833333333333
        Midi msg: note_off channel=0 note=55 velocity=0 time=0.005208333333333333
        Midi msg: note_off channel=0 note=46 velocity=0 time=0.010416666666666666
        Midi msg: note_off channel=0 note=63 velocity=0 time=0.010416666666666666
        Midi msg: control_change channel=0 control=64 value=0 time=0.19791666666666666
        Midi msg: MetaMessage('end_of_track', time=0.25)
INFO:     127.0.0.1:52588 - "POST /api/music/midi/upload HTTP/1.1" 200 OK
INFO:     127.0.0.1:52588 - "GET /api/music/model/selection HTTP/1.1" 200 OK
Loading RNN
[fine-tune] epoch 1 | loss 39.0947
[fine-tune] epoch 2 | loss 38.3480
INFO:     127.0.0.1:52588 - "PUT /api/music/model/select HTTP/1.1" 200 OK
Loading Transformer 0
[fine-tune] epoch 1 | loss 41.0885
[fine-tune] epoch 2 | loss 40.4294
INFO:     127.0.0.1:52588 - "PUT /api/music/model/select HTTP/1.1" 200 OK
Loading RNN
[fine-tune] epoch 1 | loss 38.3486
[fine-tune] epoch 2 | loss 38.2542
INFO:     127.0.0.1:52588 - "PUT /api/music/model/select HTTP/1.1" 200 OK
in convertedNotes
INFO:     127.0.0.1:56022 - "POST /api/music/generate HTTP/1.1" 200 OK
in convertedNotes
INFO:     127.0.0.1:56022 - "POST /api/music/generate HTTP/1.1" 200 OK
